<?xml version="1.0" encoding="UTF-8" standalone="no"?>
<svg
   xmlns:dc="http://purl.org/dc/elements/1.1/"
   xmlns:cc="http://creativecommons.org/ns#"
   xmlns:rdf="http://www.w3.org/1999/02/22-rdf-syntax-ns#"
   xmlns:svg="http://www.w3.org/2000/svg"
   xmlns="http://www.w3.org/2000/svg"
   xmlns:sodipodi="http://sodipodi.sourceforge.net/DTD/sodipodi-0.dtd"
   xmlns:inkscape="http://www.inkscape.org/namespaces/inkscape"
   height="17"
   width="17"
   fill="#cccccc"
   version="1.1"
   x="0px"
   y="0px"
   viewBox="0 0 17 17"
   enable-background="new 0 0 100 100"
   xml:space="preserve"
   id="svg2333"
   sodipodi:docname="consultorio_medico_off.svg"
   inkscape:version="1.0.1 (c497b03c, 2020-09-10)"><metadata
     id="metadata2339"><rdf:RDF><cc:Work
         rdf:about=""><dc:format>image/svg+xml</dc:format><dc:type
           rdf:resource="http://purl.org/dc/dcmitype/StillImage" /><dc:title></dc:title></cc:Work></rdf:RDF></metadata><defs
     id="defs2337" /><sodipodi:namedview
     pagecolor="#ffffff"
     bordercolor="#666666"
     borderopacity="1"
     objecttolerance="10"
     gridtolerance="10"
     guidetolerance="10"
     inkscape:pageopacity="0"
     inkscape:pageshadow="2"
     inkscape:window-width="1139"
     inkscape:window-height="828"
     id="namedview2335"
     showgrid="false"
     inkscape:zoom="7.35"
     inkscape:cx="49.183673"
     inkscape:cy="26.462585"
     inkscape:window-x="0"
     inkscape:window-y="23"
     inkscape:window-maximized="0"
     inkscape:current-layer="svg2333" /><g
     id="g2331"
     transform="matrix(0.19728895,0,0,0.20068027,-1.2245898,-1.5306122)"><g
       id="g2329"><path
         fill="#cccccc"
         d="M 10,90 H 50 V 10 H 10 Z M 44,82.003 H 34 v -10 H 44 Z M 44,64 H 34 V 54 H 44 Z M 16.001,26.002 h 10 v -10 h 8 v 10 h 10 v 8 H 34 v 10 h -8 v -10 H 16 v -8 z m 0,27.998 h 10 v 10 h -10 z m 0,18.003 h 10 v 10 h -10 z"
         id="path2323" /><path
         fill="#cccccc"
         d="m 56.001,90 h 10 V 70 h 14 v 20 h 10 V 46.002 h -34 z"
         id="path2325" /><path
         fill="#cccccc"
         d="M 56.001,36.002 V 40 h 34 v -3.999 h -34 z"
         id="path2327" /></g></g></svg>
