<?xml version="1.0" encoding="UTF-8" standalone="no"?>
<svg
   xmlns:i="http://ns.adobe.com/AdobeIllustrator/10.0/"
   xmlns:dc="http://purl.org/dc/elements/1.1/"
   xmlns:cc="http://creativecommons.org/ns#"
   xmlns:rdf="http://www.w3.org/1999/02/22-rdf-syntax-ns#"
   xmlns:svg="http://www.w3.org/2000/svg"
   xmlns="http://www.w3.org/2000/svg"
   xmlns:sodipodi="http://sodipodi.sourceforge.net/DTD/sodipodi-0.dtd"
   xmlns:inkscape="http://www.inkscape.org/namespaces/inkscape"
   height="100px"
   width="100px"
   fill="#cccccc"
   version="1.1"
   x="0px"
   y="0px"
   viewBox="0 0 100 100"
   style="enable-background:new 0 0 100 100;"
   xml:space="preserve"
   id="svg189"
   sodipodi:docname="education_on.svg"
   inkscape:version="1.0.1 (c497b03c, 2020-09-10)"><metadata
     id="metadata195"><rdf:RDF><cc:Work
         rdf:about=""><dc:format>image/svg+xml</dc:format><dc:type
           rdf:resource="http://purl.org/dc/dcmitype/StillImage" /><dc:title></dc:title></cc:Work></rdf:RDF></metadata><defs
     id="defs193" /><sodipodi:namedview
     pagecolor="#ffffff"
     bordercolor="#666666"
     borderopacity="1"
     objecttolerance="10"
     gridtolerance="10"
     guidetolerance="10"
     inkscape:pageopacity="0"
     inkscape:pageshadow="2"
     inkscape:window-width="1383"
     inkscape:window-height="706"
     id="namedview191"
     showgrid="false"
     inkscape:zoom="4.52"
     inkscape:cx="7.4115044"
     inkscape:cy="50"
     inkscape:window-x="50"
     inkscape:window-y="23"
     inkscape:window-maximized="0"
     inkscape:current-layer="g187" /><g
     id="g187"><g
       i:extraneous="self"
       id="g185"
       transform="matrix(1.0126266,0,0,1.3078292,-0.55249003,-14.71845)"
       style="fill:#ffffff"><g
         id="g183"
         style="fill:#ffffff"><path
           d="m 50,59.3 c -2.7,0 -5.4,-0.4 -8,-1.1 L 19.6,51.5 v 15.3 c 0,2.8 1.8,5.2 4.5,6 l 9.8,2.9 c 10.8,3.2 22.2,3.2 33,0 l 9.8,-2.9 c 2.7,-0.8 4.5,-3.2 4.5,-6 V 51.3 L 58,58.2 c -2.6,0.8 -5.3,1.1 -8,1.1 z"
           id="path179"
           style="fill:#ffffff" /><path
           d="M 95.5,34.5 56,22.8 c -3.9,-1.2 -8.1,-1.2 -12.1,0 L 4.5,34.5 c -2.7,0.8 -2.7,4.7 0,5.5 L 44,51.7 c 3.9,1.2 8.1,1.2 12.1,0 l 33.8,-10 v 8.9 c -0.7,0.4 -1.2,1.1 -1.2,1.9 v 2.4 c 0,0.9 0.5,1.7 1.3,2 l -2.1,4.9 c -0.3,0.7 0.1,1.4 0.9,1.5 l 2.2,0.2 c 0.4,0 0.9,0 1.3,0 l 2.2,-0.2 c 0.7,-0.1 1.1,-0.8 0.9,-1.5 l -2.1,-4.9 c 0.8,-0.4 1.3,-1.1 1.3,-2 v -2.4 c 0,-0.8 -0.5,-1.5 -1.2,-1.9 V 40.7 L 95.6,40 c 2.6,-0.9 2.6,-4.7 -0.1,-5.5 z"
           id="path181"
           style="fill:#ffffff" /></g></g></g></svg>
