<?xml version="1.0" encoding="UTF-8" standalone="no"?>
<svg
   xmlns:dc="http://purl.org/dc/elements/1.1/"
   xmlns:cc="http://creativecommons.org/ns#"
   xmlns:rdf="http://www.w3.org/1999/02/22-rdf-syntax-ns#"
   xmlns:svg="http://www.w3.org/2000/svg"
   xmlns="http://www.w3.org/2000/svg"
   xmlns:sodipodi="http://sodipodi.sourceforge.net/DTD/sodipodi-0.dtd"
   xmlns:inkscape="http://www.inkscape.org/namespaces/inkscape"
   height="100px"
   width="100px"
   fill="#cccccc"
   version="1.1"
   x="0px"
   y="0px"
   viewBox="0 0 32 32"
   enable-background="new 0 0 32 32"
   xml:space="preserve"
   id="svg1270"
   sodipodi:docname="energy_off.svg"
   inkscape:version="1.0.1 (c497b03c, 2020-09-10)"><metadata
     id="metadata1276"><rdf:RDF><cc:Work
         rdf:about=""><dc:format>image/svg+xml</dc:format><dc:type
           rdf:resource="http://purl.org/dc/dcmitype/StillImage" /></cc:Work></rdf:RDF></metadata><defs
     id="defs1274" /><sodipodi:namedview
     pagecolor="#ffffff"
     bordercolor="#666666"
     borderopacity="1"
     objecttolerance="10"
     gridtolerance="10"
     guidetolerance="10"
     inkscape:pageopacity="0"
     inkscape:pageshadow="2"
     inkscape:window-width="943"
     inkscape:window-height="766"
     id="namedview1272"
     showgrid="false"
     inkscape:zoom="4.22"
     inkscape:cx="50"
     inkscape:cy="50"
     inkscape:window-x="0"
     inkscape:window-y="23"
     inkscape:window-maximized="0"
     inkscape:current-layer="svg1270" /><g
     id="g1268"
     transform="matrix(1.2092892,0,0,1.2128737,-3.3107109,-3.3006462)"><g
       id="g1266"><path
         d="m 15.5,9.25 c -3.86,0 -7,3.141 -7,7 0,2.785 1.639,5.188 4,6.314 v 2.686 c 0,1.654 1.346,3 3,3 1.654,0 3,-1.346 3,-3 v -2.686 c 2.361,-1.126 4,-3.529 4,-6.314 0,-3.859 -3.14,-7 -7,-7 z m 1,16 c 0,0.552 -0.449,1 -1,1 -0.551,0 -1,-0.448 -1,-1 v -2.08 c 0.328,0.047 0.66,0.08 1,0.08 0.34,0 0.672,-0.033 1,-0.08 z m -1,-4 c -2.757,0 -5,-2.243 -5,-5 0,-2.757 2.243,-5 5,-5 2.757,0 5,2.243 5,5 0,2.757 -2.243,5 -5,5 z"
         id="path1246" /><rect
         x="3.5"
         y="15.25"
         width="3"
         height="2"
         id="rect1248" /><rect
         x="25.5"
         y="15.25"
         width="3"
         height="2"
         id="rect1250" /><rect
         x="14.5"
         y="3.75"
         width="2"
         height="3"
         id="rect1252" /><rect
         x="4.973"
         y="20.25"
         transform="matrix(-0.4999,-0.8661,0.8661,-0.4999,-9.8771,37.7968)"
         width="2"
         height="3"
         id="rect1254" /><rect
         x="23.527"
         y="9.75"
         transform="matrix(-0.866,0.5001,-0.5001,-0.866,52.0746,7.5447)"
         width="3"
         height="2"
         id="rect1256" /><rect
         x="8.0670004"
         y="5.974"
         transform="matrix(0.4999,0.8661,-0.8661,0.4999,10.8245,-4.7984)"
         width="3"
         height="2"
         id="rect1258" /><rect
         x="20"
         y="5.224"
         transform="matrix(-0.8661,-0.4999,0.4999,-0.8661,35.826,23.046)"
         width="2"
         height="3"
         id="rect1260" /><rect
         x="4.724"
         y="9.684"
         transform="matrix(-0.4999,0.8661,-0.8661,-0.4999,18.2722,11.8166)"
         width="2"
         height="3"
         id="rect1262" /><rect
         x="23.278"
         y="21.183001"
         transform="matrix(-0.866,-0.5001,0.5001,-0.866,35.1411,53.7845)"
         width="3"
         height="2"
         id="rect1264" /></g></g></svg>
