<?xml version="1.0" encoding="UTF-8"?>
<svg width="12px" height="17px" viewBox="0 0 12 17" version="1.1" xmlns="http://www.w3.org/2000/svg" xmlns:xlink="http://www.w3.org/1999/xlink">
    <!-- Generator: Sketch 55 (78076) - https://sketchapp.com -->
    <title>generic_on</title>
    <desc>Created with Sketch.</desc>
    <g id="Page-1" stroke="none" stroke-width="1" fill="none" fill-rule="evenodd">
        <g id="Artboard" transform="translate(-747.000000, -326.000000)" fill="#FFFFFF" fill-rule="nonzero">
            <g id="generic_on" transform="translate(747.000000, 326.000000)">
                <path d="M7.15018585,15.1042223 C7.15018585,15.1149791 7.15018585,15.125736 7.15018585,15.1311144 C7.15018585,15.9378788 6.41694377,16.5940471 5.51541662,16.5940471 L5.44329444,16.5940471 C4.54176729,16.5940471 3.80852521,15.9378788 3.80852521,15.1311144 L3.80852521,15.1042223 C3.80852521,14.2974579 4.54176729,13.6412896 5.44329444,13.6412896 L5.51541662,13.6412896 C6.41694377,13.6412896 7.15018585,14.2974579 7.15018585,15.1042223 Z M1.60278879,5.14715657 C1.59076843,5.14715657 1.57874806,5.14715657 1.57273788,5.14715657 C0.460854399,5.14715657 -0.296428406,4.14676877 0.112263901,3.22167898 C0.142314806,3.1517594 0.172365711,3.08721826 0.208426797,3.01729868 C0.532976571,2.37726563 0.94767906,1.83404429 1.45854444,1.39301312 C1.97542001,0.946603507 2.57643811,0.597005621 3.26159874,0.360354744 C3.95276956,0.118325438 4.698032,1.687539e-14 5.50339625,1.687539e-14 C6.36285214,1.687539e-14 7.14417567,0.112947009 7.85337702,0.338841028 C8.56257838,0.553978189 9.16359648,0.860548643 9.66845168,1.25317396 C10.1793171,1.64579928 10.575989,2.1137226 10.8524573,2.66232236 C11.140946,3.20554369 11.2851904,3.80254931 11.2851904,4.44258237 C11.2851904,4.87285669 11.2250886,5.28161729 11.0988748,5.66886418 C10.972661,6.04535421 10.7983657,6.40570896 10.575989,6.74992841 C10.3536123,7.08876944 10.0831542,7.40609675 9.77062476,7.71266721 C9.45809535,8.01923766 9.10950485,8.30967283 8.73687363,8.58935114 C8.31616096,8.90130002 7.97358064,9.18097833 7.71514286,9.41762921 C7.46271526,9.65965851 7.29443019,9.86403882 7.20427748,10.041527 C7.09609422,10.2459073 7.02397205,10.5901267 6.98190078,11.0795638 C6.92179897,11.7733811 6.27269942,12.311224 5.49137589,12.311224 C5.47935553,12.311224 5.47334535,12.311224 5.46132499,12.311224 C4.58984874,12.311224 3.89867793,11.6442988 3.9708001,10.8644266 C4.04893245,10.0092564 4.20519716,9.36384492 4.43358404,8.9335706 C4.77616435,8.30967283 5.40723336,7.64812606 6.33881141,6.94893029 C6.74149354,6.65311669 7.05402295,6.38957367 7.27639965,6.16905808 C7.49877634,5.93778563 7.67307159,5.73340533 7.78726503,5.55591717 C7.90145847,5.37305059 7.97358064,5.20094086 8.00363155,5.05034485 C8.02767227,4.88899198 8.04570282,4.7276391 8.04570282,4.55552938 C8.04570282,4.24358049 7.98560101,3.95314533 7.8593872,3.6896023 C7.74519377,3.42605928 7.57089852,3.19478684 7.34852182,3.00654182 C7.12614512,2.81291838 6.86169716,2.66770079 6.55517793,2.56013221 C6.2486587,2.4471852 5.91208856,2.39340091 5.53344716,2.39340091 C4.35545168,2.39340091 3.54407725,2.9850281 3.09932386,4.17366092 C2.87694716,4.74915282 2.28193924,5.14715657 1.60278879,5.14715657 Z" id="Shape"></path>
            </g>
        </g>
    </g>
</svg>