<?xml version="1.0" encoding="UTF-8"?>
<svg width="16px" height="12px" viewBox="0 0 16 12" version="1.1" xmlns="http://www.w3.org/2000/svg" xmlns:xlink="http://www.w3.org/1999/xlink">
    <!-- Generator: Sketch 52 (66869) - http://www.bohemiancoding.com/sketch -->
    <title>Group Activites</title>
    <desc>Created with Sketch.</desc>
    <g id="Page-1" stroke="none" stroke-width="1" fill="none" fill-rule="evenodd">
        <g id="Desktop" transform="translate(-706.000000, -481.000000)" fill="#FFFFFF">
            <g id="Group-Activites" transform="translate(706.000000, 481.000000)">
                <path d="M4,5.66174118 C5.56329412,5.66174118 6.83105882,4.39397647 6.83105882,2.83068235 C6.83105882,1.26738824 5.56329412,-0.000376470588 4,-0.000376470588 C2.43670588,-0.000376470588 1.16894118,1.26738824 1.16894118,2.83068235 C1.16894118,4.39397647 2.43670588,5.66174118 4,5.66174118" id="Fill-1"></path>
                <path d="M13.0735059,6.33863529 L10.8645647,6.33863529 C10.0033882,6.33863529 9.2288,6.71134118 8.69232941,7.30428235 C8.95209412,7.65345882 9.04715294,7.94145882 9.14127059,8.55416471 C9.26456471,9.35416471 9.14127059,10.7696941 9.14127059,10.9532235 C9.14127059,11.1386353 9.01797647,11.4464 9.01797647,11.4464 L15.3784471,11.4464 C15.7210353,11.4464 15.9996235,11.1678118 15.9996235,10.8252235 L15.9996235,9.26475294 C15.9996235,7.64875294 14.6895059,6.33863529 13.0735059,6.33863529" id="Fill-8"></path>
                <path d="M11.9384471,5.66174118 C13.5017412,5.66174118 14.7695059,4.39397647 14.7695059,2.83068235 C14.7695059,1.26738824 13.5017412,-0.000376470588 11.9384471,-0.000376470588 C10.3751529,-0.000376470588 9.10738824,1.26738824 9.10738824,2.83068235 C9.10738824,4.39397647 10.3751529,5.66174118 11.9384471,5.66174118" id="Fill-3"></path>
                <path d="M5.13515294,6.33863529 L2.92621176,6.33863529 C1.31021176,6.33863529 9.4117647e-05,7.64875294 9.4117647e-05,9.26475294 L9.4117647e-05,10.8252235 C9.4117647e-05,11.1678118 0.278682353,11.4464 0.622211765,11.4464 L7.44009412,11.4464 C7.78268235,11.4464 8.06127059,11.1678118 8.06127059,10.8252235 L8.06127059,9.26475294 C8.06127059,7.64875294 6.75115294,6.33863529 5.13515294,6.33863529" id="Fill-5"></path>
            </g>
        </g>
    </g>
</svg>