<?xml version="1.0" encoding="UTF-8"?>
<svg width="17px" height="17px" viewBox="0 0 17 17" version="1.1" xmlns="http://www.w3.org/2000/svg" xmlns:xlink="http://www.w3.org/1999/xlink">
    <!-- Generator: Sketch 51.3 (57544) - http://www.bohemiancoding.com/sketch -->
    <title>Health</title>
    <desc>Created with Sketch.</desc>
    <defs></defs>
    <g id="3.0.0---Dashboard" stroke="none" stroke-width="1" fill="none" fill-rule="evenodd">
        <g id="Desktop---Map--UI" transform="translate(-872.000000, -148.000000)" fill="#CCCCCC">
            <g id="Map-Nav" transform="translate(24.000000, 120.000000)">
                <g id="Service-Buttons" transform="translate(788.000000, 16.000000)">
                    <g id="Health-Button" transform="translate(48.000000, 0.000000)">
                        <path d="M28.3274403,17.4610898 L23.5375672,17.4610898 L23.5375672,12.6712167 C23.5375672,12.3007152 23.236852,12 22.8663506,12 L18.1323064,12 C17.761805,12 17.4610898,12.3007152 17.4610898,12.6712167 L17.4610898,17.4610898 L12.6712167,17.4610898 C12.3007152,17.4610898 12,17.761805 12,18.1323064 L12,22.8663506 C12,23.2381209 12.3007152,23.5388361 12.6712167,23.5388361 L17.4610898,23.5388361 L17.4610898,28.3274403 C17.4610898,28.6992106 17.761805,28.9999258 18.1323064,28.9999258 L22.8663506,28.9999258 C23.236852,28.9999258 23.5375672,28.6992106 23.5375672,28.3274403 L23.5375672,23.5388361 L28.3274403,23.5388361 C28.6979418,23.5388361 28.998657,23.2381209 28.998657,22.8663506 L28.998657,18.1323064 C28.998657,17.761805 28.6979418,17.4610898 28.3274403,17.4610898" id="Health"></path>
                    </g>
                </g>
            </g>
        </g>
    </g>
</svg>