<?xml version="1.0" encoding="UTF-8"?>
<svg width="17px" height="17px" viewBox="0 0 17 17" version="1.1" xmlns="http://www.w3.org/2000/svg" xmlns:xlink="http://www.w3.org/1999/xlink">
    <!-- Generator: Sketch 51.3 (57544) - http://www.bohemiancoding.com/sketch -->
    <title>Health</title>
    <desc>Created with Sketch.</desc>
    <defs></defs>
    <g id="Page-1" stroke="none" stroke-width="1" fill="none" fill-rule="evenodd">
        <g id="health" fill="#FFFFFF" fill-rule="nonzero">
            <path d="M16.3274403,5.4610898 L11.5375672,5.4610898 L11.5375672,0.6712167 C11.5375672,0.3007152 11.236852,0 10.8663506,0 L6.1323064,0 C5.761805,0 5.4610898,0.3007152 5.4610898,0.6712167 L5.4610898,5.4610898 L0.6712167,5.4610898 C0.3007152,5.4610898 0,5.761805 0,6.1323064 L0,10.8663506 C0,11.2381209 0.3007152,11.5388361 0.6712167,11.5388361 L5.4610898,11.5388361 L5.4610898,16.3274403 C5.4610898,16.6992106 5.761805,16.9999258 6.1323064,16.9999258 L10.8663506,16.9999258 C11.236852,16.9999258 11.5375672,16.6992106 11.5375672,16.3274403 L11.5375672,11.5388361 L16.3274403,11.5388361 C16.6979418,11.5388361 16.998657,11.2381209 16.998657,10.8663506 L16.998657,6.1323064 C16.998657,5.761805 16.6979418,5.4610898 16.3274403,5.4610898" id="Health"></path>
        </g>
    </g>
</svg>