<?xml version="1.0" encoding="UTF-8" standalone="no"?>
<svg
   xmlns:dc="http://purl.org/dc/elements/1.1/"
   xmlns:cc="http://creativecommons.org/ns#"
   xmlns:rdf="http://www.w3.org/1999/02/22-rdf-syntax-ns#"
   xmlns:svg="http://www.w3.org/2000/svg"
   xmlns="http://www.w3.org/2000/svg"
   xmlns:sodipodi="http://sodipodi.sourceforge.net/DTD/sodipodi-0.dtd"
   xmlns:inkscape="http://www.inkscape.org/namespaces/inkscape"
   height="17"
   width="17"
   fill="#cccccc"
   data-name="Layer 1"
   viewBox="0 0 17 17"
   x="0px"
   y="0px"
   version="1.1"
   id="svg135"
   sodipodi:docname="laboratory_off.svg"
   inkscape:version="1.0.1 (c497b03c, 2020-09-10)">
  <metadata
     id="metadata141">
    <rdf:RDF>
      <cc:Work
         rdf:about="">
        <dc:format>image/svg+xml</dc:format>
        <dc:type
           rdf:resource="http://purl.org/dc/dcmitype/StillImage" />
        <dc:title>09</dc:title>
      </cc:Work>
    </rdf:RDF>
  </metadata>
  <defs
     id="defs139" />
  <sodipodi:namedview
     pagecolor="#ffffff"
     bordercolor="#666666"
     borderopacity="1"
     objecttolerance="10"
     gridtolerance="10"
     guidetolerance="10"
     inkscape:pageopacity="0"
     inkscape:pageshadow="2"
     inkscape:window-width="1265"
     inkscape:window-height="891"
     id="namedview137"
     showgrid="false"
     inkscape:zoom="7.35"
     inkscape:cx="21.496599"
     inkscape:cy="31.496599"
     inkscape:window-x="0"
     inkscape:window-y="23"
     inkscape:window-maximized="0"
     inkscape:current-layer="svg135" />
  <title
     id="title131">09</title>
  <path
     d="M 11.577924,6.181104 V 1.6805768 h 0.963794 a 0.63546813,0.54862177 0 0 0 0,-1.0972435 H 5.0093029 a 0.6354681,0.54862177 0 0 0 0,1.0972435 H 5.9730957 V 6.181104 a 6.1428579,5.3033436 0 1 0 5.6048283,0 z M 3.9374801,10.367088 A 4.8719217,4.2061 0 0 1 6.8691059,7.0314674 0.63546807,0.54862173 0 0 0 7.1423568,6.8357923 v 0 a 0.63546807,0.54862173 0 0 0 0.048718,-0.078636 v -0.016461 a 0.63546807,0.54862173 0 0 0 0.031775,-0.08778 V 6.638287 A 0.63546807,0.54862173 0 0 0 7.2355568,6.5230766 V 5.4459492 h 1.2476357 a 0.63546807,0.54862173 0 0 0 0,-1.0972434 H 7.2440305 V 3.6172109 h 1.2476356 a 0.63546807,0.54862173 0 0 0 0,-1.0972434 H 7.244032 V 1.6805768 h 3.062955 v 4.8479877 a 0.63546807,0.54862173 0 0 0 0.400346,0.5083894 4.8719217,4.2061 0 0 1 2.906207,3.3283051 z"
     id="path133"
     style="stroke-width:0.196817" />
</svg>
