<?xml version="1.0" encoding="UTF-8"?>
<svg width="21px" height="14px" viewBox="0 0 21 14" version="1.1" xmlns="http://www.w3.org/2000/svg" xmlns:xlink="http://www.w3.org/1999/xlink">
    <!-- Generator: Sketch 51.3 (57544) - http://www.bohemiancoding.com/sketch -->
    <title>Livelihood</title>
    <desc>Created with Sketch.</desc>
    <defs></defs>
    <g id="3.0.0---Dashboard" stroke="none" stroke-width="1" fill="none" fill-rule="evenodd">
        <g id="Desktop---Map--UI" transform="translate(-1109.000000, -150.000000)" fill="#CCCCCC">
            <path d="M1123.88967,150.710735 C1125.08249,150.696961 1125.70232,150.994479 1126.12656,152.129455 C1126.7822,153.877373 1126.36623,156.249251 1126.12105,154.987555 C1125.79323,153.294733 1125.44062,152.696943 1124.9971,151.928355 C1124.42272,150.933874 1123.98195,150.645998 1122.8456,150.202476 C1121.65415,149.738293 1119.45445,150.152889 1118.82773,150.636356 C1120.21753,150.338838 1121.99437,150.381537 1122.99298,152.338819 C1124.09215,154.491692 1123.34009,157.942073 1122.91998,156.238232 C1122.50676,154.553675 1122.12798,153.561948 1121.33046,152.410444 C1120.46684,151.165277 1119.20376,150.645998 1118.01369,150.455917 C1117.34841,150.34848 1114.92694,150.41735 1114.26441,151.511003 C1116.1363,150.986215 1117.55777,151.887033 1118.15694,152.517881 C1119.97786,154.428332 1120.13626,159.232695 1119.21754,157.545382 C1117.70653,154.769926 1117.33601,153.30713 1114.91592,152.56609 C1113.12117,152.015131 1111.76306,152.30163 1110.53855,153.297488 C1109.65426,154.01649 1109,155.544024 1109,157.488909 C1109,161.873166 1112.99721,165.107296 1120.87317,163.392435 C1128.23674,161.787767 1129.96261,159.590818 1129.9998,155.888373 C1130.02735,153.276827 1127.13895,149.508267 1123.88967,150.710735" id="Livelihood"></path>
        </g>
    </g>
</svg>