<?xml version="1.0" encoding="UTF-8"?>
<svg width="21px" height="14px" viewBox="0 0 21 14" version="1.1" xmlns="http://www.w3.org/2000/svg" xmlns:xlink="http://www.w3.org/1999/xlink">
    <!-- Generator: Sketch 51.3 (57544) - http://www.bohemiancoding.com/sketch -->
    <title>Livelihood</title>
    <desc>Created with Sketch.</desc>
    <defs></defs>
    <g id="Page-1" stroke="none" stroke-width="1" fill="none" fill-rule="evenodd">
        <g id="livelihood" fill="#FFFFFF" fill-rule="nonzero">
            <path d="M14.88967,0.710735 C16.08249,0.696961 16.70232,0.994479 17.12656,2.129455 C17.7822,3.877373 17.36623,6.249251 17.12105,4.987555 C16.79323,3.294733 16.44062,2.696943 15.9971,1.928355 C15.42272,0.933874 14.98195,0.645998 13.8456,0.202476 C12.65415,-0.261707 10.45445,0.152889 9.82773,0.636356 C11.21753,0.338838 12.99437,0.381537 13.99298,2.338819 C15.09215,4.491692 14.34009,7.942073 13.91998,6.238232 C13.50676,4.553675 13.12798,3.561948 12.33046,2.410444 C11.46684,1.165277 10.20376,0.645998 9.01369,0.455917 C8.34841,0.34848 5.92694,0.41735 5.26441,1.511003 C7.1363,0.986215 8.55777,1.887033 9.15694,2.517881 C10.97786,4.428332 11.13626,9.232695 10.21754,7.545382 C8.70653,4.769926 8.33601,3.30713 5.91592,2.56609 C4.12117,2.015131 2.76306,2.30163 1.53855,3.297488 C0.65426,4.01649 0,5.544024 0,7.488909 C0,11.873166 3.99721,15.107296 11.87317,13.392435 C19.23674,11.787767 20.96261,9.590818 20.9998,5.888373 C21.02735,3.276827 18.13895,-0.491733 14.88967,0.710735" id="Livelihood"></path>
        </g>
    </g>
</svg>