<?xml version="1.0" encoding="UTF-8" standalone="no"?>
<svg
   xmlns:dc="http://purl.org/dc/elements/1.1/"
   xmlns:cc="http://creativecommons.org/ns#"
   xmlns:rdf="http://www.w3.org/1999/02/22-rdf-syntax-ns#"
   xmlns:svg="http://www.w3.org/2000/svg"
   xmlns="http://www.w3.org/2000/svg"
   xmlns:sodipodi="http://sodipodi.sourceforge.net/DTD/sodipodi-0.dtd"
   xmlns:inkscape="http://www.inkscape.org/namespaces/inkscape"
   height="100px"
   width="100px"
   fill="#cccccc"
   version="1.1"
   x="0px"
   y="0px"
   viewBox="0 0 100 100"
   enable-background="new 0 0 100 100"
   xml:space="preserve"
   id="svg1506"
   sodipodi:docname="mhpss_on.svg"
   inkscape:version="1.0.1 (c497b03c, 2020-09-10)"><metadata
     id="metadata1512"><rdf:RDF><cc:Work
         rdf:about=""><dc:format>image/svg+xml</dc:format><dc:type
           rdf:resource="http://purl.org/dc/dcmitype/StillImage" /><dc:title></dc:title></cc:Work></rdf:RDF></metadata><defs
     id="defs1510" /><sodipodi:namedview
     pagecolor="#ffffff"
     bordercolor="#666666"
     borderopacity="1"
     objecttolerance="10"
     gridtolerance="10"
     guidetolerance="10"
     inkscape:pageopacity="0"
     inkscape:pageshadow="2"
     inkscape:window-width="1011"
     inkscape:window-height="802"
     id="namedview1508"
     showgrid="false"
     inkscape:zoom="3.94"
     inkscape:cx="50"
     inkscape:cy="50"
     inkscape:window-x="0"
     inkscape:window-y="23"
     inkscape:window-maximized="0"
     inkscape:current-layer="svg1506" /><g
     id="g1504"
     transform="matrix(1.0489769,0,0,1.0394011,-2.2437252,-2.1758165)"
     style="fill:#ffffff"><path
       fill="#cccccc"
       d="M 96.1,66 86.8,44.6 C 86.7,44.5 86.7,44.3 86.7,44.1 86.6,21.4 68.1,3 45.2,3 22.3,3 3.8,21.5 3.8,44.4 c 0,14 6.9,26.3 17.5,33.8 0.4,0.3 0.7,0.8 0.7,1.3 V 97 h 46.8 v -9.6 c 0,-0.9 0.7,-1.6 1.6,-1.6 h 12.1 c 0.6,0 1.2,-0.5 1.2,-1.1 0.2,-2.5 0.9,-8.8 1.5,-15.9 0.1,-0.6 0.6,-1.1 1.2,-1.1 H 95 c 0.9,0 1.5,-0.9 1.1,-1.7 z M 57.3,49.9 c -5.4,0.2 -17.4,3.6 -16.1,14.4 1.1,9.6 -12.7,11.6 -14.4,1.5 -2.1,-12.6 -13.3,-4.2 -14,-21 -0.7,-18 13.3,-33.2 31.4,-33.9 13,-0.5 24.8,6.6 30.2,17.5 4.7,9.4 5.9,20.7 -17.1,21.5 z"
       id="path1500"
       style="fill:#ffffff" /><path
       fill="#cccccc"
       d="m 57.4,27.8 h -6.9 c -0.6,0 -1,-0.5 -1,-1 v -6.9 c 0,-0.2 0,-0.4 -0.1,-0.6 -0.2,-0.6 -0.8,-1 -1.5,-1 H 41.6 C 40.7,18.3 40,19 40,19.9 v 6.9 c 0,0.6 -0.5,1 -1,1 h -7 c -0.9,0 -1.6,0.7 -1.6,1.6 v 6.3 c 0,0.9 0.7,1.6 1.6,1.6 h 6.3 c 0,0 0.1,0 0.1,0 0.8,0.1 1.5,0.7 1.5,1.6 v 6.3 c 0,0.9 0.7,1.6 1.6,1.6 h 6.3 c 0.9,0 1.6,-0.7 1.6,-1.6 v -6.9 c 0,-0.6 0.5,-1 1,-1 h 6.9 c 0.9,0 1.6,-0.7 1.6,-1.6 V 29.4 C 59,28.5 58.3,27.8 57.4,27.8 Z"
       id="path1502"
       style="fill:#ffffff" /></g></svg>
