<?xml version="1.0" encoding="UTF-8"?>
<svg width="15px" height="18px" viewBox="0 0 15 18" version="1.1" xmlns="http://www.w3.org/2000/svg" xmlns:xlink="http://www.w3.org/1999/xlink">
    <!-- Generator: Sketch 51.3 (57544) - http://www.bohemiancoding.com/sketch -->
    <title>Nutrition</title>
    <desc>Created with Sketch.</desc>
    <defs></defs>
    <g id="3.0.0---Dashboard" stroke="none" stroke-width="1" fill="none" fill-rule="evenodd">
        <g id="Desktop---Map--UI" transform="translate(-921.000000, -147.000000)" fill="#CCCCCC">
            <g id="Map-Nav" transform="translate(24.000000, 120.000000)">
                <g id="Service-Buttons" transform="translate(788.000000, 16.000000)">
                    <g id="Nutrition-Button" transform="translate(96.000000, 0.000000)">
                        <path d="M26.7559727,19.3109926 C25.6558794,16.525118 23.1567691,15.7270602 21.3457221,16.2413345 C20.9727406,16.3465876 20.6468868,16.4211973 20.350656,16.4731577 L21.4884514,13.4234844 C21.5315395,13.3102374 21.4897979,13.1836673 21.3901567,13.1143869 L20.8677133,12.7586583 C20.7088259,12.6494083 20.4893459,12.7400058 20.4543368,12.9278625 L20.3681606,13.3835149 C20.0059512,12.8772345 19.323274,12.2896827 18.0252447,11.9073078 C16.948042,11.5902164 15.961055,11.6808139 15.388791,11 C15.388791,11 15.6796358,15.5951609 18.7819796,15.0609018 C19.3744411,14.9583134 19.8080152,14.8317433 20.117711,14.7158317 L19.7730061,16.5490997 C18.951639,16.6143832 18.3537915,16.4784869 17.5620475,16.3159443 C16.346155,16.066801 14.7492019,16.361243 13.6948898,18.0865934 C12.6405776,19.8106114 12.983936,21.246849 13.4350146,22.8269768 C13.7689475,23.9980833 14.4435457,25.1185618 15.3147334,27.2063023 C16.4188661,29.8522836 18.5019069,28.6625246 19.8780334,28.8170734 C21.2676249,28.9729544 20.6576588,28.9756191 21.9408765,28.9996008 C23.2254408,29.0249148 24.5773302,27.8418174 24.9449256,26.7519822 C25.7272441,24.4310863 27.8129778,21.9876171 26.7559727,19.3109926" id="Nutrition"></path>
                    </g>
                </g>
            </g>
        </g>
    </g>
</svg>