<?xml version="1.0" encoding="UTF-8"?>
<svg width="15px" height="18px" viewBox="0 0 15 18" version="1.1" xmlns="http://www.w3.org/2000/svg" xmlns:xlink="http://www.w3.org/1999/xlink">
    <!-- Generator: Sketch 51.3 (57544) - http://www.bohemiancoding.com/sketch -->
    <title>Nutrition</title>
    <desc>Created with Sketch.</desc>
    <defs></defs>
    <g id="Page-1" stroke="none" stroke-width="1" fill="none" fill-rule="evenodd">
        <g id="nutrition" fill="#FFFFFF" fill-rule="nonzero">
            <path d="M13.7559727,8.3109926 C12.6558794,5.525118 10.1567691,4.7270602 8.3457221,5.2413345 C7.9727406,5.3465876 7.6468868,5.4211973 7.350656,5.4731577 L8.4884514,2.4234844 C8.5315395,2.3102374 8.4897979,2.1836673 8.3901567,2.1143869 L7.8677133,1.7586583 C7.7088259,1.6494083 7.4893459,1.7400058 7.4543368,1.9278625 L7.3681606,2.3835149 C7.0059512,1.8772345 6.323274,1.2896827 5.0252447,0.9073078 C3.948042,0.5902164 2.961055,0.6808139 2.388791,0 C2.388791,0 2.6796358,4.5951609 5.7819796,4.0609018 C6.3744411,3.9583134 6.8080152,3.8317433 7.117711,3.7158317 L6.7730061,5.5490997 C5.951639,5.6143832 5.3537915,5.4784869 4.5620475,5.3159443 C3.346155,5.066801 1.7492019,5.361243 0.6948898,7.0865934 C-0.3594224,8.8106114 -0.016064,10.246849 0.4350146,11.8269768 C0.7689475,12.9980833 1.4435457,14.1185618 2.3147334,16.2063023 C3.4188661,18.8522836 5.5019069,17.6625246 6.8780334,17.8170734 C8.2676249,17.9729544 7.6576588,17.9756191 8.9408765,17.9996008 C10.2254408,18.0249148 11.5773302,16.8418174 11.9449256,15.7519822 C12.7272441,13.4310863 14.8129778,10.9876171 13.7559727,8.3109926" id="Nutrition"></path>
        </g>
    </g>
</svg>