<?xml version="1.0" encoding="UTF-8" standalone="no"?>
<svg
   xmlns:dc="http://purl.org/dc/elements/1.1/"
   xmlns:cc="http://creativecommons.org/ns#"
   xmlns:rdf="http://www.w3.org/1999/02/22-rdf-syntax-ns#"
   xmlns:svg="http://www.w3.org/2000/svg"
   xmlns="http://www.w3.org/2000/svg"
   xmlns:sodipodi="http://sodipodi.sourceforge.net/DTD/sodipodi-0.dtd"
   xmlns:inkscape="http://www.inkscape.org/namespaces/inkscape"
   height="17"
   width="17"
   fill="#cccccc"
   data-name="Layer 1"
   viewBox="0 0 17 17"
   x="0px"
   y="0px"
   version="1.1"
   id="svg1023"
   sodipodi:docname="pharmacy_on.svg"
   inkscape:version="1.0.1 (c497b03c, 2020-09-10)">
  <metadata
     id="metadata1029">
    <rdf:RDF>
      <cc:Work
         rdf:about="">
        <dc:format>image/svg+xml</dc:format>
        <dc:type
           rdf:resource="http://purl.org/dc/dcmitype/StillImage" />
        <dc:title>05</dc:title>
      </cc:Work>
    </rdf:RDF>
  </metadata>
  <defs
     id="defs1027" />
  <sodipodi:namedview
     pagecolor="#ffffff"
     bordercolor="#666666"
     borderopacity="1"
     objecttolerance="10"
     gridtolerance="10"
     guidetolerance="10"
     inkscape:pageopacity="0"
     inkscape:pageshadow="2"
     inkscape:window-width="1106"
     inkscape:window-height="825"
     id="namedview1025"
     showgrid="false"
     inkscape:zoom="7.35"
     inkscape:cx="32.517007"
     inkscape:cy="37.619048"
     inkscape:window-x="0"
     inkscape:window-y="23"
     inkscape:window-maximized="0"
     inkscape:current-layer="svg1023" />
  <title
     id="title1017">05</title>
  <g
     data-name="Group"
     id="g1021"
     transform="matrix(0.16761736,0,0,0.17166511,0.25858783,-0.04039583)"
     style="fill:#fefefe;fill-opacity:1">
    <path
       data-name="Compound Path"
       d="m 72.3,29 a 6,6 0 0 0 3.2,-5.3 v -12 a 6,6 0 0 0 -6,-6 H 30.4 a 6,6 0 0 0 -6,6 v 12 a 6,6 0 0 0 3.3,5.3 15.6,15.6 0 0 1 -3.9,8.9 23.6,23.6 0 0 0 -6,15.7 v 34.7 a 6,6 0 0 0 6,6 h 52.4 a 6,6 0 0 0 6,-6 V 53.6 A 23.6,23.6 0 0 0 76.2,37.9 15.6,15.6 0 0 1 72.3,29 Z M 32.4,13.7 h 35.2 v 7.9 H 32.4 Z M 25.8,86.3 V 53.6 a 15.6,15.6 0 0 1 4,-10.4 23.6,23.6 0 0 0 5.9,-13.6 h 28.7 a 23.6,23.6 0 0 0 5.9,13.6 15.6,15.6 0 0 1 3.4,6.4 h -31 a 4,4 0 0 0 -4,4 V 80 a 4,4 0 0 0 4,4 h 31.5 v 2.3 z M 74.2,57.6 V 76 H 46.7 V 57.6 Z"
       id="path1019"
       style="fill:#fefefe;fill-opacity:1" />
  </g>
</svg>
