<?xml version="1.0" encoding="UTF-8"?>
<svg width="25px" height="20px" viewBox="0 0 25 20" version="1.1" xmlns="http://www.w3.org/2000/svg" xmlns:xlink="http://www.w3.org/1999/xlink">
    <!-- Generator: Sketch 51.3 (57544) - http://www.bohemiancoding.com/sketch -->
    <title>Shape</title>
    <desc>Created with Sketch.</desc>
    <defs></defs>
    <g id="3.0.0---Dashboard" stroke="none" stroke-width="1" fill="none" fill-rule="evenodd">
        <g id="Desktop---Landing-Page" transform="translate(-742.000000, -4761.000000)" fill="#F5F5F5" fill-rule="nonzero">
            <g id="Footer" transform="translate(2.000000, 4145.000000)">
                <g id="Social" transform="translate(618.000000, 613.000000)">
                    <g id="twitter" transform="translate(122.500000, 3.000000)">
                        <path d="M21.5329687,4.8616875 C21.5482031,5.074875 21.5482031,5.28810937 21.5482031,5.50129687 C21.5482031,12.0037969 16.599,19.4962031 7.55329687,19.4962031 C4.76648437,19.4962031 2.17767187,18.6890625 0,17.2881094 C0.395953125,17.3337656 0.776625,17.349 1.1878125,17.349 C3.48726562,17.349 5.60404687,16.572375 7.29440625,15.2475 C5.13196875,15.2017969 3.31978125,13.7855625 2.69540625,11.8363125 C3,11.8819687 3.30454688,11.9124375 3.624375,11.9124375 C4.06598437,11.9124375 4.50764062,11.8515 4.91878125,11.7449531 C2.66498437,11.2880625 0.974578125,9.30839062 0.974578125,6.91753125 L0.974578125,6.85664062 C1.629375,7.222125 2.39085938,7.45054687 3.19790625,7.48096875 C1.87303125,6.59770312 1.00504688,5.09010937 1.00504688,3.38451562 C1.00504688,2.47082812 1.24865625,1.63326562 1.67507813,0.902296875 C4.09640625,3.8870625 7.73601563,5.83626562 11.8171875,6.0495 C11.7410625,5.68401562 11.6953594,5.30334375 11.6953594,4.922625 C11.6953594,2.2119375 13.8882656,0.00384375 16.6141406,0.00384375 C18.030375,0.00384375 19.3095469,0.59775 20.2080469,1.55714062 C21.3196875,1.34395312 22.3856719,0.932765625 23.329875,0.369328125 C22.9643438,1.51148437 22.1877188,2.470875 21.1674375,3.07996875 C22.1572969,2.97342187 23.1166875,2.69925 23.9999062,2.31857812 C23.3299687,3.29315625 22.4923594,4.16114062 21.5329687,4.8616875 Z" id="Shape"></path>
                    </g>
                </g>
            </g>
        </g>
    </g>
</svg>