<?xml version="1.0" encoding="UTF-8" standalone="no"?>
<svg
   xmlns:dc="http://purl.org/dc/elements/1.1/"
   xmlns:cc="http://creativecommons.org/ns#"
   xmlns:rdf="http://www.w3.org/1999/02/22-rdf-syntax-ns#"
   xmlns:svg="http://www.w3.org/2000/svg"
   xmlns="http://www.w3.org/2000/svg"
   xmlns:sodipodi="http://sodipodi.sourceforge.net/DTD/sodipodi-0.dtd"
   xmlns:inkscape="http://www.inkscape.org/namespaces/inkscape"
   height="17"
   width="17"
   fill="#cccccc"
   data-name="Layer 2"
   viewBox="0 0 87.04 87.04"
   x="0px"
   y="0px"
   version="1.1"
   id="svg1636"
   sodipodi:docname="sala_de_espera_off.svg"
   inkscape:version="1.0.1 (c497b03c, 2020-09-10)">
  <metadata
     id="metadata1640">
    <rdf:RDF>
      <cc:Work
         rdf:about="">
        <dc:format>image/svg+xml</dc:format>
        <dc:type
           rdf:resource="http://purl.org/dc/dcmitype/StillImage" />
        <dc:title>waiting</dc:title>
      </cc:Work>
    </rdf:RDF>
  </metadata>
  <sodipodi:namedview
     pagecolor="#ffffff"
     bordercolor="#666666"
     borderopacity="1"
     objecttolerance="10"
     gridtolerance="10"
     guidetolerance="10"
     inkscape:pageopacity="0"
     inkscape:pageshadow="2"
     inkscape:window-width="1557"
     inkscape:window-height="958"
     id="namedview1638"
     showgrid="false"
     inkscape:zoom="7.35"
     inkscape:cx="20.272109"
     inkscape:cy="48.77551"
     inkscape:window-x="27"
     inkscape:window-y="23"
     inkscape:window-maximized="0"
     inkscape:current-layer="svg1636" />
  <defs
     id="defs1612">
    <style
       id="style1610">.cls-1{fill:none;}</style>
  </defs>
  <title
     id="title1614">waiting</title>
  <path
     class="cls-1"
     d="m 461.69,396.7 q -5.72,-3.5 -11.53,-6.87 -17.23,-10.05 -34.48,-20.07 a 13.63,13.63 0 0 0 -1.18,0.82 c -8.5,7.42 -18.5,10.68 -29.67,10.59 -14.6,-0.11 -29.19,0 -43.79,0 a 11.55,11.55 0 0 0 -9.81,4.45 c 4.64,2.76 8.94,5.3 13.23,7.86 a 70.52,70.52 0 0 0 38.24,10.41 c 22.58,-0.38 45.18,-0.09 67.76,-0.11 3.94,0 7.89,0 11.81,-0.26 1.21,-0.09 2.34,-1.15 3.51,-1.76 a 20.28,20.28 0 0 0 -1.68,-2.94 9.41,9.41 0 0 0 -2.41,-2.12 z"
     id="path1616" />
  <path
     class="cls-1"
     d="m 344.07,342.08 c 5.17,0 8.84,-2.49 11.3,-7.39 l -41.88,-24.36 c -9.78,10.36 -21.83,13.81 -35.5,13.49 -13.67,-0.32 -27.29,-0.15 -40.93,0 -2.5,0 -5,1 -7.5,1.47 l 0.07,1.31 58.38,34 c 9.55,-14.55 16.87,-18.48 34,-18.48 7.35,-0.02 14.71,0.02 22.06,-0.04 z"
     id="path1618" />
  <path
     class="cls-1"
     d="m 251.61,276.91 c 0.61,-1.6 0.34,-2.45 -1.19,-3.31 -4.94,-2.75 -9.79,-5.66 -14.67,-8.5 l -26.22,-15.23 -2.62,2.21 c -7.19,6 -15.46,9.61 -24.83,9.77 -15.88,0.28 -31.78,0.2 -47.67,0.18 -3.56,0 -6.68,0.69 -9.38,3.67 l 60.42,35.18 c 0.56,-0.75 0.89,-1.16 1.19,-1.59 6.44,-9.35 15.27,-14.38 26.66,-14.57 9,-0.15 17.91,-0.11 26.87,-0.15 a 11.78,11.78 0 0 0 11.44,-7.66 z"
     id="path1620" />
  <path
     class="cls-1"
     d="m 391.87,133.84 a 36.67,36.67 0 1 1 -36.51,37 36.36,36.36 0 0 1 36.51,-37 z m -103,-57.41 c 19.67,0.11 35.81,16.75 35.72,36.81 a 36.38,36.38 0 0 1 -37.07,36.4 c -20.45,-0.13 -36.11,-16.56 -36,-37.75 0.16,-19.69 16.88,-35.58 37.36,-35.46 z M 185.32,14.79 a 36.1,36.1 0 0 1 36.17,36.49 36.52,36.52 0 1 1 -73,0.1 C 148.37,31 164.68,14.79 185.32,14.79 Z M 469,403 c -1,3 -3.78,3.66 -6.48,3.83 -3.93,0.25 -7.88,0.25 -11.83,0.25 -22.29,0 -44.59,-0.32 -66.87,0.12 A 75.86,75.86 0 0 1 341.6,395.71 c -3.89,-2.39 -7.89,-4.61 -12.48,-7.28 -0.25,2.26 -0.61,4.07 -0.61,5.89 0,26.58 0,53.17 0,79.75 0,8.78 -4,15.43 -11.81,19.44 -7.56,3.89 -15.11,3.26 -22.1,-1.53 -5.69,-3.9 -9.11,-9.47 -9.13,-16.43 -0.1,-34.69 0,-69.39 0,-104.08 a 14.88,14.88 0 0 1 0.26,-2.54 c 0.93,-5.27 0.92,-5.25 -3.63,-7.9 l -56,-32.6 c -0.53,3.12 -1.32,5.66 -1.32,8.2 -0.09,26.69 0,53.38 -0.07,80.07 a 21.6,21.6 0 0 1 -39.22,12.69 21.17,21.17 0 0 1 -4,-12.62 c 0,-33.42 -0.06,-66.83 0.08,-100.25 0,-3.56 1.28,-7.1 1.76,-10.67 a 3.31,3.31 0 0 0 -0.91,-2.74 Q 153,285.92 123.45,268.88 a 5.75,5.75 0 0 0 -1,-0.15 42.91,42.91 0 0 0 -0.78,5.76 c -0.06,17.08 0,34.16 0,51.25 q 0,14.89 -0.14,29.78 a 21.42,21.42 0 0 1 -21.2,21.28 c -11.93,0.13 -21.79,-9.09 -21.83,-20.89 -0.11,-34 -0.17,-67.9 0,-101.85 0.09,-17.32 14.54,-30.94 32.52,-31.14 8.53,-0.1 17.06,0 25.6,0 7.88,0 12.54,-4.68 12.56,-12.51 q 0.1,-37.79 0.2,-75.58 c 0.06,-18.8 14.68,-34.85 32.76,-36 20,-1.25 36.5,11.94 39.14,31.26 a 33.25,33.25 0 0 1 0.17,4.48 c 0,28.29 -0.07,56.58 0,84.88 a 42,42 0 0 1 -8.36,26 c -0.38,0.51 -0.83,1 -1.37,1.83 C 225.13,255 238,262.7 252,270.71 v -4 c 0,-23.17 0.09,-46.33 0.13,-69.5 0,-18.49 12.75,-33.51 30.62,-36.4 21.1,-3.41 41.16,12.24 41.6,33.67 0.6,29.88 0.25,59.78 0.1,89.67 0,8.57 -3.39,16.22 -8.76,23.49 13.31,7.79 26.31,15.47 40.31,23.54 v -4 q 0,-36 0.12,-72.06 c 0.06,-23.83 20.11,-40.93 42.84,-36.69 16.33,3 29,16.78 29.23,33.49 0.46,29.89 0.25,59.78 0.08,89.67 -0.05,9.51 -3.86,17.83 -10.21,25.47 1.19,0.74 2.2,1.4 3.25,2 12.9,7.51 25.83,15 38.7,22.54 a 45.1,45.1 0 0 1 6.24,4.44 c 2.11,1.78 3.75,4.08 2.75,6.96 z"
     id="path1622" />
  <path
     d="m 84.225965,67.580221 a 9.4204663,7.8890648 0 0 0 -1.303698,-0.776837 c -2.688874,-1.32272 -5.390287,-2.62443 -8.085423,-3.943651 -0.208926,-0.106724 -0.430396,-0.22221 -0.676922,-0.349929 1.326679,-1.336716 2.122683,-2.799399 2.135223,-4.456299 0.03556,-5.229631 0.08151,-10.461016 -0.01461,-15.688899 -0.0439,-2.921874 -2.688874,-5.32411 -6.102725,-5.857746 -4.746792,-0.741843 -8.94829,2.250019 -8.96083,6.419379 q -0.01881,6.298652 -0.02509,12.607806 v 0.699846 c -2.92496,-1.411942 -5.641,-2.755656 -8.419711,-4.113371 1.121936,-1.271978 1.81139,-2.610437 1.819745,-4.109869 0.03134,-5.229632 0.112817,-10.461016 -0.01259,-15.6889 -0.08984,-3.749446 -4.272537,-6.487609 -8.680867,-5.890987 -3.731417,0.505638 -6.401491,3.131829 -6.407761,6.36864 0,4.05388 -0.02715,8.106011 -0.02715,12.159899 v 0.699852 c -2.92496,-1.399704 -5.613843,-2.746915 -8.398824,-4.102873 0.110739,-0.138225 0.194302,-0.23095 0.273695,-0.320181 a 8.7748851,7.3484304 0 0 0 1.752891,-4.549034 c -0.02301,-4.949686 0,-9.899381 0,-14.850821 a 6.9467843,5.8175071 0 0 0 -0.03341,-0.783835 c -0.551564,-3.382025 -4.003023,-5.688036 -8.177356,-5.46933 -3.777383,0.197708 -6.831879,3.005855 -6.844416,6.29865 q -0.02297,6.611842 -0.04178,13.223676 c 0,1.369958 -0.977775,2.185287 -2.62411,2.188782 -1.782136,0 -3.566363,-0.01224 -5.348499,0 -3.7606676,0.03501 -6.775466,2.417982 -6.7942701,5.448335 -0.03761,5.939987 -0.025087,11.879969 0,17.819948 0,2.06456 2.068365,3.674215 4.5608493,3.654969 a 4.4751916,3.7476993 0 0 0 4.4292298,-3.723203 q 0.02297,-2.605195 0.02925,-5.210391 c 0,-2.988361 0,-5.976721 0,-8.966831 a 8.9650077,7.5076462 0 0 1 0.162963,-1.007787 1.2013237,1.0060351 0 0 1 0.208924,0.02625 q 6.157046,2.991863 12.303651,5.997717 a 0.69154454,0.57912627 0 0 1 0.19012,0.479402 c -0.100277,0.62636 -0.365621,1.245734 -0.367708,1.866846 -0.02927,5.847254 -0.01881,11.692757 -0.01675,17.540011 a 4.4229602,3.7039587 0 0 0 0.835701,2.208029 4.5127984,3.7791927 0 0 0 8.194062,-2.220281 c 0,-4.66975 0,-9.339499 0.01461,-14.009256 0,-0.444406 0.167144,-0.888812 0.275782,-1.434692 l 11.699836,5.703773 c 0.952705,0.463659 0.952705,0.460154 0.758404,1.382213 a 3.1088166,2.6034437 0 0 0 -0.05437,0.444403 c 0,6.06945 -0.02715,12.140659 0,18.210106 0,1.224742 0.718707,2.192295 1.907496,2.874635 1.462485,0.838068 3.03778,0.950052 4.61726,0.267691 1.625444,-0.69984 2.463241,-1.865091 2.467423,-3.40126 0.01461,-4.65051 0,-9.302766 0,-13.953276 0,-0.316677 0.07729,-0.633369 0.127446,-1.030532 0.958967,0.467155 1.794669,0.85557 2.607394,1.273733 a 15.849114,13.272665 0 0 0 8.820844,2.010315 c 4.654868,-0.07873 9.313919,-0.01745 13.970875,-0.02101 0.823168,0 1.650515,0 2.471598,-0.04374 0.566188,-0.02799 1.151179,-0.15047 1.360107,-0.675358 0.208919,-0.52489 -0.133716,-0.90631 -0.576642,-1.22474 z M 31.380261,48.110378 c -2.379665,0.03325 -4.224474,0.913309 -5.569962,2.549205 -0.06271,0.07524 -0.131622,0.146968 -0.248616,0.27819 L 12.932112,44.78259 c 0.562011,-0.524886 1.215949,-0.64211 1.959726,-0.64211 3.319831,0 6.639663,0.01748 9.959494,-0.03149 1.957637,-0.02977 3.685451,-0.654358 5.18763,-1.709386 l 0.547381,-0.386669 5.478038,2.664681 c 1.021646,0.496893 2.034934,1.006033 3.064947,1.48718 0.319651,0.148722 0.376061,0.299192 0.248614,0.579129 a 2.4611465,2.0610596 0 0 1 -2.390109,1.340213 c -1.863618,0.0071 -3.73559,0 -5.607572,0.02623 z m 22.710245,10.039361 c -3.574726,0 -5.106149,0.685852 -7.103483,3.233307 l -12.197084,-5.948728 -0.01461,-0.229203 c 0.522311,-0.08923 1.04463,-0.251945 1.566941,-0.257195 2.849748,-0.02625 5.703677,-0.05603 8.551339,0 2.847653,0.05596 5.373567,-0.547634 7.416866,-2.360244 l 8.749816,4.262086 c -0.513962,0.857319 -1.280715,1.285978 -2.360865,1.292974 -1.533512,0.01401 -3.071208,0.0071 -4.608902,0.0071 z m 29.30394,10.739204 c -0.818997,0.049 -1.644246,0.04373 -2.467417,0.04553 -4.719635,0 -9.439268,-0.04722 -14.156816,0.01923 a 14.733451,12.338364 0 0 1 -7.989325,-1.82136 c -0.896295,-0.447907 -1.794676,-0.892313 -2.764087,-1.37521 a 2.4130936,2.0208182 0 0 1 2.049562,-0.778582 c 3.050319,0 6.100638,-0.01226 9.148863,0 2.335794,0.0228 4.425051,-0.547633 6.200918,-1.845856 a 2.8476591,2.3847405 0 0 1 0.246537,-0.143467 q 3.601874,1.749627 7.203756,3.5115 1.211774,0.591369 2.408918,1.201993 a 1.9659922,1.6463982 0 0 1 0.50351,0.363918 4.2370161,3.548242 0 0 1 0.350993,0.514397 c -0.244442,0.106724 -0.482614,0.292188 -0.733326,0.307931 z"
     id="path1624"
     style="stroke-width:0.191192" />
  <path
     d="m 46.888829,24.476429 a 7.6007223,6.3651402 0 0 0 7.744883,-6.368641 c 0.02087,-3.509745 -3.342814,-6.421129 -7.462832,-6.44037 -4.278806,-0.021 -7.772042,2.759159 -7.797112,6.204171 -0.02927,3.707464 3.240438,6.582097 7.515061,6.60484 z"
     id="path1626"
     style="stroke-width:0.191192" />
  <path
     d="M 25.490646,13.691731 A 7.5756512,6.3441446 0 0 0 33.091369,7.2723571 7.542223,6.3161507 0 0 0 25.534516,0.8879699 c -4.312223,0 -7.719807,2.8326423 -7.701004,6.4036274 a 7.6445967,6.4018822 0 0 0 7.657134,6.4001337 z"
     id="path1628"
     style="stroke-width:0.191192" />
  <path
     d="m 68.702778,34.542033 a 7.6613107,6.4158793 0 1 0 -7.642506,-6.359897 7.6299719,6.3896348 0 0 0 7.642506,6.359897 z"
     id="path1630"
     style="stroke-width:0.191192" />
  <rect
     x="8.4309874"
     y="50.108959"
     width="19.08107"
     height="0.52661705"
     transform="matrix(0.98837628,-0.1520274,0.2142353,0.97678208,0,0)"
     id="rect1632"
     style="stroke-width:0.190693" />
  <rect
     x="27.539488"
     y="63.925167"
     width="19.153818"
     height="0.52838153"
     transform="matrix(0.98883763,-0.1489971,0.21006174,0.97768812,0,0)"
     id="rect1634"
     style="stroke-width:0.191375" />
</svg>
