<svg width="110" height="110" viewBox="0 0 110 110" fill="none" xmlns="http://www.w3.org/2000/svg">
<path fill-rule="evenodd" clip-rule="evenodd" d="M86.1699 58.2653C86.0844 58.0064 85.0495 55.2742 84.1602 52.8457C83.3852 51.0138 82.8546 50.6601 81.6582 50.6601L80.5903 50.6669L79.5233 50.6601C78.326 50.6601 77.7963 51.0138 77.0212 52.8457C76.1328 55.2742 75.0979 58.0073 75.0116 58.2653C74.8424 58.7764 74.5708 59.7689 75.2959 60.0422C76.0211 60.3156 76.3511 59.697 76.6608 58.8898C76.9696 58.0817 77.6203 55.6541 78.1712 54.2376C78.2185 54.1158 78.2727 53.9982 78.3235 53.878C78.3446 53.8831 78.3658 53.8882 78.3861 53.8933C78.3522 54.4881 78.3023 56.6636 78.2879 57.2592C78.2194 59.9263 77.16 68.3701 76.8562 70.1377C76.7031 71.2089 76.9231 71.7352 77.6195 71.7352C78.3167 71.7352 78.623 71.6058 78.8388 70.5032C79.1561 68.2872 79.756 63.6511 79.9599 62.073C80.0031 61.7337 80.0716 61.3318 80.5912 61.3276C81.1107 61.3318 81.1792 61.7337 81.2232 62.073C81.4263 63.6511 82.0262 68.2872 82.3444 70.5032C82.5602 71.6058 82.8665 71.7352 83.5629 71.7352C84.2592 71.7352 84.4792 71.2089 84.3261 70.1377C84.0232 68.3701 82.9629 59.9263 82.8944 57.2592C82.8792 56.6644 82.8292 54.4881 82.7962 53.8933C82.8165 53.8882 82.8377 53.8831 82.8589 53.878C82.9096 53.9982 82.9638 54.1158 83.0112 54.2376C83.562 55.6541 84.2119 58.0817 84.5215 58.8898C84.8312 59.697 85.1604 60.3156 85.8855 60.0422C86.6107 59.7689 86.3391 58.7764 86.1699 58.2653Z" fill="black"/>
<path fill-rule="evenodd" clip-rule="evenodd" d="M80.6274 50.138C81.8442 50.1346 82.8849 49.0499 82.8833 47.7882C82.8816 46.5436 81.8603 45.4842 80.6401 45.4613C79.4115 45.4393 78.3369 46.5385 78.3428 47.8094C78.3496 49.0659 79.4047 50.1422 80.6274 50.138Z" fill="black"/>
<path fill-rule="evenodd" clip-rule="evenodd" d="M71.1886 52.8457C70.4135 51.0138 69.8838 50.6601 68.6865 50.6601L67.6186 50.6669L66.5516 50.6601C65.3543 50.6601 64.8246 51.0138 64.0496 52.8457C63.1611 55.2742 62.1262 58.0073 62.0399 58.2653C61.8707 58.7764 61.5991 59.7689 62.3242 60.0422C63.0494 60.3156 63.3794 59.697 63.6882 58.8898C63.9971 58.0817 64.6478 55.6541 65.1986 54.2376C65.246 54.1158 65.3002 53.9982 65.3509 53.878C65.3721 53.8831 65.3932 53.8882 65.4136 53.8933C65.3797 54.4881 65.3306 56.6636 65.3154 57.2592C65.2469 59.9263 64.1875 68.3701 63.8837 70.1377C63.7306 71.2089 63.9506 71.7352 64.6469 71.7352C65.3433 71.7352 65.6496 71.6058 65.8654 70.5032C66.1827 68.2872 66.7826 63.6511 66.9866 62.073C67.0297 61.7337 67.0982 61.3318 67.6178 61.3276C68.1373 61.3318 68.2059 61.7337 68.2499 62.073C68.4529 63.6511 69.0529 68.2872 69.371 70.5032C69.5868 71.6058 69.8931 71.7352 70.5903 71.7352C71.2876 71.7352 71.5067 71.2089 71.3536 70.1377C71.0506 68.3701 69.9904 59.9263 69.9227 57.2592C69.9075 56.6644 69.8576 54.4881 69.8237 53.8933C69.8449 53.8882 69.8652 53.8831 69.8863 53.878C69.9371 53.9982 69.9912 54.1158 70.0386 54.2376C70.5895 55.6541 71.2393 58.0817 71.549 58.8898C71.8587 59.697 72.1887 60.3156 72.9139 60.0422C73.639 59.7698 73.3674 58.7764 73.1982 58.2653C73.1127 58.0064 72.0779 55.2742 71.1886 52.8457Z" fill="black"/>
<path fill-rule="evenodd" clip-rule="evenodd" d="M65.3701 47.8094C65.3761 49.0659 66.4321 50.1414 67.6548 50.138C68.8715 50.1346 69.9123 49.0499 69.9106 47.7882C69.9089 46.5436 68.8876 45.4842 67.6674 45.4613C66.4388 45.4393 65.3642 46.5385 65.3701 47.8094Z" fill="black"/>
<path fill-rule="evenodd" clip-rule="evenodd" d="M58.2159 52.8457C57.4408 51.0138 56.9111 50.6601 55.7138 50.6601L54.646 50.6669L53.579 50.6601C52.3825 50.6601 51.852 51.0138 51.0769 52.8457C50.1884 55.2742 49.1536 58.0073 49.0673 58.2653C48.898 58.7764 48.6264 59.7689 49.3516 60.0422C50.0767 60.3156 50.4067 59.697 50.7156 58.8898C51.0253 58.0817 51.6751 55.6541 52.226 54.2376C52.2734 54.1158 52.3275 53.9982 52.3783 53.878C52.3994 53.8831 52.4197 53.8882 52.4409 53.8933C52.4071 54.4881 52.358 56.6636 52.3427 57.2592C52.2742 59.9263 51.2148 68.3701 50.9119 70.1377C50.7587 71.2089 50.9779 71.7352 51.6751 71.7352C52.3724 71.7352 52.6778 71.6058 52.8936 70.5032C53.2109 68.2872 53.8108 63.6511 54.0147 62.073C54.0579 61.7337 54.1264 61.3318 54.646 61.3276C55.1655 61.3318 55.2341 61.7337 55.2781 62.073C55.4811 63.6511 56.0811 68.2872 56.3984 70.5032C56.6141 71.6058 56.9204 71.7352 57.6177 71.7352C58.3149 71.7352 58.5341 71.2089 58.3809 70.1377C58.078 68.3701 57.0177 59.9263 56.9501 57.2592C56.9348 56.6644 56.8849 54.4881 56.8511 53.8933C56.8722 53.8882 56.8925 53.8831 56.9137 53.878C56.9644 53.9982 57.0194 54.1158 57.066 54.2376C57.616 55.6541 58.2667 58.0817 58.5764 58.8898C58.8852 59.697 59.2152 60.3156 59.9404 60.0422C60.6655 59.7698 60.3947 58.7764 60.2247 58.2653C60.1401 58.0064 59.1052 55.2742 58.2159 52.8457Z" fill="black"/>
<path fill-rule="evenodd" clip-rule="evenodd" d="M54.6821 50.138C55.8989 50.1346 56.9397 49.0499 56.938 47.7882C56.9363 46.5436 55.915 45.4842 54.6948 45.4613C53.4662 45.4393 52.3907 46.5376 52.3975 47.8094C52.4043 49.0659 53.4594 50.1422 54.6821 50.138Z" fill="black"/>
<path fill-rule="evenodd" clip-rule="evenodd" d="M45.2434 52.8457C44.4683 51.0138 43.9386 50.6601 42.7413 50.6601L41.6743 50.6669L40.6073 50.6601C39.41 50.6601 38.8794 51.0138 38.1052 52.8457C37.2159 55.2742 36.1819 58.0073 36.0956 58.2653C35.9264 58.7764 35.6548 59.7689 36.3799 60.0422C37.1051 60.3156 37.4351 59.697 37.7439 58.8898C38.0536 58.0817 38.7034 55.6541 39.2543 54.2376C39.3017 54.1158 39.3558 53.9982 39.4066 53.878C39.4278 53.8831 39.4481 53.8882 39.4692 53.8933C39.4354 54.4881 39.3863 56.6636 39.3711 57.2592C39.3025 59.9263 38.2431 68.3701 37.9402 70.1377C37.7871 71.2089 38.0062 71.7352 38.7034 71.7352C39.4007 71.7352 39.707 71.6058 39.9228 70.5032C40.2401 68.2872 40.84 63.6511 41.0431 62.073C41.0871 61.7337 41.1548 61.3318 41.6751 61.3276C42.1947 61.3318 42.2632 61.7337 42.3072 62.073C42.5103 63.6511 43.1102 68.2872 43.4275 70.5032C43.6441 71.6058 43.9496 71.7352 44.6468 71.7352C45.3441 71.7352 45.5632 71.2089 45.4101 70.1377C45.1071 68.3701 44.0469 59.9263 43.9792 57.2592C43.964 56.6644 43.9141 54.4881 43.8811 53.8933C43.9014 53.8882 43.9225 53.8831 43.9437 53.878C43.9944 53.9982 44.0494 54.1158 44.096 54.2376C44.6468 55.6541 45.2967 58.0817 45.6064 58.8898C45.9161 59.697 46.2452 60.3156 46.9704 60.0422C47.6955 59.7698 47.4247 58.7764 47.2547 58.2653C47.1675 58.0064 46.1327 55.2742 45.2434 52.8457Z" fill="black"/>
<path fill-rule="evenodd" clip-rule="evenodd" d="M41.7095 50.138C42.9262 50.1346 43.967 49.0499 43.9653 47.7882C43.9636 46.5436 42.9423 45.4842 41.7221 45.4613C40.4935 45.4393 39.4181 46.5376 39.4248 47.8094C39.4316 49.0659 40.4868 50.1422 41.7095 50.138Z" fill="black"/>
<path fill-rule="evenodd" clip-rule="evenodd" d="M32.2719 52.8457C31.4968 51.0138 30.9663 50.6601 29.7698 50.6601L28.702 50.6669L27.635 50.6601C26.4376 50.6601 25.9071 51.0138 25.1329 52.8457C24.2436 55.2742 23.2096 58.0073 23.1233 58.2653C22.9532 58.7764 22.6824 59.7689 23.4076 60.0422C24.1327 60.3156 24.4627 59.697 24.7716 58.8898C25.0813 58.0817 25.7311 55.6541 26.282 54.2376C26.3293 54.1158 26.3835 53.9982 26.4343 53.878C26.4554 53.8831 26.4757 53.8882 26.4969 53.8933C26.463 54.4881 26.4131 56.6636 26.3979 57.2592C26.3293 59.9263 25.27 68.3701 24.967 70.1377C24.8139 71.2089 25.033 71.7352 25.7303 71.7352C26.4275 71.7352 26.7338 71.6058 26.9496 70.5032C27.2669 68.2872 27.8668 63.6511 28.0699 62.073C28.1139 61.7337 28.1816 61.3318 28.702 61.3276C29.2215 61.3318 29.29 61.7337 29.334 62.073C29.5371 63.6511 30.137 68.2872 30.4552 70.5032C30.671 71.6058 30.9773 71.7352 31.6737 71.7352C32.37 71.7352 32.59 71.2089 32.4369 70.1377C32.134 68.3701 31.0746 59.9263 31.006 57.2592C30.9908 56.6644 30.9409 54.4881 30.9079 53.8933C30.9282 53.8882 30.9493 53.8831 30.9705 53.878C31.0221 53.9982 31.0763 54.1158 31.1228 54.2376C31.6736 55.6541 32.3235 58.0817 32.6332 58.8898C32.9429 59.697 33.272 60.3156 33.9972 60.0422C34.7223 59.7698 34.4516 58.7764 34.2815 58.2653C34.1952 58.0064 33.1603 55.2742 32.2719 52.8457Z" fill="black"/>
<path fill-rule="evenodd" clip-rule="evenodd" d="M28.7379 50.138C29.9547 50.1346 30.9955 49.0499 30.9938 47.7882C30.9921 46.5436 29.9708 45.4842 28.7506 45.4613C27.522 45.4393 26.4465 46.5376 26.4541 47.8094C26.4601 49.0659 27.5152 50.1422 28.7379 50.138Z" fill="black"/>
<path fill-rule="evenodd" clip-rule="evenodd" d="M36.5714 44.605C36.667 44.7404 36.9268 44.6143 36.9268 44.3825C36.9259 43.3662 36.0916 42.5015 35.0948 42.4829C34.0921 42.4651 33.2138 43.362 33.2198 44.4002C33.2206 44.627 33.5049 44.7006 33.6208 44.5492C33.9694 44.0906 34.5101 43.7902 35.0948 43.8003C35.6956 43.8113 36.2354 44.1312 36.5714 44.605Z" fill="black"/>
<path fill-rule="evenodd" clip-rule="evenodd" d="M49.543 44.605C49.6387 44.7404 49.8993 44.6143 49.8984 44.3825C49.8976 43.3662 49.0633 42.5015 48.0665 42.4829C47.063 42.4651 46.1855 43.362 46.1914 44.4002C46.1923 44.627 46.4766 44.7006 46.5925 44.5492C46.9411 44.0906 47.4818 43.7902 48.0665 43.8003C48.6681 43.8113 49.208 44.1312 49.543 44.605Z" fill="black"/>
<path fill-rule="evenodd" clip-rule="evenodd" d="M62.5147 44.605C62.6104 44.7404 62.871 44.6143 62.8701 44.3825C62.8693 43.3662 62.035 42.5015 61.0382 42.4829C60.0347 42.4651 59.1572 43.362 59.1631 44.4002C59.164 44.627 59.4483 44.7006 59.5642 44.5492C59.9128 44.0906 60.4543 43.7902 61.039 43.8003C61.6398 43.8113 62.1797 44.1312 62.5147 44.605Z" fill="black"/>
<path fill-rule="evenodd" clip-rule="evenodd" d="M75.4873 44.605C75.5829 44.7404 75.8435 44.6143 75.8426 44.3825C75.8409 43.3662 75.0075 42.5015 74.0107 42.4829C73.0072 42.4651 72.1297 43.362 72.1348 44.4002C72.1356 44.627 72.4199 44.7006 72.5359 44.5492C72.8845 44.0906 73.426 43.7902 74.0107 43.8003C74.6123 43.8113 75.1522 44.1312 75.4873 44.605Z" fill="black"/>
<path fill-rule="evenodd" clip-rule="evenodd" d="M40.6962 41.3008C41.0118 40.8862 41.5017 40.6137 42.0314 40.623C42.5755 40.6323 43.0645 40.9217 43.3683 41.3507C43.4555 41.4734 43.6907 41.3592 43.6907 41.1502C43.6899 40.2296 42.9342 39.446 42.0322 39.4299C41.1243 39.413 40.3289 40.2253 40.334 41.1663C40.334 41.371 40.5921 41.4379 40.6962 41.3008Z" fill="black"/>
<path fill-rule="evenodd" clip-rule="evenodd" d="M53.1793 41.3008C53.4949 40.8862 53.9848 40.6137 54.5145 40.623C55.0578 40.6323 55.5477 40.9217 55.8506 41.3507C55.9378 41.4734 56.173 41.3592 56.173 41.1502C56.1721 40.2296 55.4165 39.446 54.5145 39.4299C53.6058 39.413 52.8112 40.2253 52.8154 41.1663C52.8163 41.371 53.0744 41.4379 53.1793 41.3008Z" fill="black"/>
<path fill-rule="evenodd" clip-rule="evenodd" d="M65.663 41.3008C65.9786 40.8862 66.4685 40.6137 66.9982 40.623C67.5423 40.6323 68.0313 40.9217 68.3351 41.3507C68.4223 41.4734 68.6575 41.3592 68.6575 41.1502C68.6567 40.2296 67.901 39.446 66.999 39.4299C66.0903 39.413 65.2957 40.2253 65.3008 41.1663C65.3008 41.371 65.558 41.4379 65.663 41.3008Z" fill="black"/>
<path fill-rule="evenodd" clip-rule="evenodd" d="M46.8989 38.489C47.1604 38.1455 47.5665 37.9195 48.0057 37.9272C48.4567 37.9348 48.862 38.1742 49.1133 38.5305C49.1852 38.632 49.3807 38.5372 49.3798 38.3638C49.379 37.6014 48.7528 36.9524 48.0048 36.938C47.2518 36.9245 46.5934 37.5972 46.5977 38.3765C46.5985 38.5474 46.8118 38.6032 46.8989 38.489Z" fill="black"/>
<path fill-rule="evenodd" clip-rule="evenodd" d="M60.8424 38.3587C61.1039 38.0152 61.51 37.7892 61.9492 37.7969C62.4002 37.8045 62.8055 38.0439 63.0568 38.4002C63.1287 38.5017 63.3242 38.4069 63.3242 38.2335C63.3233 37.4702 62.6972 36.8221 61.9492 36.8077C61.1969 36.7942 60.5378 37.4669 60.542 38.2462C60.542 38.4162 60.7552 38.4721 60.8424 38.3587Z" fill="black"/>
</svg>
