<svg width="110" height="110" viewBox="0 0 110 110" fill="none" xmlns="http://www.w3.org/2000/svg">
<path d="M63.0187 47.3849V19.4669H46.9807V47.3841H19.0635V63.4229H46.9807V91.3401H63.0187V63.4236H90.9359V47.3849H63.0187ZM62.2408 62.645V90.5622H55.7775V89.0049H54.221V90.5622H47.7585V62.645H19.8421V56.1817H21.5463V54.6244H19.8421V48.1627H47.7585V20.2471H54.221V21.8028H55.7775V20.2471H62.2408V48.1643H90.1573V54.626H88.6015V56.1833H90.1573V62.6466H62.2408V62.645Z" fill="black"/>
<path d="M28.5182 38.8213H28.8113L24.6753 34.6861L20.54 38.8213H20.8331H28.5182Z" fill="black"/>
<path d="M25.4228 42.042H23.9268V44.7166H25.4228V42.042Z" fill="black"/>
<path d="M27.7397 44.7173V39.5992H21.6104V44.7173H23.148V41.2641H26.2013V44.7173H27.7397Z" fill="black"/>
<path d="M43.7223 38.8213H44.0161L39.8801 34.6861L35.7441 38.8213H36.0372H43.7223Z" fill="black"/>
<path d="M40.6272 42.042H39.1328V44.7166H40.6272V42.042Z" fill="black"/>
<path d="M42.9448 44.7173V39.5992H36.8154V44.7173H38.3531V41.2641H41.4071V44.7173H42.9448Z" fill="black"/>
<path d="M28.5182 22.7943H28.8113L24.6753 18.6591L20.54 22.7943H20.8331H28.5182Z" fill="black"/>
<path d="M25.4228 26.0165H23.9268V28.6911H25.4228V26.0165Z" fill="black"/>
<path d="M27.7397 28.6911V23.5737H21.6104V28.6911H23.148V25.2387H26.2013V28.6911H27.7397Z" fill="black"/>
<path d="M43.7223 22.7943H44.0161L39.8801 18.6591L35.7441 22.7943H36.0372H43.7223Z" fill="black"/>
<path d="M40.6272 26.0165H39.1328V28.6911H40.6272V26.0165Z" fill="black"/>
<path d="M42.9448 28.6911V23.5737H36.8154V28.6911H38.3531V25.2387H41.4071V28.6911H42.9448Z" fill="black"/>
<path d="M35.2748 54.6252H31.8428V56.1825H35.2748V54.6252Z" fill="black"/>
<path d="M42.1388 54.6252H38.7061V56.1825H42.1388V54.6252Z" fill="black"/>
<path d="M28.4107 54.6252H24.9795V56.1825H28.4107V54.6252Z" fill="black"/>
<path d="M47.5167 54.6252H45.5713V56.1825H47.5167V54.6252Z" fill="black"/>
<path d="M64.5769 54.6252H62.6299V56.1825H64.5769V54.6252Z" fill="black"/>
<path d="M78.3041 54.6252H74.8721V56.1825H78.3041V54.6252Z" fill="black"/>
<path d="M71.4398 54.6252H68.0078V56.1825H71.4398V54.6252Z" fill="black"/>
<path d="M85.1683 54.6252H81.7363V56.1825H85.1683V54.6252Z" fill="black"/>
<path d="M55.7772 63.0355H54.2207V64.9817H55.7772V63.0355Z" fill="black"/>
<path d="M55.7772 82.1409H54.2207V85.5721H55.7772V82.1409Z" fill="black"/>
<path d="M55.7772 75.2769H54.2207V78.7081H55.7772V75.2769Z" fill="black"/>
<path d="M55.7772 68.4137H54.2207V71.8449H55.7772V68.4137Z" fill="black"/>
<path d="M55.7772 32.0995H54.2207V35.5323H55.7772V32.0995Z" fill="black"/>
<path d="M55.7772 38.9628H54.2207V42.3956H55.7772V38.9628Z" fill="black"/>
<path d="M55.7772 25.2355H54.2207V28.6668H55.7772V25.2355Z" fill="black"/>
<path d="M55.7772 45.8268H54.2207V47.7746H55.7772V45.8268Z" fill="black"/>
<path d="M26.4521 86.5393H24.1162V90.563H26.4521V86.5393Z" fill="black"/>
<path d="M19.9893 90.563H23.3388V85.7607H27.2304V90.5622H30.5807V66.744H19.9893V90.563ZM26.8415 67.7537H29.3723V70.2845H26.8415V67.7537ZM26.8415 74.1761H29.3723V76.7069H26.8415V74.1761ZM26.8415 80.5985H29.3723V83.1293H26.8415V80.5985ZM21.1977 67.7537H23.7269V70.2845H21.1977V67.7537ZM21.1977 74.1761H23.7269V76.7069H21.1977V74.1761ZM21.1977 80.5985H23.7269V83.1293H21.1977V80.5985Z" fill="black"/>
<path d="M40.9365 86.5393H38.6006V90.563H40.9365V86.5393Z" fill="black"/>
<path d="M34.4717 90.563H37.8212V85.7607H41.7136V90.5622H45.0639V66.744H34.4725V90.563H34.4717ZM41.3247 67.7537H43.8555V70.2845H41.3247V67.7537ZM41.3247 74.1761H43.8555V76.7069H41.3247V74.1761ZM41.3247 80.5985H43.8555V83.1293H41.3247V80.5985ZM35.6801 67.7537H38.2101V70.2845H35.6801V67.7537ZM35.6801 74.1761H38.2101V76.7069H35.6801V74.1761ZM35.6801 80.5985H38.2101V83.1293H35.6801V80.5985Z" fill="black"/>
<path d="M72.2498 72.6526H71.4531V75.1292H72.2498V72.6526Z" fill="black"/>
<path d="M71.8515 65.0744L69.5996 67.9627H71.1239L69.5996 69.9191H71.1239L69.5996 71.8748H70.6752H73.0285H74.1049L72.5798 69.9191H74.1049L72.5798 67.9627H74.1049L71.8515 65.0744Z" fill="black"/>
<path d="M82.4168 72.6526H81.6201V75.1292H82.4168V72.6526Z" fill="black"/>
<path d="M82.0183 65.0744L79.7656 67.9627H81.2907L79.7656 69.9191H81.2907L79.7656 71.8748H80.8413H83.1953H84.2709L82.7458 69.9191H84.2709L82.7458 67.9627H84.2709L82.0183 65.0744Z" fill="black"/>
<path d="M72.2498 87.7957H71.4531V90.2739H72.2498V87.7957Z" fill="black"/>
<path d="M71.8515 80.2183L69.5996 83.1058H71.1239L69.5996 85.063H71.1239L69.5996 87.0178H70.6752H73.0285H74.1049L72.5798 85.063H74.1049L72.5798 83.1058H74.1049L71.8515 80.2183Z" fill="black"/>
<path d="M82.4168 87.7957H81.6201V90.2739H82.4168V87.7957Z" fill="black"/>
<path d="M82.0183 80.2183L79.7656 83.1058H81.2907L79.7656 85.063H81.2907L79.7656 87.0178H80.8413H83.1953H84.2709L82.7458 85.063H84.2709L82.7458 83.1058H84.2709L82.0183 80.2183Z" fill="black"/>
<path d="M90.0265 32.7108H90.8059L89.086 26.7653H86.2559L87.2899 32.7108H90.0265Z" fill="black"/>
<path d="M73.8949 32.7108L74.1817 26.7653H71.4914L70.459 32.7108H73.8949Z" fill="black"/>
<path d="M78.0905 26.7653H74.9618L74.6758 32.7108H78.0905V26.7653Z" fill="black"/>
<path d="M81.9971 26.7653H78.8691V32.7108H82.2839L81.9971 26.7653Z" fill="black"/>
<path d="M86.4993 32.7108L85.4668 26.7653H82.7773L83.0633 32.7108H86.4993Z" fill="black"/>
<path d="M69.669 32.7108L70.7014 26.7653H67.8721L66.1514 32.7108H66.9316H69.669Z" fill="black"/>
<path d="M74.198 39.0036H71.7969V43.7399H74.198V39.0036Z" fill="black"/>
<path d="M85.1621 39.0036H82.7617V43.7399H85.1621V39.0036Z" fill="black"/>
<path d="M89.2486 43.7391V33.4895H67.709V43.7391H71.0184V38.225H74.9753V43.7391H81.9823V38.225H85.9399V43.7391H89.2486Z" fill="black"/>
</svg>
