<svg width="57" height="45" fill="none" xmlns="http://www.w3.org/2000/svg"><path fill-rule="evenodd" clip-rule="evenodd" d="M54.33 19.179c-.48-3-3.355-4.472-5.451-5.546-.26-.134-.51-.263-.75-.39-1.104-.589-2.791-1.484-4.243-2.255a4.936 4.936 0 0 1-2.051 2.619c1.538.813 3.47 1.84 4.69 2.492.254.135.524.274.802.416 1.633.837 3.484 1.785 3.705 3.166.06.363-.062.824-.202 1.358-.07.271-.138.54-.194.814l3.273.647c.043-.221.1-.44.157-.658.191-.732.429-1.642.264-2.663ZM32.367 18.962c-.473-3.17-3.31-4.723-5.38-5.857a52.678 52.678 0 0 1-.74-.411c-1.26-.72-3.291-1.874-4.844-2.752a5.252 5.252 0 0 1-1.531 3.043c1.542.873 3.547 2.01 4.79 2.725.254.141.52.289.794.439 1.612.884 3.439 1.884 3.657 3.343.056.384-.064.87-.2 1.435-.074.311-.151.622-.207.936l3.238.637c.043-.245.104-.484.162-.726.19-.772.424-1.731.261-2.812ZM19.872 28.495l-2.228 3.889-6.217.421-.035.056 4.43 2.701-1.81 3.159L0 30.18l1.809-3.161 8.526 5.2.033-.06-2-5.326 2.184-3.81 2.065 6.22 7.255-.748Z" fill="#171D21"/><path fill-rule="evenodd" clip-rule="evenodd" d="m23.363 22.193-1.281-.775-.022.04c.147.239.258.51.337.804.079.296.117.608.109.937a4.527 4.527 0 0 1-.139 1.02 3.801 3.801 0 0 1-.413 1.02c-.367.632-.786 1.1-1.262 1.401a3.505 3.505 0 0 1-1.48.546 3.925 3.925 0 0 1-1.548-.142 6.174 6.174 0 0 1-1.488-.655l-5.717-3.452 1.814-3.138 5.013 3.03c.258.155.52.286.775.392.256.103.509.156.756.162.248.002.477-.05.686-.165.207-.114.394-.317.563-.607.316-.544.356-1.079.125-1.605-.231-.524-.612-.948-1.145-1.268l-4.994-3.015 1.803-3.118 9.246 5.584-1.738 3.004ZM28.527 4.422l-.237.389c-.203.335-.39.683-.566 1.04-.175.358-.298.696-.37 1.011a1.938 1.938 0 0 0-.012.885c.067.272.24.487.519.647a.959.959 0 0 0 .53.145c.176-.009.34-.052.49-.134.151-.076.293-.187.422-.332.128-.141.24-.288.329-.435.376-.62.488-1.192.337-1.722-.147-.528-.521-.966-1.118-1.31l-.323-.184Zm-7.446 3.254a6.062 6.062 0 0 1-.045-2.593 7.446 7.446 0 0 1 .948-2.449c.475-.778.971-1.38 1.495-1.804a3.556 3.556 0 0 1 1.707-.783c.617-.098 1.283-.041 2.006.166.722.206 1.514.557 2.379 1.053l4.777 2.75-1.69 2.784-1.01-.582-.033.057c.25.46.34.99.268 1.592a4.35 4.35 0 0 1-.62 1.735 5.53 5.53 0 0 1-.85 1.062c-.34.337-.725.606-1.155.8a3.163 3.163 0 0 1-1.403.283c-.507-.009-1.043-.175-1.6-.496-.687-.394-1.127-.892-1.325-1.499-.195-.607-.235-1.262-.115-1.97a8.64 8.64 0 0 1 .711-2.182c.352-.748.731-1.458 1.138-2.125l-.153-.087c-.471-.27-.912-.31-1.33-.114-.419.193-.77.525-1.055.993a3.432 3.432 0 0 0-.477 1.417c-.052.512-.033.988.062 1.426l-2.63.566ZM42.88 29.544l-2.227 3.885-6.217.42-.035.057 4.43 2.7-1.81 3.161-14.012-8.542 1.81-3.158 8.525 5.196.033-.056-2-5.328 2.185-3.81 2.064 6.219 7.255-.744Z" fill="#171D21"/><path fill-rule="evenodd" clip-rule="evenodd" d="m46.372 23.238-1.281-.771-.022.036c.144.242.258.51.337.805.08.296.117.61.11.94a4.542 4.542 0 0 1-.14 1.019 3.822 3.822 0 0 1-.413 1.017c-.367.632-.789 1.1-1.262 1.404a3.46 3.46 0 0 1-1.48.544 3.93 3.93 0 0 1-1.548-.14 6.299 6.299 0 0 1-1.488-.657l-5.717-3.453 1.814-3.134 5.01 3.029c.262.156.52.287.779.39.255.103.508.158.756.161.247.006.476-.05.682-.164.21-.112.398-.315.566-.608.316-.543.357-1.078.125-1.602-.23-.523-.612-.947-1.145-1.267l-4.994-3.018 1.803-3.118 9.246 5.587-1.738 3ZM51.038 5.38l-.221.384c-.19.325-.368.664-.53 1.016a4.78 4.78 0 0 0-.346.991 1.95 1.95 0 0 0-.01.867c.062.267.224.477.485.635.166.101.33.149.495.141.164-.008.318-.05.458-.13.141-.078.271-.185.394-.326a2.89 2.89 0 0 0 .307-.43c.352-.605.456-1.167.316-1.684-.141-.518-.488-.947-1.045-1.283l-.303-.181Zm-6.435 3.186a6.164 6.164 0 0 1-.041-2.538 7.512 7.512 0 0 1 .886-2.4c.44-.763.906-1.352 1.396-1.768a3.243 3.243 0 0 1 1.595-.768c.576-.096 1.199-.04 1.874.163.675.202 1.415.546 2.223 1.032L57 4.982l-1.58 2.725-.943-.567-.03.056c.234.45.317.97.247 1.56a4.392 4.392 0 0 1-.576 1.7 5.38 5.38 0 0 1-.795 1.04c-.318.331-.678.595-1.079.784a2.836 2.836 0 0 1-1.31.278c-.475-.008-.975-.171-1.497-.486-.64-.386-1.052-.874-1.237-1.469-.183-.594-.22-1.237-.107-1.93.114-.69.333-1.405.664-2.139.329-.733.683-1.429 1.063-2.082l-.145-.086c-.438-.263-.85-.303-1.241-.112-.39.19-.72.515-.985.976a3.41 3.41 0 0 0-.446 1.387c-.05.501-.031.968.058 1.397l-2.458.552Z" fill="#171D21"/><path fill-rule="evenodd" clip-rule="evenodd" d="M50.033 25.116c-1.763 7.965-5.24 13.115-10.337 15.302-8.354 3.589-18.877-1.618-21.234-2.893l-1.728 2.88c1.101.606 3.944 2.067 7.626 3.185 3.099.94 6.067 1.41 8.83 1.41 2.857 0 5.492-.5 7.83-1.502 6.168-2.644 10.31-8.604 12.32-17.716l-3.307-.666Z" fill="#171D21"/><path d="M16.473 13.081a3.923 3.923 0 0 0 3.922-3.924 3.923 3.923 0 1 0-7.845 0 3.923 3.923 0 0 0 3.922 3.924ZM38.959 13.081a3.923 3.923 0 0 0 3.922-3.924 3.923 3.923 0 1 0-7.844 0 3.923 3.923 0 0 0 3.922 3.924Z" fill="#171D21"/></svg>