<svg width="122" height="16" viewBox="0 0 122 16" fill="none" xmlns="http://www.w3.org/2000/svg">
<path fill-rule="evenodd" clip-rule="evenodd" d="M79.1603 5.58593V7.22459H83.0823C82.9649 8.14659 82.6576 8.81992 82.1896 9.28792C81.6183 9.85859 80.7256 10.4879 79.1603 10.4879C76.7449 10.4879 74.8576 8.54193 74.8576 6.12726C74.8576 3.71259 76.7449 1.76659 79.1603 1.76659C80.4623 1.76659 81.4136 2.27859 82.1163 2.93726L83.2723 1.78059C82.2916 0.844592 80.9896 0.127258 79.1603 0.127258C75.8529 0.127258 73.0723 2.81993 73.0723 6.12726C73.0723 9.43459 75.8529 12.1273 79.1603 12.1273C80.9449 12.1273 82.2916 11.5419 83.3456 10.4446C84.4283 9.36126 84.7649 7.83926 84.7649 6.60992C84.7649 6.22992 84.7356 5.87859 84.6769 5.58593H79.1603Z" fill="#757575"/>
<path fill-rule="evenodd" clip-rule="evenodd" d="M89.6666 4.25458C87.5253 4.25458 85.7793 5.88324 85.7793 8.12724C85.7793 10.3566 87.5253 11.9999 89.6666 11.9999C91.8086 11.9999 93.554 10.3566 93.554 8.12724C93.554 5.88324 91.8086 4.25458 89.6666 4.25458ZM89.6666 10.4739C88.4933 10.4739 87.4806 9.50591 87.4806 8.12724C87.4806 6.73391 88.4933 5.77991 89.6666 5.77991C90.84 5.77991 91.8526 6.73391 91.8526 8.12724C91.8526 9.50591 90.84 10.4739 89.6666 10.4739Z" fill="#757575"/>
<path fill-rule="evenodd" clip-rule="evenodd" d="M108.72 5.12058H108.661C108.279 4.66524 107.546 4.25458 106.622 4.25458C104.686 4.25458 103 5.94124 103 8.12724C103 10.2979 104.686 11.9999 106.622 11.9999C107.546 11.9999 108.279 11.5892 108.661 11.1199H108.72V11.6612C108.72 13.1426 107.928 13.9346 106.651 13.9346C105.61 13.9346 104.965 13.1866 104.701 12.5559L103.219 13.1719C103.645 14.1986 104.774 15.4606 106.651 15.4606C108.647 15.4606 110.333 14.2872 110.333 11.4266V4.45391H108.72V5.12058ZM106.769 10.4739C105.596 10.4739 104.702 9.47658 104.702 8.12724C104.702 6.76324 105.596 5.77991 106.769 5.77991C107.929 5.77991 108.837 6.77791 108.837 8.14191C108.837 9.49124 107.929 10.4739 106.769 10.4739Z" fill="#757575"/>
<path fill-rule="evenodd" clip-rule="evenodd" d="M98.3336 4.25458C96.1923 4.25458 94.4463 5.88324 94.4463 8.12724C94.4463 10.3566 96.1923 11.9999 98.3336 11.9999C100.476 11.9999 102.221 10.3566 102.221 8.12724C102.221 5.88324 100.476 4.25458 98.3336 4.25458ZM98.3336 10.4739C97.1603 10.4739 96.1483 9.50591 96.1483 8.12724C96.1483 6.73391 97.1603 5.77991 98.3336 5.77991C99.507 5.77991 100.52 6.73391 100.52 8.12724C100.52 9.50591 99.507 10.4739 98.3336 10.4739Z" fill="#757575"/>
<path fill-rule="evenodd" clip-rule="evenodd" d="M111.667 0.287231H113.34V11.9999H111.667V0.287231Z" fill="#757575"/>
<path fill-rule="evenodd" clip-rule="evenodd" d="M118.51 10.4739C117.645 10.4739 117.029 10.0786 116.632 9.30124L121.81 7.15924L121.634 6.71924C121.312 5.85391 120.329 4.25458 118.32 4.25458C116.324 4.25458 114.667 5.82458 114.667 8.12724C114.667 10.2986 116.31 11.9999 118.51 11.9999C120.285 11.9999 121.312 10.9146 121.737 10.2832L120.417 9.40324C119.977 10.0492 119.376 10.4739 118.51 10.4739ZM118.384 5.70591C119.073 5.70591 119.656 6.05658 119.851 6.55991L116.354 8.00991C116.354 6.37724 117.508 5.70591 118.384 5.70591Z" fill="#757575"/>
<path opacity="0.54" d="M2.29102 3.125V4.66016H3.47461V5.49805H2.29102V9.42969C2.29102 9.68359 2.34375 9.875 2.44922 10.0039C2.55469 10.1289 2.73438 10.1914 2.98828 10.1914C3.11328 10.1914 3.28516 10.168 3.50391 10.1211V11C3.21875 11.0781 2.94141 11.1172 2.67188 11.1172C2.1875 11.1172 1.82227 10.9707 1.57617 10.6777C1.33008 10.3848 1.20703 9.96875 1.20703 9.42969V5.49805H0.0527344V4.66016H1.20703V3.125H2.29102ZM7.81055 5.63281C7.64648 5.60547 7.46875 5.5918 7.27734 5.5918C6.56641 5.5918 6.08398 5.89453 5.83008 6.5V11H4.74609V4.66016H5.80078L5.81836 5.39258C6.17383 4.82617 6.67773 4.54297 7.33008 4.54297C7.54102 4.54297 7.70117 4.57031 7.81055 4.625V5.63281ZM12.4922 11C12.4297 10.875 12.3789 10.6523 12.3398 10.332C11.8359 10.8555 11.2344 11.1172 10.5352 11.1172C9.91016 11.1172 9.39648 10.9414 8.99414 10.5898C8.5957 10.2344 8.39648 9.78516 8.39648 9.24219C8.39648 8.58203 8.64648 8.07031 9.14648 7.70703C9.65039 7.33984 10.3574 7.15625 11.2676 7.15625H12.3223V6.6582C12.3223 6.2793 12.209 5.97852 11.9824 5.75586C11.7559 5.5293 11.4219 5.41602 10.9805 5.41602C10.5938 5.41602 10.2695 5.51367 10.0078 5.70898C9.74609 5.9043 9.61523 6.14062 9.61523 6.41797H8.52539C8.52539 6.10156 8.63672 5.79688 8.85938 5.50391C9.08594 5.20703 9.39062 4.97266 9.77344 4.80078C10.1602 4.62891 10.584 4.54297 11.0449 4.54297C11.7754 4.54297 12.3477 4.72656 12.7617 5.09375C13.1758 5.45703 13.3906 5.95898 13.4062 6.59961V9.51758C13.4062 10.0996 13.4805 10.5625 13.6289 10.9062V11H12.4922ZM10.6934 10.1738C11.0332 10.1738 11.3555 10.0859 11.6602 9.91016C11.9648 9.73438 12.1855 9.50586 12.3223 9.22461V7.92383H11.4727C10.1445 7.92383 9.48047 8.3125 9.48047 9.08984C9.48047 9.42969 9.59375 9.69531 9.82031 9.88672C10.0469 10.0781 10.3379 10.1738 10.6934 10.1738ZM16.1309 4.66016L16.166 5.45703C16.6504 4.84766 17.2832 4.54297 18.0645 4.54297C19.4043 4.54297 20.0801 5.29883 20.0918 6.81055V11H19.0078V6.80469C19.0039 6.34766 18.8984 6.00977 18.6914 5.79102C18.4883 5.57227 18.1699 5.46289 17.7363 5.46289C17.3848 5.46289 17.0762 5.55664 16.8105 5.74414C16.5449 5.93164 16.3379 6.17773 16.1895 6.48242V11H15.1055V4.66016H16.1309ZM25.418 9.31836C25.418 9.02539 25.3066 8.79883 25.084 8.63867C24.8652 8.47461 24.4805 8.33398 23.9297 8.2168C23.3828 8.09961 22.9473 7.95898 22.623 7.79492C22.3027 7.63086 22.0645 7.43555 21.9082 7.20898C21.7559 6.98242 21.6797 6.71289 21.6797 6.40039C21.6797 5.88086 21.8984 5.44141 22.3359 5.08203C22.7773 4.72266 23.3398 4.54297 24.0234 4.54297C24.7422 4.54297 25.3242 4.72852 25.7695 5.09961C26.2188 5.4707 26.4434 5.94531 26.4434 6.52344H25.3535C25.3535 6.22656 25.2266 5.9707 24.9727 5.75586C24.7227 5.54102 24.4062 5.43359 24.0234 5.43359C23.6289 5.43359 23.3203 5.51953 23.0977 5.69141C22.875 5.86328 22.7637 6.08789 22.7637 6.36523C22.7637 6.62695 22.8672 6.82422 23.0742 6.95703C23.2812 7.08984 23.6543 7.2168 24.1934 7.33789C24.7363 7.45898 25.1758 7.60352 25.5117 7.77148C25.8477 7.93945 26.0957 8.14258 26.2559 8.38086C26.4199 8.61523 26.502 8.90234 26.502 9.24219C26.502 9.80859 26.2754 10.2637 25.8223 10.6074C25.3691 10.9473 24.7812 11.1172 24.0586 11.1172C23.5508 11.1172 23.1016 11.0273 22.7109 10.8477C22.3203 10.668 22.0137 10.418 21.791 10.0977C21.5723 9.77344 21.4629 9.42383 21.4629 9.04883H22.5469C22.5664 9.41211 22.7109 9.70117 22.9805 9.91602C23.2539 10.127 23.6133 10.2324 24.0586 10.2324C24.4688 10.2324 24.7969 10.1504 25.043 9.98633C25.293 9.81836 25.418 9.5957 25.418 9.31836ZM29.0918 11H28.0078V2H29.0918V11ZM34.7461 11C34.6836 10.875 34.6328 10.6523 34.5938 10.332C34.0898 10.8555 33.4883 11.1172 32.7891 11.1172C32.1641 11.1172 31.6504 10.9414 31.248 10.5898C30.8496 10.2344 30.6504 9.78516 30.6504 9.24219C30.6504 8.58203 30.9004 8.07031 31.4004 7.70703C31.9043 7.33984 32.6113 7.15625 33.5215 7.15625H34.5762V6.6582C34.5762 6.2793 34.4629 5.97852 34.2363 5.75586C34.0098 5.5293 33.6758 5.41602 33.2344 5.41602C32.8477 5.41602 32.5234 5.51367 32.2617 5.70898C32 5.9043 31.8691 6.14062 31.8691 6.41797H30.7793C30.7793 6.10156 30.8906 5.79688 31.1133 5.50391C31.3398 5.20703 31.6445 4.97266 32.0273 4.80078C32.4141 4.62891 32.8379 4.54297 33.2988 4.54297C34.0293 4.54297 34.6016 4.72656 35.0156 5.09375C35.4297 5.45703 35.6445 5.95898 35.6602 6.59961V9.51758C35.6602 10.0996 35.7344 10.5625 35.8828 10.9062V11H34.7461ZM32.9473 10.1738C33.2871 10.1738 33.6094 10.0859 33.9141 9.91016C34.2188 9.73438 34.4395 9.50586 34.5762 9.22461V7.92383H33.7266C32.3984 7.92383 31.7344 8.3125 31.7344 9.08984C31.7344 9.42969 31.8477 9.69531 32.0742 9.88672C32.3008 10.0781 32.5918 10.1738 32.9473 10.1738ZM38.8301 3.125V4.66016H40.0137V5.49805H38.8301V9.42969C38.8301 9.68359 38.8828 9.875 38.9883 10.0039C39.0938 10.1289 39.2734 10.1914 39.5273 10.1914C39.6523 10.1914 39.8242 10.168 40.043 10.1211V11C39.7578 11.0781 39.4805 11.1172 39.2109 11.1172C38.7266 11.1172 38.3613 10.9707 38.1152 10.6777C37.8691 10.3848 37.7461 9.96875 37.7461 9.42969V5.49805H36.5918V4.66016H37.7461V3.125H38.8301ZM43.916 11.1172C43.0566 11.1172 42.3574 10.8359 41.8184 10.2734C41.2793 9.70703 41.0098 8.95117 41.0098 8.00586V7.80664C41.0098 7.17773 41.1289 6.61719 41.3672 6.125C41.6094 5.62891 41.9453 5.24219 42.375 4.96484C42.8086 4.68359 43.2773 4.54297 43.7812 4.54297C44.6055 4.54297 45.2461 4.81445 45.7031 5.35742C46.1602 5.90039 46.3887 6.67773 46.3887 7.68945V8.14062H42.0938C42.1094 8.76562 42.291 9.27148 42.6387 9.6582C42.9902 10.041 43.4355 10.2324 43.9746 10.2324C44.3574 10.2324 44.6816 10.1543 44.9473 9.99805C45.2129 9.8418 45.4453 9.63477 45.6445 9.37695L46.3066 9.89258C45.7754 10.709 44.9785 11.1172 43.916 11.1172ZM43.7812 5.43359C43.3438 5.43359 42.9766 5.59375 42.6797 5.91406C42.3828 6.23047 42.1992 6.67578 42.1289 7.25H45.3047V7.16797C45.2734 6.61719 45.125 6.19141 44.8594 5.89062C44.5938 5.58594 44.2344 5.43359 43.7812 5.43359ZM47.3848 7.77734C47.3848 6.80469 47.6152 6.02344 48.0762 5.43359C48.5371 4.83984 49.1406 4.54297 49.8867 4.54297C50.6289 4.54297 51.2168 4.79688 51.6504 5.30469V2H52.7344V11H51.7383L51.6855 10.3203C51.252 10.8516 50.6484 11.1172 49.875 11.1172C49.1406 11.1172 48.541 10.8164 48.0762 10.2148C47.6152 9.61328 47.3848 8.82812 47.3848 7.85938V7.77734ZM48.4688 7.90039C48.4688 8.61914 48.6172 9.18164 48.9141 9.58789C49.2109 9.99414 49.6211 10.1973 50.1445 10.1973C50.832 10.1973 51.334 9.88867 51.6504 9.27148V6.35938C51.3262 5.76172 50.8281 5.46289 50.1562 5.46289C49.625 5.46289 49.2109 5.66797 48.9141 6.07812C48.6172 6.48828 48.4688 7.0957 48.4688 7.90039ZM62.7656 7.90039C62.7656 8.86914 62.543 9.64844 62.0977 10.2383C61.6523 10.8242 61.0547 11.1172 60.3047 11.1172C59.5039 11.1172 58.8848 10.834 58.4473 10.2676L58.3945 11H57.3984V2H58.4824V5.35742C58.9199 4.81445 59.5234 4.54297 60.293 4.54297C61.0625 4.54297 61.666 4.83398 62.1035 5.41602C62.5449 5.99805 62.7656 6.79492 62.7656 7.80664V7.90039ZM61.6816 7.77734C61.6816 7.03906 61.5391 6.46875 61.2539 6.06641C60.9688 5.66406 60.5586 5.46289 60.0234 5.46289C59.3086 5.46289 58.7949 5.79492 58.4824 6.45898V9.20117C58.8145 9.86523 59.332 10.1973 60.0352 10.1973C60.5547 10.1973 60.959 9.99609 61.248 9.59375C61.5371 9.19141 61.6816 8.58594 61.6816 7.77734ZM66.1406 9.41211L67.6172 4.66016H68.7773L66.2285 11.9785C65.834 13.0332 65.207 13.5605 64.3477 13.5605L64.1426 13.543L63.7383 13.4668V12.5879L64.0312 12.6113C64.3984 12.6113 64.6836 12.5371 64.8867 12.3887C65.0938 12.2402 65.2637 11.9688 65.3965 11.5742L65.6367 10.9297L63.375 4.66016H64.5586L66.1406 9.41211Z" fill="black"/>
</svg>
