<svg width="110" height="110" viewBox="0 0 110 110" fill="none" xmlns="http://www.w3.org/2000/svg">
<path d="M54.5278 43.131C59.5758 43.131 63.668 39.0388 63.668 33.9909C63.668 28.9429 59.5758 24.8507 54.5278 24.8507C49.4799 24.8507 45.3877 28.9429 45.3877 33.9909C45.3877 39.0388 49.4799 43.131 54.5278 43.131Z" fill="black"/>
<path d="M44.4445 55.2116L44.6645 54.9814L44.964 55.088C45.8863 55.4172 46.7096 55.8149 47.4483 56.2862C48.8403 53.8095 51.4904 52.1316 54.5281 52.1316C57.7587 52.1316 60.5552 54.0312 61.86 56.7702C62.7646 56.0823 63.8146 55.5255 65.0373 55.088L65.3369 54.9814L65.556 55.2124C65.9216 55.5957 66.3142 56.0814 66.7262 56.6052C66.7262 56.3505 66.7262 56.0958 66.7262 55.8428C64.0101 54.1386 62.1968 51.1179 62.1968 47.6808C62.1968 45.9623 62.652 44.3478 63.4457 42.9491C62.7002 42.4863 61.9252 42.1368 61.1535 41.8601C59.4882 43.6125 57.1359 47.6943 54.5281 47.6943C51.9203 47.6943 49.5671 43.6125 47.9027 41.861C47.3722 42.0513 46.8391 42.2756 46.3162 42.548C47.2571 44.0356 47.8037 45.7947 47.8037 47.6808C47.8037 51.5029 45.5648 54.813 42.3291 56.3666C42.3291 56.843 42.3291 57.3185 42.3291 57.7949C42.5787 57.4877 42.8199 57.1814 43.0517 56.8878C43.5467 56.2583 44.0155 55.6643 44.4445 55.2116Z" fill="black"/>
<path d="M63.1768 47.6799C63.1768 52.4497 67.0581 56.331 71.8278 56.331C76.5984 56.331 80.4789 52.4497 80.4789 47.6799C80.4789 42.9093 76.5984 39.0289 71.8278 39.0289C67.0581 39.0289 63.1768 42.9093 63.1768 47.6799Z" fill="black"/>
<path d="M60.1172 66.1244V66.3165L60.2196 66.3546C61.7976 66.9198 63.0381 67.716 64.012 68.794C64.7228 69.5826 65.1933 70.9627 65.1933 71.5288V77.5627C67.0007 77.5991 69.2294 77.6202 71.8254 77.6202C78.2393 77.6202 82.4091 77.4866 83.5345 77.3461V61.1998C83.5337 60.8266 83.0784 59.4017 82.3947 58.6419C81.3971 57.5393 80.1829 56.7346 78.5896 56.1229C78.246 56.5096 77.8687 56.9885 77.4727 57.4911C75.9352 59.4432 74.022 61.8725 71.8254 61.8725C69.628 61.8725 67.7148 59.4432 66.1773 57.4911C65.7822 56.9885 65.4048 56.5096 65.0621 56.1229C63.9536 56.5476 63.0322 57.0697 62.236 57.7179C62.4983 58.5141 62.6421 59.3653 62.6421 60.2496C62.6438 62.5579 61.6716 64.6453 60.1172 66.1244Z" fill="black"/>
<path d="M59.1387 66.9223V67.122C59.3096 66.9138 59.4746 66.7218 59.6354 66.55C59.4746 66.6811 59.3088 66.8055 59.1387 66.9223Z" fill="black"/>
<path d="M59.9707 66.2632L60.1179 66.3165V66.1244C60.0689 66.1709 60.0198 66.2183 59.9707 66.2632Z" fill="black"/>
<path d="M38.1735 56.331C42.9442 56.331 46.8246 52.4497 46.8246 47.6799C46.8246 42.9093 42.9442 39.0289 38.1735 39.0289C33.4046 39.0289 29.5225 42.9093 29.5225 47.6799C29.5225 52.4497 33.4046 56.331 38.1735 56.331Z" fill="black"/>
<path d="M46.4103 60.2496C46.4103 59.1606 46.6277 58.1206 47.0186 57.1704C46.4026 56.7651 45.7156 56.4199 44.9371 56.1229C44.5936 56.5096 44.2162 56.9885 43.8202 57.4911C42.2827 59.4432 40.3704 61.8725 38.1738 61.8725C35.9763 61.8725 34.0632 59.4432 32.5257 57.4911C32.1306 56.9885 31.7532 56.5096 31.4096 56.1229C29.8163 56.7346 28.6004 57.5393 27.6028 58.6436C26.9081 59.4136 26.4647 60.8165 26.4639 61.2015V77.3461C27.5901 77.4866 31.7583 77.6202 38.1721 77.6202C40.3332 77.6202 42.2379 77.6033 43.8583 77.5788V71.5305C43.8591 70.9619 44.3313 69.5801 45.0403 68.794C46.0151 67.7169 47.2556 66.9198 48.8336 66.3546L49.0833 66.264C47.4434 64.779 46.4103 62.6323 46.4103 60.2496Z" fill="black"/>
<path d="M54.5278 53.1105C50.5923 53.1105 47.3896 56.3124 47.3896 60.2495C47.3896 64.1842 50.5915 67.3877 54.5278 67.3877C58.4624 67.3877 61.6651 64.185 61.6651 60.2495C61.6643 56.3124 58.4624 53.1105 54.5278 53.1105Z" fill="black"/>
<path d="M64.2172 71.5305C64.2164 71.2284 63.8449 70.0692 63.2864 69.4498C62.475 68.552 61.4858 67.8929 60.1946 67.3885C59.9196 67.7025 59.6175 68.0858 59.3028 68.486C58.0098 70.1267 56.3996 72.171 54.5271 72.171C52.6545 72.171 51.0435 70.1267 49.7505 68.4843C49.4358 68.0858 49.1345 67.7025 48.8595 67.3885C47.5683 67.8929 46.5791 68.552 45.7668 69.4498C45.2092 70.0692 44.8378 71.2284 44.8369 71.5322V84.9302C45.8591 85.0444 49.3038 85.1502 54.5254 85.1502C59.747 85.1502 63.1934 85.0444 64.2155 84.9302V71.5305H64.2172Z" fill="black"/>
</svg>
