<?xml version="1.0" encoding="UTF-8"?>
<svg width="40px" height="40px" viewBox="0 0 40 40" version="1.1" xmlns="http://www.w3.org/2000/svg" xmlns:xlink="http://www.w3.org/1999/xlink">
    <!-- Generator: Sketch 52.1 (67048) - http://www.bohemiancoding.com/sketch -->
    <title>Thumbs Up</title>
    <desc>Created with Sketch.</desc>
    <g id="3.0.0---Dashboard" stroke="none" stroke-width="1" fill="none" fill-rule="evenodd">
        <g id="Desktop---Idea-Feed" transform="translate(-1112.000000, -589.000000)">
            <g id="Table" transform="translate(121.000000, 361.000000)">
                <g id="Thumbs-Up" transform="translate(991.000000, 228.000000)">
                    <circle id="Oval-3" fill="#FFC300" fill-rule="nonzero" cx="20" cy="20" r="20"></circle>
                    <path d="M11.9204254,25.3221968 C12.0451912,25.4461725 12.18744,25.5172414 12.3662444,25.5172414 L15.2199625,25.5172414 C15.3987669,25.5172414 15.5410157,25.4461725 15.6657815,25.3221968 C15.7905472,25.1982211 15.862069,25.0560834 15.862069,24.8792009 L15.862069,18.569075 C15.862069,18.3921925 15.7905472,18.2500547 15.6657815,18.126079 C15.5410157,18.0021034 15.3987669,17.9310345 15.2199625,17.9310345 L12.3662444,17.9310345 C12.18744,17.9310345 12.0451912,18.0021034 11.9204254,18.126079 C11.7956597,18.2500547 11.7241379,18.3921925 11.7241379,18.569075 L11.7241379,24.8792009 C11.7241379,25.0560834 11.7956597,25.1982211 11.9204254,25.3221968 L11.9204254,25.3221968 Z M13.2953746,22.9525727 C13.4292965,22.8166331 13.6016037,22.7586207 13.7926769,22.7586207 C13.9846032,22.7586207 14.1372913,22.8166331 14.2720662,22.9525727 C14.4059881,23.0885122 14.4827586,23.2634154 14.4827586,23.4383185 C14.4827586,23.6331364 14.4059881,23.8080395 14.2720662,23.943979 C14.1372913,24.0799186 13.9846032,24.137931 13.7926769,24.137931 C13.6016037,24.137931 13.4292965,24.0799186 13.2953746,23.943979 C13.1614527,23.8080395 13.1034483,23.6331364 13.1034483,23.4383185 C13.1034483,23.2634154 13.1614527,23.0885122 13.2953746,22.9525727 L13.2953746,22.9525727 Z M16.7397583,25.3767188 C16.8893499,25.5063298 17.0397772,25.5806291 17.2269756,25.5806291 C17.4710022,25.5806291 18.0150476,25.7473897 18.8774976,26.0437612 C19.4031575,26.2105218 19.8343825,26.3591203 20.1344014,26.4515816 C20.435256,26.544043 20.866481,26.6365043 21.4105265,26.7479532 C21.9545719,26.8594021 22.4610106,26.8965517 22.9106211,26.8965517 L24.2611241,26.8965517 C25.1996234,26.8965517 25.874875,26.6183422 26.3244855,26.0990729 C26.7373249,25.6177787 26.9061378,25.006048 26.8309241,24.2275568 C27.1125575,23.9683349 27.3005916,23.6538013 27.4125764,23.2641429 C27.5253969,22.8381604 27.5253969,22.4303399 27.4125764,22.0415071 C27.7318166,21.6336866 27.8814082,21.1515669 27.8630227,20.6331231 C27.8630227,20.4110509 27.8070303,20.1510034 27.6942098,19.8546319 C28.0878279,19.4104873 28.2758621,18.891218 28.2758621,18.2984749 C28.2758621,17.7792055 28.0694424,17.2979114 27.6758242,16.908253 C27.2813704,16.5194201 26.8125386,16.3155099 26.2684931,16.3155099 L23.3610673,16.3155099 C23.3986742,16.2230486 23.4170597,16.1487493 23.4546666,16.07445 C23.4738878,16.0009763 23.5114947,15.926677 23.5674871,15.8523778 C23.6050939,15.7599164 23.6427007,15.7037792 23.6610863,15.6666296 C23.7922923,15.4263953 23.8858915,15.2406471 23.9611052,15.0928741 C24.0179333,14.9261135 24.0923112,14.7222033 24.1491393,14.4629814 C24.2235173,14.2029339 24.2611241,13.943712 24.2611241,13.6844901 C24.2611241,13.5177295 24.2427386,13.3881186 24.2427386,13.2766697 C24.2427386,13.1652208 24.2235173,13.0174478 24.2051317,12.8135375 C24.1675249,12.6096273 24.1299181,12.4238791 24.0739257,12.2942682 C24.0179333,12.1646572 23.9427196,11.9978966 23.8115136,11.8311361 C23.6986931,11.6643755 23.5674871,11.5166025 23.3986742,11.4051536 C23.2298613,11.3126923 23.0234416,11.2202309 22.7794151,11.1459317 C22.517003,11.0716324 22.2353696,11.0344828 21.9169651,11.0344828 C21.728931,11.0344828 21.5793393,11.108782 21.428912,11.238393 C21.297706,11.3680039 21.1848855,11.5347645 21.0729007,11.7386747 C20.9784658,11.960747 20.9224734,12.1275076 20.8848666,12.2761061 C20.8472597,12.4428667 20.7912674,12.646777 20.7536605,12.9059989 C20.6784469,13.2023704 20.64084,13.4062806 20.6032332,13.5358916 C20.5664621,13.6655025 20.509634,13.8322631 20.4160348,14.0361733 C20.3224355,14.2400836 20.2288363,14.4068441 20.0976303,14.5364551 C19.8719893,14.7593529 19.515978,15.1853354 19.0463105,15.7780785 C18.6902992,16.2230486 18.3526734,16.630869 17.9774408,17.0197019 C17.6214295,17.4275223 17.3581817,17.6314325 17.1893688,17.6314325 C17.0205559,17.6495946 16.8709643,17.7238939 16.7397583,17.8535048 C16.6085522,17.9831158 16.5517241,18.1317143 16.5517241,18.2984749 L16.5517241,24.9135867 C16.5517241,25.0985093 16.6085522,25.2471079 16.7397583,25.3767188 L16.7397583,25.3767188 Z" id="Icon" fill="#FFFFFF"></path>
                </g>
            </g>
        </g>
    </g>
</svg>