<svg width="110" height="110" viewBox="0 0 110 110" fill="none" xmlns="http://www.w3.org/2000/svg">
<path d="M38.0823 47.1838C32.7684 47.4788 27.767 49.789 24.0974 53.6437C20.4278 57.4984 18.3663 62.6074 18.333 67.9293V95.5953C18.333 95.9426 18.471 96.2756 18.7166 96.5212C18.9621 96.7668 19.2952 96.9048 19.6425 96.9048C19.9898 96.9048 20.3229 96.7668 20.5685 96.5212C20.8141 96.2756 20.9521 95.9426 20.9521 95.5953V67.9293C20.9877 63.0828 22.9443 58.4483 26.3926 55.0425C29.8408 51.6366 34.4992 49.7376 39.3458 49.7619H40.6766C39.7432 48.9745 38.8756 48.1123 38.0823 47.1838Z" fill="black"/>
<path d="M71.9176 47.1838C71.1243 48.1123 70.2567 48.9745 69.3232 49.7619H70.6541C75.5007 49.7376 80.159 51.6366 83.6073 55.0425C87.0556 58.4483 89.0121 63.0828 89.0478 67.9293V95.5953C89.0478 95.9426 89.1858 96.2756 89.4314 96.5212C89.677 96.7668 90.01 96.9048 90.3573 96.9048C90.7047 96.9048 91.0377 96.7668 91.2833 96.5212C91.5289 96.2756 91.6669 95.9426 91.6669 95.5953V67.9293C91.6336 62.6074 89.5721 57.4984 85.9025 53.6437C82.2329 49.789 77.2314 47.4788 71.9176 47.1838Z" fill="black"/>
<path d="M55.0003 13.0952C51.1152 13.0952 47.3174 14.2473 44.0871 16.4058C40.8568 18.5642 38.3391 21.6321 36.8525 25.2215C35.3658 28.8109 34.9769 32.7605 35.735 36.5709C36.4931 40.3813 38.3641 43.8813 41.1114 46.6283C43.8586 49.3754 47.3588 51.246 51.1693 52.0037C54.9798 52.7614 58.9294 52.3722 62.5186 50.8852C66.1078 49.3982 69.1755 46.8802 71.3336 43.6497C73.4918 40.4192 74.6435 36.6213 74.6431 32.7362C74.6436 30.1566 74.1358 27.6022 73.1488 25.219C72.1618 22.8357 70.7149 20.6702 68.8908 18.8463C67.0667 17.0223 64.901 15.5756 62.5177 14.5888C60.1343 13.6021 57.5799 13.0945 55.0003 13.0952Z" fill="black"/>
<path d="M34.0478 86.4286C33.7005 86.4286 33.3674 86.5666 33.1219 86.8122C32.8763 87.0577 32.7383 87.3908 32.7383 87.7381V95.5953C32.7383 95.9426 32.8762 96.2757 33.1218 96.5212C33.3674 96.7668 33.7005 96.9048 34.0478 96.9048C34.3951 96.9048 34.7282 96.7668 34.9738 96.5212C35.2194 96.2757 35.3573 95.9426 35.3573 95.5953V87.7381C35.3573 87.3908 35.2193 87.0577 34.9738 86.8122C34.7282 86.5666 34.3951 86.4286 34.0478 86.4286Z" fill="black"/>
<path d="M75.9521 86.4286C75.6048 86.4286 75.2717 86.5666 75.0261 86.8122C74.7806 87.0577 74.6426 87.3908 74.6426 87.7381V95.5953C74.6426 95.9426 74.7805 96.2757 75.0261 96.5212C75.2717 96.7668 75.6048 96.9048 75.9521 96.9048C76.2994 96.9048 76.6325 96.7668 76.8781 96.5212C77.1237 96.2757 77.2616 95.9426 77.2616 95.5953V87.7381C77.2616 87.3908 77.1236 87.0577 76.8781 86.8122C76.6325 86.5666 76.2994 86.4286 75.9521 86.4286Z" fill="black"/>
<path d="M23.3065 39.7771C23.5216 39.896 23.7659 39.9519 24.0113 39.9385C24.2567 39.9251 24.4934 39.8429 24.6943 39.7013C24.8953 39.5598 25.0523 39.3645 25.1475 39.1379C25.2427 38.9114 25.2722 38.6625 25.2327 38.42L24.6432 34.8082L27.1283 32.2617C27.2964 32.0894 27.4137 31.8741 27.4674 31.6394C27.5211 31.4047 27.5091 31.1598 27.4326 30.9315C27.3562 30.7032 27.2184 30.5004 27.0342 30.3454C26.8501 30.1903 26.6268 30.089 26.3888 30.0526L23.0076 29.5359L21.4835 26.289C21.3778 26.0638 21.2102 25.8734 21.0003 25.74C20.7904 25.6066 20.5468 25.5358 20.298 25.5358C20.0493 25.5358 19.8057 25.6066 19.5958 25.74C19.3858 25.8734 19.2182 26.0638 19.1126 26.289L17.5885 29.5359L14.2073 30.0526C13.9693 30.089 13.746 30.1903 13.5619 30.3454C13.3777 30.5004 13.2399 30.7032 13.1634 30.9315C13.087 31.1598 13.075 31.4047 13.1287 31.6394C13.1824 31.8741 13.2997 32.0894 13.4678 32.2617L15.9529 34.8082L15.3634 38.42C15.3238 38.6625 15.3534 38.9114 15.4486 39.1379C15.5438 39.3645 15.7008 39.5598 15.9018 39.7013C16.1027 39.8429 16.3394 39.9251 16.5848 39.9385C16.8302 39.9519 17.0745 39.896 17.2896 39.7771L20.298 38.114L23.3065 39.7771ZM18.3827 36.1804L18.6442 34.5777C18.6772 34.3754 18.6622 34.1681 18.6005 33.9726C18.5389 33.7771 18.4321 33.5988 18.289 33.452L17.1224 32.2566L18.6749 32.0194C18.8875 31.9869 19.0887 31.9026 19.261 31.7738C19.4332 31.6451 19.5711 31.4759 19.6625 31.2812L20.298 29.9272L20.9336 31.2812C21.025 31.4758 21.1628 31.645 21.3351 31.7738C21.5073 31.9025 21.7086 31.9869 21.9212 32.0194L23.4737 32.2566L22.3071 33.452C22.1639 33.5987 22.0572 33.7771 21.9955 33.9726C21.9339 34.1681 21.9189 34.3753 21.9519 34.5777L22.2134 36.1804L20.9317 35.4716C20.7377 35.3644 20.5197 35.3082 20.298 35.3082C20.0764 35.3082 19.8584 35.3644 19.6644 35.4716L18.3827 36.1804Z" fill="black"/>
<path d="M96.837 30.9314C96.7606 30.7031 96.6227 30.5003 96.4386 30.3452C96.2544 30.1902 96.0311 30.0889 95.7931 30.0525L92.4119 29.5359L90.8878 26.2889C90.7822 26.0637 90.6145 25.8733 90.4046 25.7399C90.1947 25.6065 89.9511 25.5357 89.7023 25.5357C89.4536 25.5357 89.21 25.6065 89.0001 25.7399C88.7901 25.8733 88.6225 26.0637 88.5169 26.2889L86.9928 29.5359L83.6116 30.0525C83.3736 30.0889 83.1503 30.1902 82.9662 30.3453C82.782 30.5004 82.6441 30.7032 82.5677 30.9314C82.4913 31.1597 82.4793 31.4047 82.533 31.6393C82.5867 31.874 82.704 32.0893 82.8721 32.2617L85.3572 34.8082L84.7677 38.4199C84.7281 38.6625 84.7577 38.9113 84.8529 39.1379C84.9481 39.3645 85.1051 39.5597 85.3061 39.7013C85.507 39.8428 85.7437 39.925 85.9891 39.9384C86.2345 39.9518 86.4788 39.8959 86.6939 39.777L89.7023 38.114L92.7108 39.777C92.9259 39.8959 93.1702 39.9518 93.4156 39.9384C93.661 39.925 93.8977 39.8428 94.0986 39.7013C94.2996 39.5597 94.4566 39.3645 94.5518 39.1379C94.647 38.9113 94.6766 38.6625 94.637 38.4199L94.0475 34.8082L96.5326 32.2617C96.7007 32.0893 96.818 31.874 96.8717 31.6393C96.9254 31.4046 96.9134 31.1597 96.837 30.9314ZM91.7114 33.452C91.5683 33.5987 91.4615 33.777 91.3999 33.9726C91.3382 34.1681 91.3232 34.3753 91.3562 34.5777L91.6177 36.1804L90.336 35.4716C90.142 35.3644 89.924 35.3082 89.7023 35.3082C89.4807 35.3082 89.2627 35.3644 89.0687 35.4716L87.787 36.1804L88.0485 34.5777C88.0815 34.3753 88.0665 34.1681 88.0048 33.9726C87.9431 33.777 87.8364 33.5987 87.6933 33.452L86.5267 32.2566L88.0792 32.0194C88.2918 31.9869 88.493 31.9025 88.6653 31.7738C88.8375 31.645 88.9754 31.4758 89.0668 31.2812L89.7023 29.9272L90.3379 31.2811C90.4293 31.4758 90.5672 31.645 90.7394 31.7737C90.9116 31.9025 91.1129 31.9868 91.3255 32.0193L92.878 32.2566L91.7114 33.452Z" fill="black"/>
</svg>
