<?xml version="1.0" encoding="UTF-8"?>
<svg width="977px" height="320px" viewBox="0 0 977 320" version="1.1" xmlns="http://www.w3.org/2000/svg" xmlns:xlink="http://www.w3.org/1999/xlink">
    <!-- Generator: Sketch 52.5 (67469) - http://www.bohemiancoding.com/sketch -->
    <title>Group</title>
    <desc>Created with Sketch.</desc>
    <defs>
        <radialGradient cx="48.2544192%" cy="50%" fx="48.2544192%" fy="50%" r="29.8339844%" gradientTransform="translate(0.482544,0.500000),scale(0.096970,1.000000),rotate(90.000000),scale(1.000000,18.129296),translate(-0.482544,-0.500000)" id="radialGradient-1">
            <stop stop-color="#000000" offset="0%"></stop>
            <stop stop-color="#000000" stop-opacity="0" offset="100%"></stop>
        </radialGradient>
    </defs>
    <g id="3.0.0---Front-End" stroke="none" stroke-width="1" fill="none" fill-rule="evenodd">
        <g id="Desktop---Landing-Page-NEW" transform="translate(-237.000000, -1413.000000)">
            <g id="Two-Questions" transform="translate(0.000000, 1026.000000)">
                <g id="Questions">
                    <g id="Group" transform="translate(237.000000, 387.000000)">
                        <ellipse id="Shadow" fill-opacity="0.08" fill="url(#radialGradient-1)" fill-rule="nonzero" cx="258.5" cy="280" rx="247.5" ry="24"></ellipse>
                        <ellipse id="Shadow" fill-opacity="0.08" fill="url(#radialGradient-1)" fill-rule="nonzero" cx="717.5" cy="306" rx="247.5" ry="24"></ellipse>
                        <g id="Bubble-1">
                            <path d="M354.263887,224 L32,224 C14.326888,224 2.164332e-15,209.673112 0,192 L0,32 C-2.164332e-15,14.326888 14.326888,3.24649801e-15 32,0 L476,0 C493.673112,-3.24649801e-15 508,14.326888 508,32 L508,192 C508,209.673112 493.673112,224 476,224 L409.916526,224 L409.453962,273.87299 C409.433474,276.082034 407.62608,277.856209 405.417036,277.83572 C404.30993,277.825452 403.256598,277.356776 402.507783,276.54126 L354.263887,224 Z" id="Combined-Shape" fill="#F5F5F5" fill-rule="nonzero"></path>
                            <path d="M143.844,52.44 L148.58,52.44 L140.548,75 L136.548,75 L131.332,60.056 L126.052,75 L122.052,75 L114.052,52.44 L119.108,52.44 L124.26,68.024 L129.732,52.44 L133.22,52.44 L138.5,68.184 L143.844,52.44 Z M165.156,68.056 L154.916,68.056 C155.065334,69.314673 155.475997,70.2266638 156.148,70.792 C156.820003,71.3573362 157.77466,71.64 159.012,71.64 C159.822671,71.64 160.627996,71.506668 161.428,71.24 C162.228004,70.973332 162.958663,70.5946691 163.62,70.104 L164.9,73.336 C164.131996,73.9333363 163.198672,74.402665 162.1,74.744 C161.001328,75.085335 159.897339,75.256 158.788,75.256 C156.142653,75.256 154.057341,74.5253406 152.532,73.064 C151.006659,71.6026594 150.244,69.6133459 150.244,67.096 C150.244,65.495992 150.574663,64.0773395 151.236,62.84 C151.897337,61.6026605 152.814661,60.6373368 153.988,59.944 C155.161339,59.2506632 156.494659,58.904 157.988,58.904 C160.185344,58.904 161.929327,59.6186595 163.22,61.048 C164.510673,62.4773405 165.156,64.4186544 165.156,66.872 L165.156,68.056 Z M158.116,62.232 C157.198662,62.232 156.468003,62.5253304 155.924,63.112 C155.379997,63.6986696 155.044001,64.5466611 154.916,65.656 L161.092,65.656 C161.028,64.5253277 160.745336,63.6720029 160.244,63.096 C159.742664,62.5199971 159.033338,62.232 158.116,62.232 Z M179.3,62.872 L176.58,63.16 C175.235993,63.2880006 174.286669,63.6666635 173.732,64.296 C173.177331,64.9253365 172.9,65.7626614 172.9,66.808 L172.9,75 L168.068,75 L168.068,59.288 L172.708,59.288 L172.708,61.944 C173.497337,60.1306576 175.129321,59.1386675 177.604,58.968 L179.012,58.872 L179.3,62.872 Z M195.044,68.056 L184.804,68.056 C184.953334,69.314673 185.363997,70.2266638 186.036,70.792 C186.708003,71.3573362 187.66266,71.64 188.9,71.64 C189.710671,71.64 190.515996,71.506668 191.316,71.24 C192.116004,70.973332 192.846663,70.5946691 193.508,70.104 L194.788,73.336 C194.019996,73.9333363 193.086672,74.402665 191.988,74.744 C190.889328,75.085335 189.785339,75.256 188.676,75.256 C186.030653,75.256 183.945341,74.5253406 182.42,73.064 C180.894659,71.6026594 180.132,69.6133459 180.132,67.096 C180.132,65.495992 180.462663,64.0773395 181.124,62.84 C181.785337,61.6026605 182.702661,60.6373368 183.876,59.944 C185.049339,59.2506632 186.382659,58.904 187.876,58.904 C190.073344,58.904 191.817327,59.6186595 193.108,61.048 C194.398673,62.4773405 195.044,64.4186544 195.044,66.872 L195.044,68.056 Z M188.004,62.232 C187.086662,62.232 186.356003,62.5253304 185.812,63.112 C185.267997,63.6986696 184.932001,64.5466611 184.804,65.656 L190.98,65.656 C190.916,64.5253277 190.633336,63.6720029 190.132,63.096 C189.630664,62.5199971 188.921338,62.232 188.004,62.232 Z M217.764,59.32 L222.5,59.32 L213.028,80.76 L208.132,80.76 L211.14,74.136 L204.676,59.32 L209.7,59.32 L213.668,69.304 L217.764,59.32 Z M231.524,75.256 C229.859992,75.256 228.398673,74.9200034 227.14,74.248 C225.881327,73.5759966 224.91067,72.6266728 224.228,71.4 C223.54533,70.1733272 223.204,68.7280083 223.204,67.064 C223.204,65.3999917 223.54533,63.9546728 224.228,62.728 C224.91067,61.5013272 225.881327,60.5573366 227.14,59.896 C228.398673,59.2346634 229.859992,58.904 231.524,58.904 C233.188008,58.904 234.649327,59.2346634 235.908,59.896 C237.166673,60.5573366 238.13733,61.5013272 238.82,62.728 C239.50267,63.9546728 239.844,65.3999917 239.844,67.064 C239.844,68.7280083 239.50267,70.1733272 238.82,71.4 C238.13733,72.6266728 237.166673,73.5759966 235.908,74.248 C234.649327,74.9200034 233.188008,75.256 231.524,75.256 Z M231.524,71.576 C233.870678,71.576 235.044,70.072015 235.044,67.064 C235.044,65.5493258 234.740003,64.4186704 234.132,63.672 C233.523997,62.9253296 232.654672,62.552 231.524,62.552 C229.177322,62.552 228.004,64.055985 228.004,67.064 C228.004,70.072015 229.177322,71.576 231.524,71.576 Z M257.924,59.288 L257.924,75 L253.22,75 L253.22,72.76 C252.729331,73.5706707 252.084004,74.1893312 251.284,74.616 C250.483996,75.0426688 249.582672,75.256 248.58,75.256 C246.59599,75.256 245.118672,74.7066722 244.148,73.608 C243.177328,72.5093278 242.692,70.8506778 242.692,68.632 L242.692,59.288 L247.524,59.288 L247.524,68.728 C247.524,69.6666714 247.721331,70.3599978 248.116,70.808 C248.510669,71.2560022 249.113329,71.48 249.924,71.48 C250.862671,71.48 251.62533,71.1600032 252.212,70.52 C252.79867,69.8799968 253.092,69.0373386 253.092,67.992 L253.092,59.288 L257.924,59.288 Z M276.612,75.256 C275.161326,75.256 273.833339,75.0906683 272.628,74.76 C271.422661,74.4293317 270.382671,73.9546698 269.508,73.336 L270.788,70.008 C271.641338,70.5840029 272.579995,71.0319984 273.604,71.352 C274.628005,71.6720016 275.662661,71.832 276.708,71.832 C277.45467,71.832 278.035998,71.7093346 278.452,71.464 C278.868002,71.2186654 279.076,70.8826688 279.076,70.456 C279.076,70.0719981 278.932001,69.7733344 278.644,69.56 C278.355999,69.3466656 277.817337,69.1546675 277.028,68.984 L274.468,68.408 C272.953326,68.066665 271.83867,67.5386702 271.124,66.824 C270.40933,66.1093298 270.052,65.1333395 270.052,63.896 C270.052,62.9146618 270.334664,62.0506704 270.9,61.304 C271.465336,60.5573296 272.265328,59.9706688 273.3,59.544 C274.334672,59.1173312 275.513327,58.904 276.836,58.904 C277.966672,58.904 279.065328,59.074665 280.132,59.416 C281.198672,59.757335 282.158662,60.2373302 283.012,60.856 L281.732,64.056 C280.067992,62.9039942 278.425341,62.328 276.804,62.328 C276.05733,62.328 275.470669,62.4559987 275.044,62.712 C274.617331,62.9680013 274.404,63.3306643 274.404,63.8 C274.404,64.141335 274.531999,64.407999 274.788,64.6 C275.044001,64.792001 275.491997,64.9733325 276.132,65.144 L278.788,65.752 C280.388008,66.1146685 281.555996,66.6639963 282.292,67.4 C283.028004,68.1360037 283.396,69.133327 283.396,70.392 C283.396,71.9066742 282.793339,73.0959957 281.588,73.96 C280.382661,74.8240043 278.724011,75.256 276.612,75.256 Z M293.124,58.904 C295.470678,58.904 297.203994,59.4586611 298.324,60.568 C299.444006,61.6773389 300.004,63.394655 300.004,65.72 L300.004,75 L295.428,75 L295.428,72.664 C295.107998,73.4746707 294.57467,74.109331 293.828,74.568 C293.08133,75.026669 292.206672,75.256 291.204,75.256 C290.137328,75.256 289.172004,75.0426688 288.308,74.616 C287.443996,74.1893312 286.761336,73.5920038 286.26,72.824 C285.758664,72.0559962 285.508,71.2026714 285.508,70.264 C285.508,69.1119942 285.80133,68.2053366 286.388,67.544 C286.97467,66.8826634 287.91866,66.4026682 289.22,66.104 C290.52134,65.8053318 292.302655,65.656 294.564,65.656 L295.396,65.656 L295.396,65.08 C295.396,64.1413286 295.193335,63.4800019 294.788,63.096 C294.382665,62.7119981 293.678672,62.52 292.676,62.52 C291.907996,62.52 291.054671,62.6586653 290.116,62.936 C289.177329,63.2133347 288.281338,63.5973309 287.428,64.088 L286.148,60.856 C287.044004,60.3013306 288.147993,59.8373352 289.46,59.464 C290.772007,59.0906648 291.993328,58.904 293.124,58.904 Z M292.26,71.928 C293.198671,71.928 293.955997,71.6133365 294.532,70.984 C295.108003,70.3546635 295.396,69.5386717 295.396,68.536 L295.396,67.992 L294.852,67.992 C293.123991,67.992 291.913337,68.1306653 291.22,68.408 C290.526663,68.6853347 290.18,69.186663 290.18,69.912 C290.18,70.4880029 290.377331,70.9679981 290.772,71.352 C291.166669,71.7360019 291.662664,71.928 292.26,71.928 Z M312.324,71.704 C312.814669,71.704 313.326664,71.6720003 313.86,71.608 L313.604,75.128 C312.98533,75.2133338 312.36667,75.256 311.748,75.256 C309.358655,75.256 307.614672,74.7333386 306.516,73.688 C305.417328,72.6426614 304.868,71.053344 304.868,68.92 L304.868,62.904 L301.892,62.904 L301.892,59.288 L304.868,59.288 L304.868,54.68 L309.7,54.68 L309.7,59.288 L313.636,59.288 L313.636,62.904 L309.7,62.904 L309.7,68.888 C309.7,70.7653427 310.574658,71.704 312.324,71.704 Z M316.004,75 L316.004,59.288 L320.836,59.288 L320.836,75 L316.004,75 Z M315.844,51.736 L321.028,51.736 L321.028,56.248 L315.844,56.248 L315.844,51.736 Z M330.596,75.256 C329.145326,75.256 327.817339,75.0906683 326.612,74.76 C325.406661,74.4293317 324.366671,73.9546698 323.492,73.336 L324.772,70.008 C325.625338,70.5840029 326.563995,71.0319984 327.588,71.352 C328.612005,71.6720016 329.646661,71.832 330.692,71.832 C331.43867,71.832 332.019998,71.7093346 332.436,71.464 C332.852002,71.2186654 333.06,70.8826688 333.06,70.456 C333.06,70.0719981 332.916001,69.7733344 332.628,69.56 C332.339999,69.3466656 331.801337,69.1546675 331.012,68.984 L328.452,68.408 C326.937326,68.066665 325.82267,67.5386702 325.108,66.824 C324.39333,66.1093298 324.036,65.1333395 324.036,63.896 C324.036,62.9146618 324.318664,62.0506704 324.884,61.304 C325.449336,60.5573296 326.249328,59.9706688 327.284,59.544 C328.318672,59.1173312 329.497327,58.904 330.82,58.904 C331.950672,58.904 333.049328,59.074665 334.116,59.416 C335.182672,59.757335 336.142662,60.2373302 336.996,60.856 L335.716,64.056 C334.051992,62.9039942 332.409341,62.328 330.788,62.328 C330.04133,62.328 329.454669,62.4559987 329.028,62.712 C328.601331,62.9680013 328.388,63.3306643 328.388,63.8 C328.388,64.141335 328.515999,64.407999 328.772,64.6 C329.028001,64.792001 329.475997,64.9733325 330.116,65.144 L332.772,65.752 C334.372008,66.1146685 335.539996,66.6639963 336.276,67.4 C337.012004,68.1360037 337.38,69.133327 337.38,70.392 C337.38,71.9066742 336.777339,73.0959957 335.572,73.96 C334.366661,74.8240043 332.708011,75.256 330.596,75.256 Z M351.972,51.704 L357.188,51.704 L357.188,56.28 L351.972,56.28 L351.972,51.704 Z M346.212,59.288 L356.996,59.288 L356.996,75 L352.164,75 L352.164,62.904 L346.212,62.904 L346.212,75 L341.38,75 L341.38,62.904 L338.404,62.904 L338.404,59.288 L341.38,59.288 C341.422667,57.0266554 342.083994,55.3306723 343.364,54.2 C344.644006,53.0693277 346.553321,52.4506672 349.092,52.344 L350.564,52.28 L350.788,55.832 L349.284,55.896 C348.110661,55.9386669 347.305336,56.1786645 346.868,56.616 C346.430664,57.0533355 346.212,57.7199955 346.212,58.616 L346.212,59.288 Z M374.852,68.056 L364.612,68.056 C364.761334,69.314673 365.171997,70.2266638 365.844,70.792 C366.516003,71.3573362 367.47066,71.64 368.708,71.64 C369.518671,71.64 370.323996,71.506668 371.124,71.24 C371.924004,70.973332 372.654663,70.5946691 373.316,70.104 L374.596,73.336 C373.827996,73.9333363 372.894672,74.402665 371.796,74.744 C370.697328,75.085335 369.593339,75.256 368.484,75.256 C365.838653,75.256 363.753341,74.5253406 362.228,73.064 C360.702659,71.6026594 359.94,69.6133459 359.94,67.096 C359.94,65.495992 360.270663,64.0773395 360.932,62.84 C361.593337,61.6026605 362.510661,60.6373368 363.684,59.944 C364.857339,59.2506632 366.190659,58.904 367.684,58.904 C369.881344,58.904 371.625327,59.6186595 372.916,61.048 C374.206673,62.4773405 374.852,64.4186544 374.852,66.872 L374.852,68.056 Z M367.812,62.232 C366.894662,62.232 366.164003,62.5253304 365.62,63.112 C365.075997,63.6986696 364.740001,64.5466611 364.612,65.656 L370.788,65.656 C370.724,64.5253277 370.441336,63.6720029 369.94,63.096 C369.438664,62.5199971 368.729338,62.232 367.812,62.232 Z M393.668,52.44 L393.668,75 L388.868,75 L388.868,72.664 C388.398664,73.4746707 387.732004,74.109331 386.868,74.568 C386.003996,75.026669 385.028005,75.256 383.94,75.256 C382.595993,75.256 381.396005,74.9093368 380.34,74.216 C379.283995,73.5226632 378.46267,72.5520062 377.876,71.304 C377.28933,70.0559938 376.996,68.6213414 376.996,67 C376.996,65.3786586 377.28933,63.9546728 377.876,62.728 C378.46267,61.5013272 379.278661,60.5573366 380.324,59.896 C381.369339,59.2346634 382.57466,58.904 383.94,58.904 C385.006672,58.904 385.971996,59.1279978 386.836,59.576 C387.700004,60.0240022 388.366664,60.6533293 388.836,61.464 L388.836,52.44 L393.668,52.44 Z M385.348,71.576 C386.478672,71.576 387.347997,71.1866706 387.956,70.408 C388.564003,69.6293294 388.868,68.5146739 388.868,67.064 C388.868,65.6133261 388.564003,64.5040038 387.956,63.736 C387.347997,62.9679962 386.478672,62.584 385.348,62.584 C384.217328,62.584 383.34267,62.9626629 382.724,63.72 C382.10533,64.4773371 381.796,65.5706595 381.796,67 C381.796,68.4506739 382.10533,69.575996 382.724,70.376 C383.34267,71.176004 384.217328,71.576 385.348,71.576 Z M120.644,99.288 L125.348,99.288 L118.98,115 L114.884,115 L111.428,106.136 L108.068,115 L104.004,115 L97.604,99.288 L102.532,99.288 L106.244,109.24 L109.956,99.288 L113.22,99.288 L116.964,109.336 L120.644,99.288 Z M127.14,115 L127.14,99.288 L131.972,99.288 L131.972,115 L127.14,115 Z M126.98,91.736 L132.164,91.736 L132.164,96.248 L126.98,96.248 L126.98,91.736 Z M144.388,111.704 C144.878669,111.704 145.390664,111.672 145.924,111.608 L145.668,115.128 C145.04933,115.213334 144.43067,115.256 143.812,115.256 C141.422655,115.256 139.678672,114.733339 138.58,113.688 C137.481328,112.642661 136.932,111.053344 136.932,108.92 L136.932,102.904 L133.956,102.904 L133.956,99.288 L136.932,99.288 L136.932,94.68 L141.764,94.68 L141.764,99.288 L145.7,99.288 L145.7,102.904 L141.764,102.904 L141.764,108.888 C141.764,110.765343 142.638658,111.704 144.388,111.704 Z M157.924,98.904 C159.801343,98.904 161.198662,99.4533278 162.116,100.552 C163.033338,101.650672 163.492,103.309322 163.492,105.528 L163.492,115 L158.66,115 L158.66,105.752 C158.66,104.685328 158.462669,103.906669 158.068,103.416 C157.673331,102.925331 157.060004,102.68 156.228,102.68 C155.225328,102.68 154.420003,102.999997 153.812,103.64 C153.203997,104.280003 152.9,105.133328 152.9,106.2 L152.9,115 L148.068,115 L148.068,92.44 L152.9,92.44 L152.9,101.368 C153.454669,100.557329 154.163996,99.9440021 155.028,99.528 C155.892004,99.1119979 156.857328,98.904 157.924,98.904 Z M184.74,111.704 C185.230669,111.704 185.742664,111.672 186.276,111.608 L186.02,115.128 C185.40133,115.213334 184.78267,115.256 184.164,115.256 C181.774655,115.256 180.030672,114.733339 178.932,113.688 C177.833328,112.642661 177.284,111.053344 177.284,108.92 L177.284,102.904 L174.308,102.904 L174.308,99.288 L177.284,99.288 L177.284,94.68 L182.116,94.68 L182.116,99.288 L186.052,99.288 L186.052,102.904 L182.116,102.904 L182.116,108.888 C182.116,110.765343 182.990658,111.704 184.74,111.704 Z M195.972,115.256 C194.307992,115.256 192.846673,114.920003 191.588,114.248 C190.329327,113.575997 189.35867,112.626673 188.676,111.4 C187.99333,110.173327 187.652,108.728008 187.652,107.064 C187.652,105.399992 187.99333,103.954673 188.676,102.728 C189.35867,101.501327 190.329327,100.557337 191.588,99.896 C192.846673,99.2346634 194.307992,98.904 195.972,98.904 C197.636008,98.904 199.097327,99.2346634 200.356,99.896 C201.614673,100.557337 202.58533,101.501327 203.268,102.728 C203.95067,103.954673 204.292,105.399992 204.292,107.064 C204.292,108.728008 203.95067,110.173327 203.268,111.4 C202.58533,112.626673 201.614673,113.575997 200.356,114.248 C199.097327,114.920003 197.636008,115.256 195.972,115.256 Z M195.972,111.576 C198.318678,111.576 199.492,110.072015 199.492,107.064 C199.492,105.549326 199.188003,104.41867 198.58,103.672 C197.971997,102.92533 197.102672,102.552 195.972,102.552 C193.625322,102.552 192.452,104.055985 192.452,107.064 C192.452,110.072015 193.625322,111.576 195.972,111.576 Z M223.14,92.44 L223.14,115 L218.34,115 L218.34,112.664 C217.870664,113.474671 217.204004,114.109331 216.34,114.568 C215.475996,115.026669 214.500005,115.256 213.412,115.256 C212.067993,115.256 210.868005,114.909337 209.812,114.216 C208.755995,113.522663 207.93467,112.552006 207.348,111.304 C206.76133,110.055994 206.468,108.621341 206.468,107 C206.468,105.378659 206.76133,103.954673 207.348,102.728 C207.93467,101.501327 208.750661,100.557337 209.796,99.896 C210.841339,99.2346634 212.04666,98.904 213.412,98.904 C214.478672,98.904 215.443996,99.1279978 216.308,99.576 C217.172004,100.024002 217.838664,100.653329 218.308,101.464 L218.308,92.44 L223.14,92.44 Z M214.82,111.576 C215.950672,111.576 216.819997,111.186671 217.428,110.408 C218.036003,109.629329 218.34,108.514674 218.34,107.064 C218.34,105.613326 218.036003,104.504004 217.428,103.736 C216.819997,102.967996 215.950672,102.584 214.82,102.584 C213.689328,102.584 212.81467,102.962663 212.196,103.72 C211.57733,104.477337 211.268,105.57066 211.268,107 C211.268,108.450674 211.57733,109.575996 212.196,110.376 C212.81467,111.176004 213.689328,111.576 214.82,111.576 Z M233.828,98.904 C236.174678,98.904 237.907994,99.4586611 239.028,100.568 C240.148006,101.677339 240.708,103.394655 240.708,105.72 L240.708,115 L236.132,115 L236.132,112.664 C235.811998,113.474671 235.27867,114.109331 234.532,114.568 C233.78533,115.026669 232.910672,115.256 231.908,115.256 C230.841328,115.256 229.876004,115.042669 229.012,114.616 C228.147996,114.189331 227.465336,113.592004 226.964,112.824 C226.462664,112.055996 226.212,111.202671 226.212,110.264 C226.212,109.111994 226.50533,108.205337 227.092,107.544 C227.67867,106.882663 228.62266,106.402668 229.924,106.104 C231.22534,105.805332 233.006655,105.656 235.268,105.656 L236.1,105.656 L236.1,105.08 C236.1,104.141329 235.897335,103.480002 235.492,103.096 C235.086665,102.711998 234.382672,102.52 233.38,102.52 C232.611996,102.52 231.758671,102.658665 230.82,102.936 C229.881329,103.213335 228.985338,103.597331 228.132,104.088 L226.852,100.856 C227.748004,100.301331 228.851993,99.8373352 230.164,99.464 C231.476007,99.0906648 232.697328,98.904 233.828,98.904 Z M232.964,111.928 C233.902671,111.928 234.659997,111.613336 235.236,110.984 C235.812003,110.354664 236.1,109.538672 236.1,108.536 L236.1,107.992 L235.556,107.992 C233.827991,107.992 232.617337,108.130665 231.924,108.408 C231.230663,108.685335 230.884,109.186663 230.884,109.912 C230.884,110.488003 231.081331,110.967998 231.476,111.352 C231.870669,111.736002 232.366664,111.928 232.964,111.928 Z M255.204,99.32 L259.94,99.32 L250.468,120.76 L245.572,120.76 L248.58,114.136 L242.116,99.32 L247.14,99.32 L251.108,109.304 L255.204,99.32 Z M266.308,92.44 L266.308,95.736 C266.308,96.9520061 266.089336,98.0666616 265.652,99.08 C265.214664,100.093338 264.473339,101.122661 263.428,102.168 L261.54,100.664 C262.585339,99.6186614 263.235999,98.5840051 263.492,97.56 L261.124,97.56 L261.124,92.44 L266.308,92.44 Z M275.78,115.256 C274.329326,115.256 273.001339,115.090668 271.796,114.76 C270.590661,114.429332 269.550671,113.95467 268.676,113.336 L269.956,110.008 C270.809338,110.584003 271.747995,111.031998 272.772,111.352 C273.796005,111.672002 274.830661,111.832 275.876,111.832 C276.62267,111.832 277.203998,111.709335 277.62,111.464 C278.036002,111.218665 278.244,110.882669 278.244,110.456 C278.244,110.071998 278.100001,109.773334 277.812,109.56 C277.523999,109.346666 276.985337,109.154668 276.196,108.984 L273.636,108.408 C272.121326,108.066665 271.00667,107.53867 270.292,106.824 C269.57733,106.10933 269.22,105.13334 269.22,103.896 C269.22,102.914662 269.502664,102.05067 270.068,101.304 C270.633336,100.55733 271.433328,99.9706688 272.468,99.544 C273.502672,99.1173312 274.681327,98.904 276.004,98.904 C277.134672,98.904 278.233328,99.074665 279.3,99.416 C280.366672,99.757335 281.326662,100.23733 282.18,100.856 L280.9,104.056 C279.235992,102.903994 277.593341,102.328 275.972,102.328 C275.22533,102.328 274.638669,102.455999 274.212,102.712 C273.785331,102.968001 273.572,103.330664 273.572,103.8 C273.572,104.141335 273.699999,104.407999 273.956,104.6 C274.212001,104.792001 274.659997,104.973332 275.3,105.144 L277.956,105.752 C279.556008,106.114668 280.723996,106.663996 281.46,107.4 C282.196004,108.136004 282.564,109.133327 282.564,110.392 C282.564,111.906674 281.961339,113.095996 280.756,113.96 C279.550661,114.824004 277.892011,115.256 275.78,115.256 Z M300.292,115.256 C298.841326,115.256 297.513339,115.090668 296.308,114.76 C295.102661,114.429332 294.062671,113.95467 293.188,113.336 L294.468,110.008 C295.321338,110.584003 296.259995,111.031998 297.284,111.352 C298.308005,111.672002 299.342661,111.832 300.388,111.832 C301.13467,111.832 301.715998,111.709335 302.132,111.464 C302.548002,111.218665 302.756,110.882669 302.756,110.456 C302.756,110.071998 302.612001,109.773334 302.324,109.56 C302.035999,109.346666 301.497337,109.154668 300.708,108.984 L298.148,108.408 C296.633326,108.066665 295.51867,107.53867 294.804,106.824 C294.08933,106.10933 293.732,105.13334 293.732,103.896 C293.732,102.914662 294.014664,102.05067 294.58,101.304 C295.145336,100.55733 295.945328,99.9706688 296.98,99.544 C298.014672,99.1173312 299.193327,98.904 300.516,98.904 C301.646672,98.904 302.745328,99.074665 303.812,99.416 C304.878672,99.757335 305.838662,100.23733 306.692,100.856 L305.412,104.056 C303.747992,102.903994 302.105341,102.328 300.484,102.328 C299.73733,102.328 299.150669,102.455999 298.724,102.712 C298.297331,102.968001 298.084,103.330664 298.084,103.8 C298.084,104.141335 298.211999,104.407999 298.468,104.6 C298.724001,104.792001 299.171997,104.973332 299.812,105.144 L302.468,105.752 C304.068008,106.114668 305.235996,106.663996 305.972,107.4 C306.708004,108.136004 307.076,109.133327 307.076,110.392 C307.076,111.906674 306.473339,113.095996 305.268,113.96 C304.062661,114.824004 302.404011,115.256 300.292,115.256 Z M323.972,108.056 L313.732,108.056 C313.881334,109.314673 314.291997,110.226664 314.964,110.792 C315.636003,111.357336 316.59066,111.64 317.828,111.64 C318.638671,111.64 319.443996,111.506668 320.244,111.24 C321.044004,110.973332 321.774663,110.594669 322.436,110.104 L323.716,113.336 C322.947996,113.933336 322.014672,114.402665 320.916,114.744 C319.817328,115.085335 318.713339,115.256 317.604,115.256 C314.958653,115.256 312.873341,114.525341 311.348,113.064 C309.822659,111.602659 309.06,109.613346 309.06,107.096 C309.06,105.495992 309.390663,104.07734 310.052,102.84 C310.713337,101.60266 311.630661,100.637337 312.804,99.944 C313.977339,99.2506632 315.310659,98.904 316.804,98.904 C319.001344,98.904 320.745327,99.6186595 322.036,101.048 C323.326673,102.47734 323.972,104.418654 323.972,106.872 L323.972,108.056 Z M316.932,102.232 C316.014662,102.232 315.284003,102.52533 314.74,103.112 C314.195997,103.69867 313.860001,104.546661 313.732,105.656 L319.908,105.656 C319.844,104.525328 319.561336,103.672003 319.06,103.096 C318.558664,102.519997 317.849338,102.232 316.932,102.232 Z M338.116,102.872 L335.396,103.16 C334.051993,103.288001 333.102669,103.666664 332.548,104.296 C331.993331,104.925336 331.716,105.762661 331.716,106.808 L331.716,115 L326.884,115 L326.884,99.288 L331.524,99.288 L331.524,101.944 C332.313337,100.130658 333.945321,99.1386675 336.42,98.968 L337.828,98.872 L338.116,102.872 Z M350.596,99.32 L355.332,99.32 L348.42,115 L344.324,115 L337.508,99.32 L342.532,99.32 L346.5,109.304 L350.596,99.32 Z M356.804,115 L356.804,99.288 L361.636,99.288 L361.636,115 L356.804,115 Z M356.644,91.736 L361.828,91.736 L361.828,96.248 L356.644,96.248 L356.644,91.736 Z M372.836,115.256 C370.275987,115.256 368.260007,114.530674 366.788,113.08 C365.315993,111.629326 364.58,109.656012 364.58,107.16 C364.58,105.517325 364.931996,104.072006 365.636,102.824 C366.340004,101.575994 367.331994,100.61067 368.612,99.928 C369.892006,99.2453299 371.374658,98.904 373.06,98.904 C374.212006,98.904 375.321328,99.0799982 376.388,99.432 C377.454672,99.7840018 378.318663,100.258664 378.98,100.856 L377.7,104.152 C377.08133,103.661331 376.404004,103.282668 375.668,103.016 C374.931996,102.749332 374.212004,102.616 373.508,102.616 C372.249327,102.616 371.273337,102.98933 370.58,103.736 C369.886663,104.48267 369.54,105.591993 369.54,107.064 C369.54,108.536007 369.886663,109.650663 370.58,110.408 C371.273337,111.165337 372.249327,111.544 373.508,111.544 C374.212004,111.544 374.931996,111.410668 375.668,111.144 C376.404004,110.877332 377.08133,110.498669 377.7,110.008 L378.98,113.336 C378.275996,113.933336 377.380005,114.402665 376.292,114.744 C375.203995,115.085335 374.052006,115.256 372.836,115.256 Z M395.3,108.056 L385.06,108.056 C385.209334,109.314673 385.619997,110.226664 386.292,110.792 C386.964003,111.357336 387.91866,111.64 389.156,111.64 C389.966671,111.64 390.771996,111.506668 391.572,111.24 C392.372004,110.973332 393.102663,110.594669 393.764,110.104 L395.044,113.336 C394.275996,113.933336 393.342672,114.402665 392.244,114.744 C391.145328,115.085335 390.041339,115.256 388.932,115.256 C386.286653,115.256 384.201341,114.525341 382.676,113.064 C381.150659,111.602659 380.388,109.613346 380.388,107.096 C380.388,105.495992 380.718663,104.07734 381.38,102.84 C382.041337,101.60266 382.958661,100.637337 384.132,99.944 C385.305339,99.2506632 386.638659,98.904 388.132,98.904 C390.329344,98.904 392.073327,99.6186595 393.364,101.048 C394.654673,102.47734 395.3,104.418654 395.3,106.872 L395.3,108.056 Z M388.26,102.232 C387.342662,102.232 386.612003,102.52533 386.068,103.112 C385.523997,103.69867 385.188001,104.546661 385.06,105.656 L391.236,105.656 C391.172,104.525328 390.889336,103.672003 390.388,103.096 C389.886664,102.519997 389.177338,102.232 388.26,102.232 Z M402.18,106.264 C402.18,105.154661 402.382665,104.232004 402.788,103.496 C403.193335,102.759996 403.758663,101.976004 404.484,101.144 C405.038669,100.503997 405.449332,99.9600022 405.716,99.512 C405.982668,99.0639978 406.116,98.573336 406.116,98.04 C406.116,97.3999968 405.902669,96.909335 405.476,96.568 C405.049331,96.226665 404.441337,96.056 403.652,96.056 C402.798662,96.056 401.870672,96.2479981 400.868,96.632 C399.865328,97.0160019 398.884005,97.5493299 397.924,98.232 L396.324,94.68 C397.198671,93.9119962 398.345326,93.298669 399.764,92.84 C401.182674,92.381331 402.60666,92.152 404.036,92.152 C405.40134,92.152 406.611995,92.381331 407.668,92.84 C408.724005,93.298669 409.54533,93.9386626 410.132,94.76 C410.71867,95.5813374 411.012,96.5146614 411.012,97.56 C411.012,98.3493373 410.862668,99.0693301 410.564,99.72 C410.265332,100.37067 409.908002,100.935998 409.492,101.416 C409.075998,101.896002 408.505337,102.47733 407.78,103.16 C406.969329,103.928004 406.361335,104.573331 405.956,105.096 C405.550665,105.618669 405.294667,106.18933 405.188,106.808 L404.996,107.864 L402.18,107.864 L402.18,106.264 Z M401.092,115 L401.092,109.88 L406.244,109.88 L406.244,115 L401.092,115 Z" id="Were-you-satisfied-w" fill="#171D21"></path>
                        </g>
                        <g id="Bubble-2" transform="translate(469.000000, 33.000000)">
                            <path d="M162.27629,224 L118.509196,271.560942 C117.760539,272.374494 116.708545,272.841897 115.602991,272.852173 C113.393948,272.872707 111.586518,271.098569 111.565985,268.889525 L111.148724,224 L32,224 C14.326888,224 2.164332e-15,209.673112 0,192 L0,32 C-2.164332e-15,14.326888 14.326888,3.24649801e-15 32,0 L476,0 C493.673112,-3.24649801e-15 508,14.326888 508,32 L508,192 C508,209.673112 493.673112,224 476,224 L162.27629,224 Z" id="Combined-Shape" fill="#EEEEEE" fill-rule="nonzero"></path>
                            <path d="M140.772,52.44 L149.54,52.44 C151.993346,52.44 154.105324,52.8879955 155.876,53.784 C157.646676,54.6800045 159.001329,55.9706582 159.94,57.656 C160.878671,59.3413418 161.348,61.3573216 161.348,63.704 C161.348,66.0506784 160.884005,68.0719915 159.956,69.768 C159.027995,71.4640085 157.678676,72.7599955 155.908,73.656 C154.137324,74.5520045 152.014679,75 149.54,75 L140.772,75 L140.772,52.44 Z M149.188,70.968 C153.988024,70.968 156.388,68.5466909 156.388,63.704 C156.388,58.8826426 153.988024,56.472 149.188,56.472 L145.764,56.472 L145.764,70.968 L149.188,70.968 Z M172.356,75.256 C170.691992,75.256 169.230673,74.9200034 167.972,74.248 C166.713327,73.5759966 165.74267,72.6266728 165.06,71.4 C164.37733,70.1733272 164.036,68.7280083 164.036,67.064 C164.036,65.3999917 164.37733,63.9546728 165.06,62.728 C165.74267,61.5013272 166.713327,60.5573366 167.972,59.896 C169.230673,59.2346634 170.691992,58.904 172.356,58.904 C174.020008,58.904 175.481327,59.2346634 176.74,59.896 C177.998673,60.5573366 178.96933,61.5013272 179.652,62.728 C180.33467,63.9546728 180.676,65.3999917 180.676,67.064 C180.676,68.7280083 180.33467,70.1733272 179.652,71.4 C178.96933,72.6266728 177.998673,73.5759966 176.74,74.248 C175.481327,74.9200034 174.020008,75.256 172.356,75.256 Z M172.356,71.576 C174.702678,71.576 175.876,70.072015 175.876,67.064 C175.876,65.5493258 175.572003,64.4186704 174.964,63.672 C174.355997,62.9253296 173.486672,62.552 172.356,62.552 C170.009322,62.552 168.836,64.055985 168.836,67.064 C168.836,70.072015 170.009322,71.576 172.356,71.576 Z M203.428,59.32 L208.164,59.32 L198.692,80.76 L193.796,80.76 L196.804,74.136 L190.34,59.32 L195.364,59.32 L199.332,69.304 L203.428,59.32 Z M217.188,75.256 C215.523992,75.256 214.062673,74.9200034 212.804,74.248 C211.545327,73.5759966 210.57467,72.6266728 209.892,71.4 C209.20933,70.1733272 208.868,68.7280083 208.868,67.064 C208.868,65.3999917 209.20933,63.9546728 209.892,62.728 C210.57467,61.5013272 211.545327,60.5573366 212.804,59.896 C214.062673,59.2346634 215.523992,58.904 217.188,58.904 C218.852008,58.904 220.313327,59.2346634 221.572,59.896 C222.830673,60.5573366 223.80133,61.5013272 224.484,62.728 C225.16667,63.9546728 225.508,65.3999917 225.508,67.064 C225.508,68.7280083 225.16667,70.1733272 224.484,71.4 C223.80133,72.6266728 222.830673,73.5759966 221.572,74.248 C220.313327,74.9200034 218.852008,75.256 217.188,75.256 Z M217.188,71.576 C219.534678,71.576 220.708,70.072015 220.708,67.064 C220.708,65.5493258 220.404003,64.4186704 219.796,63.672 C219.187997,62.9253296 218.318672,62.552 217.188,62.552 C214.841322,62.552 213.668,64.055985 213.668,67.064 C213.668,70.072015 214.841322,71.576 217.188,71.576 Z M243.588,59.288 L243.588,75 L238.884,75 L238.884,72.76 C238.393331,73.5706707 237.748004,74.1893312 236.948,74.616 C236.147996,75.0426688 235.246672,75.256 234.244,75.256 C232.25999,75.256 230.782672,74.7066722 229.812,73.608 C228.841328,72.5093278 228.356,70.8506778 228.356,68.632 L228.356,59.288 L233.188,59.288 L233.188,68.728 C233.188,69.6666714 233.385331,70.3599978 233.78,70.808 C234.174669,71.2560022 234.777329,71.48 235.588,71.48 C236.526671,71.48 237.28933,71.1600032 237.876,70.52 C238.46267,69.8799968 238.756,69.0373386 238.756,67.992 L238.756,59.288 L243.588,59.288 Z M266.084,58.904 C267.961343,58.904 269.358662,59.4533278 270.276,60.552 C271.193338,61.6506722 271.652,63.3093222 271.652,65.528 L271.652,75 L266.82,75 L266.82,65.752 C266.82,64.685328 266.622669,63.9066691 266.228,63.416 C265.833331,62.9253309 265.220004,62.68 264.388,62.68 C263.385328,62.68 262.580003,62.9999968 261.972,63.64 C261.363997,64.2800032 261.06,65.133328 261.06,66.2 L261.06,75 L256.228,75 L256.228,52.44 L261.06,52.44 L261.06,61.368 C261.614669,60.5573293 262.323996,59.9440021 263.188,59.528 C264.052004,59.1119979 265.017328,58.904 266.084,58.904 Z M282.244,58.904 C284.590678,58.904 286.323994,59.4586611 287.444,60.568 C288.564006,61.6773389 289.124,63.394655 289.124,65.72 L289.124,75 L284.548,75 L284.548,72.664 C284.227998,73.4746707 283.69467,74.109331 282.948,74.568 C282.20133,75.026669 281.326672,75.256 280.324,75.256 C279.257328,75.256 278.292004,75.0426688 277.428,74.616 C276.563996,74.1893312 275.881336,73.5920038 275.38,72.824 C274.878664,72.0559962 274.628,71.2026714 274.628,70.264 C274.628,69.1119942 274.92133,68.2053366 275.508,67.544 C276.09467,66.8826634 277.03866,66.4026682 278.34,66.104 C279.64134,65.8053318 281.422655,65.656 283.684,65.656 L284.516,65.656 L284.516,65.08 C284.516,64.1413286 284.313335,63.4800019 283.908,63.096 C283.502665,62.7119981 282.798672,62.52 281.796,62.52 C281.027996,62.52 280.174671,62.6586653 279.236,62.936 C278.297329,63.2133347 277.401338,63.5973309 276.548,64.088 L275.268,60.856 C276.164004,60.3013306 277.267993,59.8373352 278.58,59.464 C279.892007,59.0906648 281.113328,58.904 282.244,58.904 Z M281.38,71.928 C282.318671,71.928 283.075997,71.6133365 283.652,70.984 C284.228003,70.3546635 284.516,69.5386717 284.516,68.536 L284.516,67.992 L283.972,67.992 C282.243991,67.992 281.033337,68.1306653 280.34,68.408 C279.646663,68.6853347 279.3,69.186663 279.3,69.912 C279.3,70.4880029 279.497331,70.9679981 279.892,71.352 C280.286669,71.7360019 280.782664,71.928 281.38,71.928 Z M303.62,59.32 L308.356,59.32 L301.444,75 L297.348,75 L290.532,59.32 L295.556,59.32 L299.524,69.304 L303.62,59.32 Z M323.972,68.056 L313.732,68.056 C313.881334,69.314673 314.291997,70.2266638 314.964,70.792 C315.636003,71.3573362 316.59066,71.64 317.828,71.64 C318.638671,71.64 319.443996,71.506668 320.244,71.24 C321.044004,70.973332 321.774663,70.5946691 322.436,70.104 L323.716,73.336 C322.947996,73.9333363 322.014672,74.402665 320.916,74.744 C319.817328,75.085335 318.713339,75.256 317.604,75.256 C314.958653,75.256 312.873341,74.5253406 311.348,73.064 C309.822659,71.6026594 309.06,69.6133459 309.06,67.096 C309.06,65.495992 309.390663,64.0773395 310.052,62.84 C310.713337,61.6026605 311.630661,60.6373368 312.804,59.944 C313.977339,59.2506632 315.310659,58.904 316.804,58.904 C319.001344,58.904 320.745327,59.6186595 322.036,61.048 C323.326673,62.4773405 323.972,64.4186544 323.972,66.872 L323.972,68.056 Z M316.932,62.232 C316.014662,62.232 315.284003,62.5253304 314.74,63.112 C314.195997,63.6986696 313.860001,64.5466611 313.732,65.656 L319.908,65.656 C319.844,64.5253277 319.561336,63.6720029 319.06,63.096 C318.558664,62.5199971 317.849338,62.232 316.932,62.232 Z M342.788,58.904 C345.134678,58.904 346.867994,59.4586611 347.988,60.568 C349.108006,61.6773389 349.668,63.394655 349.668,65.72 L349.668,75 L345.092,75 L345.092,72.664 C344.771998,73.4746707 344.23867,74.109331 343.492,74.568 C342.74533,75.026669 341.870672,75.256 340.868,75.256 C339.801328,75.256 338.836004,75.0426688 337.972,74.616 C337.107996,74.1893312 336.425336,73.5920038 335.924,72.824 C335.422664,72.0559962 335.172,71.2026714 335.172,70.264 C335.172,69.1119942 335.46533,68.2053366 336.052,67.544 C336.63867,66.8826634 337.58266,66.4026682 338.884,66.104 C340.18534,65.8053318 341.966655,65.656 344.228,65.656 L345.06,65.656 L345.06,65.08 C345.06,64.1413286 344.857335,63.4800019 344.452,63.096 C344.046665,62.7119981 343.342672,62.52 342.34,62.52 C341.571996,62.52 340.718671,62.6586653 339.78,62.936 C338.841329,63.2133347 337.945338,63.5973309 337.092,64.088 L335.812,60.856 C336.708004,60.3013306 337.811993,59.8373352 339.124,59.464 C340.436007,59.0906648 341.657328,58.904 342.788,58.904 Z M341.924,71.928 C342.862671,71.928 343.619997,71.6133365 344.196,70.984 C344.772003,70.3546635 345.06,69.5386717 345.06,68.536 L345.06,67.992 L344.516,67.992 C342.787991,67.992 341.577337,68.1306653 340.884,68.408 C340.190663,68.6853347 339.844,69.186663 339.844,69.912 C339.844,70.4880029 340.041331,70.9679981 340.436,71.352 C340.830669,71.7360019 341.326664,71.928 341.924,71.928 Z M363.14,58.904 C365.017343,58.904 366.414662,59.4533278 367.332,60.552 C368.249338,61.6506722 368.708,63.3093222 368.708,65.528 L368.708,75 L363.876,75 L363.876,65.752 C363.876,64.685328 363.678669,63.9066691 363.284,63.416 C362.889331,62.9253309 362.276004,62.68 361.444,62.68 C360.441328,62.68 359.636003,62.9999968 359.028,63.64 C358.419997,64.2800032 358.116,65.133328 358.116,66.2 L358.116,75 L353.284,75 L353.284,59.288 L357.988,59.288 L357.988,61.528 C358.542669,60.6746624 359.262662,60.0240022 360.148,59.576 C361.033338,59.1279978 362.030661,58.904 363.14,58.904 Z M87.588,115 L87.588,99.288 L92.42,99.288 L92.42,115 L87.588,115 Z M87.428,91.736 L92.612,91.736 L92.612,96.248 L87.428,96.248 L87.428,91.736 Z M112.036,92.44 L112.036,115 L107.236,115 L107.236,112.664 C106.766664,113.474671 106.100004,114.109331 105.236,114.568 C104.371996,115.026669 103.396005,115.256 102.308,115.256 C100.963993,115.256 99.7640053,114.909337 98.708,114.216 C97.6519947,113.522663 96.8306696,112.552006 96.244,111.304 C95.6573304,110.055994 95.364,108.621341 95.364,107 C95.364,105.378659 95.6573304,103.954673 96.244,102.728 C96.8306696,101.501327 97.6466614,100.557337 98.692,99.896 C99.7373386,99.2346634 100.94266,98.904 102.308,98.904 C103.374672,98.904 104.339996,99.1279978 105.204,99.576 C106.068004,100.024002 106.734664,100.653329 107.204,101.464 L107.204,92.44 L112.036,92.44 Z M103.716,111.576 C104.846672,111.576 105.715997,111.186671 106.324,110.408 C106.932003,109.629329 107.236,108.514674 107.236,107.064 C107.236,105.613326 106.932003,104.504004 106.324,103.736 C105.715997,102.967996 104.846672,102.584 103.716,102.584 C102.585328,102.584 101.71067,102.962663 101.092,103.72 C100.47333,104.477337 100.164,105.57066 100.164,107 C100.164,108.450674 100.47333,109.575996 101.092,110.376 C101.71067,111.176004 102.585328,111.576 103.716,111.576 Z M129.892,108.056 L119.652,108.056 C119.801334,109.314673 120.211997,110.226664 120.884,110.792 C121.556003,111.357336 122.51066,111.64 123.748,111.64 C124.558671,111.64 125.363996,111.506668 126.164,111.24 C126.964004,110.973332 127.694663,110.594669 128.356,110.104 L129.636,113.336 C128.867996,113.933336 127.934672,114.402665 126.836,114.744 C125.737328,115.085335 124.633339,115.256 123.524,115.256 C120.878653,115.256 118.793341,114.525341 117.268,113.064 C115.742659,111.602659 114.98,109.613346 114.98,107.096 C114.98,105.495992 115.310663,104.07734 115.972,102.84 C116.633337,101.60266 117.550661,100.637337 118.724,99.944 C119.897339,99.2506632 121.230659,98.904 122.724,98.904 C124.921344,98.904 126.665327,99.6186595 127.956,101.048 C129.246673,102.47734 129.892,104.418654 129.892,106.872 L129.892,108.056 Z M122.852,102.232 C121.934662,102.232 121.204003,102.52533 120.66,103.112 C120.115997,103.69867 119.780001,104.546661 119.652,105.656 L125.828,105.656 C125.764,104.525328 125.481336,103.672003 124.98,103.096 C124.478664,102.519997 123.769338,102.232 122.852,102.232 Z M139.78,98.904 C142.126678,98.904 143.859994,99.4586611 144.98,100.568 C146.100006,101.677339 146.66,103.394655 146.66,105.72 L146.66,115 L142.084,115 L142.084,112.664 C141.763998,113.474671 141.23067,114.109331 140.484,114.568 C139.73733,115.026669 138.862672,115.256 137.86,115.256 C136.793328,115.256 135.828004,115.042669 134.964,114.616 C134.099996,114.189331 133.417336,113.592004 132.916,112.824 C132.414664,112.055996 132.164,111.202671 132.164,110.264 C132.164,109.111994 132.45733,108.205337 133.044,107.544 C133.63067,106.882663 134.57466,106.402668 135.876,106.104 C137.17734,105.805332 138.958655,105.656 141.22,105.656 L142.052,105.656 L142.052,105.08 C142.052,104.141329 141.849335,103.480002 141.444,103.096 C141.038665,102.711998 140.334672,102.52 139.332,102.52 C138.563996,102.52 137.710671,102.658665 136.772,102.936 C135.833329,103.213335 134.937338,103.597331 134.084,104.088 L132.804,100.856 C133.700004,100.301331 134.803993,99.8373352 136.116,99.464 C137.428007,99.0906648 138.649328,98.904 139.78,98.904 Z M138.916,111.928 C139.854671,111.928 140.611997,111.613336 141.188,110.984 C141.764003,110.354664 142.052,109.538672 142.052,108.536 L142.052,107.992 L141.508,107.992 C139.779991,107.992 138.569337,108.130665 137.876,108.408 C137.182663,108.685335 136.836,109.186663 136.836,109.912 C136.836,110.488003 137.033331,110.967998 137.428,111.352 C137.822669,111.736002 138.318664,111.928 138.916,111.928 Z M167.908,111.704 C168.398669,111.704 168.910664,111.672 169.444,111.608 L169.188,115.128 C168.56933,115.213334 167.95067,115.256 167.332,115.256 C164.942655,115.256 163.198672,114.733339 162.1,113.688 C161.001328,112.642661 160.452,111.053344 160.452,108.92 L160.452,102.904 L157.476,102.904 L157.476,99.288 L160.452,99.288 L160.452,94.68 L165.284,94.68 L165.284,99.288 L169.22,99.288 L169.22,102.904 L165.284,102.904 L165.284,108.888 C165.284,110.765343 166.158658,111.704 167.908,111.704 Z M179.14,115.256 C177.475992,115.256 176.014673,114.920003 174.756,114.248 C173.497327,113.575997 172.52667,112.626673 171.844,111.4 C171.16133,110.173327 170.82,108.728008 170.82,107.064 C170.82,105.399992 171.16133,103.954673 171.844,102.728 C172.52667,101.501327 173.497327,100.557337 174.756,99.896 C176.014673,99.2346634 177.475992,98.904 179.14,98.904 C180.804008,98.904 182.265327,99.2346634 183.524,99.896 C184.782673,100.557337 185.75333,101.501327 186.436,102.728 C187.11867,103.954673 187.46,105.399992 187.46,107.064 C187.46,108.728008 187.11867,110.173327 186.436,111.4 C185.75333,112.626673 184.782673,113.575997 183.524,114.248 C182.265327,114.920003 180.804008,115.256 179.14,115.256 Z M179.14,111.576 C181.486678,111.576 182.66,110.072015 182.66,107.064 C182.66,105.549326 182.356003,104.41867 181.748,103.672 C181.139997,102.92533 180.270672,102.552 179.14,102.552 C176.793322,102.552 175.62,104.055985 175.62,107.064 C175.62,110.072015 176.793322,111.576 179.14,111.576 Z M218.692,98.904 C220.484009,98.904 221.817329,99.4479946 222.692,100.536 C223.566671,101.624005 224.004,103.287989 224.004,105.528 L224.004,115 L219.172,115 L219.172,105.688 C219.172,104.621328 219.006668,103.853336 218.676,103.384 C218.345332,102.914664 217.785337,102.68 216.996,102.68 C216.078662,102.68 215.364003,102.999997 214.852,103.64 C214.339997,104.280003 214.084,105.175994 214.084,106.328 L214.084,115 L209.252,115 L209.252,105.688 C209.252,104.621328 209.086668,103.853336 208.756,103.384 C208.425332,102.914664 207.865337,102.68 207.076,102.68 C206.158662,102.68 205.444003,102.999997 204.932,103.64 C204.419997,104.280003 204.164,105.175994 204.164,106.328 L204.164,115 L199.332,115 L199.332,99.288 L204.036,99.288 L204.036,101.4 C204.526669,100.589329 205.182663,99.9706688 206.004,99.544 C206.825337,99.1173312 207.769328,98.904 208.836,98.904 C211.161345,98.904 212.718663,99.874657 213.508,101.816 C214.020003,100.919996 214.734662,100.210669 215.652,99.688 C216.569338,99.1653307 217.582661,98.904 218.692,98.904 Z M234.628,98.904 C236.974678,98.904 238.707994,99.4586611 239.828,100.568 C240.948006,101.677339 241.508,103.394655 241.508,105.72 L241.508,115 L236.932,115 L236.932,112.664 C236.611998,113.474671 236.07867,114.109331 235.332,114.568 C234.58533,115.026669 233.710672,115.256 232.708,115.256 C231.641328,115.256 230.676004,115.042669 229.812,114.616 C228.947996,114.189331 228.265336,113.592004 227.764,112.824 C227.262664,112.055996 227.012,111.202671 227.012,110.264 C227.012,109.111994 227.30533,108.205337 227.892,107.544 C228.47867,106.882663 229.42266,106.402668 230.724,106.104 C232.02534,105.805332 233.806655,105.656 236.068,105.656 L236.9,105.656 L236.9,105.08 C236.9,104.141329 236.697335,103.480002 236.292,103.096 C235.886665,102.711998 235.182672,102.52 234.18,102.52 C233.411996,102.52 232.558671,102.658665 231.62,102.936 C230.681329,103.213335 229.785338,103.597331 228.932,104.088 L227.652,100.856 C228.548004,100.301331 229.651993,99.8373352 230.964,99.464 C232.276007,99.0906648 233.497328,98.904 234.628,98.904 Z M233.764,111.928 C234.702671,111.928 235.459997,111.613336 236.036,110.984 C236.612003,110.354664 236.9,109.538672 236.9,108.536 L236.9,107.992 L236.356,107.992 C234.627991,107.992 233.417337,108.130665 232.724,108.408 C232.030663,108.685335 231.684,109.186663 231.684,109.912 C231.684,110.488003 231.881331,110.967998 232.276,111.352 C232.670669,111.736002 233.166664,111.928 233.764,111.928 Z M261.892,115 L255.972,115 L249.956,107.992 L249.956,115 L245.124,115 L245.124,92.44 L249.956,92.44 L249.956,106.008 L255.748,99.32 L261.508,99.32 L254.916,106.808 L261.892,115 Z M277.124,108.056 L266.884,108.056 C267.033334,109.314673 267.443997,110.226664 268.116,110.792 C268.788003,111.357336 269.74266,111.64 270.98,111.64 C271.790671,111.64 272.595996,111.506668 273.396,111.24 C274.196004,110.973332 274.926663,110.594669 275.588,110.104 L276.868,113.336 C276.099996,113.933336 275.166672,114.402665 274.068,114.744 C272.969328,115.085335 271.865339,115.256 270.756,115.256 C268.110653,115.256 266.025341,114.525341 264.5,113.064 C262.974659,111.602659 262.212,109.613346 262.212,107.096 C262.212,105.495992 262.542663,104.07734 263.204,102.84 C263.865337,101.60266 264.782661,100.637337 265.956,99.944 C267.129339,99.2506632 268.462659,98.904 269.956,98.904 C272.153344,98.904 273.897327,99.6186595 275.188,101.048 C276.478673,102.47734 277.124,104.418654 277.124,106.872 L277.124,108.056 Z M270.084,102.232 C269.166662,102.232 268.436003,102.52533 267.892,103.112 C267.347997,103.69867 267.012001,104.546661 266.884,105.656 L273.06,105.656 C272.996,104.525328 272.713336,103.672003 272.212,103.096 C271.710664,102.519997 271.001338,102.232 270.084,102.232 Z M288.964,115 L288.964,99.288 L293.796,99.288 L293.796,115 L288.964,115 Z M288.804,91.736 L293.988,91.736 L293.988,96.248 L288.804,96.248 L288.804,91.736 Z M306.212,111.704 C306.702669,111.704 307.214664,111.672 307.748,111.608 L307.492,115.128 C306.87333,115.213334 306.25467,115.256 305.636,115.256 C303.246655,115.256 301.502672,114.733339 300.404,113.688 C299.305328,112.642661 298.756,111.053344 298.756,108.92 L298.756,102.904 L295.78,102.904 L295.78,99.288 L298.756,99.288 L298.756,94.68 L303.588,94.68 L303.588,99.288 L307.524,99.288 L307.524,102.904 L303.588,102.904 L303.588,108.888 C303.588,110.765343 304.462658,111.704 306.212,111.704 Z M328.548,98.904 C329.91334,98.904 331.118661,99.2346634 332.164,99.896 C333.209339,100.557337 334.02533,101.501327 334.612,102.728 C335.19867,103.954673 335.492,105.378659 335.492,107 C335.492,108.621341 335.19867,110.055994 334.612,111.304 C334.02533,112.552006 333.204005,113.522663 332.148,114.216 C331.091995,114.909337 329.892007,115.256 328.548,115.256 C327.459995,115.256 326.478671,115.026669 325.604,114.568 C324.729329,114.109331 324.057336,113.474671 323.588,112.664 L323.588,115 L318.82,115 L318.82,92.44 L323.652,92.44 L323.652,101.4 C324.121336,100.610663 324.787996,99.9973355 325.652,99.56 C326.516004,99.1226645 327.481328,98.904 328.548,98.904 Z M327.14,111.576 C328.270672,111.576 329.14533,111.176004 329.764,110.376 C330.38267,109.575996 330.692,108.450674 330.692,107 C330.692,105.57066 330.38267,104.477337 329.764,103.72 C329.14533,102.962663 328.270672,102.584 327.14,102.584 C326.009328,102.584 325.13467,102.973329 324.516,103.752 C323.89733,104.530671 323.588,105.63466 323.588,107.064 C323.588,108.514674 323.89733,109.629329 324.516,110.408 C325.13467,111.186671 326.009328,111.576 327.14,111.576 Z M352.58,108.056 L342.34,108.056 C342.489334,109.314673 342.899997,110.226664 343.572,110.792 C344.244003,111.357336 345.19866,111.64 346.436,111.64 C347.246671,111.64 348.051996,111.506668 348.852,111.24 C349.652004,110.973332 350.382663,110.594669 351.044,110.104 L352.324,113.336 C351.555996,113.933336 350.622672,114.402665 349.524,114.744 C348.425328,115.085335 347.321339,115.256 346.212,115.256 C343.566653,115.256 341.481341,114.525341 339.956,113.064 C338.430659,111.602659 337.668,109.613346 337.668,107.096 C337.668,105.495992 337.998663,104.07734 338.66,102.84 C339.321337,101.60266 340.238661,100.637337 341.412,99.944 C342.585339,99.2506632 343.918659,98.904 345.412,98.904 C347.609344,98.904 349.353327,99.6186595 350.644,101.048 C351.934673,102.47734 352.58,104.418654 352.58,106.872 L352.58,108.056 Z M345.54,102.232 C344.622662,102.232 343.892003,102.52533 343.348,103.112 C342.803997,103.69867 342.468001,104.546661 342.34,105.656 L348.516,105.656 C348.452,104.525328 348.169336,103.672003 347.668,103.096 C347.166664,102.519997 346.457338,102.232 345.54,102.232 Z M364.196,111.704 C364.686669,111.704 365.198664,111.672 365.732,111.608 L365.476,115.128 C364.85733,115.213334 364.23867,115.256 363.62,115.256 C361.230655,115.256 359.486672,114.733339 358.388,113.688 C357.289328,112.642661 356.74,111.053344 356.74,108.92 L356.74,102.904 L353.764,102.904 L353.764,99.288 L356.74,99.288 L356.74,94.68 L361.572,94.68 L361.572,99.288 L365.508,99.288 L365.508,102.904 L361.572,102.904 L361.572,108.888 C361.572,110.765343 362.446658,111.704 364.196,111.704 Z M376.58,111.704 C377.070669,111.704 377.582664,111.672 378.116,111.608 L377.86,115.128 C377.24133,115.213334 376.62267,115.256 376.004,115.256 C373.614655,115.256 371.870672,114.733339 370.772,113.688 C369.673328,112.642661 369.124,111.053344 369.124,108.92 L369.124,102.904 L366.148,102.904 L366.148,99.288 L369.124,99.288 L369.124,94.68 L373.956,94.68 L373.956,99.288 L377.892,99.288 L377.892,102.904 L373.956,102.904 L373.956,108.888 C373.956,110.765343 374.830658,111.704 376.58,111.704 Z M394.404,108.056 L384.164,108.056 C384.313334,109.314673 384.723997,110.226664 385.396,110.792 C386.068003,111.357336 387.02266,111.64 388.26,111.64 C389.070671,111.64 389.875996,111.506668 390.676,111.24 C391.476004,110.973332 392.206663,110.594669 392.868,110.104 L394.148,113.336 C393.379996,113.933336 392.446672,114.402665 391.348,114.744 C390.249328,115.085335 389.145339,115.256 388.036,115.256 C385.390653,115.256 383.305341,114.525341 381.78,113.064 C380.254659,111.602659 379.492,109.613346 379.492,107.096 C379.492,105.495992 379.822663,104.07734 380.484,102.84 C381.145337,101.60266 382.062661,100.637337 383.236,99.944 C384.409339,99.2506632 385.742659,98.904 387.236,98.904 C389.433344,98.904 391.177327,99.6186595 392.468,101.048 C393.758673,102.47734 394.404,104.418654 394.404,106.872 L394.404,108.056 Z M387.364,102.232 C386.446662,102.232 385.716003,102.52533 385.172,103.112 C384.627997,103.69867 384.292001,104.546661 384.164,105.656 L390.34,105.656 C390.276,104.525328 389.993336,103.672003 389.492,103.096 C388.990664,102.519997 388.281338,102.232 387.364,102.232 Z M408.548,102.872 L405.828,103.16 C404.483993,103.288001 403.534669,103.666664 402.98,104.296 C402.425331,104.925336 402.148,105.762661 402.148,106.808 L402.148,115 L397.316,115 L397.316,99.288 L401.956,99.288 L401.956,101.944 C402.745337,100.130658 404.377321,99.1386675 406.852,98.968 L408.26,98.872 L408.548,102.872 Z M414.116,106.264 C414.116,105.154661 414.318665,104.232004 414.724,103.496 C415.129335,102.759996 415.694663,101.976004 416.42,101.144 C416.974669,100.503997 417.385332,99.9600022 417.652,99.512 C417.918668,99.0639978 418.052,98.573336 418.052,98.04 C418.052,97.3999968 417.838669,96.909335 417.412,96.568 C416.985331,96.226665 416.377337,96.056 415.588,96.056 C414.734662,96.056 413.806672,96.2479981 412.804,96.632 C411.801328,97.0160019 410.820005,97.5493299 409.86,98.232 L408.26,94.68 C409.134671,93.9119962 410.281326,93.298669 411.7,92.84 C413.118674,92.381331 414.54266,92.152 415.972,92.152 C417.33734,92.152 418.547995,92.381331 419.604,92.84 C420.660005,93.298669 421.48133,93.9386626 422.068,94.76 C422.65467,95.5813374 422.948,96.5146614 422.948,97.56 C422.948,98.3493373 422.798668,99.0693301 422.5,99.72 C422.201332,100.37067 421.844002,100.935998 421.428,101.416 C421.011998,101.896002 420.441337,102.47733 419.716,103.16 C418.905329,103.928004 418.297335,104.573331 417.892,105.096 C417.486665,105.618669 417.230667,106.18933 417.124,106.808 L416.932,107.864 L414.116,107.864 L414.116,106.264 Z M413.028,115 L413.028,109.88 L418.18,109.88 L418.18,115 L413.028,115 Z" id="Do-you-have-an-idea" fill="#171D21"></path>
                        </g>
                    </g>
                </g>
            </g>
        </g>
    </g>
</svg>