<?xml version="1.0" encoding="UTF-8"?>
<svg width="1143px" height="386px" viewBox="0 0 1143 386" version="1.1" xmlns="http://www.w3.org/2000/svg" xmlns:xlink="http://www.w3.org/1999/xlink">
    <!-- Generator: Sketch 52.5 (67469) - http://www.bohemiancoding.com/sketch -->
    <title>Tabelts</title>
    <desc>Created with Sketch.</desc>
    <defs>
        <rect id="path-1" x="0" y="0" width="350" height="593" rx="24.192"></rect>
        <rect id="path-3" x="0" y="0" width="316.666667" height="504.26387" rx="8"></rect>
        <filter x="-8.8%" y="-8.8%" width="117.9%" height="117.9%" filterUnits="objectBoundingBox" id="filter-5">
            <feOffset dx="0" dy="4" in="SourceAlpha" result="shadowOffsetOuter1"></feOffset>
            <feColorMatrix values="0 0 0 0 0.0901960784   0 0 0 0 0.11372549   0 0 0 0 0.129411765  0 0 0 0.14 0" type="matrix" in="shadowOffsetOuter1" result="shadowMatrixOuter1"></feColorMatrix>
            <feMerge>
                <feMergeNode in="shadowMatrixOuter1"></feMergeNode>
                <feMergeNode in="SourceGraphic"></feMergeNode>
            </feMerge>
        </filter>
        <circle id="path-6" cx="45.3642604" cy="45.3642604" r="45.3642604"></circle>
        <path d="M23.8685546,18.6351357 C23.8543977,18.6351357 23.8417309,18.6351357 23.827574,18.6351357 C10.7927614,18.6127893 1.4007519,7.56249923 1.006593,7.09173528 C-0.524591405,5.2615659 -0.281688186,2.53679603 1.54977228,1.00606829 C3.37825235,-0.52167994 6.09638408,-0.281828683 7.62905869,1.53940214 C7.73635336,1.6652868 14.9191357,9.99453139 23.8678095,9.99453139 L23.8879272,9.99453139 C29.041052,9.98708259 34.0473917,7.14164221 38.7676122,1.53791238 C40.3047574,-0.287042841 43.0318304,-0.52167994 44.85733,1.01575172 C46.6828297,2.55318338 46.9167917,5.27795325 45.3789013,7.10365335 C38.9337699,14.7550574 31.6965952,18.6351357 23.8685546,18.6351357" id="path-8"></path>
        <path d="M12.6074093,5.79164373 C12.6074093,8.99061243 9.7849015,11.5840033 6.30331513,11.5840033 C2.82172876,11.5840033 0,8.99061243 0,5.79164373 C0,2.59267502 2.82172876,0 6.30331513,0 C9.7849015,0 12.6074093,2.59267502 12.6074093,5.79164373" id="path-10"></path>
        <path d="M12.6074093,5.79164373 C12.6074093,8.99061243 9.7850759,11.5840033 6.30370466,11.5840033 C2.82233341,11.5840033 0,8.99061243 0,5.79164373 C0,2.59267502 2.82233341,0 6.30370466,0 C9.7850759,0 12.6074093,2.59267502 12.6074093,5.79164373" id="path-12"></path>
        <ellipse id="path-14" cx="35.0886076" cy="35.5898734" rx="35.0886076" ry="35.5898734"></ellipse>
        <filter x="0.0%" y="0.0%" width="100.0%" height="100.0%" filterUnits="objectBoundingBox" id="filter-15">
            <feGaussianBlur stdDeviation="0 0" in="SourceGraphic"></feGaussianBlur>
        </filter>
        <ellipse id="path-17" cx="35.0886076" cy="28.8673418" rx="35.0886076" ry="35.5898734"></ellipse>
        <filter x="-8.8%" y="-8.8%" width="117.9%" height="117.9%" filterUnits="objectBoundingBox" id="filter-19">
            <feOffset dx="0" dy="4" in="SourceAlpha" result="shadowOffsetOuter1"></feOffset>
            <feColorMatrix values="0 0 0 0 0.0901960784   0 0 0 0 0.11372549   0 0 0 0 0.129411765  0 0 0 0.14 0" type="matrix" in="shadowOffsetOuter1" result="shadowMatrixOuter1"></feColorMatrix>
            <feMerge>
                <feMergeNode in="shadowMatrixOuter1"></feMergeNode>
                <feMergeNode in="SourceGraphic"></feMergeNode>
            </feMerge>
        </filter>
        <circle id="path-20" cx="45.3642604" cy="45.3642604" r="45.3642604"></circle>
        <path d="M39.0746945,9.21852175 L4.60862852,9.21852175 C2.06275332,9.21852175 0,7.15450371 0,4.60862852 C0,2.06401804 2.06275332,0 4.60862852,0 L39.0746945,0 C41.6205697,0 43.6845877,2.06401804 43.6845877,4.60862852 C43.6845877,7.15450371 41.6205697,9.21852175 39.0746945,9.21852175" id="path-22"></path>
        <path d="M12.6011834,5.79618619 C12.6011834,8.99766389 9.78024376,11.5930888 6.30059172,11.5930888 C2.82093967,11.5930888 0,8.99766389 0,5.79618619 C0,2.59470849 2.82093967,0 6.30059172,0 C9.78024376,0 12.6011834,2.59470849 12.6011834,5.79618619" id="path-24"></path>
        <path d="M12.6011834,5.79618619 C12.6011834,8.99766389 9.78006945,11.5930888 6.30020238,11.5930888 C2.82033531,11.5930888 0,8.99766389 0,5.79618619 C0,2.59470849 2.82033531,0 6.30020238,0 C9.78006945,0 12.6011834,2.59470849 12.6011834,5.79618619" id="path-26"></path>
        <rect id="path-28" x="0" y="0" width="350" height="592" rx="24.192"></rect>
        <rect id="path-30" x="0" y="0" width="316.666667" height="503.265328" rx="8"></rect>
        <filter x="-14.3%" y="-14.3%" width="128.8%" height="128.8%" filterUnits="objectBoundingBox" id="filter-32">
            <feOffset dx="0" dy="4" in="SourceAlpha" result="shadowOffsetOuter1"></feOffset>
            <feColorMatrix values="0 0 0 0 0.0901960784   0 0 0 0 0.11372549   0 0 0 0 0.129411765  0 0 0 0.14 0" type="matrix" in="shadowOffsetOuter1" result="shadowMatrixOuter1"></feColorMatrix>
            <feMerge>
                <feMergeNode in="shadowMatrixOuter1"></feMergeNode>
                <feMergeNode in="SourceGraphic"></feMergeNode>
            </feMerge>
        </filter>
        <circle id="path-33" cx="27.951716" cy="27.951716" r="27.951716"></circle>
        <path d="M14.7068872,11.4822553 C14.6981642,11.4822553 14.6903595,11.4822553 14.6816365,11.4822553 C6.65008528,11.4684863 0.863089557,4.65972175 0.620223969,4.36965507 C-0.323233088,3.24197495 -0.173565448,1.56307634 0.954910195,0.61990066 C2.08154943,-0.321439155 3.75635787,-0.173652017 4.70073313,0.948520508 C4.76684399,1.02608581 9.19259875,6.15824661 14.7064281,6.15824661 L14.7188239,6.15824661 C17.8939815,6.15365695 20.9786959,4.40040581 23.8871146,0.947602576 C24.8342445,-0.176864781 26.5145621,-0.321439155 27.639365,0.625867222 C28.7641678,1.5731736 28.9083262,3.25207221 27.9607372,4.37699853 C23.9894946,9.09150003 19.5302253,11.4822553 14.7068872,11.4822553" id="path-35"></path>
        <path d="M7.7682017,3.56858856 C7.7682017,5.53967029 6.02908072,7.13761817 3.88386084,7.13761817 C1.73864095,7.13761817 0,5.53967029 0,3.56858856 C0,1.59750683 1.73864095,0 3.88386084,0 C6.02908072,0 7.7682017,1.59750683 7.7682017,3.56858856" id="path-37"></path>
        <path d="M7.7682017,3.56858856 C7.7682017,5.53967029 6.02918818,7.13761817 3.88410085,7.13761817 C1.73901352,7.13761817 0,5.53967029 0,3.56858856 C0,1.59750683 1.73901352,0 3.88410085,0 C6.02918818,0 7.7682017,1.59750683 7.7682017,3.56858856" id="path-39"></path>
    </defs>
    <g id="3.0.0---Front-End" stroke="none" stroke-width="1" fill="none" fill-rule="evenodd">
        <g id="Desktop---Landing-Page-NEW" transform="translate(-141.000000, -934.000000)">
            <g id="Two-Questions" transform="translate(0.000000, 513.000000)">
                <g id="Tabelts" transform="translate(141.000000, 421.000000)">
                    <g id="Question-1">
                        <g id="Tablet" transform="translate(297.000000, 175.500000) rotate(90.000000) translate(-297.000000, -175.500000) translate(122.000000, -121.000000)">
                            <mask id="mask-2" fill="white">
                                <use xlink:href="#path-1"></use>
                            </mask>
                            <use id="Rectangle-11" fill="#DEDEDE" xlink:href="#path-1"></use>
                            <circle id="Oval" stroke="#FFFFFF" stroke-width="2" fill-rule="nonzero" mask="url(#mask-2)" cx="175" cy="570" r="11"></circle>
                            <g id="Image" mask="url(#mask-2)">
                                <g transform="translate(16.500000, 42.500000)">
                                    <mask id="mask-4" fill="white">
                                        <use xlink:href="#path-3"></use>
                                    </mask>
                                    <use id="Mask" stroke="none" fill="#FFFFFF" fill-rule="evenodd" xlink:href="#path-3"></use>
                                </g>
                            </g>
                        </g>
                        <g id="Swipe" transform="translate(105.000000, 133.000000)">
                            <g id="Face---Happy-">
                                <g filter="url(#filter-5)" transform="translate(4.124024, 4.124024)">
                                    <g id="Color">
                                        <mask id="mask-7" fill="white">
                                            <use xlink:href="#path-6"></use>
                                        </mask>
                                        <use id="Mask" fill="#D8D8D8" fill-rule="nonzero" xlink:href="#path-6"></use>
                                        <g id="Color---Green" mask="url(#mask-7)" fill="#00BA54" fill-rule="nonzero">
                                            <rect id="Rectangle-3" x="0" y="0" width="90.6566038" height="91.52"></rect>
                                        </g>
                                    </g>
                                    <g id="Face" transform="translate(22.166627, 24.744142)">
                                        <g id="Mouth" transform="translate(0.000000, 25.182616)">
                                            <mask id="mask-9" fill="white">
                                                <use xlink:href="#path-8"></use>
                                            </mask>
                                            <use id="Mask" fill="#FFFFFF" xlink:href="#path-8"></use>
                                            <g id="Color---Green---Dark" mask="url(#mask-9)" fill="#004C22" fill-rule="nonzero">
                                                <g transform="translate(-8.573038, -3.021914)" id="Rectangle-3">
                                                    <rect x="0" y="0" width="60.7698113" height="24.1371429"></rect>
                                                </g>
                                            </g>
                                        </g>
                                        <g id="Eye" transform="translate(2.521482, 0.000000)">
                                            <mask id="mask-11" fill="white">
                                                <use xlink:href="#path-10"></use>
                                            </mask>
                                            <use id="Mask" fill="#FFFFFF" xlink:href="#path-10"></use>
                                            <g id="Color---Green---Dark" mask="url(#mask-11)" fill="#004C22" fill-rule="nonzero">
                                                <g transform="translate(-11.094520, -7.051132)" id="Rectangle-3">
                                                    <rect x="0" y="0" width="60.7698113" height="57.3257143"></rect>
                                                </g>
                                            </g>
                                        </g>
                                        <g id="Eye" transform="translate(30.257782, 0.000000)">
                                            <mask id="mask-13" fill="white">
                                                <use xlink:href="#path-12"></use>
                                            </mask>
                                            <use id="Mask" fill="#FFFFFF" xlink:href="#path-12"></use>
                                            <g id="Color---Green---Dark" mask="url(#mask-13)" fill="#004C22" fill-rule="nonzero">
                                                <g transform="translate(-2.017185, -1.510957)" id="Rectangle-3">
                                                    <rect x="0" y="0" width="16.9358491" height="17.0971429"></rect>
                                                </g>
                                            </g>
                                        </g>
                                    </g>
                                </g>
                            </g>
                            <g id="Application---Drag" transform="translate(155.009174, 21.214286)">
                                <mask id="mask-16" fill="white">
                                    <use xlink:href="#path-14"></use>
                                </mask>
                                <use id="Shadow" fill-opacity="0.16" fill="#171D21" fill-rule="nonzero" filter="url(#filter-15)" xlink:href="#path-14"></use>
                                <mask id="mask-18" fill="white">
                                    <use xlink:href="#path-17"></use>
                                </mask>
                                <use id="Mask" fill="#2E3840" fill-rule="nonzero" xlink:href="#path-17"></use>
                                <g id="Color---Yellow---Brand" mask="url(#mask-18)" fill="#FFC300" fill-rule="nonzero">
                                    <g transform="translate(0.000000, -6.722532)" id="Rectangle-3">
                                        <rect x="0" y="0" width="69.7358491" height="71.4057143"></rect>
                                    </g>
                                </g>
                            </g>
                            <path d="M241.630036,50.5193863 C241.835739,50.7603705 242.110263,50.8816301 242.436786,50.8816301 L249.182134,50.8816301 L246.384126,53.6890194 C246.144013,53.9476554 246.006368,54.2408272 246.006368,54.5677676 C246.006368,54.9123597 246.144013,55.2047641 246.384126,55.4465158 L247.105231,56.1694684 C247.345344,56.4112201 247.637456,56.5317122 247.963215,56.5317122 C248.289739,56.5317122 248.581086,56.4112201 248.838787,56.1694684 L255.069497,49.9169257 C255.309611,49.675174 255.412844,49.3827696 255.412844,49.0381775 C255.412844,48.6935855 255.309611,48.4004136 255.069497,48.1770811 L248.838787,41.9237709 C248.581086,41.6827867 248.289739,41.5446429 247.963215,41.5446429 C247.619868,41.5446429 247.345344,41.6827867 247.105231,41.9237709 L246.384126,42.6298393 C246.144013,42.8708235 246.006368,43.1639954 246.006368,43.5085875 C246.006368,43.8531796 246.144013,44.145584 246.384126,44.3696839 L249.182134,47.194725 L242.436786,47.194725 C242.110263,47.194725 241.835739,47.3152171 241.630036,47.5569688 C241.42357,47.797953 241.321101,48.0903575 241.321101,48.4180653 L241.321101,49.6582898 C241.321101,49.9852302 241.42357,50.278402 241.630036,50.5193863" id="Arrow" fill="#CCCCCC"></path>
                            <path d="M122.730954,51.4033148 C122.936656,51.644299 123.21118,51.7655586 123.537704,51.7655586 L130.283052,51.7655586 L127.485044,54.572948 C127.24493,54.8315839 127.107286,55.1247558 127.107286,55.4516962 C127.107286,55.7962883 127.24493,56.0886927 127.485044,56.3304444 L128.206148,57.053397 C128.446261,57.2951487 128.738374,57.4156408 129.064133,57.4156408 C129.390656,57.4156408 129.682004,57.2951487 129.939705,57.053397 L136.170415,50.8008543 C136.410528,50.5591026 136.513761,50.2666982 136.513761,49.9221061 C136.513761,49.577514 136.410528,49.2843422 136.170415,49.0610096 L129.939705,42.8076995 C129.682004,42.5667152 129.390656,42.4285714 129.064133,42.4285714 C128.720786,42.4285714 128.446261,42.5667152 128.206148,42.8076995 L127.485044,43.5137679 C127.24493,43.7547521 127.107286,44.047924 127.107286,44.392516 C127.107286,44.7371081 127.24493,45.0295125 127.485044,45.2536125 L130.283052,48.0786536 L123.537704,48.0786536 C123.21118,48.0786536 122.936656,48.1991457 122.730954,48.4408974 C122.524487,48.6818816 122.422018,48.974286 122.422018,49.3019939 L122.422018,50.5422184 C122.422018,50.8691587 122.524487,51.1623306 122.730954,51.4033148" id="Arrow" fill="#CCCCCC" transform="translate(129.467890, 49.922106) scale(-1, 1) translate(-129.467890, -49.922106) "></path>
                            <g id="Face---Not-Happy" transform="translate(285.357798, 0.000000)">
                                <g transform="translate(4.124024, 4.124024)">
                                    <g id="Color" filter="url(#filter-19)">
                                        <mask id="mask-21" fill="white">
                                            <use xlink:href="#path-20"></use>
                                        </mask>
                                        <use id="Mask" fill="#D8D8D8" fill-rule="nonzero" xlink:href="#path-20"></use>
                                        <g id="Color---Red" mask="url(#mask-21)" fill="#F8382B" fill-rule="nonzero">
                                            <rect id="Rectangle-3" x="0" y="0" width="90.6566038" height="91.52"></rect>
                                        </g>
                                    </g>
                                    <g id="Face" transform="translate(23.690225, 30.242840)">
                                        <g id="Mouth" transform="translate(0.000000, 24.698320)">
                                            <mask id="mask-23" fill="white">
                                                <use xlink:href="#path-22"></use>
                                            </mask>
                                            <use id="Mask" fill="#FFFFFF" xlink:href="#path-22"></use>
                                            <g id="Color---Red---Dark" mask="url(#mask-23)" fill="#661414" fill-rule="nonzero">
                                                <g transform="translate(-9.072852, -6.048568)" id="Rectangle-3">
                                                    <rect x="0" y="0" width="59.7735849" height="24.1371429"></rect>
                                                </g>
                                            </g>
                                        </g>
                                        <g id="Eye" transform="translate(28.730698, 0.000000)">
                                            <mask id="mask-25" fill="white">
                                                <use xlink:href="#path-24"></use>
                                            </mask>
                                            <use id="Mask" fill="#FFFFFF" xlink:href="#path-24"></use>
                                            <g id="Color---Red---Dark" mask="url(#mask-25)" fill="#661414" fill-rule="nonzero">
                                                <g transform="translate(-1.008095, -1.512142)" id="Rectangle-3">
                                                    <rect x="0" y="0" width="14.9433962" height="15.0857143"></rect>
                                                </g>
                                            </g>
                                        </g>
                                        <g id="Eye" transform="translate(1.008095, 0.000000)">
                                            <mask id="mask-27" fill="white">
                                                <use xlink:href="#path-26"></use>
                                            </mask>
                                            <use id="Mask" fill="#FFFFFF" xlink:href="#path-26"></use>
                                            <g id="Color---Red---Dark" mask="url(#mask-27)" fill="#661414" fill-rule="nonzero">
                                                <g transform="translate(-1.008095, -1.008095)" id="Rectangle-3">
                                                    <rect x="0" y="0" width="15.9396226" height="17.0971429"></rect>
                                                </g>
                                            </g>
                                        </g>
                                    </g>
                                </g>
                            </g>
                        </g>
                        <text id="Were-you-satisfied-w" font-family="NunitoSans-ExtraBold, Nunito Sans" font-size="14" font-weight="600" line-spacing="21" letter-spacing="2" fill="#181D21">
                            <tspan x="93.273" y="63">WERE YOU SATISFIED WITH TODAY’S SERVICE?</tspan>
                        </text>
                    </g>
                    <g id="Question-2" transform="translate(551.000000, 36.000000)">
                        <g id="Tablet" transform="translate(296.000000, 175.000000) rotate(90.000000) translate(-296.000000, -175.000000) translate(121.000000, -121.000000)">
                            <mask id="mask-29" fill="white">
                                <use xlink:href="#path-28"></use>
                            </mask>
                            <use id="Rectangle-11" fill="#CCCCCC" xlink:href="#path-28"></use>
                            <circle id="Oval" stroke="#FFFFFF" stroke-width="2" fill-rule="nonzero" mask="url(#mask-29)" cx="175" cy="569" r="11"></circle>
                            <circle id="Oval" fill="#FFFFFF" fill-rule="nonzero" mask="url(#mask-29)" cx="175" cy="22" r="6"></circle>
                            <g id="Image" mask="url(#mask-29)">
                                <g transform="translate(16.000000, 44.000000)">
                                    <mask id="mask-31" fill="white">
                                        <use xlink:href="#path-30"></use>
                                    </mask>
                                    <use id="Mask" stroke="none" fill="#FFFFFF" fill-rule="evenodd" xlink:href="#path-30"></use>
                                </g>
                            </g>
                        </g>
                        <g id="Form" transform="translate(62.000000, 94.000000)">
                            <g id="Input">
                                <rect id="BG" fill="#F5F5F5" fill-rule="nonzero" x="-2.84217094e-14" y="0" width="466.200698" height="214.702194" rx="8"></rect>
                                <text id="H1---Left" font-family="NunitoSans-Black, Nunito Sans" font-size="32" font-weight="700" line-spacing="40" fill="#181D21">
                                    <tspan x="24" y="54">Provide skilled and </tspan>
                                    <tspan x="24" y="94">professional teachers </tspan>
                                    <tspan x="24" y="134">at Mahama secondary </tspan>
                                    <tspan x="24" y="174">school.</tspan>
                                </text>
                                <g id="Face---Happy-" transform="translate(385.000000, 22.000000)">
                                    <g filter="url(#filter-32)" transform="translate(2.541065, 2.541065)">
                                        <g id="Color">
                                            <mask id="mask-34" fill="white">
                                                <use xlink:href="#path-33"></use>
                                            </mask>
                                            <use id="Mask" fill="#D8D8D8" fill-rule="nonzero" xlink:href="#path-33"></use>
                                            <g id="Color---Green" mask="url(#mask-34)" fill="#00BA54" fill-rule="nonzero">
                                                <rect id="Rectangle-3" x="0" y="0" width="55.7886792" height="56.32"></rect>
                                            </g>
                                        </g>
                                        <g id="Face" transform="translate(13.658225, 15.246391)">
                                            <g id="Mouth" transform="translate(0.000000, 15.516561)">
                                                <mask id="mask-36" fill="white">
                                                    <use xlink:href="#path-35"></use>
                                                </mask>
                                                <use id="Mask" fill="#FFFFFF" xlink:href="#path-35"></use>
                                                <g id="Color---Green---Dark" mask="url(#mask-36)" fill="#004C22" fill-rule="nonzero">
                                                    <g transform="translate(-5.282377, -1.861987)" id="Rectangle-3">
                                                        <rect x="0" y="0" width="36.8603774" height="15.0857143"></rect>
                                                    </g>
                                                </g>
                                            </g>
                                            <g id="Eye" transform="translate(1.553640, 0.000000)">
                                                <mask id="mask-38" fill="white">
                                                    <use xlink:href="#path-37"></use>
                                                </mask>
                                                <use id="Mask" fill="#FFFFFF" xlink:href="#path-37"></use>
                                                <g id="Color---Green---Dark" mask="url(#mask-38)" fill="#004C22" fill-rule="nonzero">
                                                    <g transform="translate(-6.836017, -4.344637)" id="Rectangle-3">
                                                        <rect x="0" y="0" width="36.8603774" height="35.2"></rect>
                                                    </g>
                                                </g>
                                            </g>
                                            <g id="Eye" transform="translate(18.643684, 0.000000)">
                                                <mask id="mask-40" fill="white">
                                                    <use xlink:href="#path-39"></use>
                                                </mask>
                                                <use id="Mask" fill="#FFFFFF" xlink:href="#path-39"></use>
                                                <g id="Color---Green---Dark" mask="url(#mask-40)" fill="#004C22" fill-rule="nonzero">
                                                    <g transform="translate(-1.242912, -0.930994)" id="Rectangle-3">
                                                        <rect x="0" y="0" width="9.96226415" height="10.0571429"></rect>
                                                    </g>
                                                </g>
                                            </g>
                                        </g>
                                    </g>
                                </g>
                            </g>
                        </g>
                        <text id="Do-you-have-an-idea" font-family="NunitoSans-ExtraBold, Nunito Sans" font-size="14" font-weight="600" line-spacing="21" letter-spacing="2" fill="#181D21">
                            <tspan x="104.353" y="61">DO YOU HAVE AN IDEA TO MAKE IT BETTER?</tspan>
                        </text>
                    </g>
                </g>
            </g>
        </g>
    </g>
</svg>