<?xml version="1.0" encoding="UTF-8"?>
<svg width="395px" height="491px" viewBox="0 0 395 491" version="1.1" xmlns="http://www.w3.org/2000/svg" xmlns:xlink="http://www.w3.org/1999/xlink">
    <!-- Generator: Sketch 51.2 (57519) - http://www.bohemiancoding.com/sketch -->
    <title>Snapshots</title>
    <desc>Created with Sketch.</desc>
    <defs>
        <rect id="path-1" x="0" y="0" width="287" height="415" rx="12"></rect>
        <filter x="-14.6%" y="-5.8%" width="129.3%" height="120.2%" filterUnits="objectBoundingBox" id="filter-2">
            <feMorphology radius="3" operator="erode" in="SourceAlpha" result="shadowSpreadOuter1"></feMorphology>
            <feOffset dx="0" dy="18" in="shadowSpreadOuter1" result="shadowOffsetOuter1"></feOffset>
            <feGaussianBlur stdDeviation="12" in="shadowOffsetOuter1" result="shadowBlurOuter1"></feGaussianBlur>
            <feColorMatrix values="0 0 0 0 0.0901960784   0 0 0 0 0.11372549   0 0 0 0 0.129411765  0 0 0 0.14 0" type="matrix" in="shadowBlurOuter1"></feColorMatrix>
        </filter>
        <rect id="path-3" x="0" y="0" width="287" height="415" rx="12"></rect>
        <filter x="-14.6%" y="-5.8%" width="129.3%" height="120.2%" filterUnits="objectBoundingBox" id="filter-4">
            <feMorphology radius="3" operator="erode" in="SourceAlpha" result="shadowSpreadOuter1"></feMorphology>
            <feOffset dx="0" dy="18" in="shadowSpreadOuter1" result="shadowOffsetOuter1"></feOffset>
            <feGaussianBlur stdDeviation="12" in="shadowOffsetOuter1" result="shadowBlurOuter1"></feGaussianBlur>
            <feColorMatrix values="0 0 0 0 0.0901960784   0 0 0 0 0.11372549   0 0 0 0 0.129411765  0 0 0 0.14 0" type="matrix" in="shadowBlurOuter1"></feColorMatrix>
        </filter>
    </defs>
    <g id="3.0.0---Dashboard" stroke="none" stroke-width="1" fill="none" fill-rule="evenodd">
        <g id="Desktop---Landing-Page" transform="translate(-228.000000, -2494.000000)">
            <g id="Section--Snapshots" transform="translate(246.000000, 2491.000000)">
                <g id="Snapshots" transform="translate(0.000000, 3.000000)">
                    <g id="Temp-Snapshot" opacity="0.6" transform="translate(0.000000, 40.000000)">
                        <g id="Rectangle-5" fill-rule="nonzero">
                            <use fill="black" fill-opacity="1" filter="url(#filter-2)" xlink:href="#path-1"></use>
                            <use fill="#FFFFFF" xlink:href="#path-1"></use>
                        </g>
                        <circle id="Oval-2" stroke="#00BA54" stroke-width="7" fill="#FFFFFF" fill-rule="nonzero" cx="143.5" cy="146.5" r="52.5"></circle>
                        <rect id="Rectangle-6" fill="#FFBB12" fill-rule="nonzero" x="18" y="20" width="252" height="52" rx="6"></rect>
                        <circle id="Oval-2" stroke="#00BA54" stroke-width="7" fill="#FFFFFF" fill-rule="nonzero" cx="48" cy="147" r="23"></circle>
                        <text id="Headline" font-family="NunitoSans-Black, Nunito Sans" font-size="32" font-weight="700" line-spacing="40" fill="#181D21">
                            <tspan x="99.164" y="154.312012">65%</tspan>
                        </text>
                        <rect id="Rectangle-8" fill="#F5F5F5" fill-rule="nonzero" x="42" y="228" width="99" height="20"></rect>
                        <rect id="Rectangle-8" fill="#F5F5F5" fill-rule="nonzero" x="42" y="260" width="99" height="20"></rect>
                        <rect id="Rectangle-8" fill="#F5F5F5" fill-rule="nonzero" x="156" y="228" width="99" height="20"></rect>
                        <rect id="Rectangle-8" fill="#F5F5F5" fill-rule="nonzero" x="156" y="260" width="99" height="20"></rect>
                        <rect id="Rectangle-8" fill="#F5F5F5" fill-rule="nonzero" x="42" y="292" width="99" height="20"></rect>
                        <rect id="Rectangle-8" fill="#F5F5F5" fill-rule="nonzero" x="156" y="292" width="99" height="20"></rect>
                        <rect id="Rectangle-8" fill="#F5F5F5" fill-rule="nonzero" x="42" y="324" width="99" height="20"></rect>
                        <rect id="Rectangle-8" fill="#F5F5F5" fill-rule="nonzero" x="156" y="324" width="99" height="20"></rect>
                        <rect id="Rectangle-8" fill="#F5F5F5" fill-rule="nonzero" x="42" y="356" width="99" height="20"></rect>
                        <rect id="Rectangle-8" fill="#F5F5F5" fill-rule="nonzero" x="156" y="356" width="99" height="20"></rect>
                    </g>
                    <g id="Temp-Snapshot" transform="translate(72.000000, 0.000000)">
                        <g id="Rectangle-5" fill-rule="nonzero">
                            <use fill="black" fill-opacity="1" filter="url(#filter-4)" xlink:href="#path-3"></use>
                            <use fill="#FFFFFF" xlink:href="#path-3"></use>
                        </g>
                        <circle id="Oval-2" stroke="#00BA54" stroke-width="7" fill="#FFFFFF" fill-rule="nonzero" cx="143.5" cy="146.5" r="52.5"></circle>
                        <path d="M111.753906,149.871094 C111.753906,144.050752 112.658845,139.796237 114.46875,137.107422 C116.278655,134.418606 119.039044,133.074219 122.75,133.074219 C123.33594,133.074219 123.921872,133.110026 124.507812,133.181641 C125.093753,133.253256 125.536457,133.328125 125.835938,133.40625 L125.835938,137.800781 C124.937496,137.592447 124.052088,137.488281 123.179688,137.488281 C121.695305,137.488281 120.477869,137.813799 119.527344,138.464844 C118.576818,139.115889 117.854169,140.089186 117.359375,141.384766 C116.864581,142.680345 116.565105,144.499988 116.460938,146.84375 L116.675781,146.84375 C117.131513,145.763015 117.756506,144.945966 118.550781,144.392578 C119.345056,143.83919 120.263016,143.5625 121.304688,143.5625 C123.21876,143.5625 124.70963,144.340487 125.777344,145.896484 C126.845057,147.452482 127.378906,149.675767 127.378906,152.566406 C127.378906,155.587255 126.675788,157.979809 125.269531,159.744141 C123.863274,161.508472 121.955741,162.390625 119.546875,162.390625 C116.994779,162.390625 115.057949,161.335948 113.736328,159.226562 C112.414707,157.117177 111.753906,153.998719 111.753906,149.871094 Z M119.585938,157.917969 C120.367191,157.917969 120.99544,157.488286 121.470703,156.628906 C121.945966,155.769527 122.183594,154.428395 122.183594,152.605469 C122.183594,151.134107 121.972007,149.972009 121.548828,149.119141 C121.125649,148.266272 120.484379,147.839844 119.625,147.839844 C118.856767,147.839844 118.231773,148.236975 117.75,149.03125 C117.268227,149.825525 117.027344,150.828119 117.027344,152.039062 C117.027344,153.940114 117.251951,155.395177 117.701172,156.404297 C118.150393,157.413417 118.778642,157.917969 119.585938,157.917969 Z M138.101562,133.074219 C140.328136,133.074219 142.105462,133.705723 143.433594,134.96875 C144.761725,136.231777 145.425781,137.95051 145.425781,140.125 C145.425781,141.466153 145.11654,142.680333 144.498047,143.767578 C143.879554,144.854823 142.828132,145.893224 141.34375,146.882812 C143.010425,148.067714 144.195309,149.281895 144.898438,150.525391 C145.601566,151.768886 145.953125,153.126295 145.953125,154.597656 C145.953125,156.928397 145.236986,158.809889 143.804688,160.242188 C142.372389,161.674486 140.471366,162.390625 138.101562,162.390625 C135.640613,162.390625 133.713549,161.729824 132.320312,160.408203 C130.927076,159.086582 130.230469,157.201835 130.230469,154.753906 C130.230469,153.113273 130.578773,151.66472 131.275391,150.408203 C131.972009,149.151686 133.049472,148.054692 134.507812,147.117188 C133.153639,146.036453 132.186852,144.945969 131.607422,143.845703 C131.027992,142.745437 130.738281,141.505215 130.738281,140.125 C130.738281,137.989573 131.425123,136.280605 132.798828,134.998047 C134.172533,133.715488 135.940093,133.074219 138.101562,133.074219 Z M135.269531,154.480469 C135.269531,155.626308 135.507159,156.537757 135.982422,157.214844 C136.457685,157.89193 137.138016,158.230469 138.023438,158.230469 C138.986984,158.230469 139.706378,157.89193 140.181641,157.214844 C140.656903,156.537757 140.894531,155.626308 140.894531,154.480469 C140.894531,153.660152 140.705731,152.88542 140.328125,152.15625 C139.950519,151.42708 139.22136,150.587244 138.140625,149.636719 L137.867188,149.363281 C137.020829,149.988284 136.376304,150.701168 135.933594,151.501953 C135.490883,152.302738 135.269531,153.295567 135.269531,154.480469 Z M138.0625,137.195312 C137.320309,137.195312 136.760419,137.465492 136.382812,138.005859 C136.005206,138.546227 135.816406,139.317703 135.816406,140.320312 C135.816406,141.179692 135.972655,141.928382 136.285156,142.566406 C136.597658,143.20443 137.203121,143.881507 138.101562,144.597656 C138.960942,143.93359 139.550129,143.269535 139.869141,142.605469 C140.188153,141.941403 140.347656,141.179692 140.347656,140.320312 C140.347656,138.236969 139.585945,137.195312 138.0625,137.195312 Z M152.730469,142 C152.730469,143.809905 152.847655,145.128251 153.082031,145.955078 C153.316407,146.781905 153.707029,147.195312 154.253906,147.195312 C154.800784,147.195312 155.197915,146.781905 155.445312,145.955078 C155.69271,145.128251 155.816406,143.809905 155.816406,142 C155.816406,140.190095 155.689454,138.871749 155.435547,138.044922 C155.181639,137.218095 154.787763,136.804688 154.253906,136.804688 C153.707029,136.804688 153.316407,137.218095 153.082031,138.044922 C152.847655,138.871749 152.730469,140.190095 152.730469,142 Z M159.976562,141.960938 C159.976562,144.903661 159.485031,147.139966 158.501953,148.669922 C157.518875,150.199877 156.089853,150.964844 154.214844,150.964844 C152.27473,150.964844 150.848963,150.216153 149.9375,148.71875 C149.026037,147.221347 148.570312,144.994806 148.570312,142.039062 C148.570312,136.036428 150.451804,133.035156 154.214844,133.035156 C158.056009,133.035156 159.976562,136.010387 159.976562,141.960938 Z M169.214844,153.40625 C169.214844,155.216155 169.33203,156.534501 169.566406,157.361328 C169.800782,158.188155 170.191404,158.601562 170.738281,158.601562 C171.285159,158.601562 171.68229,158.188155 171.929688,157.361328 C172.177085,156.534501 172.300781,155.216155 172.300781,153.40625 C172.300781,151.596345 172.173829,150.281254 171.919922,149.460938 C171.666014,148.640621 171.272138,148.230469 170.738281,148.230469 C170.204424,148.230469 169.817058,148.640621 169.576172,149.460938 C169.335285,150.281254 169.214844,151.596345 169.214844,153.40625 Z M176.460938,153.367188 C176.460938,156.309911 175.966151,158.542961 174.976562,160.066406 C173.986974,161.589851 172.561207,162.351562 170.699219,162.351562 C168.746084,162.351562 167.317062,161.606127 166.412109,160.115234 C165.507157,158.624342 165.054688,156.401056 165.054688,153.445312 C165.054688,150.528631 165.520178,148.298836 166.451172,146.755859 C167.382166,145.212883 168.798168,144.441406 170.699219,144.441406 C174.540384,144.441406 176.460938,147.416637 176.460938,153.367188 Z M170.425781,133.445312 L158.628906,162 L154.585938,162 L166.34375,133.445312 L170.425781,133.445312 Z" id="68%" fill="#181D21"></path>
                        <rect id="Rectangle-6" fill="#FFBB12" fill-rule="nonzero" x="18" y="20" width="252" height="52" rx="6"></rect>
                        <circle id="Oval-2" stroke="#00BA54" stroke-width="7" fill="#FFFFFF" fill-rule="nonzero" cx="48" cy="147" r="23"></circle>
                        <rect id="Rectangle-8" fill="#F5F5F5" fill-rule="nonzero" x="42" y="228" width="99" height="20"></rect>
                        <rect id="Rectangle-8" fill="#F5F5F5" fill-rule="nonzero" x="42" y="260" width="99" height="20"></rect>
                        <rect id="Rectangle-8" fill="#F5F5F5" fill-rule="nonzero" x="156" y="228" width="99" height="20"></rect>
                        <rect id="Rectangle-8" fill="#F5F5F5" fill-rule="nonzero" x="156" y="260" width="99" height="20"></rect>
                        <rect id="Rectangle-8" fill="#F5F5F5" fill-rule="nonzero" x="42" y="292" width="99" height="20"></rect>
                        <rect id="Rectangle-8" fill="#F5F5F5" fill-rule="nonzero" x="156" y="292" width="99" height="20"></rect>
                        <rect id="Rectangle-8" fill="#F5F5F5" fill-rule="nonzero" x="42" y="324" width="99" height="20"></rect>
                        <rect id="Rectangle-8" fill="#F5F5F5" fill-rule="nonzero" x="156" y="324" width="99" height="20"></rect>
                        <rect id="Rectangle-8" fill="#F5F5F5" fill-rule="nonzero" x="42" y="357" width="99" height="20"></rect>
                        <rect id="Rectangle-8" fill="#F5F5F5" fill-rule="nonzero" x="156" y="356" width="99" height="20"></rect>
                        <circle id="Oval-2" stroke="#00BA54" stroke-width="7" fill="#FFFFFF" fill-rule="nonzero" cx="237" cy="147" r="23"></circle>
                    </g>
                </g>
            </g>
        </g>
    </g>
</svg>