<?xml version="1.0" encoding="UTF-8"?>
<svg width="98px" height="99px" viewBox="0 0 98 99" version="1.1" xmlns="http://www.w3.org/2000/svg" xmlns:xlink="http://www.w3.org/1999/xlink">
    <!-- Generator: Sketch 51.3 (57544) - http://www.bohemiancoding.com/sketch -->
    <title>Icon</title>
    <desc>Created with Sketch.</desc>
    <defs>
        <circle id="path-1" cx="32" cy="32" r="32"></circle>
        <filter x="-65.6%" y="-37.5%" width="231.2%" height="231.2%" filterUnits="objectBoundingBox" id="filter-2">
            <feMorphology radius="3" operator="erode" in="SourceAlpha" result="shadowSpreadOuter1"></feMorphology>
            <feOffset dx="0" dy="18" in="shadowSpreadOuter1" result="shadowOffsetOuter1"></feOffset>
            <feGaussianBlur stdDeviation="12" in="shadowOffsetOuter1" result="shadowBlurOuter1"></feGaussianBlur>
            <feColorMatrix values="0 0 0 0 0.0901960784   0 0 0 0 0.11372549   0 0 0 0 0.129411765  0 0 0 0.14 0" type="matrix" in="shadowBlurOuter1"></feColorMatrix>
        </filter>
    </defs>
    <g id="3.0.0---Dashboard" stroke="none" stroke-width="1" fill="none" fill-rule="evenodd">
        <g id="Desktop---Landing-Page" transform="translate(-104.000000, -4268.000000)" fill-rule="nonzero">
            <g id="Footer" transform="translate(0.000000, 4146.000000)">
                <g id="Section---Contact" transform="translate(120.000000, 122.000000)">
                    <g id="Copy">
                        <g id="Icon" transform="translate(1.000000, 0.000000)">
                            <g id="Oval">
                                <use fill="black" fill-opacity="1" filter="url(#filter-2)" xlink:href="#path-1"></use>
                                <use fill="#FFC300" xlink:href="#path-1"></use>
                            </g>
                            <g id="handshake" transform="translate(14.000000, 22.000000)" fill="#FFFFFF">
                                <path d="M4.275,2.85 L1.425,2.85 C0.637984375,2.85 0,3.48798437 0,4.275 L0,16.625 C0,17.4120156 0.637984375,18.05 1.425,18.05 L4.275,18.05 C5.06201563,18.05 5.7,17.4120156 5.7,16.625 L5.7,4.275 C5.7,3.48798437 5.06201563,2.85 4.275,2.85 Z M2.85,16.3875 C2.19414375,16.3875 1.6625,15.8558563 1.6625,15.2 C1.6625,14.5441437 2.19414375,14.0125 2.85,14.0125 C3.50585625,14.0125 4.0375,14.5441437 4.0375,15.2 C4.0375,15.8558563 3.50585625,16.3875 2.85,16.3875 Z M36.575,2.85 L33.725,2.85 C32.9379844,2.85 32.3,3.48798437 32.3,4.275 L32.3,16.625 C32.3,17.4120156 32.9379844,18.05 33.725,18.05 L36.575,18.05 C37.3620156,18.05 38,17.4120156 38,16.625 L38,4.275 C38,3.48798437 37.3620156,2.85 36.575,2.85 Z M35.15,16.3875 C34.4941438,16.3875 33.9625,15.8558563 33.9625,15.2 C33.9625,14.5441437 34.4941438,14.0125 35.15,14.0125 C35.8058563,14.0125 36.3375,14.5441437 36.3375,15.2 C36.3375,15.8558563 35.8058563,16.3875 35.15,16.3875 Z M28.8526875,1.70228125 L31.35,4.5564375 L31.35,15.2 L30.2117813,15.2 C30.2450313,14.31175 29.9517188,13.4793125 29.3805313,12.8422188 L24.5759063,6.9694375 C24.749875,6.7794375 24.7397813,6.4849375 24.5533438,6.3068125 C24.3859063,6.1465 24.1329688,6.1334375 23.9512813,6.2616875 C23.9263438,6.2795 20.368,9.99815625 20.368,9.99815625 L20.356125,10.010625 C18.936825,11.6081094 16.4298344,11.5664875 15.0628438,9.9263125 C14.1437187,8.823125 14.155,7.23128125 15.0895625,6.1405625 L19.0421562,1.52890625 C19.8493,0.586625 21.0504563,1.42108547e-14 22.3665625,1.42108547e-14 L25.1007813,1.42108547e-14 C26.5383287,6.34154412e-05 27.9059056,0.620548141 28.8526875,1.70228125 Z M28.6525937,13.4537812 C29.5705312,14.4500938 29.400125,16.0561875 28.511875,16.8826875 C27.4602844,17.8601187 25.9924156,17.6548 25.7847812,17.4289375 C25.8829281,18.3586312 24.5148094,20.2343469 22.4348437,20.0818125 C22.0592969,21.3396719 20.51715,22.3920344 18.9210312,21.8399063 C18.3142187,22.446125 17.3879687,22.72875 16.5573125,22.72875 C14.8538437,22.72875 13.2964375,22.0168437 12.247875,20.9 L6.65,15.2 L6.65,4.2465 L10.29325,1.24390625 C11.089568,0.447516567 12.1696294,7.17115022e-05 13.2958437,0 L15.5176562,0 C16.511,0 17.4580312,0.406125 18.142625,1.11921875 L14.3681562,5.52246875 C13.1307812,6.965875 13.1159375,9.0736875 14.333125,10.5349063 C16.0772656,12.6276969 19.2616656,12.6636781 21.0609062,10.6489063 L23.9174375,7.659375 L28.6525937,13.4537813 Z" id="Shape"></path>
                            </g>
                        </g>
                    </g>
                </g>
            </g>
        </g>
    </g>
</svg>