<?xml version="1.0" encoding="UTF-8"?>
<svg width="98px" height="99px" viewBox="0 0 98 99" version="1.1" xmlns="http://www.w3.org/2000/svg" xmlns:xlink="http://www.w3.org/1999/xlink">
    <!-- Generator: Sketch 51.3 (57544) - http://www.bohemiancoding.com/sketch -->
    <title>Icon</title>
    <desc>Created with Sketch.</desc>
    <defs>
        <circle id="path-1" cx="32" cy="32" r="32"></circle>
        <filter x="-65.6%" y="-37.5%" width="231.2%" height="231.2%" filterUnits="objectBoundingBox" id="filter-2">
            <feMorphology radius="3" operator="erode" in="SourceAlpha" result="shadowSpreadOuter1"></feMorphology>
            <feOffset dx="0" dy="18" in="shadowSpreadOuter1" result="shadowOffsetOuter1"></feOffset>
            <feGaussianBlur stdDeviation="12" in="shadowOffsetOuter1" result="shadowBlurOuter1"></feGaussianBlur>
            <feColorMatrix values="0 0 0 0 0.0901960784   0 0 0 0 0.11372549   0 0 0 0 0.129411765  0 0 0 0.14 0" type="matrix" in="shadowBlurOuter1"></feColorMatrix>
        </filter>
    </defs>
    <g id="3.0.0---Dashboard" stroke="none" stroke-width="1" fill="none" fill-rule="evenodd">
        <g id="Desktop---Landing-Page" transform="translate(-671.000000, -3195.000000)" fill-rule="nonzero">
            <g id="Section---Gold-Star-Stories-v2" transform="translate(0.000000, 3052.000000)">
                <g id="Section-Copy" transform="translate(272.000000, 143.000000)">
                    <g id="Icon" transform="translate(416.000000, 0.000000)">
                        <g id="Oval">
                            <use fill="black" fill-opacity="1" filter="url(#filter-2)" xlink:href="#path-1"></use>
                            <use fill="#FFC300" xlink:href="#path-1"></use>
                        </g>
                        <g id="Arrows" transform="translate(10.000000, 17.000000)" fill="#FFFFFF">
                            <g id="Arrow" transform="translate(11.000000, 15.000000)">
                                <path d="M11,-4 L15,-4 C16.1045695,-4 17,-3.1045695 17,-2 L17,15 C17,18.3137085 14.3137085,21 11,21 L9,21 L9,-2 C9,-3.1045695 9.8954305,-4 11,-4 Z" id="Rectangle-9" transform="translate(13.000000, 8.500000) rotate(90.000000) translate(-13.000000, -8.500000) "></path>
                                <path d="M25.3373477,0.512888286 L32.3308606,6.80209848 C32.7170761,7.14941896 32.9376397,7.64440363 32.9376397,8.16382052 L32.9376397,8.16382052 C32.9376397,8.68157078 32.71052,9.17326094 32.3163156,9.50892177 L25.2966129,15.4861232 C24.4556164,16.2022228 23.1933406,16.1009737 22.477241,15.2599771 C22.1691825,14.8981893 22,14.4385384 22,13.9633642 L22,2 C22,0.8954305 22.8954305,-1.66783254e-13 24,-1.66977543e-13 C24.4938137,-1.6706081e-13 24.9701696,0.182687966 25.3373477,0.512888286 Z" id="Rectangle-11"></path>
                            </g>
                            <g id="Arrow" transform="translate(17.000000, 8.000000) scale(-1, 1) translate(-17.000000, -8.000000) ">
                                <path d="M10,-5 L16,-5 C17.1045695,-5 18,-4.1045695 18,-3 L18,22 L16,22 C12.6862915,22 10,19.3137085 10,16 L10,-5 Z" id="Rectangle-9" transform="translate(14.000000, 8.500000) rotate(90.000000) translate(-14.000000, -8.500000) "></path>
                                <path d="M26.3373477,0.512888286 L33.3308606,6.80209848 C33.7170761,7.14941896 33.9376397,7.64440363 33.9376397,8.16382052 L33.9376397,8.16382052 C33.9376397,8.68157078 33.71052,9.17326094 33.3163156,9.50892177 L26.2966129,15.4861232 C25.4556164,16.2022228 24.1933406,16.1009737 23.477241,15.2599771 C23.1691825,14.8981893 23,14.4385384 23,13.9633642 L23,2 C23,0.8954305 23.8954305,-1.66783254e-13 25,-1.66977543e-13 C25.4938137,-1.6706081e-13 25.9701696,0.182687966 26.3373477,0.512888286 Z" id="Rectangle-11"></path>
                            </g>
                        </g>
                    </g>
                </g>
            </g>
        </g>
    </g>
</svg>