<?xml version="1.0" encoding="UTF-8"?>
<svg width="1051px" height="498px" viewBox="0 0 1051 498" version="1.1" xmlns="http://www.w3.org/2000/svg" xmlns:xlink="http://www.w3.org/1999/xlink">
    <!-- Generator: Sketch 51.2 (57519) - http://www.bohemiancoding.com/sketch -->
    <title>Dashboard Screenshot</title>
    <desc>Created with Sketch.</desc>
    <defs>
        <filter x="-14.5%" y="-40.6%" width="128.9%" height="181.3%" filterUnits="objectBoundingBox" id="filter-1">
            <feGaussianBlur stdDeviation="1" in="SourceGraphic"></feGaussianBlur>
        </filter>
        <filter x="-14.5%" y="-41.4%" width="128.9%" height="182.7%" filterUnits="objectBoundingBox" id="filter-2">
            <feGaussianBlur stdDeviation="1" in="SourceGraphic"></feGaussianBlur>
        </filter>
        <filter x="-14.5%" y="-41.4%" width="128.9%" height="182.7%" filterUnits="objectBoundingBox" id="filter-3">
            <feGaussianBlur stdDeviation="1" in="SourceGraphic"></feGaussianBlur>
        </filter>
        <filter x="-14.5%" y="-40.6%" width="128.9%" height="181.3%" filterUnits="objectBoundingBox" id="filter-4">
            <feGaussianBlur stdDeviation="1" in="SourceGraphic"></feGaussianBlur>
        </filter>
        <filter x="-14.5%" y="-41.4%" width="128.9%" height="182.7%" filterUnits="objectBoundingBox" id="filter-5">
            <feGaussianBlur stdDeviation="1" in="SourceGraphic"></feGaussianBlur>
        </filter>
        <filter x="-14.5%" y="-40.6%" width="128.9%" height="181.3%" filterUnits="objectBoundingBox" id="filter-6">
            <feGaussianBlur stdDeviation="1" in="SourceGraphic"></feGaussianBlur>
        </filter>
        <rect id="path-7" x="0" y="0" width="1015" height="49" rx="12"></rect>
        <filter x="-4.1%" y="-49.0%" width="108.3%" height="271.4%" filterUnits="objectBoundingBox" id="filter-8">
            <feMorphology radius="3" operator="erode" in="SourceAlpha" result="shadowSpreadOuter1"></feMorphology>
            <feOffset dx="0" dy="18" in="shadowSpreadOuter1" result="shadowOffsetOuter1"></feOffset>
            <feGaussianBlur stdDeviation="12" in="shadowOffsetOuter1" result="shadowBlurOuter1"></feGaussianBlur>
            <feColorMatrix values="0 0 0 0 0.0901960784   0 0 0 0 0.11372549   0 0 0 0 0.129411765  0 0 0 0.08 0" type="matrix" in="shadowBlurOuter1"></feColorMatrix>
        </filter>
    </defs>
    <g id="3.0.0---Dashboard" stroke="none" stroke-width="1" fill="none" fill-rule="evenodd">
        <g id="Desktop---Landing-Page" transform="translate(-196.000000, -1167.000000)">
            <g id="Section---Dashboard" transform="translate(196.000000, 836.000000)">
                <g id="Dashboard-Screenshot" transform="translate(0.000000, 331.000000)">
                    <rect id="BG" fill="#B7F7A6" fill-rule="nonzero" x="0" y="36" width="1048" height="461.648438"></rect>
                    <g id="Markers" transform="translate(161.000000, 158.000000)">
                        <g id="Marker---Green" transform="translate(0.000000, 32.000000)">
                            <path d="M28.7691955,44.2753745 C28.7691955,46.3149382 24.1291837,47.9678836 18.4060388,47.9678836 C12.6819345,47.9678836 8.04192273,46.3149382 8.04192273,44.2753745 C8.04192273,42.2366836 12.6819345,40.5837382 18.4060388,40.5837382 C24.1291837,40.5837382 28.7691955,42.2366836 28.7691955,44.2753745" id="Shadow" fill-opacity="0.235026042" fill="#2B3841" filter="url(#filter-1)"></path>
                            <path d="M37.4941682,19.8168436 C37.4941682,9.35458909 29.1004864,0.872552727 18.7472136,0.872552727 C8.39394091,0.872552727 0.000259090909,9.35458909 0.000259090909,19.8168436 C0.000259090909,28.7954618 6.18216818,36.3087709 14.4791227,38.2628073 L15.54485,40.1269527 L18.7472136,45.73248 L21.9495773,40.1269527 L23.0144409,38.2628073 C31.3113955,36.3087709 37.4941682,28.7954618 37.4941682,19.8168436" id="Marker" fill="#00BA54"></path>
                        </g>
                        <g id="Marker---Red" transform="translate(200.000000, 115.000000)">
                            <path d="M28.7692818,44.3422286 C28.7692818,46.3453714 24.12927,47.9679429 18.4061251,47.9679429 C12.6820209,47.9679429 8.04200909,46.3453714 8.04200909,44.3422286 C8.04200909,42.3390857 12.6820209,40.7165143 18.4061251,40.7165143 C24.12927,40.7165143 28.7692818,42.3390857 28.7692818,44.3422286" id="Shadow" fill-opacity="0.2" fill="#2B3841" filter="url(#filter-2)"></path>
                            <path d="M37.4942545,19.4633143 C37.4942545,9.18788571 29.1005727,0.857314286 18.7473,0.857314286 C8.39316364,0.857314286 0.000345454545,9.18788571 0.000345454545,19.4633143 C0.000345454545,28.2807429 6.18225455,35.6607429 14.4792091,37.5790286 L15.5449364,39.4107429 L18.7473,44.9161714 L21.9496636,39.4107429 L23.0145273,37.5790286 C31.3114818,35.6607429 37.4942545,28.2807429 37.4942545,19.4633143" id="Marker" fill="#F8382B"></path>
                        </g>
                        <g id="Marker---Red" transform="translate(709.000000, 91.000000)">
                            <path d="M28.7692818,44.3422286 C28.7692818,46.3453714 24.12927,47.9679429 18.4061251,47.9679429 C12.6820209,47.9679429 8.04200909,46.3453714 8.04200909,44.3422286 C8.04200909,42.3390857 12.6820209,40.7165143 18.4061251,40.7165143 C24.12927,40.7165143 28.7692818,42.3390857 28.7692818,44.3422286" id="Shadow" fill-opacity="0.2" fill="#2B3841" filter="url(#filter-3)"></path>
                            <path d="M37.4942545,19.4633143 C37.4942545,9.18788571 29.1005727,0.857314286 18.7473,0.857314286 C8.39316364,0.857314286 0.000345454545,9.18788571 0.000345454545,19.4633143 C0.000345454545,28.2807429 6.18225455,35.6607429 14.4792091,37.5790286 L15.5449364,39.4107429 L18.7473,44.9161714 L21.9496636,39.4107429 L23.0145273,37.5790286 C31.3114818,35.6607429 37.4942545,28.2807429 37.4942545,19.4633143" id="Marker" fill="#F8382B"></path>
                        </g>
                        <g id="Marker---Green" transform="translate(312.000000, 0.000000)">
                            <path d="M28.7691955,44.2753745 C28.7691955,46.3149382 24.1291837,47.9678836 18.4060388,47.9678836 C12.6819345,47.9678836 8.04192273,46.3149382 8.04192273,44.2753745 C8.04192273,42.2366836 12.6819345,40.5837382 18.4060388,40.5837382 C24.1291837,40.5837382 28.7691955,42.2366836 28.7691955,44.2753745" id="Shadow" fill-opacity="0.235026042" fill="#2B3841" filter="url(#filter-4)"></path>
                            <path d="M37.4941682,19.8168436 C37.4941682,9.35458909 29.1004864,0.872552727 18.7472136,0.872552727 C8.39394091,0.872552727 0.000259090909,9.35458909 0.000259090909,19.8168436 C0.000259090909,28.7954618 6.18216818,36.3087709 14.4791227,38.2628073 L15.54485,40.1269527 L18.7472136,45.73248 L21.9495773,40.1269527 L23.0144409,38.2628073 C31.3113955,36.3087709 37.4941682,28.7954618 37.4941682,19.8168436" id="Marker" fill="#00BA54"></path>
                        </g>
                        <g id="Marker---Red" transform="translate(200.000000, 115.000000)">
                            <path d="M28.7692818,44.3422286 C28.7692818,46.3453714 24.12927,47.9679429 18.4061251,47.9679429 C12.6820209,47.9679429 8.04200909,46.3453714 8.04200909,44.3422286 C8.04200909,42.3390857 12.6820209,40.7165143 18.4061251,40.7165143 C24.12927,40.7165143 28.7692818,42.3390857 28.7692818,44.3422286" id="Shadow" fill-opacity="0.2" fill="#2B3841" filter="url(#filter-5)"></path>
                            <path d="M37.4942545,19.4633143 C37.4942545,9.18788571 29.1005727,0.857314286 18.7473,0.857314286 C8.39316364,0.857314286 0.000345454545,9.18788571 0.000345454545,19.4633143 C0.000345454545,28.2807429 6.18225455,35.6607429 14.4792091,37.5790286 L15.5449364,39.4107429 L18.7473,44.9161714 L21.9496636,39.4107429 L23.0145273,37.5790286 C31.3114818,35.6607429 37.4942545,28.2807429 37.4942545,19.4633143" id="Marker" fill="#F8382B"></path>
                        </g>
                        <g id="Marker---Green" transform="translate(541.000000, 123.000000)">
                            <path d="M28.7691955,44.2753745 C28.7691955,46.3149382 24.1291837,47.9678836 18.4060388,47.9678836 C12.6819345,47.9678836 8.04192273,46.3149382 8.04192273,44.2753745 C8.04192273,42.2366836 12.6819345,40.5837382 18.4060388,40.5837382 C24.1291837,40.5837382 28.7691955,42.2366836 28.7691955,44.2753745" id="Shadow" fill-opacity="0.235026042" fill="#2B3841" filter="url(#filter-6)"></path>
                            <path d="M37.4941682,19.8168436 C37.4941682,9.35458909 29.1004864,0.872552727 18.7472136,0.872552727 C8.39394091,0.872552727 0.000259090909,9.35458909 0.000259090909,19.8168436 C0.000259090909,28.7954618 6.18216818,36.3087709 14.4791227,38.2628073 L15.54485,40.1269527 L18.7472136,45.73248 L21.9495773,40.1269527 L23.0144409,38.2628073 C31.3113955,36.3087709 37.4941682,28.7954618 37.4941682,19.8168436" id="Marker" fill="#00BA54"></path>
                        </g>
                    </g>
                    <g id="Chrome">
                        <path d="M6,0 L1042,0 C1045.31371,-6.08718376e-16 1048,2.6862915 1048,6 L1048,36 L0,36 L0,6 C-4.05812251e-16,2.6862915 2.6862915,6.08718376e-16 6,0 Z" id="Rectangle-3" fill="#E8E6E8"></path>
                        <circle id="Oval-3" fill="#FF625A" cx="25.5" cy="18.5" r="5.5"></circle>
                        <circle id="Oval-3-Copy" fill="#FFC12F" cx="43.5" cy="18.5" r="5.5"></circle>
                        <circle id="Oval-3-Copy-2" fill="#29CE42" cx="61.5" cy="18.5" r="5.5"></circle>
                    </g>
                    <g id="Map-Nav" transform="translate(18.000000, 54.000000)" fill-rule="nonzero">
                        <g id="Rectangle-4">
                            <use fill="black" fill-opacity="1" filter="url(#filter-8)" xlink:href="#path-7"></use>
                            <use fill="#FFFFFF" xlink:href="#path-7"></use>
                        </g>
                        <g id="Search" transform="translate(20.000000, 13.000000)" fill="#F5F5F5">
                            <rect id="Input" x="0" y="0" width="240" height="24" rx="12"></rect>
                        </g>
                        <g id="Search" transform="translate(284.000000, 13.000000)" fill="#F5F5F5">
                            <rect id="Input" x="0" y="0" width="240" height="24" rx="4"></rect>
                        </g>
                        <g id="Search" transform="translate(548.000000, 13.000000)" fill="#F5F5F5">
                            <rect id="Input" x="0" y="0" width="240" height="24" rx="4"></rect>
                        </g>
                    </g>
                </g>
            </g>
        </g>
    </g>
</svg>