<?xml version="1.0" encoding="UTF-8"?>
<svg width="86px" height="56px" viewBox="0 0 86 56" version="1.1" xmlns="http://www.w3.org/2000/svg" xmlns:xlink="http://www.w3.org/1999/xlink">
    <!-- Generator: Sketch 52.5 (67469) - http://www.bohemiancoding.com/sketch -->
    <title>90%</title>
    <desc>Created with Sketch.</desc>
    <defs>
        <polygon id="path-1" points="0 0.168180314 18.9437209 0.168180314 18.9437209 16.4743458 0 16.4743458"></polygon>
        <polygon id="path-3" points="0.316311459 0.248266667 12.7450847 0.248266667 12.7450847 16.4647446 0.316311459 16.4647446"></polygon>
        <polygon id="path-5" points="0.2974689 0.253381591 11.1296713 0.253381591 11.1296713 16.8 0.2974689 16.8"></polygon>
        <polygon id="path-7" points="0.310837804 0.207563522 8.7408 0.207563522 8.7408 8.78235061 0.310837804 8.78235061"></polygon>
    </defs>
    <g id="3.0.0---Front-End" stroke="none" stroke-width="1" fill="none" fill-rule="evenodd">
        <g id="Desktop---Landing-Page-NEW" transform="translate(-429.000000, -3577.000000)">
            <g id="Featured-In" transform="translate(120.000000, 3444.000000)">
                <g id="90%" transform="translate(309.000000, 133.000000)">
                    <g id="Group-6" transform="translate(0.000000, 20.000000)">
                        <mask id="mask-2" fill="white">
                            <use xlink:href="#path-1"></use>
                        </mask>
                        <g id="Clip-5"></g>
                        <path d="M9.4022016,5.46234419 C9.2900736,6.04253023 9.1664256,6.62076279 9.0677376,7.20368372 C8.5877376,10.0428837 8.1111936,12.8824744 7.6419456,15.7236279 C7.5578496,16.2315349 7.3401216,16.4882233 6.7856256,16.4737674 C5.5460736,16.4409488 4.3053696,16.455014 3.0654336,16.4659535 C2.6345856,16.4698605 2.4529536,16.3194419 2.3842176,15.8498233 C2.0582016,13.6236279 1.6784256,11.4056372 1.3293696,9.18295814 C1.0747776,7.56312558 0.8409216,5.93977674 0.5936256,4.3183814 C0.4093056,3.11190698 0.2361216,1.90269767 0.0203136,0.701693023 C-0.0507264,0.304353488 0.0587136,0.172297674 0.4292736,0.174251163 C1.4814336,0.179330233 2.5335936,0.180111628 3.5861376,0.175032558 C3.9098496,0.173469767 4.0553856,0.323106977 4.0930176,0.64855814 C4.2162816,1.71008372 4.3675776,2.76809302 4.4877696,3.8300093 C4.7250816,5.93274419 4.9489536,8.03665116 5.3152896,10.167907 C5.3878656,9.91395349 5.4846336,9.66429767 5.5287936,9.40565581 C5.9742336,6.77508837 6.4000896,4.14139535 6.8543616,1.5123907 C7.0866816,0.168 7.1074176,0.171516279 8.4498816,0.171516279 C9.4079616,0.171516279 10.3664256,0.182455814 11.3245056,0.168390698 C11.7242496,0.162530233 11.9174016,0.277395349 11.9888256,0.728260465 C12.4231296,3.45923721 12.8916096,6.18435349 13.3531776,8.91064186 C13.4242176,9.33064186 13.5182976,9.74712558 13.7141376,10.1655628 C13.7563776,10.0077209 13.8193536,9.85222326 13.8374016,9.69203721 C14.0927616,7.39707907 14.3419776,5.10133953 14.5934976,2.8063814 C14.6726016,2.08515349 14.7267456,1.35923721 14.8534656,0.646995349 C14.8849536,0.470009302 15.1495296,0.210195349 15.3146496,0.203944186 C16.3844736,0.163311628 17.4562176,0.182065116 18.5271936,0.181283721 C18.8858496,0.181283721 18.9776256,0.398902326 18.9334656,0.71224186 C18.8455296,1.33501395 18.7541376,1.95700465 18.6573696,2.57821395 C18.2987136,4.87707907 17.9389056,7.17555349 17.5764096,9.47363721 C17.2430976,11.583014 16.8971136,13.6900465 16.5764736,15.800986 C16.5023616,16.2893581 16.2934656,16.4831442 15.7973376,16.4725953 C14.5389696,16.4452465 13.2794496,16.4554047 12.0206976,16.4671256 C11.6393856,16.4706419 11.4397056,16.3405395 11.3728896,15.9338233 C11.0230656,13.8080372 10.6551936,11.6853767 10.2900096,9.56232558 C10.0553856,8.1987907 9.8150016,6.8368186 9.5773056,5.47406512 C9.5189376,5.47015814 9.4605696,5.46625116 9.4022016,5.46234419" id="Fill-4" fill="#000000" mask="url(#mask-2)"></path>
                    </g>
                    <path d="M63.0789478,8.58255848 C63.068096,8.75965154 63.0467941,8.93712791 63.047598,9.11460429 C63.0600575,11.4030146 63.0785459,13.6918082 63.0877901,15.9802185 C63.0910055,16.7664043 63.0564402,16.7920866 62.2128068,16.7947698 C61.4061502,16.7970698 60.5994936,16.7848036 59.792837,16.7963031 C59.367604,16.8024362 59.2008065,16.6337762 59.2016103,16.2247755 C59.2092469,11.2711531 59.2100507,6.31791394 59.2000027,1.3646748 C59.1991988,0.940341434 59.3808674,0.803880117 59.7972581,0.808863255 C60.8201485,0.820746123 61.8442447,0.836078855 62.8659294,0.801196889 C63.4173658,0.782414292 63.7107686,0.98403972 63.9511177,1.45245469 C65.1858208,3.85931033 66.4534814,6.25083323 67.7135056,8.645806 C67.7942918,8.79913332 67.9036145,8.93942782 68.0973407,9.04560699 C68.0973407,8.38016642 68.100958,7.71510916 68.0965369,7.04966858 C68.0840773,5.15569283 68.0732254,3.26095045 68.0511197,1.36659139 C68.0458947,0.947241163 68.259717,0.806180027 68.6680693,0.810396528 C69.5928909,0.819596168 70.5173105,0.820746123 71.4421321,0.810779847 C71.8388287,0.806180027 72.0004012,0.954524211 71.9999993,1.34435893 C71.9915589,6.31638066 71.9919608,11.2887857 71.9979896,16.2608075 C71.9987935,16.6510255 71.8199384,16.7970698 71.4292706,16.7947698 C70.3280055,16.7874868 69.2255346,16.7771372 68.1246714,16.799753 C67.6628635,16.8089526 67.4679315,16.560179 67.2914879,16.2213257 C66.0869289,13.9068497 64.8767431,11.595057 63.6645476,9.2844143 C63.5311096,9.03027426 63.3719487,8.78840041 63.2244434,8.5411601 C63.1762129,8.55495956 63.1275803,8.56875902 63.0789478,8.58255848" id="Fill-7" fill="#000000"></path>
                    <path d="M57.5926002,12.000714 C57.5929939,13.0237517 57.5796075,14.0467894 57.5996871,15.0694399 C57.6071678,15.4659541 57.4811782,15.7312005 57.1488807,15.9755369 C55.703938,17.0369094 54.0389072,17.4419425 52.290802,17.568951 C50.9568875,17.6661435 49.6292725,17.546105 48.3760701,17.0527855 C46.6811168,16.3856038 45.7271396,15.0597594 45.3109804,13.3784461 C44.6168566,10.5761282 44.6444168,7.75018979 45.3054683,4.94438691 C45.8641533,2.57033536 47.5803673,1.12019296 50.0544873,0.888634844 C51.8502323,0.720580959 53.6404652,0.710900435 55.2881724,1.59802359 C56.4850732,2.24235923 57.1394315,3.29405129 57.3752682,4.58156089 C57.510707,5.32154009 57.5236997,6.08281645 57.5914191,6.8347995 C57.6237039,7.19259165 57.4697604,7.34980335 57.0921854,7.34476947 C56.0909621,7.33160396 55.0893451,7.33276563 54.0877281,7.3451567 C53.7247207,7.34941613 53.5676275,7.21350158 53.5530599,6.84990112 C53.540461,6.53160551 53.4286452,6.21640767 53.4203772,5.89811207 C53.3936044,4.90450315 52.5317571,4.23190039 51.5884102,4.21873488 C50.2997732,4.20053549 49.5611594,4.6593923 49.2780766,5.82144232 C48.9174315,7.30023907 48.845775,8.8084646 49.0056242,10.3236601 C49.0827928,11.054346 49.1119279,11.797423 49.273352,12.5102967 C49.5147008,13.5755415 50.2379596,14.121523 51.3494238,14.1095192 C51.9364564,14.1033237 52.5317571,14.0080673 53.1022535,13.8678933 C53.2865133,13.8225885 53.4050222,13.5089395 53.5479416,13.3137802 C53.56684,13.2882236 53.5538474,13.239821 53.5542411,13.2018733 C53.5621154,11.3594761 53.6589699,11.701005 52.1419768,11.6897756 C51.6994385,11.6862906 51.5187222,11.5484399 51.5332898,11.098102 C51.5592751,10.3035246 51.5510071,9.50739839 51.537227,8.71165937 C51.5305338,8.34612281 51.6797526,8.20788494 52.0490595,8.21020826 C53.7251144,8.21988878 55.4007756,8.22259933 57.0764367,8.20865938 C57.4949583,8.20517439 57.601262,8.39104044 57.5969311,8.76122365 C57.5839384,9.84079561 57.5922065,10.9207548 57.5926002,12.000714" id="Fill-9" fill="#000000"></path>
                    <path d="M5.00820195,8.83270927 L5.00820195,12.0384223 C5.00820195,13.5745091 5.00820195,13.5745091 6.62144836,13.4164108 C8.13684874,13.2682895 9.12824729,12.4106442 9.20102532,11.0173064 C9.27663361,9.5641061 9.28674167,8.10092871 9.19940803,6.64926335 C9.13512077,5.58094816 8.60707571,4.68224335 7.42079376,4.36911648 C6.87819309,4.22598374 6.29071263,4.23672828 5.72385261,4.17763326 C5.20146806,4.12275931 4.98353828,4.30618412 4.99728525,4.84034172 C5.03165265,6.17036344 5.00860627,7.50192009 5.00820195,8.83270927 M0.802844586,8.77975399 C0.802440264,6.37566107 0.800014329,3.97156816 0.803653231,1.56747524 C0.804866198,0.845288026 0.85055463,0.797321288 1.61431966,0.800774893 C3.67191639,0.809984507 5.73274771,0.77007618 7.78670554,0.864858455 C9.44159716,0.941605236 10.9747877,1.42472622 12.0870787,2.70908361 C12.7594668,3.48499356 13.1140576,4.41094348 13.2774038,5.37565052 C13.714072,7.95127249 13.7658253,10.5322667 13.0659432,13.0806436 C12.5172777,15.0787461 10.6650768,16.5630288 8.40451018,16.678149 C6.07601743,16.7967228 3.73862959,16.7598843 1.40488065,16.7997926 C0.873601007,16.8090022 0.798801362,16.5104573 0.800014329,16.1048505 C0.806079165,13.6631517 0.802844586,11.2214528 0.802844586,8.77975399" id="Fill-11" fill="#000000"></path>
                    <g id="Group-15" transform="translate(25.600000, 0.000000)">
                        <mask id="mask-4" fill="white">
                            <use xlink:href="#path-3"></use>
                        </mask>
                        <g id="Clip-14"></g>
                        <path d="M10.55492,6.15962667 C10.04612,6.15962667 9.53692,6.15253333 9.02852,6.16186667 C8.68852,6.16821333 8.52772,6.0424 8.52212,5.71237333 C8.51812,5.47792 8.48172,5.23674667 8.41332,5.01088 C8.01492,3.69376 6.61532,3.14794667 5.30972,3.79157333 C4.59692,4.14325333 4.54012,4.74954667 4.60692,5.39690667 C4.66372,5.94981333 5.11532,6.36234667 5.87732,6.51765333 C7.03812,6.75434667 8.21852,6.91898667 9.36572,7.20197333 C10.80612,7.55701333 12.06812,8.24096 12.46532,9.67978667 C13.05532,11.8145067 12.80412,14.1638933 10.81812,15.4272533 C9.88492,16.0208533 8.83412,16.2732267 7.73892,16.3882133 C6.04452,16.5662933 4.38252,16.4625067 2.81252,15.76736 C0.77852,14.8676267 0.21092,12.6063467 0.33172,11.0432 C0.34092,10.9252267 0.60492,10.73408 0.75492,10.7303467 C1.81092,10.7023467 2.86852,10.7243733 3.92492,10.71056 C4.35652,10.70496 4.36372,10.9648 4.40372,11.24928 C4.50852,11.99408 4.68452,12.7261867 5.57212,12.9938667 C6.35852,13.2309333 7.16132,13.2234667 7.89732,12.8221333 C8.42452,12.5342933 8.56812,12.0609067 8.55092,11.50576 C8.53332,10.9382933 8.23852,10.5350933 7.71412,10.3585067 C7.07692,10.1434667 6.39292,10.0523733 5.73572,9.88624 C4.66652,9.61632 3.56332,9.41845333 2.54652,9.02645333 C1.32212,8.55418667 0.59532,7.59024 0.52492,6.34890667 C0.46892,5.36032 0.44372,4.31909333 0.70972,3.37642667 C1.20012,1.64117333 2.68892,0.76944 4.47172,0.458826667 C6.28812,0.14224 8.13572,0.12432 9.89852,0.813866667 C11.24412,1.33989333 12.05852,2.30533333 12.35812,3.61536 C12.51172,4.28624 12.52692,4.98474667 12.59692,5.67130667 C12.63252,6.01738667 12.45772,6.17194667 12.08132,6.16261333 C11.57252,6.15029333 11.06372,6.15962667 10.55492,6.15962667" id="Fill-13" fill="#000000" mask="url(#mask-4)"></path>
                    </g>
                    <path d="M38.4005438,28.0328893 C38.4005438,25.6131514 38.3985807,23.1934135 38.4021143,20.7732923 C38.4028996,20.0591016 38.449622,20.0165492 39.1948259,20.0123323 C40.0209107,20.0073486 40.8477807,20.0299666 41.6730802,20.0054319 C42.1909537,19.9900977 42.3919781,20.1775583 42.3845182,20.6931711 C42.3633164,22.2495931 42.3750952,23.8067818 42.3798067,25.3635872 C42.3821625,26.1011625 42.4171062,26.1322143 43.1524944,26.1345144 C44.0359025,26.1375813 44.9200959,26.1203303 45.8031115,26.1410315 C46.2326441,26.1509987 46.3739894,25.9857726 46.3704558,25.5778827 C46.3563213,23.9459397 46.3838051,22.3139967 46.355536,20.6824371 C46.346113,20.1576239 46.5377144,19.9881809 47.05441,20.0042818 C47.9181869,20.0311167 48.7847121,20.0395505 49.6473111,20.0019817 C50.2397835,19.9759135 50.4023306,20.2059266 50.3999749,20.7575747 C50.3830919,25.0342851 50.3913371,29.3109954 50.3913371,33.5880891 C50.3913371,34.1884233 50.3783804,34.7887576 50.392515,35.3887084 C50.4023306,35.8111658 50.2354646,36.0070603 49.7843375,35.9997766 C48.8432134,35.984059 47.9016966,35.984059 46.9605725,35.9997766 C46.5090527,36.0074437 46.3574992,35.8180662 46.3606402,35.3902418 C46.3747747,33.6647602 46.3512171,31.9385118 46.3751673,30.2134135 C46.3814493,29.7323028 46.2479566,29.5398585 45.7277273,29.5617097 C44.8647357,29.5981285 43.9974252,29.6011953 43.1352189,29.560943 C42.5615925,29.5341081 42.3554639,29.7100682 42.3668501,30.2877844 C42.399438,31.9193441 42.3801994,33.5516704 42.3762731,35.1836134 C42.3747026,35.9449568 42.3268022,35.9913427 41.5682491,35.995943 C40.819119,36.0005433 40.0699889,35.9990098 39.3208588,35.9967097 C38.4174267,35.9944096 38.4013291,35.9794587 38.4005438,35.0670734 C38.3993659,32.7220898 38.4005438,30.3774895 38.4005438,28.0328893" id="Fill-16" fill="#000000"></path>
                    <path d="M12.8094551,47.2114624 C12.8094551,44.7732156 12.8211688,42.3345855 12.8000841,39.896722 C12.7957891,39.3880671 12.9550955,39.1860618 13.4849456,39.2044607 C14.3439508,39.2335924 15.2052988,39.2335924 16.0639136,39.2036941 C16.5996206,39.1852952 16.8073436,39.354719 16.7964109,39.907838 C16.7655648,41.5016488 16.8046104,43.0969928 16.7757166,44.6904202 C16.7659552,45.2132576 16.9463463,45.3811482 17.4672159,45.3623659 C18.3640955,45.3294011 19.2633178,45.3347675 20.1609783,45.3600661 C20.6346025,45.3730987 20.8017181,45.1971585 20.7970326,44.7371843 C20.7806334,43.1429902 20.8103082,41.5484128 20.7825857,39.9546021 C20.7728243,39.3980332 20.9500917,39.1776289 21.5349962,39.2017776 C22.4314854,39.2393421 23.3307077,39.2228597 24.2287586,39.2094438 C24.6414716,39.2033108 24.8007781,39.3577855 24.7999971,39.7732956 C24.7906262,44.7249183 24.7914071,49.676541 24.7988258,54.6281637 C24.7996067,55.0398407 24.6317102,55.2015983 24.22134,55.1966152 C23.2850242,55.1858825 22.3487085,55.1797495 21.4127832,55.1996817 C20.9262739,55.2096478 20.7860998,54.9854104 20.7892235,54.5480516 C20.7997658,52.8787284 20.7942994,51.2094052 20.7903949,49.540082 C20.7892235,48.7880241 20.7728243,48.7734582 20.0305657,48.7711584 C19.1899119,48.7684752 18.3476963,48.8045065 17.5093852,48.7592757 C16.9108147,48.7266942 16.7636125,48.951315 16.7745453,49.5048173 C16.8061723,51.1549749 16.7878208,52.8058991 16.7843067,54.45644 C16.7827449,55.1456348 16.7386232,55.1893323 16.0369721,55.1939321 C15.2154507,55.1996817 14.3935389,55.1992984 13.5720175,55.1939321 C12.8453771,55.1893323 12.8106264,55.1544509 12.810236,54.4138924 C12.8078932,52.0128269 12.8094551,49.6125279 12.8094551,47.2114624" id="Fill-18" fill="#000000"></path>
                    <g id="Group-22" transform="translate(53.600000, 39.200000)">
                        <mask id="mask-6" fill="white">
                            <use xlink:href="#path-5"></use>
                        </mask>
                        <g id="Clip-21"></g>
                        <path d="M7.19654069,8.53275818 C7.19654069,7.35790364 7.19654069,6.18266727 7.19654069,5.00781273 C7.19654069,4.46028545 6.98296828,4.03303091 6.48205793,3.76652182 C5.35974069,3.16935818 4.18142345,3.85128545 4.15477517,5.15404909 C4.12194759,6.73897636 4.14357517,8.32466727 4.14357517,9.90997636 C4.14357517,10.5815945 4.12040276,11.25474 4.15902345,11.9240673 C4.2181131,12.9358855 4.78081655,13.4341582 5.76100966,13.4013218 C6.70258207,13.3696309 7.19113379,12.8415764 7.19615448,11.83434 C7.20156138,10.73394 7.1973131,9.63354 7.19654069,8.53275818 M11.1126786,8.48464909 C11.1130648,9.58657636 11.1265821,10.6885036 11.1103614,11.7900491 C11.0640166,14.9537945 9.21987862,16.5070309 6.2785269,16.7685764 C5.07703724,16.8758673 3.89910621,16.7151218 2.80382345,16.1859218 C0.999851034,15.3142309 0.301202759,13.7861945 0.300430345,11.8912309 C0.299657931,9.40864909 0.277257931,6.92377636 0.368788966,4.44348545 C0.44912,2.25681273 2.16542345,0.579485455 4.37259586,0.33894 C5.52465103,0.213321818 6.66164414,0.189267273 7.79207172,0.524121818 C10.0405683,1.19039455 11.0068579,2.86161273 11.1030234,4.95550364 C11.1567062,6.12959455 11.1126786,7.30826727 11.1126786,8.48464909" id="Fill-20" fill="#000000" mask="url(#mask-6)"></path>
                    </g>
                    <path d="M45.4230438,43.7110197 C45.4863852,44.78041 45.8874156,45.3760639 46.7017489,45.5397816 C48.0580473,45.8118705 49.0837826,44.8028583 48.7726178,43.4931164 C48.7033381,43.2005145 48.6205984,42.9028811 48.4871855,42.6350497 C48.2096708,42.0777127 47.7401525,41.7704033 47.0928822,41.7963349 C46.459072,41.8211055 45.9776772,42.1253186 45.7187691,42.686913 C45.5711043,43.0066077 45.5184518,43.3681026 45.4230438,43.7110197 M48.185126,48.6508057 C47.3775228,48.7344062 46.6768082,48.8439384 45.9729265,48.8741275 C43.696198,48.9708874 42.1114746,47.4676257 41.7512202,45.4898535 C41.5354634,44.3055125 41.5516947,43.0131873 41.792788,41.8338778 C42.1261223,40.2021189 43.2876458,39.1408564 44.9713402,38.7000184 C46.5061822,38.2978843 48.0548802,38.266534 49.5406326,38.8118728 C51.3799094,39.4872569 52.3755575,40.9510405 52.6336739,42.7674172 C53.1024005,46.0657684 52.6273397,49.2147224 50.6067481,52.0223074 C49.3700067,53.7407631 47.6312844,54.6247615 45.5695208,54.9576155 C44.7326222,55.0923053 43.8755334,55.1054646 43.0299253,55.1917744 C42.5608029,55.2393803 42.3537556,55.0853385 42.3711744,54.5988298 C42.3984904,53.8421674 42.3961151,53.0835699 42.3715703,52.3269075 C42.3577144,51.8895528 42.5184433,51.7142239 42.9733139,51.7204165 C44.0924778,51.7366722 45.1688863,51.5257356 46.1665138,51.0140693 C47.1518689,50.5085956 47.7829079,49.7093589 48.185126,48.6508057" id="Fill-23" fill="#000000"></path>
                    <path d="M14.4103687,8.78123643 C14.4103687,6.3608845 14.4233875,3.94014911 14.4001115,1.51979718 C14.3949829,0.985647905 14.565805,0.79622239 15.124429,0.800056914 C18.0970502,0.819229537 21.070066,0.81654537 24.0430817,0.801590724 C24.5756681,0.798906557 24.8265755,0.953821351 24.7977764,1.50867706 C24.7634541,2.16361386 24.7662157,2.82276864 24.7965928,3.4780889 C24.8222359,4.02642592 24.5772461,4.19744571 24.0395311,4.19092702 C22.4181013,4.17098749 20.7962771,4.2031975 19.1752418,4.17558892 C18.5882132,4.16561916 18.3724171,4.36923242 18.4205472,4.93137372 C18.4588145,5.37847929 18.4513188,5.83287046 18.4225197,6.28150984 C18.3913535,6.76427648 18.5736164,6.95140129 19.0852939,6.94219843 C20.4171545,6.91765747 21.749804,6.95178474 23.0812701,6.92647688 C23.5850574,6.91689056 23.7700818,7.07832405 23.7475948,7.57374463 C23.7136671,8.32262728 23.7223463,9.07496101 23.7448333,9.82461057 C23.7574576,10.244491 23.5854519,10.3810001 23.1656949,10.3763987 C21.795567,10.3602937 20.4242556,10.385985 19.0541277,10.3633613 C18.5748,10.3556922 18.3964821,10.5159754 18.4213362,10.9822536 C18.4517133,11.5624171 18.4260703,12.1452649 18.4288318,12.7269622 C18.4323824,13.4459356 18.4481627,13.4643413 19.1693242,13.4658751 C20.790754,13.4689428 22.4121837,13.4647248 24.034008,13.4685593 C24.7405726,13.4700931 24.782785,13.5126563 24.7887027,14.2070887 C24.7938313,14.8635594 24.7792345,15.5207969 24.7914642,16.1772675 C24.7993544,16.5936969 24.6387895,16.8003777 24.1843157,16.7992274 C21.1150399,16.7923252 18.0457641,16.790408 14.9764883,16.7999943 C14.4399568,16.8015281 14.4060291,16.4943827 14.4072126,16.0990432 C14.4139193,13.6599021 14.4103687,11.2203775 14.4103687,8.78123643" id="Fill-25" fill="#000000"></path>
                    <path d="M26.4069793,47.2057727 C26.4069793,44.786207 26.4047907,42.3666413 26.4084384,39.9470757 C26.4091679,39.2671597 26.4602355,39.2135023 27.1160886,39.2127358 C29.8474722,39.2089031 32.5784912,39.2242338 35.3098748,39.2000879 C35.8635928,39.1951055 36.0302919,39.4013032 35.9956389,39.9555075 C35.9569735,40.5718012 35.9887083,41.1930772 35.9861549,41.8120537 C35.9832368,42.5517594 35.9602564,42.581271 35.2712094,42.5831873 C33.807395,42.5874032 32.3435805,42.582804 30.879766,42.5862534 C30.1323561,42.5881698 30.1068224,42.6184479 30.1024452,43.4217759 C30.1002565,43.8721148 30.1188597,44.322837 30.0991622,44.7716429 C30.0794648,45.2112503 30.2520001,45.3645572 30.6671062,45.3584249 C31.8985634,45.3392615 33.1307501,45.3703062 34.3618425,45.3434775 C34.8342172,45.3331293 34.9972686,45.5113485 34.9804892,45.9954149 C34.9549555,46.7447023 34.9644394,47.4959059 34.9746529,48.2459598 C34.9801245,48.629227 34.8280162,48.7764016 34.461789,48.7725689 C33.2120934,48.7595378 31.962033,48.7859832 30.713067,48.7599211 C30.241057,48.7499561 30.0739932,48.9274088 30.0962441,49.4130083 C30.1232369,50.0116717 30.1195893,50.6137844 30.0984327,51.212831 C30.0812886,51.6930648 30.2538239,51.877033 30.7232805,51.8709007 C32.2585895,51.8490545 33.7938985,51.8820155 35.3288428,51.8528872 C35.8468135,51.8433055 36.0251851,52.0242076 35.9952741,52.5630812 C35.9587973,53.2173183 35.9664575,53.8761546 35.9930855,54.5311582 C36.0124182,55.0125418 35.8486374,55.2011092 35.3791808,55.1988096 C32.6124146,55.185012 29.8452836,55.1830957 27.0785174,55.1999594 C26.5587229,55.2034088 26.3967658,54.9872461 26.4000487,54.4640864 C26.4160985,52.044904 26.4069793,49.6249551 26.4069793,47.2057727" id="Fill-27" fill="#000000"></path>
                    <path d="M69.7183803,41.3864532 C68.9131407,41.3892139 68.4801234,41.8202786 68.4734556,42.6244331 C68.4660033,43.4916895 68.9402043,44.0032091 69.7426983,43.9933494 C70.5126376,43.9838841 71.0017433,43.4625049 70.9986055,42.6548009 C70.9946832,41.8277719 70.5459768,41.3832981 69.7183803,41.3864532 Z M72.2572581,55.1757905 C71.8924881,55.1757905 71.5277181,55.1702691 71.1633403,55.177368 C70.6820792,55.1856501 70.5557825,55.0227684 70.7577788,54.5443773 C71.7457957,52.2040865 72.7083178,49.8527529 73.6806457,47.5057575 C74.2991858,46.012215 74.9236093,44.5202501 75.5362661,43.0243412 C75.7578737,42.4840314 75.6649161,42.3625603 75.0961887,42.3949 C74.7357332,42.4150137 74.2662388,42.3101069 74.0473768,42.4982293 C73.8387127,42.6772809 73.8806808,43.1631653 73.8320448,43.5165358 C73.4672748,46.1699697 71.0994075,47.2340251 68.8672503,46.8325394 C67.4556295,46.57816 66.3350403,45.9053362 65.9075142,44.5032914 C65.2787762,42.4422264 65.5203873,39.9623227 67.5152479,38.937706 C68.7217345,38.3181245 70.0211787,38.2392471 71.2621812,38.6738613 C73.5143419,39.4630291 75.7806228,39.3742921 78.0739672,39.0465568 C78.4893343,38.9873987 78.8992103,38.8888021 79.3098708,38.7988819 C79.7577927,38.7006796 79.9813614,38.8134742 79.9974427,39.3356422 C80.020584,40.1043019 79.886835,40.8177475 79.5895278,41.5268548 C77.7978402,45.8043732 76.012036,50.0850467 74.2568254,54.3775517 C74.0026631,54.9987108 73.6598577,55.2724152 73.0048406,55.1836782 C72.7596994,55.1501553 72.5067138,55.1785512 72.2572581,55.1785512 L72.2572581,55.1757905 Z" id="Fill-29" fill="#000000"></path>
                    <path d="M33.1904212,29.692746 C33.190036,31.5327899 33.191577,33.3728338 33.1892655,35.2132613 C33.188495,35.9681511 33.1603717,35.9942347 32.3837085,35.997687 C31.6671441,36.0015228 30.9505798,35.9996049 30.2340154,35.9988377 C29.2242761,35.997687 29.2223499,35.997687 29.2223499,35.0157165 C29.2215794,31.5423794 29.2219646,28.0686588 29.2219646,24.5949382 C29.2219646,24.426162 29.2057841,24.2554679 29.2238908,24.0882261 C29.2832193,23.537402 29.0197085,23.3578855 28.4949985,23.3747631 C27.722573,23.3989288 26.9486064,23.369393 26.1757956,23.3809004 C25.76589,23.3874213 25.5956097,23.208672 25.6010032,22.8062943 C25.6117902,22.0556239 25.6152574,21.3041863 25.6002327,20.5535159 C25.5921424,20.1308083 25.795169,20.0011575 26.1892794,20.0019246 C29.5270823,20.0080619 32.8648853,20.0092127 36.2026882,20.0000067 C36.6333973,19.998856 36.8148499,20.1453844 36.7990547,20.5914905 C36.7732429,21.3229818 36.7759397,22.0560074 36.7978989,22.7878823 C36.8109974,23.231687 36.6222251,23.39049 36.1938275,23.3824348 C35.4210167,23.3682422 34.6470501,23.3985452 33.8746246,23.3755303 C33.3707181,23.3605706 33.1742407,23.5347169 33.1811752,24.059841 C33.2058312,25.9370924 33.1908065,27.815111 33.1904212,29.692746" id="Fill-31" fill="#000000"></path>
                    <path d="M3.53354946,48.8553681 C3.53316238,46.9790652 3.52000149,45.1027624 3.54167824,43.2268431 C3.54748451,42.7397407 3.38877975,42.5518036 2.89060164,42.5702138 C2.13423798,42.5982126 1.37593889,42.5663783 0.61880106,42.5778847 C0.190685292,42.584405 -0.00788920038,42.4129603 0.000239580016,41.9780201 C0.0134004626,41.2465995 0.0122392082,40.5147954 0.000239580016,39.7833748 C-0.00672794604,39.3844878 0.153525153,39.1996191 0.567705869,39.2003861 C3.91947299,39.2057558 7.27085302,39.2053722 10.6222331,39.2000026 C11.0298333,39.1992355 11.206344,39.3679954 11.1993765,39.7737861 C11.1866027,40.5052067 11.1866027,41.2373944 11.1997635,41.968815 C11.2075052,42.3960843 11.0255754,42.585172 10.5904921,42.5778847 C9.87128858,42.5656112 9.15131089,42.5744328 8.43172028,42.5775011 C7.58594003,42.5813366 7.56232786,42.6008974 7.56155369,43.4247524 C7.55961827,47.0270084 7.56116661,50.6292644 7.56000535,54.2319039 C7.55961827,55.1919174 7.55768284,55.1926845 6.57177791,55.1938351 C5.77631868,55.1949858 4.98085946,55.176192 4.1861744,55.1992048 C3.69612507,55.2137795 3.52077566,55.0292943 3.52580776,54.5402742 C3.54593617,52.6455612 3.53393654,50.7500811 3.53354946,48.8553681" id="Fill-33" fill="#000000"></path>
                    <path d="M43.1926042,8.80211919 C43.1926042,11.2204621 43.1945389,13.6391882 43.1918303,16.0575311 C43.1910565,16.7431754 43.1469458,16.7853335 42.4458177,16.7895493 C41.5941715,16.7945317 40.7413644,16.7657875 39.890879,16.7987475 C39.3081533,16.8213596 39.2001982,16.5366006 39.2021329,16.0422009 C39.2141279,12.9677244 39.20755,9.89286465 39.20755,6.8180049 C39.20755,5.0557956 39.2214797,3.29320305 39.2001982,1.53137702 C39.1936203,1.01129915 39.3491686,0.780579277 39.9079042,0.80127508 C40.7963093,0.834235063 41.687423,0.825420184 42.5766021,0.804724381 C43.0432469,0.793993224 43.2030515,0.973740105 43.199956,1.43403009 C43.1840916,3.88993204 43.1926042,6.34621724 43.1926042,8.80211919" id="Fill-35" fill="#000000"></path>
                    <path d="M20.0003461,27.9592769 C20.0003461,25.5770539 19.9995706,23.1944475 20.0007339,20.8118411 C20.0011217,20.0138041 20.0053873,20.0099692 20.8344664,20.0069013 C21.6689745,20.0042169 22.5042582,20.0253087 23.3379907,20.0007655 C23.8331891,19.986193 24.0038134,20.1787036 23.9999356,20.6611306 C23.9844243,22.7810483 23.9945066,24.9005824 23.9945066,27.0205 C23.9948944,29.7409587 23.9960577,32.461034 23.9933433,35.1811092 C23.9925677,35.9691755 23.9627084,35.9944857 23.1510795,35.9975536 C22.3541863,36.000238 21.5576809,36.0017719 20.7607877,35.9964031 C20.0360221,35.9918013 20.0018973,35.9572874 20.0011217,35.2194579 C19.9991828,32.7992697 20.0003461,30.379465 20.0003461,27.9592769" id="Fill-37" fill="#000000"></path>
                    <g id="Group-41" transform="translate(76.800000, 47.200000)">
                        <mask id="mask-8" fill="white">
                            <use xlink:href="#path-7"></use>
                        </mask>
                        <g id="Clip-40"></g>
                        <path d="M4.51448,3.13984 C3.70288,3.13344 3.23448,3.61744 3.22168,4.47504 C3.20928,5.29624 3.71728,5.83464 4.50608,5.83624 C5.28568,5.83824 5.79328,5.30544 5.79728,4.48144 C5.80128,3.63504 5.33368,3.14624 4.51448,3.13984 M4.62128,0.20904 C7.02848,0.15224 8.91488,1.73464 8.72808,4.89024 C8.59008,7.22624 7.09208,8.81504 4.44248,8.78184 C2.18168,8.75344 0.16728,7.46424 0.31888,4.15104 C0.43368,1.63944 1.93448,0.18624 4.62128,0.20904" id="Fill-39" fill="#000000" mask="url(#mask-8)"></path>
                    </g>
                </g>
            </g>
        </g>
    </g>
</svg>