<?xml version="1.0" encoding="UTF-8"?>
<svg width="51px" height="41px" viewBox="0 0 51 41" version="1.1" xmlns="http://www.w3.org/2000/svg" xmlns:xlink="http://www.w3.org/1999/xlink">
    <!-- Generator: Sketch 51.2 (57519) - http://www.bohemiancoding.com/sketch -->
    <title>Global - Logo</title>
    <desc>Created with Sketch.</desc>
    <defs></defs>
    <g id="Symbols" stroke="none" stroke-width="1" fill="none" fill-rule="evenodd">
        <g id="Dashboard---Navbar" transform="translate(-29.000000, -28.000000)" fill="#171D21">
            <g id="Global---Logo">
                <g transform="translate(29.000000, 27.000000)">
                    <path d="M49.0612157,18.4477803 C48.6274248,15.7111548 46.0319904,14.369248 44.1384199,13.3898242 C43.9044652,13.2673962 43.6778217,13.1497693 43.4609262,13.034543 C42.4641819,12.4968201 40.9410396,11.6806335 39.6299188,10.9772727 C39.3082311,11.9686993 38.6453596,12.8088914 37.7777778,13.3658187 C39.1668835,14.1075882 40.9117953,15.0438022 42.0133318,15.6391383 C42.2424124,15.7615663 42.4861152,15.8887954 42.737129,16.018425 C44.2115307,16.7817995 45.8833317,17.645997 46.0831679,18.9062851 C46.1367825,19.2375608 46.0271163,19.6576568 45.9003909,20.1449682 C45.8370281,20.3922247 45.7761025,20.6370807 45.7249249,20.8867377 L48.6810394,21.4772727 C48.7200318,21.2756266 48.7712094,21.0763811 48.822387,20.8771356 C48.995416,20.209783 49.2098744,19.3791932 49.0612157,18.4477803" id="Fill-3" fill-rule="evenodd"></path>
                    <path d="M29.2285388,18.2498189 C28.8004551,15.3595618 26.2391677,13.9423216 24.3705101,12.9079138 C24.1372285,12.7786128 23.9135668,12.6543825 23.7019299,12.5326874 C22.5643816,11.8760413 20.7293936,10.8238863 19.3272991,10.0227273 C19.1781913,11.112912 18.6731487,12.0814017 17.9444444,12.7988953 C19.336919,13.5949837 21.1478574,14.6319268 22.2709759,15.2835024 C22.4994476,15.4128033 22.7399441,15.5471749 22.9876554,15.6840819 C24.4426591,16.4903115 26.0924648,17.4030243 26.289672,18.7340637 C26.3401762,19.083937 26.2319528,19.5276168 26.1092996,20.0422854 C26.0419606,20.3262405 25.9722166,20.6101956 25.9217124,20.896686 L28.8461494,21.4772727 C28.8846289,21.2541652 28.9399431,21.0361282 28.9928523,20.815556 C29.1636048,20.1107389 29.3752417,19.2360558 29.2285388,18.2498189" id="Fill-5" fill-rule="evenodd"></path>
                    <polygon id="Fill-9" fill-rule="evenodd" points="17.9444444 26.9458058 15.9331754 30.4926993 10.3187914 30.8768394 10.2869054 30.9280581 14.2873686 33.3916766 12.6538257 36.2727273 0 28.4823661 1.63354292 25.5987545 9.33277899 30.3416042 9.3622122 30.2878246 7.55697558 25.4297328 9.52900036 21.9545455 11.3931034 27.6270142"></polygon>
                    <path d="M21.0970958,21.1970453 L19.9401821,20.4904626 L19.9205317,20.5260459 C20.0531715,20.744629 20.1538795,20.9911705 20.225112,21.2605869 C20.2963445,21.5300033 20.3307326,21.8146696 20.3233637,22.114586 C20.3184511,22.4145024 20.2766941,22.7271271 20.1980928,23.0448351 C20.1219477,23.3650848 19.9966768,23.6751678 19.8247363,23.9750842 C19.4931368,24.5520419 19.1148678,24.9790415 18.6850166,25.2535412 C18.2551654,25.5305826 17.8105765,25.6957908 17.3487935,25.7517074 C16.8870105,25.8025407 16.4227713,25.7618741 15.9511631,25.6220825 C15.479555,25.4848327 15.0325098,25.2840412 14.6075712,25.0247915 L9.44444444,21.8756696 L11.0827915,19.0137558 L15.6097385,21.7765447 C15.8430863,21.9188779 16.0788903,22.0383361 16.3097818,22.1349193 C16.5406733,22.2289609 16.7691085,22.2772525 16.9926311,22.2823358 C17.2161537,22.2848775 17.4224823,22.2365859 17.6116168,22.1323777 C17.798295,22.0281694 17.9677792,21.8426279 18.1200694,21.5782949 C18.4049993,21.0826704 18.4418437,20.5946708 18.2330588,20.1142963 C18.0242739,19.6364635 17.680393,19.2501305 17.1989597,18.9578391 L12.6892068,16.2077585 L14.3177287,13.3636364 L22.6666667,18.4571313 L21.0970958,21.1970453 Z" id="Fill-11" fill-rule="evenodd"></path>
                    <path d="M25.7608895,4.98778825 L25.5468154,5.34268825 C25.3629636,5.64795188 25.1942228,5.96562461 25.0355562,6.29074279 C24.8768895,6.61834279 24.7660747,6.92608825 24.7005932,7.21397916 C24.6351117,7.50435188 24.6325932,7.77238825 24.6905191,8.02057007 C24.7509636,8.26875188 24.9071117,8.46481552 25.1589636,8.61124279 C25.3201488,8.70555188 25.4788154,8.75022461 25.6374821,8.74277916 C25.7961488,8.7353337 25.9447414,8.69562461 26.0807414,8.62117007 C26.2167414,8.55167916 26.3451858,8.44992461 26.4610377,8.31838825 C26.5768895,8.1893337 26.6776302,8.05531552 26.7582228,7.92129734 C27.0982228,7.35544279 27.1989636,6.83426098 27.0629636,6.35030643 C26.9294821,5.8688337 26.5920006,5.46926098 26.0530377,5.15655188 L25.7608895,4.98778825 Z M19.0364451,7.95604279 C18.8551117,7.1792337 18.8400006,6.39001552 18.9961488,5.59087007 C19.1522969,4.79172461 19.4368895,4.04717916 19.8524451,3.3572337 C20.2805932,2.6474337 20.7288895,2.09895188 21.202371,1.71178825 C21.6758525,1.32214279 22.1896302,1.08637007 22.7437043,0.997024611 C23.3002969,0.907679157 23.9022228,0.959797339 24.5545191,1.14841552 C25.2068154,1.3370337 25.9220747,1.65718825 26.7028154,2.10887916 L31.0170377,4.61799734 L29.4908154,7.15689734 L28.5791117,6.62578825 L28.5488895,6.67790643 C28.7755562,7.0973337 28.8561488,7.58128825 28.7906673,8.12977007 C28.7226673,8.67577007 28.5388154,9.20439734 28.2315562,9.71317007 C28.0275562,10.0506973 27.7731858,10.3733337 27.463408,10.6810792 C27.1561488,10.9888246 26.8085932,11.2345246 26.4207414,11.4107337 C26.035408,11.5919064 25.6122969,11.6762882 25.1539265,11.6688428 C24.6955562,11.6613973 24.2120006,11.5100064 23.7082969,11.2171519 C23.0887414,10.8572882 22.6908154,10.4031155 22.5120006,9.84967007 C22.3357043,9.29622461 22.3004451,8.69810643 22.4087414,8.0528337 C22.5195562,7.41004279 22.7336302,6.74491552 23.0509636,6.06241552 C23.3682969,5.37991552 23.7108154,4.73216098 24.0785191,4.12411552 L23.9400006,4.04469734 C23.514371,3.79899734 23.1164451,3.76177007 22.7386673,3.94046098 C22.3608895,4.11667007 22.0435562,4.41945188 21.7866673,4.84632461 C21.5499265,5.24341552 21.406371,5.67277007 21.3560006,6.13935188 C21.3081488,6.6059337 21.3257784,7.04025188 21.411408,7.43982461 L19.0364451,7.95604279 Z" id="Fill-13" fill-rule="evenodd"></path>
                    <polygon id="Fill-16" fill-rule="evenodd" points="38.7222222 27.9020191 36.7109532 31.4457179 31.0965692 31.8297893 31.0646832 31.8809988 35.0651464 34.3441767 33.4316035 37.2272727 20.7777778 29.4357442 22.4113207 26.5552087 30.1105568 31.2946498 30.13999 31.2434403 28.3347534 26.3836568 30.3067781 22.9090909 32.1708812 28.5805453"></polygon>
                    <path d="M41.8748736,22.1508607 L40.7179598,21.4468853 L40.6983095,21.4799239 C40.828493,21.7010281 40.9316573,21.9450051 41.0028898,22.2143964 C41.0741222,22.4837877 41.1085103,22.7709689 41.1011415,23.0708574 C41.0962289,23.3707458 41.0544719,23.6807999 40.9758705,24.0010197 C40.8997255,24.3186982 40.7744546,24.6287523 40.6025141,24.9286407 C40.2709146,25.5055447 39.8901893,25.9325045 39.4627944,26.20952 C39.0329432,26.4865356 38.5883543,26.6517284 38.1265713,26.7050984 C37.6672446,26.7584683 37.2005491,26.7152641 36.7289409,26.578027 C36.2573328,26.4382485 35.8102875,26.2374757 35.3853489,25.9782502 L30.2222222,22.8294218 L31.8605693,19.9703161 L36.38506,22.7328475 C36.620864,22.8751675 36.8542118,22.9946145 37.0875596,23.0886474 C37.3184511,23.1826802 37.5468863,23.2335087 37.7704089,23.2360501 C37.9939315,23.241133 38.2002601,23.1903044 38.3869383,23.0861059 C38.5760728,22.9844488 38.745557,22.7989246 38.8978471,22.5320748 C39.1827771,22.0364965 39.2196214,21.5485424 39.0108366,21.0707541 C38.8020517,20.5929658 38.4581708,20.2066688 37.9767375,19.9144047 L33.4669845,17.1620389 L35.0955064,14.3181818 L43.4444444,19.4137435 L41.8748736,22.1508607 Z" id="Fill-18" fill-rule="evenodd"></path>
                    <path d="M46.088662,5.86149766 L45.8886314,6.21171667 C45.7168405,6.50843 45.5568161,6.81730372 45.4109114,7.13833781 C45.2626535,7.45937191 45.1591083,7.76094939 45.0979225,8.04307026 C45.0367367,8.32762321 45.03203,8.59028747 45.0885093,8.83349512 C45.1449885,9.07670277 45.2908931,9.26883681 45.5262231,9.41232932 C45.6768344,9.50474823 45.8250923,9.5485256 45.9733502,9.54122937 C46.1216082,9.53393314 46.2604529,9.49501992 46.3875311,9.42205763 C46.5146093,9.35152741 46.6322744,9.25424435 46.7428795,9.1253443 C46.8511313,8.99887632 46.94291,8.86754419 47.0205689,8.73377998 C47.3382645,8.18169862 47.4323965,7.66853048 47.3053183,7.19670765 C47.1782401,6.72488481 46.8652511,6.3333205 46.3616448,6.02687886 L46.088662,5.86149766 Z M40.277572,8.76782905 C40.105781,8.00902119 40.0940145,7.23562087 40.2399192,6.45249224 C40.3858238,5.66936362 40.6517467,4.93974067 41.0400413,4.26362341 C41.4377491,3.56804954 41.8589899,3.03056064 42.3014104,2.65115671 C42.7414775,2.2693207 43.2239041,2.03827343 43.7416302,1.95071868 C44.2617096,1.86316393 44.8241484,1.91423753 45.4336533,2.09907535 C46.0431581,2.28391316 46.7114954,2.59765102 47.4410185,3.04028894 L51.4722222,5.49911826 L50.0461221,7.98470043 L49.1942274,7.46666814 L49.1659878,7.51774174 C49.3777848,7.92876267 49.4530904,8.40301758 49.3895513,8.94050648 C49.3283655,9.47556331 49.1542213,9.9935956 48.8694719,10.4921713 C48.6788546,10.8229337 48.4411712,11.1391036 48.1517153,11.4406811 C47.8646126,11.7422586 47.5398572,11.9830342 47.1774489,12.1557116 C46.8173939,12.3332532 46.4220394,12.4159438 45.9937388,12.4086475 C45.5654381,12.4013513 45.1136044,12.2529946 44.6429443,11.9660096 C44.0640324,11.6133585 43.6922109,11.1682885 43.5251266,10.6259355 C43.3603956,10.0835824 43.3274494,9.497452 43.4286413,8.86511211 C43.5321865,8.2352043 43.7298637,7.58340781 44.0287329,6.91458678 C44.3252487,6.24576574 44.6452976,5.61099378 44.9888795,5.01513504 L44.8570946,4.9373086 C44.4617402,4.69653303 44.0899187,4.66005188 43.7369236,4.83516138 C43.3839286,5.00783881 43.0874127,5.30455215 42.8473761,5.72530138 C42.6238125,6.11200154 42.4920277,6.53275077 42.4449617,6.98998115 C42.400249,7.44721152 42.4167221,7.87282491 42.4967343,8.26438922 L40.277572,8.76782905 Z" id="Fill-20" fill-rule="evenodd"></path>
                    <path d="M45.1813053,23.8636364 C43.5889485,31.1285497 40.4485353,35.8261814 35.8462057,37.8207617 C28.3028152,41.0940458 18.8003582,36.3445748 16.6714731,35.1818924 L15.1111111,37.808419 C16.1054112,38.361372 18.672379,39.6943836 21.9973775,40.7138906 C24.7956924,41.570474 27.4758726,42 29.9714673,42 C32.5507408,42 34.9306621,41.5433201 37.0423192,40.6299603 C42.6118763,38.2181967 46.3528074,32.7824715 48.1666667,24.4708972 L45.1813053,23.8636364 Z" id="Fill-22" fill-rule="evenodd"></path>
                    <ellipse id="Oval" fill-rule="nonzero" cx="14.875" cy="9.30681818" rx="3.54166667" ry="3.57954545"></ellipse>
                    <ellipse id="Oval" fill-rule="nonzero" cx="35.1805556" cy="9.30681818" rx="3.54166667" ry="3.57954545"></ellipse>
                </g>
            </g>
        </g>
    </g>
</svg>