<?xml version="1.0" encoding="UTF-8"?>
<svg width="211px" height="56px" viewBox="0 0 211 56" version="1.1" xmlns="http://www.w3.org/2000/svg" xmlns:xlink="http://www.w3.org/1999/xlink">
    <!-- Generator: Sketch 52.5 (67469) - http://www.bohemiancoding.com/sketch -->
    <title>Gates</title>
    <desc>Created with Sketch.</desc>
    <defs>
        <polygon id="path-1" points="0 0.246506089 14.2132226 0.246506089 14.2132226 16.8716648 0 16.8716648"></polygon>
        <polygon id="path-3" points="0.42 0.0301212121 12.6933333 0.0301212121 12.6933333 10.1107576 0.42 10.1107576"></polygon>
    </defs>
    <g id="3.0.0---Front-End" stroke="none" stroke-width="1" fill="none" fill-rule="evenodd">
        <g id="Desktop---Landing-Page-NEW" transform="translate(-862.000000, -3577.000000)">
            <g id="Featured-In" transform="translate(120.000000, 3444.000000)">
                <g id="Gates" transform="translate(742.000000, 133.000000)">
                    <path d="M118.701225,27.3247664 L119.022977,27.4878844 C120.434822,26.8115818 121.293254,25.6598953 121.857821,24.2727767 C121.918739,24.1236285 121.844093,23.783012 121.743277,23.7443896 C121.52706,23.6618035 121.147823,23.6161962 121.020838,23.7361721 C120.466139,24.2592177 119.895566,24.7986984 119.489302,25.4256958 C119.12036,25.9955813 118.956052,26.6870863 118.701225,27.3247664 M120.456272,27.5782772 C120.027699,27.8893106 119.702516,28.197057 119.314698,28.3872928 C118.901998,28.5898548 118.435244,28.7739274 117.982647,28.7973474 C117.403924,28.8277522 116.99723,28.4805617 117.109628,27.8782169 C117.540775,25.561285 118.849231,23.8319063 121.053871,22.7845824 C121.734268,22.4616336 122.501752,22.3018027 123.236204,22.0885578 C123.708964,21.9509142 124.014842,22.3354945 123.818359,22.9370176 C123.54294,23.779725 123.166276,24.5920276 122.847099,25.4224088 C122.624447,26.0017445 122.425819,26.5897086 122.216466,27.1735639 C122.269662,27.2162951 122.322859,27.2590262 122.376055,27.3017574 C122.595704,27.1608268 122.79948,26.9788085 123.04015,26.8925245 C123.207031,26.8329474 123.500469,26.8366453 123.599139,26.9368991 C123.692662,27.0314007 123.684939,27.3720172 123.583695,27.4611774 C123.081763,27.9032804 122.584979,28.3934559 121.989953,28.6868216 C121.168844,29.091124 120.711099,28.7427008 120.456272,27.5782772" id="Fill-64" fill="#000000"></path>
                    <path d="M61.9787486,47.4272762 C61.9787486,47.2950321 62.0017722,46.9575384 61.9753376,46.6242165 C61.7826213,44.218792 60.2937594,42.3940735 57.8549593,41.8834527 C55.8621356,41.4662789 53.2455419,42.5388329 52.4708392,44.1616392 C51.3874491,46.4318993 51.2169037,48.6846382 52.5910737,50.9548983 C53.7964037,52.9460692 56.570752,53.9535441 58.7038494,52.9573329 C60.9622976,51.9027174 62.1062313,50.121385 61.9787486,47.4272762 M56.7890502,55.9997819 C51.9655982,56.0281497 48.2715836,52.4220988 48.3653836,47.5194716 C48.4600363,42.5951513 51.7639282,39.2761161 56.6986611,39.0404129 C61.6500222,38.8042924 65.1317077,42.7403278 65.3235714,47.0609975 C65.557645,52.3282347 61.5498267,56.0327386 56.7890502,55.9997819" id="Fill-4" fill="#000000"></path>
                    <g id="Group-8" transform="translate(0.000000, 39.030303)">
                        <mask id="mask-2" fill="white">
                            <use xlink:href="#path-1"></use>
                        </mask>
                        <g id="Clip-7"></g>
                        <path d="M3.07524848,8.57242868 L3.08225455,8.57242868 C3.08225455,10.1593023 3.05835152,11.7465898 3.10533333,13.3318078 C3.11316364,13.6000118 3.37692121,14.0358433 3.60193939,14.0966859 C7.08642424,15.0333304 10.3009697,13.0896792 10.9743758,9.58357428 C11.4516121,7.10020399 10.5053818,4.4748677 7.95146667,3.45916925 C6.7241697,2.9707731 5.46266667,2.96663415 4.1945697,2.98070658 C3.0929697,2.99312343 3.08307879,3.03492683 3.07730909,4.11933186 C3.06947879,5.60397339 3.07524848,7.08820103 3.07524848,8.57242868 Z M0.00618181818,8.5372476 C0.00618181818,6.17845972 0.0136,3.81967184 -1.01643954e-19,1.46088396 C-0.00288484848,0.960070953 0.116630303,0.592946046 0.666812121,0.524653363 C3.78244848,0.138075388 6.90014545,-0.0461079084 9.83238788,1.35658241 C12.0611394,2.42318995 13.5221091,4.11105395 14.0121212,6.67803104 C14.5503515,9.49665632 14.0298424,12.0131382 12.1884848,14.1260724 C11.019297,15.4675063 9.36545455,16.1843725 7.59292121,16.5705366 C5.25207273,17.0812831 2.92564848,16.8432934 0.590157576,16.580884 C-0.00370909091,16.513833 0.00989090909,16.1102853 0.00989090909,15.6901818 C0.00824242424,13.3061463 0.00906666667,10.921697 0.00906666667,8.5372476 L0.00618181818,8.5372476 Z" id="Fill-6" fill="#000000" mask="url(#mask-2)"></path>
                    </g>
                    <path d="M158.314049,46.4258374 C158.268572,47.0910479 158.189519,47.7550414 158.183144,48.4206574 C158.162743,50.6040889 158.174644,52.7879261 158.161043,54.9713576 C158.154668,55.9561935 158.05479,56.0292044 157.023277,55.9395632 C155.290064,55.7890796 155.284964,55.7890796 155.281989,54.0810302 C155.276889,51.4205942 155.280289,48.7609694 155.279439,46.1005333 C155.278589,44.3450268 155.260313,42.5891147 155.287939,40.8336082 C155.293039,40.5139827 155.479196,40.1971965 155.58205,39.8787879 C155.893586,40.0191311 156.28205,40.0884914 156.503058,40.3099578 C158.186969,41.9973208 159.827104,43.7248398 161.503365,45.4186927 C162.639856,46.5669918 163.810349,47.6848698 164.975741,48.806804 C165.111321,48.9374124 165.311504,49.0071783 165.608589,49.178754 C165.665966,48.7496121 165.741619,48.4421551 165.742894,48.1338869 C165.752245,45.8973197 165.719093,43.6607524 165.769245,41.4254021 C165.779021,40.9788188 166.004279,40.2239672 166.277989,40.1558237 C166.972889,39.9842481 167.756618,40.0824072 168.492744,40.1667753 C168.6432,40.1838112 168.849332,40.6125474 168.848482,40.8510497 C168.839557,45.648677 168.806831,50.4458987 168.762204,55.243526 C168.759654,55.4962248 168.606648,55.7477068 168.523345,56 C168.258136,55.8722309 167.937249,55.7975976 167.738342,55.6073636 C166.99754,54.8963186 166.30264,54.1418726 165.580963,53.4129805 C163.961654,51.7783476 162.33427,50.151827 160.715811,48.5163828 C160.000935,47.7939806 159.299235,47.0590042 158.591584,46.3293008 C158.499356,46.3613445 158.406702,46.3937938 158.314049,46.4258374" id="Fill-9" fill="#000000"></path>
                    <path d="M98.917117,41.7099913 C98.9014542,41.7571824 98.8857913,41.8047986 98.8701285,41.8519896 C98.7172098,41.8519896 98.5638789,41.8511393 98.410548,41.8524148 C97.3924637,41.8604925 97.2111046,42.0135446 97.1360878,43.0674785 C97.0878628,43.7468598 97.1027013,44.4309177 97.0890993,45.1124247 C97.0454083,47.318926 97.3883419,47.668395 99.5052976,47.3690931 C100.884864,47.1743768 101.607415,46.5617432 101.921084,45.2965124 C102.177872,44.2617101 102.023717,42.8731873 100.674652,42.3183734 C100.101722,42.0824181 99.5036489,41.9106596 98.917117,41.7099913 M106.060606,55.5157169 C104.807991,56.388539 102.95854,56.0263157 102.275146,54.8716226 C101.45326,53.4818244 100.65157,52.0792718 99.8325685,50.687773 C99.4978784,50.1185042 97.7922782,49.8119749 97.3524823,50.2838855 C97.1711231,50.4781767 97.1027013,50.8514538 97.1002282,51.1448037 C97.0903359,52.4576507 97.1076474,53.7713479 97.1459802,55.0837698 C97.1637039,55.7015051 96.8879556,55.9119518 96.3257422,55.9485142 C94.2974052,56.0807342 94.2821545,56.0718062 94.2681404,53.9737168 C94.2417609,50.0317747 94.2059012,46.0894074 94.1828192,42.1474652 C94.1786974,41.4387489 94.1844679,40.7262063 94.2553628,40.0230169 C94.2788571,39.7917382 94.4969002,39.4210119 94.6708401,39.3908267 C97.051591,38.9788614 99.4768572,38.7709656 101.780118,39.6021236 C105.631115,40.9914967 106.370565,45.8704578 103.220687,48.5335646 C102.238874,49.3638723 102.24176,49.3621717 102.909079,50.4348119 C103.95313,52.1124331 104.992648,53.7934555 106.060606,55.5157169" id="Fill-11" fill="#000000"></path>
                    <path d="M201.507744,45.0486543 L201.501492,45.0486543 C201.501492,45.2245269 201.500242,45.3999942 201.501909,45.5758668 C201.524418,47.8946294 201.192621,47.8289811 204.012478,47.7617118 C205.276307,47.7317243 206.222929,46.8077854 206.445516,45.6066648 C206.670188,44.3933871 206.185831,43.2777713 204.965769,42.8725349 C204.050409,42.5686076 203.010418,42.588059 202.02253,42.5523982 C201.859966,42.5467249 201.5636,42.9876221 201.531087,43.2457576 C201.456891,43.8390237 201.507744,44.4468783 201.507744,45.0486543 Z M198.55742,47.9874285 C198.55742,45.7035163 198.577011,43.4191988 198.545748,41.136097 C198.535744,40.4216653 198.77959,40.0614102 199.537388,40.0196708 C201.878723,39.8916161 204.220059,39.6379382 206.503873,40.4471952 C209.065712,41.3545195 209.998578,43.7077271 209.466286,46.1922313 C209.192845,47.4691312 208.439633,48.4230576 207.33003,49.116417 C206.729378,49.4916659 206.743967,49.8186917 207.14996,50.3929116 C208.228716,51.9178161 209.220773,53.5014799 210.222833,55.0766337 C210.594228,55.6597688 210.460843,55.8587399 209.748897,55.9195254 C209.723053,55.9219568 209.696793,55.9183097 209.671366,55.9231725 C208.015716,56.2424988 206.930707,55.550355 206.179579,54.1454005 C205.5981,53.0581513 204.924086,52.017099 204.295506,50.9533536 C203.984133,50.4265463 202.164252,50.0577812 201.732833,50.4849003 C201.566101,50.6502367 201.520666,50.9837463 201.515664,51.2430976 C201.490654,52.3716809 201.547343,53.5043166 201.475232,54.629658 C201.447721,55.0511038 201.199707,55.7744507 200.965865,55.8088958 C200.263089,55.9130416 199.506959,55.7922811 198.797097,55.6443699 C198.659543,55.6160033 198.572425,55.0709604 198.569508,54.7637912 C198.55075,52.5050036 198.559504,50.2462161 198.559504,47.9874285 L198.55742,47.9874285 Z" id="Fill-13" fill="#000000"></path>
                    <path d="M147.642925,55.9940416 C146.290178,55.9940416 144.938272,55.9809464 143.585946,55.9997707 C142.862521,56.0095921 142.5466,55.704311 142.54744,54.9979904 C142.553742,50.2898684 142.540719,45.5813372 142.54744,40.872806 C142.548701,40.0437182 142.746991,39.8693888 143.646022,39.8800286 C145.67304,39.9041728 147.698799,39.9643288 149.725398,39.9835623 C150.424877,39.9905191 151.126036,39.9270894 151.825515,39.882484 C152.462398,39.8419708 152.692617,40.1349752 152.715303,40.7385805 C152.78042,42.4556844 152.635483,42.5649472 150.853387,42.4851485 C149.400235,42.4200819 147.941621,42.4761456 146.485108,42.4777825 C145.811676,42.4790102 145.489874,42.780199 145.51508,43.4619662 C145.543227,44.2206675 145.528944,44.9818241 145.512139,45.7413438 C145.499536,46.3097559 145.736897,46.5720685 146.344792,46.5642932 C147.879025,46.5446505 149.414518,46.5818899 150.947911,46.5466966 C151.650751,46.5303276 151.930122,46.7815912 151.946086,47.4666321 C151.983896,49.1370844 152.004061,49.1370844 150.261875,49.1403582 C149.013736,49.1428136 147.764756,49.1546811 146.516616,49.1411767 C145.836042,49.1334014 145.501637,49.4100368 145.518861,50.0926225 C145.539446,50.8775141 145.544488,51.6636334 145.526003,52.448525 C145.511719,53.0369891 145.791511,53.2661545 146.37462,53.261653 C147.960946,53.2493763 149.547692,53.2628807 151.134439,53.2534685 C152.635903,53.2444656 152.704801,53.3058492 152.696818,54.7978799 C152.695978,54.9247393 152.686736,55.0515988 152.694298,55.178049 C152.731267,55.7607839 152.449375,56.00018 151.856183,55.9932231 C150.452184,55.9772634 149.047344,55.9879032 147.642925,55.9879032 L147.642925,55.9940416 Z" id="Fill-15" fill="#000000"></path>
                    <path d="M86.5642133,55.9795876 C85.160708,55.9795876 83.7567827,55.9669005 82.3536974,55.9853172 C81.7262776,55.9935023 81.4650627,55.7418084 81.4663225,55.1266929 C81.4730419,51.8612196 81.4566635,48.5961556 81.4545637,45.3306823 C81.4537238,43.8393445 81.482281,42.3475974 81.4671625,40.8562595 C81.461283,40.2628347 81.6515248,39.9841297 82.3142212,39.9808557 C84.7302493,39.9698057 87.1458574,39.9161928 89.5618856,39.8797688 C89.7176906,39.8773133 89.8739156,39.8793596 90.0297206,39.8871355 C91.4626231,39.9595742 91.9140798,40.5734619 91.4168475,41.9186945 C91.3244564,42.1683421 90.8398229,42.4196268 90.5277928,42.4302676 C88.9701623,42.4822434 87.4095921,42.4511397 85.8502818,42.4556416 C84.3346472,42.4593249 84.2947511,42.5022971 84.3048301,44.0132793 C84.3077698,44.5199413 84.3384269,45.0274218 84.3111295,45.532856 C84.2699735,46.2920304 84.6332386,46.573191 85.3862263,46.5609132 C86.8674242,46.5371763 88.3498819,46.5797391 89.8302398,46.5453614 C90.6033856,46.5273541 90.9469126,46.8126072 90.8675402,47.5693261 C90.8465423,47.7698628 90.8562013,47.974492 90.8658604,48.1770749 C90.8981973,48.8503051 90.567689,49.1470175 89.8818948,49.1425156 C88.4783895,49.1331027 87.0748842,49.1384231 85.671379,49.1502916 C84.4534958,49.160523 84.3170089,49.2963968 84.3098696,50.4529612 C84.30609,51.0603008 84.3279279,51.6692774 84.3098696,52.2762077 C84.2892916,52.9735841 84.5849432,53.2903502 85.3286918,53.2747984 C86.8615447,53.2428762 88.3956575,53.2510614 89.9289303,53.2580188 C91.3483941,53.2637484 92.0866832,54.53777 91.3412548,55.7246195 C91.2408844,55.8838211 90.9183554,55.9816338 90.6966166,55.9853172 C89.3195688,56.0086449 87.9416811,55.9971857 86.5642133,55.9971857 L86.5642133,55.9795876 Z" id="Fill-17" fill="#000000"></path>
                    <path d="M185.821064,47.8851394 C185.821911,45.6039977 185.816402,43.3232653 185.824454,41.0421237 C185.827845,40.074255 186.019405,39.8704501 187.022976,39.8790443 C189.172941,39.8974604 191.322482,39.9506625 193.472446,39.9874947 C193.761058,39.9924057 194.050517,39.9973166 194.338704,39.9825837 C195.935603,39.9019621 195.935603,39.8999159 195.997479,41.4579184 C196.027569,42.2170712 195.794052,42.4572991 194.987551,42.4597546 C193.334286,42.4646656 191.681021,42.4577084 190.027756,42.4601638 C188.952986,42.4613916 188.816944,42.5972615 188.808892,43.6555737 C188.802958,44.3647984 188.848729,45.0789341 188.782616,45.7828386 C188.722859,46.4274023 189.016556,46.5653185 189.598017,46.5583613 C191.119903,46.5391267 192.642635,46.5485394 194.16452,46.5575428 C195.12783,46.5636815 195.258362,46.7081456 195.264719,47.7030246 C195.272772,48.9217615 195.13334,49.1194277 194.186982,49.1296589 C192.690949,49.1456195 191.194916,49.1603524 189.698883,49.1411178 C189.061056,49.1333421 188.786854,49.3657943 188.809739,49.9911234 C188.836015,50.7244937 188.799568,51.4603194 188.806773,52.1953267 C188.81652,53.1967536 188.877548,53.2503649 189.948928,53.2536389 C191.497937,53.2581406 193.048217,53.2155789 194.593412,53.2810584 C195.057055,53.300293 195.822023,53.5302897 195.899156,53.8073498 C196.064016,54.3954375 195.910175,55.0858368 195.785576,55.7152584 C195.7593,55.8482636 195.300319,55.9771763 195.039679,55.9792226 C192.363348,56.0009126 189.686169,56.0050051 187.009414,55.9943647 C186.0389,55.9910907 185.829116,55.7737807 185.824454,54.8034565 C185.813011,52.4977601 185.82064,50.1912451 185.821064,47.8851394" id="Fill-19" fill="#000000"></path>
                    <path d="M134.634322,55.9895488 C131.96974,56.0931817 129.686119,55.2372661 127.936615,53.3706149 C125.649133,50.9299968 125.032217,48.071071 126.049829,44.845444 C127.019821,41.7696023 129.274269,40.0225276 132.240445,39.2396166 C133.69007,38.856972 135.349911,39.0856357 136.891773,39.245071 C137.776392,39.336956 138.624974,39.8240727 139.472269,40.1718933 C140.011964,40.3934244 140.100769,40.83313 139.904711,41.3433228 C139.876826,41.4163274 139.839502,41.4855558 139.808613,41.5577213 C139.227733,42.907047 139.228591,42.9045296 137.79441,42.4476217 C136.443029,42.0171466 135.065477,41.7675045 133.639447,41.9424637 C130.072228,42.379652 128.561683,45.3480847 128.944789,48.4558134 C129.166588,50.2515579 130.149021,51.5597661 131.648411,52.4605753 C133.001938,53.2732755 134.542943,53.4784435 136.101107,53.0785967 C136.942396,52.8625199 137.74679,52.5121819 138.573922,52.2398833 C138.764831,52.1769483 139.12091,52.1060416 139.161666,52.1744309 C139.482994,52.7160912 139.85752,53.2690798 139.979788,53.8648642 C140.041566,54.1661129 139.703506,54.7035776 139.392902,54.8936412 C137.932981,55.7864786 136.294591,56.0596163 134.634322,55.9895488" id="Fill-21" fill="#000000"></path>
                    <path d="M41.9673848,55.9587724 C38.4703391,55.8672375 35.6064123,54.5957799 34.0402089,51.3552767 C32.8241782,48.8395294 32.7182329,46.2631768 34.0619086,43.6717774 C36.0301934,39.8757951 39.4042745,38.8321299 43.3523323,39.0599223 C44.5411321,39.128469 45.7107852,39.7366119 46.8591641,40.1738061 C47.377828,40.3715048 47.5948244,40.8258356 47.2748611,41.3854943 C47.2110386,41.4970917 47.1795529,41.6262437 47.1340262,41.7478723 C46.6906728,42.9382441 46.534946,43.0147322 45.3508265,42.55246 C43.0647057,41.6592631 40.8381526,41.4874784 38.6315972,42.8450373 C37.3215347,43.650879 36.8266978,44.8897351 36.4960974,46.2376808 C36.0395541,48.0980548 36.5850234,49.8075425 37.6551134,51.299687 C38.359288,52.2806571 39.4978808,52.8699914 40.7173154,53.0614206 C42.3520215,53.3180528 43.9748141,53.1613149 45.501022,52.4545316 C46.5626024,51.9625837 46.7485385,52.0298765 47.1501945,53.0835729 C47.2050819,53.2281897 47.2974117,53.3581777 47.3620851,53.4994507 C47.666731,54.1661091 47.5250452,54.6091548 46.8612915,54.8896111 C45.3074272,55.5470743 43.7403729,56.1677562 41.9673848,55.9587724" id="Fill-23" fill="#000000"></path>
                    <path d="M26.1036353,55.951458 C24.5926276,56.1814998 23.3221561,55.5465846 22.0316739,55.040911 C21.2173633,54.7221986 21.0948491,54.4018132 21.298631,53.5272363 C21.339469,53.3511498 21.3835741,53.1742268 21.4440144,53.0048324 C21.8589289,51.8437489 21.9883855,51.8312012 23.0673267,52.3983587 C24.4574537,53.1282184 25.8965864,53.7208896 27.453741,52.8563509 C28.5547347,52.2448581 28.7409562,50.4505325 27.716738,49.7139806 C26.8979352,49.1250737 25.9815295,48.6666633 25.0753333,48.2203823 C23.7721913,47.5775201 22.5217304,46.8418048 22.0149303,45.3804123 C21.2994477,43.3175652 21.8752642,40.9360057 23.8456998,39.8535547 C26.0542213,38.6406073 28.3064394,38.8463901 30.5174111,39.9589557 C30.9980749,40.2007087 31.0899605,40.5240219 30.9172156,41.0326233 C30.3177131,42.7943248 30.3250639,42.8085456 28.6600969,42.1134012 C27.6832508,41.7051817 26.7113054,41.6784132 25.699747,41.9716119 C24.9675209,42.1836685 24.7429116,42.8014352 24.7563882,43.3949429 C24.7686396,43.929058 24.9638455,44.6505526 25.3375136,44.9454243 C26.1673426,45.5991611 27.1298953,46.1044164 28.0912229,46.5506974 C31.1389662,47.9660816 32.0194344,50.0243278 30.9715302,53.1278002 C30.4275674,54.7397654 29.0019113,55.5595506 27.4047354,55.9359825 C26.9726689,56.0376191 26.4989476,55.951458 26.1036353,55.951458" id="Fill-25" fill="#000000"></path>
                    <path d="M72.285151,49.8707611 C72.6404369,49.1367993 72.9505666,48.5401253 73.2227821,47.9272042 C74.2669137,45.5725962 75.3204173,43.2212376 76.3232267,40.8503826 C76.6188723,40.1497273 77.0930128,39.8767763 77.8359608,39.9178002 C77.862373,39.9190187 77.8887851,39.9178002 77.9151973,39.917394 C79.9872724,39.882869 80.1180551,40.0973304 79.2579565,41.8711053 C77.127093,46.2659403 75.0196597,50.6709298 72.9024283,55.0718574 C72.8146719,55.2542309 72.7541795,55.4581318 72.6276569,55.612479 C72.4930401,55.7761683 72.2966531,55.9971286 72.1241222,55.9999719 C71.9584073,56.0028151 71.718994,55.7895722 71.6312375,55.6165408 C71.0459104,54.465029 70.4848653,53.301332 69.9306364,52.135604 C68.3348318,48.7813944 66.7449913,45.425154 65.1542987,42.0689135 C64.9591897,41.6566439 64.7687667,41.2427495 64.5834557,40.8264181 C64.3193342,40.2338059 64.6056078,39.960855 65.205845,39.9279546 C65.7311058,39.8991161 66.2840568,39.8251918 66.7790714,39.9446079 C67.1824956,40.041278 67.6949764,40.3158536 67.8555792,40.6460755 C68.7616861,42.5088032 69.5762025,44.4121486 70.421391,46.3016839 C70.8550613,47.2716346 71.2755256,48.2468655 71.727514,49.2086926 C71.8254945,49.4170614 72.0333837,49.5779075 72.285151,49.8707611" id="Fill-27" fill="#000000"></path>
                    <path d="M23.7642454,19.5858562 C23.6472667,19.4840913 23.5323919,19.4336225 23.5096695,19.3566783 C23.0442794,17.7867685 21.8471413,17.0280821 20.3344132,16.7500902 C18.40174,16.3951541 16.4732747,16.2847019 14.620551,17.2291299 C12.971488,18.0697245 12.0672175,19.4348635 11.7970724,21.1470788 C11.4314088,23.4657467 11.6228667,25.7169849 13.0005223,27.7853774 C14.5448094,30.1032179 18.2851821,31.5589525 20.9765337,30.7717223 C21.5462788,30.6050099 21.8614481,30.2422138 21.8656559,29.6564451 C21.8765964,28.2478699 21.8782795,26.8392947 21.8736509,25.4307194 C21.8719677,24.8755629 21.6077137,24.5160763 21.0295528,24.3961096 C20.8204218,24.3526733 20.6239145,24.2517358 20.3676554,24.1574171 C21.0577455,23.606811 24.6281204,23.5608927 25.4545455,24.0213169 C25.4478129,24.0705446 25.4520207,24.156176 25.4305606,24.1623812 C24.2780259,24.51649 24.1303298,25.3864558 24.1707253,26.4074143 C24.2161703,27.5582679 24.1993388,28.7124308 24.1850321,29.8645254 C24.1703045,31.0273756 23.9468668,31.3740382 22.8263119,31.7037399 C20.6150779,32.3548698 18.3785968,32.4007882 16.1143437,31.9221622 C14.5027307,31.5817048 13.0455465,30.9988318 11.8399927,29.8545971 C9.69229749,27.8164032 9.08089445,25.288414 9.42173166,22.4845013 C9.64559017,20.6378406 10.352091,18.9831266 11.7364791,17.6485999 C13.3308398,16.1117843 15.3358883,15.553732 17.4638065,15.3282773 C19.5382848,15.1077866 21.5572193,15.5901357 23.5753122,15.9607917 C23.8408286,16.0096057 24.2317394,16.4199748 24.2317394,16.662804 C24.2308978,17.5273921 24.0928798,18.3932211 23.9893663,19.2569818 C23.9767427,19.3604014 23.859764,19.4514107 23.7642454,19.5858562" id="Fill-29" fill="#000000"></path>
                    <path d="M111.481017,52.762023 C111.892565,50.4096192 111.069469,48.4120201 109.749206,46.4929965 C108.493467,44.6695595 107.387871,42.7468906 106.210719,40.87161 C105.905884,40.3859812 106.080843,40.1142073 106.594968,39.9987743 C108.115835,39.6573355 109.085351,40.0275313 109.888594,41.3292919 C110.734439,42.6999073 111.517415,44.1077854 112.353333,45.4840712 C112.496858,45.7197976 112.76819,45.8805938 112.980375,46.0758174 C113.164435,45.8591273 113.382824,45.6622836 113.528003,45.4225069 C114.545086,43.7456902 115.526597,42.0478119 116.577596,40.3920566 C116.726084,40.1587604 117.182303,40.038872 117.5103,40.0068748 C117.961142,39.9627267 118.426047,40.053048 118.885161,40.0854503 C119.684267,40.1421542 119.833583,40.4422801 119.391427,41.1599901 C118.744945,42.2106333 118.077782,43.2491256 117.427163,44.2977436 C116.657837,45.5379399 115.937731,46.8105386 115.119185,48.0187377 C114.456985,48.9956657 114.335382,50.0637251 114.321319,51.1726923 C114.304361,52.4760731 114.316769,53.7798588 114.29857,55.0828346 C114.286575,55.9423044 114.11327,56.0731285 113.228959,55.9698463 C111.555881,55.7742177 111.551745,55.7742177 111.483498,54.1136021 C111.465299,53.6640208 111.481017,53.2124143 111.481017,52.762023" id="Fill-31" fill="#000000"></path>
                    <path d="M178.92624,49.2381462 C178.926665,51.0859132 178.935167,52.9344976 178.923265,54.7826733 C178.916889,55.785233 178.756634,55.9327765 177.751324,55.9826388 C176.109246,56.0639716 175.938789,55.9143846 175.936239,54.3265557 C175.930713,50.8071746 175.934963,47.2882023 175.930713,43.7684126 C175.929012,42.5733516 175.83677,42.4887491 174.567486,42.4781227 C173.540497,42.4695399 172.513507,42.4654528 171.486517,42.4658615 C170.870579,42.4658615 170.536467,42.1822184 170.565798,41.5863228 C170.596403,40.9732614 170.289072,40.1779164 171.316486,40.0164769 C171.807452,39.9396399 172.310745,39.9036736 172.808086,39.9024475 C176.014878,39.8934559 179.222095,39.8995866 182.429312,39.900404 C182.587441,39.900404 182.761723,39.8517678 182.900299,39.900404 C183.297322,40.040182 183.949392,40.1525765 184.013579,40.3945314 C184.160231,40.9487389 184.179785,41.6521247 183.927713,42.1401215 C183.781486,42.4225385 183.011244,42.4785314 182.514327,42.5046887 C181.649718,42.550464 180.779582,42.4883404 179.911572,42.4818011 C179.231872,42.4764879 178.913063,42.7879231 178.919439,43.4651515 C178.938143,45.3893469 178.925815,47.3135422 178.92624,49.2381462" id="Fill-33" fill="#000000"></path>
                    <path d="M34.208322,25.7596348 C33.6718144,24.1617808 33.2091648,22.7839702 32.7469301,21.4065828 C32.655645,21.4057365 32.5647748,21.4053133 32.4739046,21.404467 C32.0921669,22.6587147 31.6938318,23.9083077 31.3510976,25.1731344 C31.3096044,25.3254721 31.5564892,25.7236662 31.6884376,25.7329757 C32.4643612,25.7871402 33.2460938,25.7596348 34.208322,25.7596348 M39.8439336,31.9284685 C39.5974637,32.019448 39.3551432,32.1747479 39.1045241,32.1891354 C38.4128318,32.2297588 37.7169902,32.2318746 37.0240531,32.2086007 C36.5207401,32.1920975 36.3170083,31.9860183 36.1630684,31.3800525 C35.8000026,29.9472311 35.2008402,28.5761911 34.6722164,27.1899173 C34.6199349,27.0532364 34.4062447,26.9626801 34.2494003,26.8920123 C34.1381984,26.8420794 33.9971214,26.8585826 33.8693222,26.8509657 C30.765628,26.6677372 30.7685326,26.6685836 29.8021551,29.6683683 C29.5552703,30.4338656 29.0075595,31.2315232 30.1793286,31.702924 C29.5967635,32.4032546 26.9963823,32.4265284 26.3030303,31.7448168 C27.955291,31.4714552 28.157778,30.0830656 28.600096,28.8427822 C29.8436483,25.3542471 31.1187355,21.8767141 32.4029512,18.4034128 C32.4884273,18.1723672 32.7564736,18.0115662 32.9394588,17.8181818 C33.1016973,18.0009872 33.3319848,18.1554407 33.4158011,18.3699831 C34.4328004,20.9690349 35.4244888,23.5786656 36.4311147,26.181949 C36.9107766,27.4226556 37.3771606,28.6701327 37.9091039,29.8875654 C38.2829579,30.743196 38.6696749,31.6457973 39.8787879,31.6525679 C39.8671698,31.7448168 39.8555517,31.8366427 39.8439336,31.9284685" id="Fill-35" fill="#000000"></path>
                    <path d="M19.5125279,48.0162257 C19.5129887,50.2717628 19.5194405,52.5268908 19.5102237,54.7824279 C19.5056153,55.8097549 19.306532,55.976271 18.168255,55.9946819 C16.1995426,56.0265941 16.1133654,55.9684975 16.1216605,54.2558768 C16.1359466,51.190261 16.183874,48.1246453 16.1976993,45.0586204 C16.2032293,43.716672 16.1235039,42.3743144 16.1470068,41.0331843 C16.1649795,40.0316325 16.2612953,39.9899012 17.3622442,39.9416238 C17.5903605,39.9318046 17.8161725,39.892119 18.0438279,39.8831181 C19.1604454,39.8397502 19.5046936,40.1134586 19.5088412,41.0978269 C19.5189797,43.4040962 19.5120671,45.7099564 19.5125279,48.0162257" id="Fill-37" fill="#000000"></path>
                    <path d="M59.9977038,29.4812667 C60.6703932,30.8343152 59.8813012,32.2616421 58.5447792,32.2422284 C56.7455988,32.2164842 54.9468402,32.1540228 53.1489251,32.0818546 C52.8747883,32.0708816 52.6061343,31.9252791 52.1072055,31.7712359 C53.3142506,31.2137259 53.3657039,30.3299818 53.3661257,29.4285122 C53.3678127,26.2919382 53.3690779,23.1557862 53.3631734,20.0192122 C53.3610647,18.8058578 53.3517862,18.807968 52.1527544,18.3981707 C52.0646089,18.3682061 51.9971291,18.2787344 51.7575758,18.0862859 C52.1772158,17.9866853 52.4475568,17.8697812 52.719163,17.8664049 C54.834655,17.8393946 56.950147,17.8402387 59.065639,17.8182928 C59.7062754,17.8119622 59.9154628,18.076157 59.7446545,18.6952843 C59.6008382,19.2173432 59.5017272,19.7512192 59.2769351,20.3260327 C58.6970305,18.5560123 57.2715196,18.9501942 56.0404348,18.888999 C55.522949,18.8636768 55.267791,19.1050816 55.2715868,19.6355812 C55.2804435,20.7856302 55.2817087,21.9352572 55.2749608,23.0853062 C55.2715868,23.6719367 55.5558455,23.9762249 56.1327978,23.9504806 C57.0159398,23.9116533 57.9032993,23.8812667 58.7771628,23.7630965 C59.2701871,23.6959927 59.5042577,23.8230257 59.4713613,24.2990827 C59.4258125,24.9663221 59.5624591,25.7053077 58.8475948,26.3054434 C58.7236007,26.0391384 58.6451554,25.8627273 58.5599622,25.6905364 C58.4929041,25.5542187 58.4245808,25.3123919 58.3431833,25.3060613 C57.4427496,25.2398016 56.5389419,25.1815606 55.6385082,25.2039285 C55.5102966,25.2073048 55.2947829,25.6487548 55.2884567,25.8922698 C55.2559821,27.1457177 55.2450166,28.4016978 55.291409,29.6543016 C55.3302098,30.6967314 55.6663436,30.9799177 56.7008935,31.0111484 C56.961956,31.0191671 57.2251272,30.9938449 57.484081,31.0200112 C58.4929041,31.1212999 59.2891658,30.8482424 59.6982622,29.8302908 C59.7421241,29.7218274 59.856418,29.6420626 59.9977038,29.4812667" id="Fill-39" fill="#000000"></path>
                    <path d="M62.8017197,30.344212 C62.8017197,30.0400791 62.7619237,29.7293881 62.8172921,29.4342726 C62.8480043,29.2682701 63.0361703,29.12891 63.1529629,28.9772535 C63.2987375,29.1252211 63.526267,29.2514649 63.5768771,29.4244354 C63.8865941,30.477014 64.8339125,31.2049656 65.9983789,31.2369364 C67.2000459,31.269727 68.1811045,30.5979294 68.5751717,29.5478101 C68.8982981,28.6866467 68.5872835,27.969762 68.0098085,27.379531 C67.2316232,26.5843587 66.3141517,25.9121512 65.5312081,25.1206678 C64.7897909,24.3722221 63.9510463,23.6258259 63.4959874,22.7240841 C62.3713171,20.4935028 63.9834887,18.0436343 66.6372782,17.8341843 C67.4496362,17.7698327 68.2844876,17.9145213 69.1041993,18.0030559 C69.7941413,18.0772447 70.1544684,18.4502379 70.0766066,19.1413 C70.0601691,19.2921368 70.1107793,19.4544503 70.0705507,19.5958598 C69.980577,19.9118794 69.8525376,20.2176518 69.7400706,20.5275231 C69.5419556,20.2910208 69.2949607,20.0778818 69.1548095,19.8139174 C68.6781223,18.9170942 66.8462073,18.5272958 65.7807984,19.120396 C64.8667875,19.6290603 64.5306841,20.9583097 65.2223564,21.7858627 C65.7786356,22.451922 66.510969,22.9843595 67.148138,23.5918056 C68.0297066,24.4312452 69.0760825,25.1768217 69.7331496,26.1543918 C71.5278639,28.8260068 69.6332269,32.0808847 66.2817093,32.2345907 C65.6713594,32.2628726 65.0506279,32.2108175 64.4420082,32.1386782 C63.0283841,31.9702164 62.7610586,31.6640341 62.8017197,30.344212" id="Fill-41" fill="#000000"></path>
                    <g id="Group-45" transform="translate(33.939394, 0.000000)">
                        <mask id="mask-4" fill="white">
                            <use xlink:href="#path-3"></use>
                        </mask>
                        <g id="Clip-44"></g>
                        <path d="M6.36363636,7.48893939 C7.5990303,4.87178788 8.7330303,2.4680303 9.86745455,0.0642727273 C9.96248485,0.0528181818 10.0579394,0.0413636364 10.1529697,0.0299090909 C10.3069697,0.341727273 10.5619394,0.642515152 10.5984242,0.967484848 C10.8084242,2.84433333 10.9475758,4.72839394 11.1507879,6.60566667 C11.2292727,7.3319697 11.3323636,8.07693939 11.5822424,8.75530303 C11.7061212,9.09130303 12.1884848,9.29536364 12.6933333,9.71112121 C12.2152121,9.76966667 11.8656364,9.87021212 11.5258182,9.84390909 C10.0367273,9.72893939 10.024,9.71663636 9.88951515,8.24748485 C9.79151515,7.17584848 9.75121212,6.09869697 9.65151515,5.02748485 C9.61672727,4.65669697 9.47969697,4.29566667 9.38933333,3.9299697 C9.31381818,3.91809091 9.23830303,3.90663636 9.16278788,3.89475758 C8.19169697,5.89166667 7.22060606,7.88857576 6.14006061,10.1107576 C4.61830303,8.14354545 4.08163636,5.93536364 2.82206061,4.109 C2.18866667,4.98590909 2.13521212,8.69336364 2.68630303,9.52487879 C2.16278788,10.0144545 1.13909091,10.0390606 0.42,9.57324242 C1.38769697,8.73536364 1.10048485,7.51481818 1.27951515,6.47118182 C1.5849697,4.69233333 1.63248485,2.87021212 1.83824242,1.07227273 C1.87345455,0.764272727 2.1589697,0.485545455 2.32866667,0.193242424 C2.57175758,0.436757576 2.89969697,0.639121212 3.04266667,0.931424242 C3.96454545,2.81293939 4.84060606,4.71651515 5.74551515,6.60566667 C5.86430303,6.85427273 6.06284848,7.06427273 6.36363636,7.48893939" id="Fill-43" fill="#000000" mask="url(#mask-4)"></path>
                    </g>
                    <path d="M49.5813796,20.314866 C48.7780651,19.2616646 46.9043654,18.683015 45.5542923,19.1474519 C45.3473652,19.2186768 45.1572614,19.6590912 45.1484292,19.9347189 C45.1051091,21.2635479 45.1265588,22.5949057 45.1252971,23.9254205 C45.1240353,25.6470401 45.1059502,27.3690812 45.1290823,29.0902794 C45.1442233,30.2163914 44.8216358,31.5473277 46.6171069,31.730658 C45.9067413,32.4049766 42.8230228,32.4075053 42.2241119,31.7702743 C43.3079556,31.3972918 43.1851452,30.4073078 43.2002863,29.6141406 C43.262112,26.3546532 43.2229978,23.0930585 43.2221566,19.8323067 C43.2221566,19.4150721 43.093458,19.1048856 42.6118899,19.105307 C41.8834392,19.1057285 41.1318564,19.0100595 40.4332672,19.1579882 C39.7519219,19.3025452 39.1248318,19.7016575 38.3341348,20.0510388 C38.3400229,20.0649466 38.1780983,19.863494 38.1818835,19.6654129 C38.1907158,19.2519713 38.2739913,18.8376868 38.3513787,18.4280383 C38.4375983,17.9711875 38.7172864,17.8085081 39.1925458,17.8186229 C42.3898218,17.8868976 45.587939,17.9197707 48.785215,17.9964744 C49.1843488,18.0057463 49.6734874,18.0967793 49.9502314,18.3429056 C50.2433781,18.6033611 49.8942938,20.0211159 49.5813796,20.314866" id="Fill-46" fill="#000000"></path>
                    <path d="M110.234207,27.7976074 C110.448307,27.7135737 110.527793,27.6954487 110.592749,27.6554915 C112.088454,26.7311199 113.145704,25.4697892 113.699115,23.8364855 C113.74655,23.6964292 113.673902,23.384598 113.600398,23.366473 C113.39741,23.3166295 113.110234,23.3046835 112.952117,23.4105496 C111.538889,24.3579893 110.690611,25.7260099 110.033783,27.214726 C109.972673,27.3531346 110.158567,27.5924661 110.234207,27.7976074 M114.365772,27.1764165 C114.632862,27.0009342 114.888414,26.8040315 115.172598,26.659444 C115.315758,26.5869442 115.511909,26.6100123 115.684129,26.5898278 C115.687548,26.7513044 115.764897,26.9885763 115.683274,27.0623118 C115.041403,27.6431336 114.424318,28.2783301 113.686295,28.7211552 C113.191857,29.017745 112.727761,28.6766667 112.582464,28.0983166 C112.534602,27.9075928 112.508961,27.711514 112.448278,27.3836175 C112.111103,27.6546676 111.864953,27.8684595 111.602136,28.060419 C111.308123,28.2750347 111.026076,28.5592666 110.690611,28.6531867 C110.095748,28.8200185 109.344049,29.0630574 108.931234,28.4805879 C108.647905,28.0801916 108.529958,27.4029782 108.656879,26.9292583 C109.164564,25.0298476 110.267113,23.5065293 112.158111,22.6472427 C112.611096,22.4412775 113.163225,22.3506529 113.665782,22.3621869 C114.117485,22.3724852 114.375174,22.2707384 114.511496,21.8736376 C114.77645,21.1016801 115.052087,20.3321943 115.292682,19.5528222 C115.357211,19.3443854 115.302511,19.1029943 115.320032,18.8780803 C115.341399,18.6045586 115.29781,18.1477278 115.427295,18.093353 C115.867887,17.9100441 116.370871,17.8255983 116.852488,17.8181836 C116.927701,17.8169478 117.161458,18.460383 117.070007,18.7244303 C116.30036,20.9397915 115.463619,23.1329085 114.666622,25.3396192 C114.470044,25.8837792 114.345259,26.4518311 114.187569,27.0091728 C114.24697,27.0651953 114.306371,27.1208059 114.365772,27.1764165" id="Fill-48" fill="#000000"></path>
                    <path d="M2.49000185,3.17593253 C2.49000185,3.35136699 2.4916405,3.52639629 2.49000185,3.70142558 C2.48467624,4.15763621 2.43387811,4.62802745 3.07581899,4.73661044 C3.67351635,4.83749538 4.10816809,4.6592248 4.39206409,4.10982728 C4.7542056,3.40808945 4.61123345,2.34859497 3.97175053,1.92277137 C3.67064871,1.72302729 3.19298242,1.63794361 2.84435977,1.71492408 C2.66943395,1.75341432 2.57930824,2.26675256 2.49737577,2.5775106 C2.44780663,2.76509987 2.4883632,2.97578329 2.49000185,3.17593253 M5.37566337,7.96776472 C5.36951844,6.55537553 4.37731625,5.42133153 3.17208964,5.52424228 C2.93489515,5.5445003 2.54407728,5.85161189 2.53137774,6.04608889 C2.47566366,6.89287415 2.49450813,7.75019358 2.56333141,8.597384 C2.61208122,9.19621109 3.02338221,9.5175033 3.6403337,9.56166578 C4.69685288,9.63743078 5.38016966,9.01226826 5.37566337,7.96776472 M0.913211498,10.0677111 C1.02791695,9.23753745 1.18768527,8.54511831 1.20612007,7.84905272 C1.24790563,6.27135808 1.25446023,4.69042215 1.20489108,3.11313267 C1.18317898,2.42881673 0.98695072,1.74976788 0.848484848,0.94430898 C0.905837576,0.93417997 1.15859924,0.85598401 1.41218023,0.852337566 C2.14629514,0.840587914 2.88163904,0.858820133 3.61616362,0.86570786 C5.2654642,0.880698795 6.21137455,2.21610751 5.65833039,3.75004483 C5.62432841,3.84404205 5.60425496,3.94816827 5.55017953,4.03001068 C5.12945631,4.66651768 5.15977132,5.07329874 5.89552488,5.57529249 C6.77506993,6.17614538 6.92992229,7.22510569 6.68043793,8.22868803 C6.44160478,9.18810788 5.7996639,9.97209328 4.80254576,10.0960724 C3.5641365,10.2496282 2.29336392,10.1511742 1.03651986,10.1459071 C0.939429888,10.1455019 0.842749576,10.0178764 0.913211498,10.0677111" id="Fill-50" fill="#000000"></path>
                    <path d="M75.5468256,33.0907022 C75.4691529,33.0750024 75.1505278,33.1059776 75.0381947,32.9659526 C74.8344083,32.7117859 74.6586007,32.3536612 74.6669526,32.0443331 C74.6698758,31.9153403 75.1672316,31.7689505 75.4557898,31.6938461 C75.57731,31.6620222 75.7597991,31.7659802 75.8804841,31.8559357 C76.4012253,32.2433384 76.7131689,31.9917176 76.8781189,31.4910219 C77.2134479,30.4739308 77.5479416,29.4530208 77.8081034,28.4142895 C78.1388387,27.0933864 78.3935718,25.7529647 78.6867236,24.421878 C78.769825,24.0425374 78.7518684,23.7692763 78.282909,23.6572563 C78.1254757,23.6199163 77.8957983,23.2859777 77.9329643,23.1586822 C77.9905924,22.9630715 78.2440727,22.7004184 78.425309,22.6910834 C79.0867797,22.6579865 79.3506999,22.2926484 79.5523983,21.7041189 C79.9699935,20.4859008 80.5020097,19.3351494 81.5627014,18.5081529 C82.4141779,17.844519 83.6139288,17.5962928 84.2941913,18.0460702 C84.7965583,18.3783115 85.0061911,19.1072905 84.7176328,19.6292021 C84.6403777,19.7688028 84.4340857,19.9538056 84.3250934,19.9308924 C84.1296588,19.8897335 83.9003991,19.7471626 83.7943299,19.5765866 C83.1370351,18.5200339 82.5252582,18.5157907 81.920998,19.650418 C81.5422392,20.3615756 81.2620329,21.1287432 80.955518,21.8780894 C80.7592483,22.3579935 80.9024835,22.6431354 81.4516211,22.6469543 C81.6061313,22.6482272 81.789038,22.6210708 81.9080526,22.693205 C82.0642332,22.7882523 82.2650965,22.9643444 82.271778,23.1137045 C82.2792947,23.2622159 82.0604748,23.5626333 81.9569112,23.5554199 C79.7495032,23.4026653 80.1207453,25.2963981 79.6760065,26.5167378 C79.0082718,28.3493688 78.4537055,30.2286748 77.7070453,32.0265117 C77.3554302,32.8734512 76.6405073,33.0987642 75.5468256,33.0907022" id="Fill-52" fill="#000000"></path>
                    <path d="M70.3122394,1.70136121 C70.8773791,1.70136121 71.4012767,1.68317705 71.9210909,1.72081403 C72.0003085,1.72673445 72.1297516,1.99780529 72.1207682,2.13820391 C72.0489007,3.2749253 71.9121075,4.4078407 71.868007,5.54498497 C71.8181898,6.82548808 71.8520818,8.10852851 71.8292149,9.39072317 C71.8263565,9.58102251 71.7352972,9.91552646 71.6470962,9.92990463 C71.4278187,9.96542718 71.1150318,9.93244196 70.9663968,9.78781446 C70.2697723,9.10865726 69.6470569,8.34619124 68.9385905,7.68098933 C67.8377114,6.6466067 66.6886484,5.66677655 65.5604107,4.66411048 C65.5987944,4.56811503 65.6371782,4.47254247 65.675562,4.37696992 C65.675562,5.09080388 65.6722953,5.80421496 65.6763786,6.51762604 C65.679237,7.06737968 65.6441199,7.62347664 65.7123124,8.16519543 C65.7829548,8.72678992 65.9577235,9.27442913 66.1173836,9.95950675 C65.8099051,10.2381896 65.0234462,10.2732892 64.4848485,9.95908387 C64.5816246,9.23129461 64.7302596,8.57708778 64.7445514,7.92034361 C64.7796685,6.29772458 64.7527182,4.67383689 64.7519015,3.05037208 C64.7519015,2.81524667 64.7220928,2.56997197 64.7747684,2.34668741 C64.824994,2.13608948 64.9274868,1.84091406 65.0789802,1.78255559 C65.2194485,1.728426 65.502835,1.89039189 65.6404449,2.03924826 C66.5824805,3.0596756 67.4996076,4.10463042 68.4314348,5.13562995 C69.2007435,5.98690233 69.9790356,6.83013984 70.8708457,7.63616327 C70.7720279,5.73443854 71.4131185,3.79465394 70.3122394,1.70136121" id="Fill-54" fill="#000000"></path>
                    <path d="M76.2786192,5.78666493 L76.2998276,5.78666493 C76.2998276,6.68101267 76.25541,7.57918968 76.3226366,8.46758077 C76.3482468,8.80668408 76.5519276,9.28959782 76.8064286,9.42319686 C78.0865366,10.0958723 80.1629605,9.16280637 80.695972,7.74682669 C81.759594,4.92124946 79.8296282,2.19310593 76.9684929,2.45604927 C76.4606914,2.50285149 76.2726168,2.75600891 76.2770185,3.26147281 C76.2838212,4.10306169 76.2786192,4.94465057 76.2786192,5.78666493 M74.7556149,10.0065226 C74.8812647,9.32533769 75.0393274,8.83178708 75.0517324,8.3344072 C75.0873465,6.88821883 75.1029527,5.43862665 75.0461301,3.99414018 C75.0237212,3.42272771 74.7576157,2.8670578 74.6695807,2.292667 C74.6407693,2.10375626 74.8332457,1.69274773 74.9100761,1.69700248 C76.5295187,1.77869361 78.1969804,1.68296181 79.7523976,2.07907872 C81.7667969,2.59177569 82.7755972,5.09441765 82.0877242,7.1975389 C81.5423078,8.86412315 80.6151399,10.0601324 78.8112241,10.1214008 C77.5879387,10.1630973 76.363853,10.1801163 75.1401674,10.1818182 C74.9713004,10.1818182 74.8020333,10.0290728 74.7556149,10.0065226" id="Fill-56" fill="#000000"></path>
                    <path d="M96.3782835,27.1559428 C96.5851115,27.0025373 96.7825737,26.8286488 97.0022797,26.7031352 C97.1505714,26.6185879 97.3304727,26.6024629 97.4963254,26.5558311 C97.5170082,26.7776589 97.629788,27.1215137 97.5439348,27.2021387 C96.9437434,27.7660781 96.3525276,28.3892878 95.6590685,28.7662643 C95.1014134,29.0695887 94.6506845,28.4873453 94.7693179,27.7774092 C94.8032689,27.5747571 94.8352687,27.372105 94.9078536,26.9245272 C94.6007336,27.203882 94.4528321,27.3437773 94.2998574,27.4766997 C93.8631772,27.8558552 93.4620089,28.3213013 92.9734266,28.5788656 C92.6510871,28.7488319 92.1098222,28.7741089 91.8401653,28.5732 C91.6364593,28.4215378 91.590801,27.7743585 91.6793858,27.4100206 C91.8803602,26.5828514 92.2132362,25.7966484 92.4809418,24.9890907 C92.5777217,24.6975331 92.6405506,24.3915938 92.7283549,24.0573268 C92.578112,24.0359721 92.5113807,24.0133099 92.4469908,24.0202829 C92.1843583,24.0490464 91.9225063,24.086962 91.6598738,24.1218268 C91.7609463,23.8206815 91.7898242,23.434553 91.9775303,23.2353873 C92.3759669,22.8126507 92.827086,22.4208566 93.3160586,22.1489106 C93.5677644,22.0090153 94.0130299,22.0399579 94.2448333,22.2090525 C94.4044421,22.3258499 94.4485394,22.8462081 94.3704911,23.1259988 C94.0641515,24.2290363 93.6860075,25.3072327 93.3422048,26.3971959 C93.2856198,26.5754426 93.2672784,26.7689426 93.2313762,26.9554697 C93.3066928,27.0108177 93.3823997,27.0661657 93.4577163,27.1215137 C94.0516638,26.4102702 94.6943915,25.7408646 95.2247297,24.9751447 C95.6938,24.2983303 96.0305784,23.5086408 96.438771,22.7786574 C96.6397453,22.4191134 96.8750609,21.8909105 97.3054973,22.2535052 C97.5107643,22.4260864 97.5833492,23.0397082 97.4869596,23.3700529 C97.1252057,24.6090635 96.6690134,25.8140808 96.2479429,27.0317367 C96.2912597,27.0731387 96.3349667,27.1145407 96.3782835,27.1559428" id="Fill-58" fill="#000000"></path>
                    <path d="M146.328111,23.5529628 C146.041335,23.6924121 145.911912,23.8062305 145.781702,23.8066649 C145.590125,23.8075338 145.397761,23.7280347 145.205396,23.6828548 C145.264404,23.4682506 145.26283,23.1667621 145.393827,23.0542469 C145.793897,22.7114884 146.220324,22.3782871 146.681763,22.1589042 C147.323764,21.8539404 147.778908,22.2870586 147.713213,23.064673 C147.699838,23.2188927 147.680955,23.3722435 147.658139,23.5937984 C148.256868,23.1267953 148.760792,22.6163501 149.352046,22.315296 C149.747396,22.1141588 150.397265,22.0046846 150.694269,22.2331903 C150.970817,22.4464913 151.095913,23.20586 150.996387,23.6446257 C150.769405,24.649877 150.365401,25.6069076 150.031025,26.5826182 C149.974378,26.7481328 149.908683,26.9097376 149.789882,27.2246932 C150.060923,27.1004487 150.197033,27.0179086 150.342978,26.9762041 C150.511346,26.9288522 150.688368,26.9171228 150.861457,26.8897542 C150.862244,27.1130469 150.946034,27.4618873 150.850049,27.5392144 C150.27689,28.0023077 149.706485,28.5740063 149.049928,28.7812254 C148.227364,29.0410094 147.928393,28.5253511 148.252934,27.6291396 C148.66756,26.4835701 149.109723,25.3497301 149.517267,24.2011197 C149.613646,23.9300406 149.617973,23.6198637 149.579815,23.286228 C148.468508,24.0277855 147.715573,25.0825608 147.095208,26.2685315 C146.754539,26.9205982 146.462255,27.6087218 146.071232,28.2208217 C145.910339,28.4732206 145.548033,28.5692277 145.276992,28.7360456 C145.214051,28.4102294 145.034275,28.0461842 145.108624,27.7651135 C145.424117,26.581315 145.817107,25.4231473 146.176659,24.2536847 C146.228192,24.0851291 146.252975,23.9065819 146.328111,23.5529628" id="Fill-60" fill="#000000"></path>
                    <path d="M101.47001,23.6526281 L100.266785,23.6526281 C100.480949,23.3043452 100.679116,22.944672 100.918162,22.6139128 C101.006137,22.4929995 101.181645,22.3953051 101.333159,22.3650768 C101.816581,22.2691347 102.365763,22.0487746 102.774095,22.1933449 C103.038467,22.2870965 103.101116,22.9341578 103.292619,23.4335823 C103.420584,23.3459639 103.651187,23.2000794 103.868905,23.0371093 C104.261685,22.7427118 104.606035,22.3168867 105.046803,22.1731926 C105.494679,22.0277462 106.121618,22.0040893 106.504179,22.2170018 C106.782769,22.3716482 106.979159,23.044995 106.885407,23.4042301 C106.605929,24.4714213 106.166939,25.4974319 105.786155,26.5383376 C105.714619,26.7341646 105.622644,26.9221059 105.539112,27.1161805 C105.635529,27.1582373 105.688404,27.2033607 105.73017,27.1954751 C106.072298,27.1297613 106.413093,27.0539715 106.753888,26.9812483 C106.573493,27.3295311 106.471299,27.7649942 106.194487,28.0046303 C105.795485,28.3502846 105.299178,28.6740343 104.793095,28.7927571 C103.79026,29.0284504 103.4037,28.4983596 103.77382,27.5459484 C104.283457,26.2356163 104.781098,24.9204652 105.277406,23.6053142 C105.320505,23.4914104 105.31384,23.3595448 105.359161,23.0195857 C104.974378,23.2837549 104.732223,23.42263 104.522058,23.5987428 C103.018028,24.8600086 102.269345,26.6456701 101.21408,28.2201714 C101.041683,28.4777692 100.717772,28.6372346 100.46362,28.8418234 C100.344098,28.5211403 100.058843,28.1548957 100.133489,27.8867836 C100.431629,26.8226591 100.851513,25.7918295 101.205194,24.7421619 C101.327827,24.3776697 101.388699,23.9934634 101.47001,23.6526281" id="Fill-62" fill="#000000"></path>
                    <path d="M85.9932735,4.44216716 C85.9222909,4.4409263 85.8517334,4.43927182 85.7807508,4.43803096 C85.6676888,4.7639637 85.5269988,5.08410576 85.4513407,5.41789729 C85.3952348,5.66524218 85.4245629,5.93078637 85.416062,6.18805815 C85.7713998,6.18681729 86.1267377,6.18599005 86.4825006,6.18516281 C86.4633736,5.92334121 86.4893013,5.64869737 86.4149184,5.40259334 C86.3146077,5.07086991 86.1373638,4.76106836 85.9932735,4.44216716 M82.3030303,9.68687168 C83.3915713,9.16529657 83.3813702,8.05679435 83.7473342,7.16668362 C84.3793765,5.62760274 84.9102581,4.04881432 85.5023462,2.49360226 C85.5882053,2.26817923 85.7782006,2.08039565 86.0430038,1.6969697 C86.3235337,2.15691539 86.5734603,2.46630332 86.7158505,2.81705328 C87.4367273,4.59603389 88.1014981,6.39693637 88.8491528,8.16474923 C89.095254,8.7467129 89.5305004,9.25257044 89.9393939,9.88706387 C89.5904318,10.3159881 88.9537139,10.1952109 88.4190069,10.0330718 C88.1525036,9.95200225 87.9531573,9.52225083 87.8145925,9.21203566 C87.5854931,8.69956019 87.4575545,8.14489546 87.236956,7.62869742 C86.9751281,7.01529861 86.3974916,7.0231574 85.8309062,7.0272936 C85.3106508,7.03101618 84.7729685,7.04756099 84.6382291,7.65640997 C84.496689,8.30083029 84.4520593,8.96469076 84.3491983,9.6177971 C84.3283711,9.75015558 84.242937,9.97888756 84.1783301,9.9817829 C83.5658399,10.0094955 82.9512244,9.99874133 82.337459,9.99874133 C82.3259827,9.89450904 82.3145065,9.79069036 82.3030303,9.68687168" id="Fill-66" fill="#000000"></path>
                    <path d="M141.884804,23.8382547 C141.750243,23.6011009 141.631328,23.1563847 141.455637,23.1356707 C141.169973,23.101852 140.717112,23.2646046 140.565116,23.4861172 C140.088115,24.1798238 139.666994,24.9187629 139.327237,25.6813751 C139.108183,26.1738602 139.024585,26.7348283 138.974963,27.2729687 C138.956187,27.4784174 139.155123,27.7717948 139.347354,27.8969241 C139.449729,27.9628706 139.792168,27.7992726 139.956682,27.6639977 C141.156115,26.6735318 141.402886,25.2573728 141.884804,23.8382547 M137.454549,26.3095578 C137.551112,24.9682227 138.413469,23.5338862 139.975458,22.5134062 C140.794005,21.9786477 141.750243,21.890719 142.639423,22.3941952 C143.321173,22.7805741 143.569732,23.9473201 143.266186,24.8984716 C142.895582,26.0605675 142.403828,27.159676 141.404227,27.9789345 C141.15522,28.1826923 140.887438,28.3779954 140.598197,28.5242614 C138.93294,29.3680385 137.451867,28.542439 137.454549,26.3095578" id="Fill-68" fill="#000000"></path>
                    <path d="M84.6610066,27.1047315 C84.753166,27.3323991 84.884247,27.6558148 85.0153281,27.979656 C85.3396754,27.8102883 85.8259727,27.7175191 85.959738,27.4592121 C86.5511685,26.3195974 87.0732559,25.1438113 87.5394212,23.9522799 C87.6262121,23.7292933 87.3434707,23.3748127 87.2311794,23.0811853 C86.9193586,23.205445 86.5091152,23.2497019 86.3127173,23.4680075 C85.4103607,24.4697449 84.9607483,25.6778727 84.6610066,27.1047315 M89.0842092,24.1339884 C89.0426033,26.3881105 87.3000753,28.4647795 85.387992,28.7962806 C83.7376234,29.0818225 83.1180081,28.1673222 83.1529034,26.7540808 C83.1949567,25.0484888 84.1715777,23.7280166 85.4850725,22.6467019 C86.2603744,22.008807 87.2249162,21.9015692 88.1380098,22.2764761 C88.9808654,22.6228713 89.1271572,23.4109842 89.0842092,24.1339884" id="Fill-70" fill="#000000"></path>
                    <path d="M29.960001,5.66826707 C28.7798209,6.76291221 28.7798209,6.76291221 28.3270074,5.86685492 C27.9338793,6.11810472 27.5399554,6.36332453 27.1535916,6.62020232 C27.0314354,6.70140626 26.9243995,6.80874018 26.819751,6.91406409 C26.2606974,7.47605965 26.3776809,8.08227517 27.1305132,8.34076097 C27.7858594,8.56588079 28.4213104,8.43563289 28.9099352,7.93715329 C29.4669993,7.36872573 30.0021788,6.76009821 29.960001,5.66826707 M29.5020148,4.77622978 C30.0360005,4.97682762 30.5592429,5.18787745 31.0940244,5.36435531 C31.2301072,5.40897728 31.4628804,5.40535928 31.5452464,5.31973335 C31.8058728,5.04878556 32.1162371,4.94145165 32.2244667,5.33018534 C32.2976808,5.59309313 32.136928,6.10363273 31.9252437,6.22383064 C31.5949842,6.41196649 31.1330189,6.36292253 30.6893571,6.41920248 C30.5186568,6.80230818 30.3459669,7.26380382 30.1151832,7.69354148 C29.5426009,8.76085064 28.6910886,9.33852418 27.4345111,9.33329818 C25.6141051,9.32566019 25.1075747,7.78117741 25.6753822,6.3991025 C26.0537879,5.47731723 26.7353956,4.64718788 28.0182347,4.90728167 C28.5577911,5.01662559 29.3456389,4.02408837 29.4829154,3.24863098 C29.5266847,3.00260718 29.6615738,2.76422136 29.8016357,2.55357353 C29.8255098,2.51779556 30.1860099,2.60663749 30.214261,2.69547942 C30.2986164,2.95878921 30.4040607,3.30249894 30.3025955,3.52038277 C30.078974,4.00157639 29.7339922,4.42488206 29.5020148,4.77622978" id="Fill-72" fill="#000000"></path>
                    <path d="M51.1427152,6.60831738 C50.9024885,6.43725474 50.7223186,6.23945029 50.5060361,6.1668654 C49.5506249,5.84723719 49.1541724,6.18129748 49.1522098,7.26667509 C49.1514247,7.52942391 49.1502472,7.79217273 49.1557425,8.05492155 C49.1840045,9.46586998 49.9576756,9.93703507 51.0854062,9.22858955 C51.2486975,9.12629154 51.4033532,9.00913698 51.5646819,8.89750056 C51.9128535,9.59151401 51.7852822,10.1454513 51.2176879,10.1683729 C50.1068359,10.214216 48.9912736,10.1314437 47.877674,10.0902698 C47.7968134,10.0872985 47.7187005,9.98882079 47.740682,10.0041018 C47.8246828,9.2387769 47.9479364,8.55877106 47.96403,7.87579392 C47.9966097,6.48437125 48.0013201,5.08997726 47.9542168,3.69897906 C47.9385157,3.23333212 47.7826824,2.74943283 47.5985872,2.3198661 C47.3642484,1.77356928 47.6629616,1.70522912 48.0068154,1.70183334 C49.0195356,1.69164598 50.0330408,1.69419282 51.0445834,1.7417338 C51.2353516,1.75064774 51.5450555,1.96373321 51.5733175,2.12842876 C51.6200282,2.40009151 51.4822512,2.70868342 51.4221945,3.00156983 C51.2251459,2.90733681 51.0351627,2.76386492 50.829086,2.72820918 C50.3659039,2.64713483 49.8830954,2.54144104 49.4332593,2.61784619 C49.2978374,2.64076773 49.2354256,3.22696502 49.1577052,3.56017637 C49.1290507,3.68369803 49.1506397,3.82165177 49.1514247,3.95323842 C49.1612379,5.23302468 49.184397,5.2563707 50.3976986,5.2058584 C51.4661576,5.16128873 51.6412247,5.46733381 51.1427152,6.60831738" id="Fill-74" fill="#000000"></path>
                    <path d="M128.291429,26.9714438 C128.4991,26.8203378 128.693005,26.6362931 128.919949,26.5296542 C129.088288,26.4501897 129.299892,26.4707764 129.492224,26.4473076 C129.490651,26.6391752 129.566954,26.9253297 129.475311,27.0080881 C128.80392,27.6158061 128.151015,28.2807551 127.386802,28.7316028 C126.781881,29.0889872 126.281583,28.5804968 126.461328,27.8340247 C126.715804,26.7754589 127.047763,25.7362445 127.371462,24.6978536 C127.51227,24.2445355 127.709714,23.8636824 127.084735,23.5861743 C126.711478,23.4210693 126.809413,22.8644061 127.233015,22.8240563 C127.964583,22.7536499 128.246198,22.2299254 128.591923,21.6959076 C128.73155,21.4801595 129.020638,21.3702267 129.241682,21.2121212 C129.34709,21.4702779 129.573641,21.7514916 129.533522,21.9820621 C129.428114,22.5926623 129.653877,22.7540617 130.181314,22.7709427 C130.346507,22.7762953 130.505014,22.989573 130.666667,23.1077404 C130.518386,23.2831387 130.353194,23.6224068 130.224186,23.6079961 C128.773635,23.446185 128.725257,24.6406227 128.429483,25.5900793 C128.300476,26.0034593 128.210013,26.4300148 128.102244,26.850806 C128.165175,26.8907441 128.228499,26.931094 128.291429,26.9714438" id="Fill-76" fill="#000000"></path>
                    <path d="M54.4517335,10.046288 C54.5533654,9.36924217 54.6968714,8.81315842 54.7090847,8.25451011 C54.7435436,6.69739012 54.7448522,5.13856042 54.7108294,3.58144044 C54.7021057,3.18136789 54.5158532,2.78514219 54.4050613,2.38848906 C54.3841242,2.31454403 54.2859818,2.22905844 54.3056103,2.18204137 C54.37889,2.00551363 54.4840114,1.69862037 54.5804091,1.69776551 C55.2111377,1.68964438 55.8431749,1.74478258 56.470414,1.81274363 C56.4852444,1.81445334 56.4861168,2.2192276 56.4394446,2.42439301 C56.3251632,2.92619341 56.0778443,3.4185904 56.065631,3.91910851 C56.0329169,5.29029734 56.095728,6.66319589 56.1175375,8.035667 C56.1275698,8.66526836 56.1781677,9.32949137 56.9057301,9.52482594 C57.6346012,9.72058794 58.3617275,9.63382007 58.8341196,8.91103942 C58.8738128,8.85077208 58.9597419,8.81914241 59.0225531,8.77511734 C59.5734592,9.30170856 59.5049776,10.1193782 58.860291,10.1539999 C57.4221774,10.2317918 55.9731591,10.1257896 54.5289388,10.0868937 C54.4591487,10.0847565 54.3911033,10.0108115 54.4517335,10.046288" id="Fill-78" fill="#000000"></path>
                    <path d="M23.4226455,8.56135718 C24.0651223,9.48720976 23.7532926,10.1813886 22.7438781,10.1818098 C21.6121511,10.1826523 20.4777358,10.1198897 19.3504891,10.0255353 C19.1650042,10.00995 18.8581028,9.68771286 18.861239,9.51121958 C18.890809,7.82674076 19.0216342,6.14310439 19.0220822,4.45946802 C19.0220822,3.73369732 18.7662563,3.01003275 18.6685855,2.28047103 C18.6484241,2.1300937 18.7913461,1.83439374 18.8997697,1.81585984 C19.6184118,1.69201969 20.3549753,1.57660404 21.023886,1.9548641 C19.8249543,4.07952306 20.5135784,6.27115679 20.4813201,8.39876433 C20.4763918,8.71721044 20.9266632,9.25174498 21.2519339,9.31914098 C21.8755935,9.44845706 22.6484474,9.64179934 23.1220165,8.91602864 C23.1910133,8.81072239 23.286444,8.72015901 23.4226455,8.56135718" id="Fill-80" fill="#000000"></path>
                    <path d="M12.7272727,1.9106153 C13.246115,1.60385656 14.4075475,1.60723217 15.0852374,2.05323491 C14.2711996,2.79924517 14.4804465,3.76424826 14.4718966,4.68579035 C14.4619967,5.75585936 14.4619967,6.82635033 14.4772965,7.89641935 C14.4858464,8.47407096 14.4822464,9.16986899 15.2022356,9.32388129 C15.9222249,9.47789359 16.781262,9.64583029 17.2609548,8.77956385 C17.3041541,8.70150282 17.4274523,8.66226133 17.514301,8.60445397 C18.0992922,9.40363012 17.8135465,10.1597672 16.8816105,10.1779111 C15.6900283,10.2011185 14.4939463,10.1167282 13.3028141,10.0361354 C12.8955702,10.0082866 12.6332241,9.83148895 12.9027701,9.34666667 C13.0598177,9.06269331 13.0863673,8.69390769 13.0922173,8.36183186 C13.1174169,6.8744528 13.1493664,5.38538594 13.1034671,3.89927274 C13.0845674,3.28026989 12.8766705,2.66590849 12.7272727,1.9106153" id="Fill-82" fill="#000000"></path>
                    <path d="M62.7878788,9.98773827 C62.0214711,10.3384855 61.0822606,10.1372164 60.3173469,9.97931697 C60.418439,9.04876315 60.5593704,8.22894944 60.5857639,7.40703041 C60.6275951,6.08109648 60.6071775,4.75305722 60.5827759,3.42670223 C60.577298,3.09742934 60.5289929,2.74205041 60.3721259,2.44730486 C60.0499259,1.84349754 60.3541982,1.68770346 60.9956102,1.69738795 C61.2107422,1.70033541 61.4258742,1.71507269 61.6410062,1.71886227 C62.7814049,1.74075766 62.7953486,1.78033777 62.3625947,2.67173254 C62.2276392,2.94921443 62.1982578,3.27806626 62.1967638,3.58418057 C62.187302,5.17075378 62.1648924,6.75901126 62.2321212,8.34432127 C62.2520408,8.82349333 62.5438633,9.29466516 62.7878788,9.98773827" id="Fill-84" fill="#000000"></path>
                    <path d="M133.309769,27.3772363 C133.687383,27.0965262 133.870507,26.9210823 134.085204,26.8140616 C134.245595,26.7342347 134.4464,26.7430069 134.629523,26.7123042 C134.64552,26.9166962 134.752448,27.2017925 134.662359,27.3123221 C134.033003,28.0855907 133.326608,28.7829799 132.283013,28.8448238 C131.553465,28.8878076 131.358554,28.5522713 131.635555,27.8390921 C132.043058,26.7899381 132.454771,25.7420999 132.85638,24.6903141 C132.939733,24.4723252 132.988987,24.2407393 133.047082,24.0407334 C132.694305,23.9604678 132.403412,23.8946764 132.112098,23.8284464 C132.304483,23.5082614 132.440037,23.1174603 132.703146,22.88412 C133.073182,22.55604 133.518994,22.2924357 133.972383,22.105588 C134.195078,22.0143572 134.5849,22.0661132 134.754132,22.2226968 C134.903157,22.3608588 134.949885,22.7718359 134.871583,22.9994743 C134.434612,24.2705648 133.94544,25.5223565 133.476475,26.7816045 C133.433536,26.8965202 133.408698,27.0193309 133.309769,27.3772363" id="Fill-86" fill="#000000"></path>
                    <path d="M9.75124248,1.70061271 C10.0284971,1.71553974 10.3642,1.65412569 10.5670205,1.76629163 C10.7718392,1.88016351 10.9826527,2.18168944 10.9531787,2.37488781 C10.8327853,3.16687318 10.5305528,3.944358 10.4666094,4.73719634 C10.3791867,5.81492763 10.4091602,6.90332109 10.4686076,7.98403779 C10.4950842,8.46767344 10.6029887,8.99609017 10.8732495,9.40892906 C11.2354289,9.96250849 10.9232053,10.0669977 10.4246465,10.1326766 C10.0904423,10.1770312 9.7462469,10.1787371 9.40654755,10.1817225 C8.65920896,10.1872669 8.51483673,9.95227282 8.78759533,9.34580907 C8.94895253,8.98628098 9.07034509,8.59007505 9.07833802,8.20836967 C9.10981017,6.78262542 9.12679513,5.35432225 9.06335128,3.92985746 C9.0418703,3.43513316 8.8390498,2.92249643 8.59576511,2.46615592 C8.35148131,2.00725648 8.51983231,1.81619054 9.01089771,1.73473163 C9.24868726,1.69506839 9.50346178,1.72748136 9.75074293,1.72748136 C9.75074293,1.71852514 9.75124248,1.70956893 9.75124248,1.70061271" id="Fill-88" fill="#000000"></path>
                    <path d="M135.757576,19.5041937 C135.292635,19.9322411 134.968985,20.421375 134.781728,20.3580753 C134.484829,20.2575926 134.132921,19.8211347 134.071506,19.4634694 C133.998035,19.0345367 134.3036,18.565765 134.758368,18.6857245 C135.051499,18.7636318 135.293765,19.1089027 135.757576,19.5041937" id="Fill-90" fill="#000000"></path>
                </g>
            </g>
        </g>
    </g>
</svg>