<?xml version="1.0" encoding="UTF-8"?>
<svg width="128px" height="56px" viewBox="0 0 128 56" version="1.1" xmlns="http://www.w3.org/2000/svg" xmlns:xlink="http://www.w3.org/1999/xlink">
    <!-- Generator: Sketch 52.5 (67469) - http://www.bohemiancoding.com/sketch -->
    <title>Core 77</title>
    <desc>Created with Sketch.</desc>
    <defs>
        <polygon id="path-1" points="0.0416756364 0.184589474 23.1370647 0.184589474 23.1370647 16 0.0416756364 16"></polygon>
    </defs>
    <g id="3.0.0---Front-End" stroke="none" stroke-width="1" fill="none" fill-rule="evenodd">
        <g id="Desktop---Landing-Page-NEW" transform="translate(-625.000000, -3577.000000)">
            <g id="Featured-In" transform="translate(120.000000, 3444.000000)">
                <g id="Core-77" transform="translate(505.000000, 133.000000)">
                    <path d="M35.8189572,48.9484971 L41.2484155,48.9484971 C40.341151,46.7945713 39.5062449,44.8136686 38.5047858,42.4365008 C37.5504239,44.7507894 36.7797414,46.6190162 35.8189572,48.9484971 M47.9328019,39.026259 C48.7805527,39.1258527 49.6313005,39.3292603 50.4747697,39.3030958 C52.1047632,39.252033 53.7304752,38.967178 55.3578998,38.968866 C58.0711304,38.97182 59.8698178,40.4948448 60.036799,42.7437222 C60.2131996,45.1175139 58.8837723,46.6304104 56.1020366,47.2296609 C55.944903,47.2634215 55.7984733,47.345291 55.3621813,47.516204 C57.5102448,49.7203487 58.1323568,53.0613813 61.6,53.9619451 C58.9030394,56.0204972 53.8225289,50.3563138 52.3809245,46.6890695 C53.1284865,46.5907417 53.8135376,46.437131 54.5015859,46.4227828 C56.1992282,46.3877562 57.156159,45.4471017 57.5920228,43.9603696 C58.0201797,42.4993799 57.4892651,41.2662743 56.2818625,40.3779487 C54.981978,39.4216799 53.5613532,39.5765566 52.2370637,40.3070515 C51.9275063,40.4783865 51.7472522,41.1232138 51.7451114,41.5511293 C51.7296978,44.9719213 51.7425425,48.3931354 51.8277457,51.8122394 C51.8397341,52.3123181 52.1754091,52.9081926 52.5513309,53.2652109 C52.9216867,53.617587 53.533523,53.7230889 53.9792344,54.3113672 L41.3447509,54.3113672 C41.3160643,54.2062874 41.2873778,54.1012075 41.2586913,53.9965497 C41.8405566,53.7598035 42.4224219,53.5234794 43.1644179,53.2217441 C42.6686122,52.1730557 42.1753753,51.1294314 41.7587786,50.2474359 C40.2576603,50.2474359 38.8909834,50.2609401 37.5247345,50.2444819 C34.9660686,50.2140973 34.76826,50.3900744 34.3683615,53.2301842 C34.8697332,53.4833887 35.3895158,53.7454553 35.9088702,54.0075219 C35.8874623,54.1163998 35.8651982,54.2252777 35.8437903,54.3337336 L31.2,54.3337336 C32.0567421,53.4369679 33.2067716,52.6668044 33.6871637,51.6029237 C34.1328751,50.6166924 33.8618518,49.3169096 33.9098054,48.0610155 C33.968891,48.0821159 34.4355821,48.2475428 35.0183037,48.4539044 C36.3605758,45.2601524 37.7054167,42.0604922 39.2437847,38.4 C39.7567167,39.2997198 40.068415,39.7348094 40.2687924,40.2154759 C41.6624433,43.5628386 43.0351145,46.9186415 44.4090702,50.2744444 C44.5593533,50.6407468 44.806828,51.0264616 44.7879891,51.39192 C44.686944,53.3390622 45.9384468,53.5872025 47.4661108,53.5977527 C49.8243993,53.613367 50.1065547,53.1310125 49.9044647,50.8576586 C49.6805386,48.3357424 49.575212,45.7589651 49.8500887,43.2522411 C50.0573167,41.3599599 50.2970846,39.8512835 47.5303344,39.6136933 C47.6647756,39.4178819 47.7987888,39.2220704 47.9328019,39.026259" id="Fill-1" fill="#000000"></path>
                    <g id="Group-5" transform="translate(11.200000, 39.200000)">
                        <mask id="mask-2" fill="white">
                            <use xlink:href="#path-1"></use>
                        </mask>
                        <g id="Clip-4"></g>
                        <path d="M0.0416756364,0.184589474 L6.221312,0.184589474 C6.24830836,0.274694737 6.27530473,0.365221053 6.30230109,0.455747368 C5.692352,0.727747368 5.08198109,0.999326316 4.53150836,1.2448 C5.23721018,3.00016842 5.91254109,4.65532632 6.56804655,6.31806316 C7.20203927,7.92648421 7.81578473,9.54290526 8.43881018,11.1555368 C8.60121018,11.1685895 8.76445382,11.1816421 8.92685382,11.1946947 C9.59796655,8.7968 10.5031884,6.43258947 10.8629993,3.98922105 C11.1342284,2.14585263 10.2623302,0.569852632 7.69556655,0.704168421 C7.79131927,0.547115789 7.88665018,0.390063158 7.98198109,0.232589474 L13.9975302,0.232589474 C14.030432,0.309221053 14.062912,0.386273684 14.095392,0.462905263 C13.5326865,0.7008 12.9695593,0.939115789 12.4566284,1.15595789 C13.7769193,4.58332632 15.0668393,7.93069474 16.517472,11.6953263 C17.1742429,9.69995789 17.7259811,8.04858947 18.2595811,6.39132632 C18.5535884,5.47890526 18.8159593,4.5568 19.0947811,3.63974737 C19.4891811,2.34248421 20.6112175,0.8368 17.5116975,0.550063158 C17.7230284,0.430905263 17.9347811,0.311747368 18.1465338,0.193010526 L22.8160611,0.193010526 C22.9232029,0.338694737 23.0303447,0.484378947 23.1370647,0.630063158 C20.5319156,0.643536842 20.4066356,2.57322105 19.8835811,4.18206316 C18.8547665,7.34585263 17.8512611,10.5184842 16.8199156,13.6818526 C16.6170211,14.3050105 16.336512,14.9024842 16.0918575,15.5113263 C15.9066793,15.5458526 15.7215011,15.5803789 15.5363229,15.6153263 C14.3067229,12.4818526 13.0767011,9.34795789 11.6429411,5.69406316 C10.4082793,9.25658947 9.32420655,12.3837474 8.07098473,16.0001684 C7.53274473,15.1012211 7.15648291,14.6536421 6.97257018,14.1374316 C5.53543564,10.1088 4.221472,6.03343158 2.64977745,2.05869474 C2.34564655,1.28985263 1.080192,0.899115789 0.0416756364,0.184589474" id="Fill-3" fill="#000000" mask="url(#mask-2)"></path>
                    </g>
                    <path d="M116.629713,15.7198479 C119.561427,11.3221842 122.336208,7.1596293 125.252402,2.78452214 C122.892803,2.48347868 120.870782,2.17419339 118.837121,2.01803252 C118.510752,1.99287327 118.063666,2.60450336 117.797225,3.00531627 C117.526472,3.41393722 117.409204,3.92666542 117.224678,4.39341293 C117.064727,4.3721577 116.904777,4.35133625 116.744395,4.3305148 C116.832346,3.25777635 116.919866,2.18460412 117.007387,1.11186567 C116.825448,1.06241472 116.643509,1.01339756 116.46157,0.963946617 C116.128735,1.53306625 115.777791,2.09220893 115.466512,2.67260685 C113.355247,6.61133112 111.173706,10.515353 109.185314,14.5165416 C108.400649,16.0959353 107.362478,16.1536281 105.6,15.764961 C108.521798,11.3820458 111.328052,7.17220892 114.265371,2.76543581 C111.931209,2.4852138 109.811321,2.18156766 107.681086,2.02887702 C107.377567,2.00718801 106.964541,2.68041489 106.708447,3.09771145 C106.468736,3.48854742 106.370006,3.96613942 106.209624,4.40555877 C106.069074,4.37692928 105.928524,4.347866 105.788406,4.31880273 C105.845316,3.03611466 105.902225,1.75342659 105.978536,0.0356569767 C109.92859,0.195288092 114.041613,0.439072568 118.157222,0.494162654 C120.034813,0.519321906 121.915421,0.0525744047 123.798185,0.0165706476 C127.861196,-0.0615097894 127.863783,-0.00555214288 125.998264,3.51414045 C124.041345,7.20691134 122.02148,10.8671487 120.151219,14.6037314 C119.411823,16.0811868 118.434873,16.2625069 116.629713,15.7198479" id="Fill-6" fill="#000000"></path>
                    <path d="M82.2703175,7.64405801 C83.0134813,7.64405801 83.7614482,7.63970434 84.5085418,7.64492874 C86.0538161,7.6558129 87.1209679,6.94050583 87.4628582,5.44458671 C87.8174111,3.8929407 87.7685072,2.11142119 86.1428909,1.49015327 C84.9290276,1.02648801 83.3649777,1.44226296 81.9629219,1.54805701 C81.8039844,1.55981191 81.5411262,2.11664559 81.5712544,2.39440938 C81.752024,4.05925068 82.0048394,5.71625538 82.2703175,7.64405801 M77.7174566,0.0808720837 C78.5972892,0.175781969 79.4806149,0.37300297 80.3560811,0.343398051 C82.1319021,0.284188215 83.9081597,-0.0501732169 85.6756845,0.00642442124 C88.1680342,0.0860964811 89.9434185,1.78097806 90.1014828,3.91775658 C90.2447012,5.85078361 89.3727281,7.32275757 87.5899209,8.09945131 C87.0109342,8.35196385 86.4040025,8.53917142 85.4171928,8.89965484 C87.505649,11.3189862 88.3182389,14.5228479 92,15.6791812 C90.1342309,16.4328005 88.8871828,15.7187995 87.8021286,14.9747582 C86.7157646,14.2298463 85.7691258,13.2411291 84.8949695,12.2428338 C83.9810789,11.1996958 83.2265624,10.0176759 82.2895297,8.74335829 C82.0170654,10.5483876 81.7236423,12.1631617 81.5712544,13.7914322 C81.5419995,14.1057668 82.0048394,14.5650784 82.3502229,14.7910336 C82.8139361,15.094484 83.3841899,15.2359781 83.8671154,15.7958594 L77.709597,15.7958594 C77.709597,15.7118336 77.6855817,15.5115651 77.7130901,15.5045992 C79.8639862,14.9403643 79.936032,13.6355711 79.6661876,11.6220012 C79.3151278,9.00022449 79.4924043,6.2648171 79.7897571,3.61691837 C79.9561175,2.13754318 79.9181297,1.24417123 78.2855272,0.973373301 C78.0401346,0.932448855 77.8279269,0.692997309 77.6,0.545408083 C77.6392977,0.390417628 77.6781588,0.235427173 77.7174566,0.0808720837" id="Fill-8" fill="#000000"></path>
                    <path d="M74.8636339,8.13484059 C74.7182688,8.06695316 74.5729036,7.99906574 74.4275385,7.93117831 C74.4366757,5.84732954 73.5478717,3.44470504 72.3056228,2.19490177 C70.4906353,0.368687883 68.2968677,0.439105274 66.6197693,2.37748099 C64.1830343,5.19417662 64.1651752,10.5307185 66.5828051,13.3840987 C68.2835772,15.3920484 70.7435706,15.596554 72.319744,13.4810807 C73.4726972,11.9331631 74.0367139,9.93322485 74.8636339,8.13484059 M69.7600716,0.000156150049 C73.9993343,0.0225041842 76.8713341,3.32326667 76.7986515,8.09014452 C76.7280456,12.7326324 73.5993725,16.0839942 69.4157639,15.998397 C65.073915,15.9102698 62.3601555,12.6841414 62.4004424,7.65836363 C62.439068,2.825285 65.1777472,-0.0243001892 69.7600716,0.000156150049" id="Fill-10" fill="#000000"></path>
                    <path d="M12.8103082,27.1982364 C12.7498944,27.182753 12.6890491,27.1672697 12.6286353,27.1517864 C12.5932501,26.5204107 12.6040383,25.8825836 12.5142807,25.2589496 C11.9990376,21.6801506 9.42109574,19.7068866 5.94946166,20.2586952 C4.7782976,20.4449252 4.13661707,20.7988913 4.27211652,22.4022758 C4.54570459,25.6357106 4.47277654,28.918606 4.26391751,32.1632232 C4.1836535,33.4165125 4.6276947,33.8737008 5.57834851,34.1575618 C8.09285588,34.9089332 10.9012331,33.6414509 11.8674219,31.1821824 C12.3615202,29.9241621 12.5073763,28.5306627 12.8103082,27.1982364 M0.315446179,19.4148539 C1.26912068,19.4720562 2.22711044,19.6096857 3.17646967,19.5675367 C4.60007698,19.503883 6.02843109,19.1318531 7.43650343,19.2109901 C13.0925268,19.5279682 15.9462143,23.2577296 15.0318088,28.9732278 C14.3172002,33.4375871 10.8559228,35.6891209 5.79540655,35.1106466 C4.26089682,34.9351689 2.69057035,35.0775295 1.13707344,35.0517239 C0.886787823,35.0478531 0.638228316,34.9261369 0,34.7536699 C0.746541574,34.4220686 1.12714832,34.237559 1.51940629,34.0814354 C2.39411136,33.7343508 2.56024922,33.2040469 2.516665,32.2109635 C2.37296654,28.899682 2.37382959,25.5742074 2.51234973,22.2620657 C2.55334479,21.277154 2.40187884,20.7292163 1.52415309,20.3825618 C1.08701631,20.2096647 0.652037178,20.0320365 0.216194987,19.8565588 C0.24942256,19.7090371 0.282218606,19.5623756 0.315446179,19.4148539" id="Fill-12" fill="#000000"></path>
                    <path d="M68.8160297,53.4064036 C70.7521428,53.4981882 72.3727539,52.6968045 73.3097775,50.7524424 C74.6446266,47.9820187 74.6838488,45.1457871 73.4873551,42.3329346 C72.4223205,39.8292058 69.3940189,38.5307996 66.9829288,39.4590366 C66.1890018,39.7642638 65.7308343,40.1067244 65.8183301,41.2263237 C66.0618528,44.3331467 66.2071044,47.4668125 66.0816794,50.577965 C65.9842703,52.991208 66.1609859,53.4150625 68.8160297,53.4064036 M61.8629183,53.8099096 C62.1995399,53.6505854 62.5228001,53.4449358 62.8758003,53.3423275 C63.9240253,53.0371004 64.2218557,52.5093388 64.1309119,51.3092114 C63.9119569,48.4301181 63.8201511,45.5163891 64.0063489,42.6385947 C64.1270327,40.77173 64.2270279,39.2668084 61.6,39.0745802 C61.725425,38.883218 61.8504189,38.6914227 61.9758439,38.5000604 C62.8262337,38.61609 63.6813647,38.8555094 64.5252893,38.8213066 C66.0476293,38.7589623 67.5626421,38.4048122 69.0815341,38.4000498 C73.8929389,38.3853296 76.9285677,41.6341591 76.7958155,46.4744994 C76.6156518,53.0254108 71.8477793,55.3156971 66.3687345,54.0783364 C65.4855876,53.8787481 64.5179621,54.0194557 63.5921449,54.0640491 C63.057688,54.089593 62.5284033,54.2372277 61.9969635,54.3303111 C61.9521381,54.1562667 61.9077437,53.9830882 61.8629183,53.8099096" id="Fill-14" fill="#000000"></path>
                    <path d="M79.2,19.3020067 C77.3558167,19.9432156 77.3354318,21.3335855 77.3627563,22.8652902 C77.4226098,26.2317456 77.3922493,29.6003686 77.3705633,32.9681246 C77.366226,33.6314442 77.2361096,34.2938968 77.1641119,34.9567828 C76.9806478,35.0378552 76.7971836,35.1189276 76.6141532,35.2 C73.4310721,30.8494038 70.2479909,26.4988076 66.902698,21.9266713 C66.902698,25.6742103 66.8220258,29.1685606 66.9716597,32.6525059 C67.0015865,33.3414045 67.9189072,33.9917178 68.4853473,34.7374104 L64.0796056,34.7374104 C66.2655613,34.0437429 65.7884678,32.248011 65.8101539,30.676854 C65.8526586,27.601739 66.0031599,24.5201209 65.8387795,21.4558444 C65.7997446,20.7201233 64.701562,20.0416297 64.0249567,19.2608202 C63.9629346,19.3830791 64.0327637,19.1944882 64.0596544,19.2001242 C66.1636368,19.6640144 68.4211565,19.572537 69.8693522,21.774498 C71.7668832,24.6605886 73.9216109,27.3784647 76.268911,30.5823418 C76.268911,27.1313457 76.3717029,24.1906288 76.1904074,21.2681207 C76.1492039,20.60957 75.1178145,20.0125824 74.4641964,19.3020067 L79.2,19.3020067 Z" id="Fill-16" fill="#000000"></path>
                    <path d="M61.0162453,20.0583874 L61.0162453,24.0588644 C60.6131611,23.3773265 60.3514951,22.9360851 60.0906759,22.4931692 C59.1092166,20.8261642 57.5375269,20.1102982 55.6927392,20.0830869 C53.9148498,20.0567129 52.9693802,21.3389922 52.3075939,22.7510484 C50.8061898,25.9531883 50.8108473,29.161189 52.6437797,32.2440179 C53.9402543,34.4255254 57.2153136,35.181999 58.9631409,33.3994507 C59.8760081,32.4688249 59.9987964,30.673299 60.182132,29.2315197 C60.2253195,28.8949371 59.0672992,28.4059713 58.4580154,27.9927785 C58.2082048,27.8228126 57.9490793,27.6666617 57.3834065,27.3070542 L64,27.3070542 C63.9703615,27.4824623 63.9741721,27.6662431 63.9322548,27.6771276 C61.9523999,28.197491 61.4578596,29.2938963 62.1454739,31.2476663 C62.4952087,32.2419247 62.2064446,33.4555478 62.2064446,34.5703731 C62.0281899,34.5904676 61.8495118,34.6101434 61.6712572,34.6302379 C61.3947719,34.2450936 61.1178632,33.8599493 60.8413779,33.4748051 C59.8387482,33.9687945 58.9390067,34.576234 57.9439984,34.8738836 C54.1968394,35.9941511 50.6677355,34.1529939 49.3920078,30.5050077 C48.5621286,28.1326026 48.6019289,25.7568484 49.5291919,23.4338422 C50.9603103,19.8490699 54.4830631,18.3742184 58.1603598,19.6548232 C59.0457054,19.9633573 60.0525692,19.9319596 61.0162453,20.0583874" id="Fill-18" fill="#000000"></path>
                    <path d="M9.72173182,49.1075552 C8.78688525,46.7837012 7.98696931,44.7960102 7.00252207,42.3494907 C6.03068516,44.8588285 5.25514922,46.8613752 4.38545607,49.1075552 L9.72173182,49.1075552 Z M9.71836906,53.9857385 C10.2736444,53.7841256 10.8289197,53.5816638 11.6023539,53.3002547 C11.0844893,52.2297963 10.5872215,51.2013582 10.1450189,50.2870968 C8.80159731,50.2870968 7.57377049,50.2921902 6.34594367,50.2862479 C3.58596049,50.2735144 3.58596049,50.2709677 2.86044557,53.2535654 C3.35729298,53.4971986 3.8776797,53.752292 4.39764607,54.0078098 C4.38671711,54.1211375 4.3753678,54.2336163 4.3640185,54.346944 L0,54.346944 C0.757881463,53.4865874 1.63976461,52.6555178 2.31315679,51.678438 C3.09709962,50.5400679 3.38629676,49.2926146 2.17528373,48.0404924 C2.59394704,48.1754669 3.01261034,48.310017 3.56704498,48.4882852 C4.89029004,45.285399 6.21899958,42.0680815 7.73392182,38.4 C8.22320303,39.2357385 8.51113913,39.6139219 8.68306011,40.0396435 C10.1273644,43.6207131 11.5519126,47.2098472 12.9764607,50.7989813 C13.1017234,51.1143463 13.2795292,51.4517827 13.2656578,51.7709677 C13.2063892,53.0982173 13.9159311,53.5629881 15.1017234,53.6466044 C15.431694,53.6699491 15.7461118,53.9186757 16,54.4 L9.78184111,54.4 C9.76082388,54.2620543 9.7393863,54.1236842 9.71836906,53.9857385 Z" id="Fill-20" fill="#000000"></path>
                    <path d="M38.5889814,20.1549283 L38.5889814,24.1284005 C38.1688473,23.404805 37.9927831,22.9072805 37.6590122,22.5660729 C36.8617169,21.7496117 36.0919576,20.8184343 35.1206842,20.2843519 C34.0417697,19.6910204 32.9015247,20.0566 32.2231353,21.1890563 C31.5422426,22.326135 31.5681098,23.5010322 32.5902833,24.4116196 C33.2465604,24.996547 34.0597099,25.4184343 34.8398994,25.843263 C35.8216032,26.3773454 36.8721472,26.7866265 37.8384141,27.3450808 C39.4459383,28.2749977 40.2357238,29.6994976 39.9382504,31.5803416 C39.6295123,33.5364027 38.3653549,34.7634055 36.5016615,35.0184708 C35.2938279,35.1836119 33.9771016,34.9050151 32.769268,34.5907006 C31.8159348,34.3427788 30.9477131,33.4637069 30.1086964,35.2 L30.1086964,30.2247556 C30.5805651,31.053823 30.8563433,31.4946195 31.0904002,31.9568466 C32.0011776,33.7540696 33.6404101,34.3684114 35.4256674,34.2221796 C36.170811,34.1612497 37.3043806,33.2813374 37.4353857,32.6106879 C37.6181252,31.6748881 37.1754615,30.5075546 36.7060962,29.5927651 C36.4515958,29.0973417 35.5917185,28.9090892 34.9955201,28.6014981 C34.0505312,28.1136384 33.0638208,27.6988947 32.1538778,27.1530465 C29.7624091,25.7184617 28.9784646,23.4102676 30.1086964,21.3096556 C31.1559027,19.3640997 33.8840629,18.6585731 36.1762348,19.6397552 C36.9067759,19.952809 37.7549713,19.9860053 38.5889814,20.1549283" id="Fill-22" fill="#000000"></path>
                    <path d="M87.3505562,39.3516427 L87.3505562,43.2942445 C86.9397352,42.5893512 86.7740748,42.0613129 86.4219425,41.748027 C85.5037345,40.9315468 84.5980135,39.9878994 83.5091504,39.5141808 C82.50395,39.0770964 81.3235158,39.4779676 80.9039539,40.6970034 C80.4814783,41.9236187 80.4823108,43.2243447 81.7518186,44.005454 C82.8398492,44.6745551 84.023197,45.1891188 85.179906,45.7398956 C88.2071619,47.1812633 89.4204783,49.331314 88.4976918,51.6594829 C87.5328659,54.0929226 84.5980135,55.0332014 81.6186243,53.9615447 C80.8086367,53.6705762 79.8950073,53.6735238 78.9118672,53.5236182 L78.9118672,49.4887991 C79.3930314,50.3558094 79.6652472,50.8695309 79.9586908,51.3701988 C80.8756501,52.9336806 82.3328786,53.73037 84.0190347,53.4697195 C84.8814676,53.3366572 86.0294356,52.489859 86.2899969,51.7074864 C86.5493095,50.9293247 86.0685615,49.6715492 85.5203838,48.9148628 C85.045463,48.2596573 84.0223646,48.009955 83.239432,47.5863453 C82.3574363,47.108837 81.4209141,46.7125977 80.599272,46.147083 C78.434449,44.6564486 77.8325774,42.4626052 78.9505767,40.4553017 C79.9978166,38.5751653 82.6766863,37.8807991 84.8619047,38.8092875 C85.6390099,39.1398378 86.5351576,39.1827883 87.3505562,39.3516427" id="Fill-24" fill="#000000"></path>
                    <path d="M92.1027331,0.067330025 C92.9623362,0.217523977 93.8261325,0.509521158 94.6798652,0.482251306 C95.7545788,0.448268875 96.8175515,0.041738318 97.8926844,0.00356052576 C98.8814377,-0.0316805133 99.8806739,0.203259747 100.87404,0.329540137 C101.534466,0.413027836 102.191958,0.514555592 103.018435,0.632445258 L103.018435,4.07138332 C102.699753,3.70135241 102.53538,3.56710083 102.44313,3.39425192 C101.247233,1.15602641 98.9615275,0.250247799 96.6988843,1.23070385 C96.3043055,1.40187461 95.8501835,2.0152365 95.8539573,2.42008892 C95.8644403,3.58346274 96.1516735,4.74180213 96.2250543,5.90853224 C96.2959191,7.04715343 97.0372744,7.09498056 97.8687832,7.09498056 C99.2173119,7.09456102 100.565421,7.09498056 101.913531,7.09498056 L101.930303,7.95419065 C100.766694,8.00831082 99.5946986,8.17528622 98.4419918,8.0892813 C96.794489,7.96593767 96.0204268,8.47483505 96.1931861,10.2477949 C96.2728566,11.0608561 96.1399326,11.9431406 95.8929539,12.7280928 C95.5520479,13.8109157 96.1126769,14.167941 96.9479596,14.4213409 C99.4953201,15.193707 101.214946,14.4570014 102.477514,12.0710992 C102.550056,11.9347499 102.692624,11.8357394 103.2,11.2995721 C103.064979,12.2787696 102.936668,12.7989944 102.935829,13.3192193 C102.934571,13.9053114 103.048207,14.4914034 103.124942,15.2 L92.0838637,15.2 C92.0838637,15.171052 92.0616398,14.9768068 92.086799,14.9700942 C94.2764807,14.4146283 94.2135829,13.0771469 93.9632497,11.0981948 C93.6298914,8.46099036 93.9242531,5.72225818 94.1620067,3.04561736 C94.259708,1.94601303 94.1682965,1.31419155 93.0386522,1.04862515 C92.6784575,0.963878839 92.3455185,0.762501473 92,0.614405202 C92.0343841,0.431906964 92.0683489,0.249828263 92.1027331,0.067330025" id="Fill-26" fill="#000000"></path>
                    <path d="M16.1147474,34.8774944 C16.8690364,34.5387663 17.4012338,34.4523991 17.6878966,34.1334723 C18.0720329,33.7066917 18.5055229,33.0970654 18.5005875,32.5704359 C18.4726204,29.70515 18.0613396,26.8192203 18.293302,23.9842683 C18.4487662,22.0892446 18.7452996,20.618895 16,20.4309936 C16.1423032,20.2877504 16.2850176,20.1436645 16.4269095,20 L27.2,20 L27.2,23.5595942 C26.9400705,23.3468359 26.6949471,23.2381396 26.5921269,23.0481316 C25.3660987,20.7794117 23.822973,20.070779 21.4342538,20.7402304 C20.4607521,21.0132352 19.93349,21.5171143 20.2551116,22.7136166 C20.4990012,23.6202619 20.5335488,24.6040059 20.5425969,25.5544668 C20.5520564,26.5622251 20.9514101,26.9860565 21.9327262,26.9599357 C23.3076381,26.9232822 24.6837838,26.950667 26.0595182,26.950667 C26.0603408,27.2266208 26.0615746,27.502996 26.0623972,27.7789499 C24.8622797,27.7789499 23.6564042,27.8522567 22.4632785,27.7599912 C21.0575206,27.6517162 20.4183901,28.1248401 20.5273796,29.6575427 C20.589483,30.5393311 20.4977673,31.4784169 20.2575793,32.3269224 C19.8833137,33.6464453 20.5709753,34.103981 21.5827262,34.3487584 C24.0442421,34.9432178 25.5121034,34.188663 26.6344888,31.8163024 C26.7019389,31.6734805 26.8351939,31.5635202 27.1740893,31.1493788 L27.1740893,34.7970254 C25.4565805,34.9335278 23.61651,35.17662 21.7739718,35.1985278 C20.0173913,35.219593 18.2575206,35.0097838 16.1147474,34.8774944" id="Fill-28" fill="#000000"></path>
                    <path d="M60.5126323,4.59758253 C60.2202669,4.10032411 59.9374804,3.59676063 59.6334537,3.10664793 C57.7647306,0.0940941509 53.966479,0.185307235 52.3726294,3.33320947 C50.8620747,6.31633967 50.7467111,9.39026263 52.2476869,12.4229926 C53.9210832,15.8041817 57.6685248,15.9744181 59.695092,12.7975127 C59.9857915,12.3414472 60.2585826,11.8740327 60.6525679,11.2254531 L60.6525679,15.0568229 C59.6992567,15.2295813 58.596431,15.2968352 57.5852298,15.638569 C54.5453792,16.6662925 51.3447692,15.4599259 49.9120953,12.5587614 C48.4844192,9.66810525 48.4323598,6.70557154 49.7500866,3.75690895 C51.1694332,0.580844155 54.4637501,-0.738172696 57.7447398,0.40724506 C58.6701471,0.730063716 59.6980073,0.75318224 60.6213322,0.904503485 C60.6704763,1.86119002 60.7354464,3.13228848 60.8,4.40380727 C60.7042108,4.4681188 60.6084215,4.53285067 60.5126323,4.59758253" id="Fill-30" fill="#000000"></path>
                    <path d="M47.9736182,20.5027587 C45.4794187,20.6533724 45.2643398,21.6914086 45.5983605,23.735818 C46.033884,26.4032204 45.8465284,29.2190969 45.5138492,31.9245806 C45.3202335,33.5004617 45.5335238,34.3348272 47.1714321,34.6694291 C47.3628121,34.7087941 47.5233387,34.8880757 48,35.2 L41.0673954,35.2 C41.6795429,34.8773787 41.976003,34.6621552 42.3104707,34.556041 C43.4739535,34.1867808 43.6510247,33.5736291 43.5499689,32.3554555 C43.2959881,29.2926923 43.1457459,26.176872 43.4770836,23.1342191 C43.6532605,21.5168337 43.3058254,20.9203693 41.8355981,20.6063056 C41.6276736,20.5618061 41.4506024,20.387659 40.8,20 L47.7370761,20 C47.8157744,20.167301 47.8949199,20.3350298 47.9736182,20.5027587" id="Fill-32" fill="#000000"></path>
                </g>
            </g>
        </g>
    </g>
</svg>