<?xml version="1.0" encoding="UTF-8"?>
<svg width="110px" height="56px" viewBox="0 0 110 56" version="1.1" xmlns="http://www.w3.org/2000/svg" xmlns:xlink="http://www.w3.org/1999/xlink">
    <!-- Generator: Sketch 52.5 (67469) - http://www.bohemiancoding.com/sketch -->
    <title>Coopper Hewitt</title>
    <desc>Created with Sketch.</desc>
    <defs>
        <polygon id="path-1" points="0.0371889758 0.104242031 16.1338767 0.104242031 16.1338767 27.2462241 0.0371889758 27.2462241"></polygon>
        <polygon id="path-3" points="0 0.00234713986 17.8244425 0.00234713986 17.8244425 28.188885 0 28.188885"></polygon>
    </defs>
    <g id="3.0.0---Front-End" stroke="none" stroke-width="1" fill="none" fill-rule="evenodd">
        <g id="Desktop---Landing-Page-NEW" transform="translate(-1183.000000, -3577.000000)">
            <g id="Featured-In" transform="translate(120.000000, 3444.000000)">
                <g id="Coopper-Hewitt" transform="translate(1063.000000, 133.000000)">
                    <path d="M51.2156767,37.9280563 C51.1713227,38.0511238 51.1038133,38.1706381 51.085876,38.2972587 C50.4277407,42.9515349 49.7758019,47.6067802 49.1189712,52.2610564 C48.9669934,53.3383005 48.7833809,54.4116685 48.6512972,55.4911738 C48.601399,55.8962305 48.4138728,55.9944261 48.0414295,55.992811 C45.7187142,55.9831207 43.3953466,55.9743994 41.0726313,55.9999173 C40.4924417,56.0063775 40.5182061,55.633299 40.4699385,55.2741099 C40.0831454,52.4051196 39.6999398,49.5361293 39.3154296,46.666816 C38.7613306,42.5367878 38.2101668,38.4061137 37.6515019,34.2770546 C37.4564747,32.8335151 37.2539464,31.3909446 37.0302195,29.9516043 C36.9669498,29.5446095 37.1313206,29.4338165 37.4933276,29.4344625 C39.2974924,29.4380156 41.1019832,29.4435068 42.9061479,29.4315554 C43.3235975,29.4286483 43.3705606,29.6757523 43.3940421,29.9861666 C43.4847069,31.1942305 43.5770024,32.4022944 43.674516,33.6097123 C44.0048882,37.7019481 44.3408046,41.7938608 44.6649803,45.8867426 C44.713574,46.5001419 44.7106388,47.1174174 44.7354249,47.7327547 C44.7432521,47.9255927 44.7651029,48.1177847 44.7804312,48.3106227 C44.8368521,48.3212821 44.893273,48.3322645 44.95002,48.3432469 C45.0061148,48.2195334 45.095149,48.1006651 45.1134124,47.9721064 C45.6352243,44.272976 46.1479045,40.5725534 46.6658029,36.8727769 C46.97889,34.6365666 47.3079577,32.4022944 47.6076734,30.164146 C47.6758351,29.6560486 47.8359661,29.4124977 48.4220261,29.4241261 C50.3083762,29.4606265 52.196357,29.4538432 54.0833594,29.4250952 C54.5960396,29.4170199 54.8099825,29.5494547 54.8859713,30.081455 C55.6660802,35.5681325 56.4742364,41.0509338 57.2683689,46.5356732 C57.332617,46.9820754 57.342401,47.4359069 57.3929515,47.8842472 C57.4086059,48.0237883 57.4738323,48.1578382 57.660054,48.2844588 C57.6988637,48.1617143 57.7637641,48.0405849 57.7732219,47.9152564 C58.2193711,41.9980042 58.6658465,36.0807521 59.0921016,30.161885 C59.1312375,29.6214863 59.2985434,29.4131437 59.8771024,29.4250952 C61.5560323,29.4603034 63.2365928,29.448029 64.9165011,29.4267102 C65.3796091,29.420896 65.544306,29.5362112 65.4771227,30.026866 C64.7716982,35.1924698 64.0877985,40.3609807 63.3911796,45.5281996 C62.9495962,48.8022466 62.4874665,52.0733865 62.0605592,55.3496946 C61.9966372,55.8406725 61.8211779,56.0018554 61.3182817,55.9966872 C59.0578577,55.9724613 56.7967814,55.9779525 54.5366835,55.9957181 C54.1299963,55.9986252 53.9444269,55.8968765 53.8857231,55.470824 C53.5364352,52.9497174 53.1620352,50.4318409 52.7957884,47.9129953 C52.3848616,45.0901957 51.9706733,42.2677191 51.5652907,39.4436274 C51.4941938,38.9478044 51.4573409,38.4471362 51.4048335,37.948406 C51.34189,37.9416228 51.2786203,37.9348395 51.2156767,37.9280563" id="Fill-1" fill="#040404"></path>
                    <path d="M18.0221906,42.7059417 C18.0221906,46.916089 18.0137452,51.1259133 18.0329098,55.3360606 C18.0351836,55.8647918 17.854257,56.0046455 17.3498065,55.9959248 C15.7805853,55.9697628 14.2100648,55.9600732 12.6411684,55.9985087 C12.0675306,56.0123972 11.9505942,55.8005172 11.9531928,55.2843825 C11.9723573,52.1013367 11.9499445,48.917968 11.9782042,45.7352452 C11.9827517,45.2003773 11.8148181,45.0598775 11.3093931,45.0711821 C10.0916306,45.0979901 8.8722441,45.0954062 7.65415686,45.0718281 C7.16984537,45.0627844 7.01750326,45.2194335 7.02107631,45.713928 C7.04446359,48.917322 7.02757278,52.121039 7.04543806,55.324756 C7.04803665,55.8192505 6.92233004,56.0114283 6.3827986,55.9994777 C4.79311354,55.964272 3.20212919,55.9691168 1.61244414,55.9965708 C1.08590563,56.0059375 0.949804678,55.8224803 0.950454324,55.3157123 C0.963772078,46.8960637 0.962147962,38.4757692 0.949155031,30.0557976 C0.948505385,29.6045835 1.07486163,29.4246792 1.53968373,29.429524 C3.17127098,29.4456734 4.80350789,29.457624 6.43412068,29.4262942 C6.96325777,29.4162815 7.04413877,29.6339754 7.04154018,30.0848665 C7.02659831,33.0217955 7.05355864,35.9587244 7.01750326,38.8950075 C7.0097075,39.5442131 7.21824404,39.6950485 7.83086071,39.6701784 C8.98560742,39.6226992 10.1439272,39.6369107 11.2999732,39.6656566 C11.7979272,39.6779301 11.984051,39.5522878 11.9791786,39.0122521 C11.9512438,36.0552978 11.9791786,33.0976976 11.9512438,30.1407434 C11.9457218,29.5583962 12.1266484,29.4101448 12.6960636,29.4246792 C14.2646351,29.4637608 15.8351556,29.4476114 17.4047016,29.431785 C17.8347676,29.4275861 18.0358332,29.5241595 18.0338843,30.0147781 C18.0166686,34.2449506 18.0241396,38.4754462 18.0241396,42.7059417 L18.0221906,42.7059417 Z" id="Fill-3" fill="#040404"></path>
                    <g id="Group-7" transform="translate(93.016949, 0.000000)">
                        <mask id="mask-2" fill="white">
                            <use xlink:href="#path-1"></use>
                        </mask>
                        <g id="Clip-6"></g>
                        <path d="M6.463644,8.91259955 L6.45574785,8.91259955 C6.45574785,9.81894874 6.43961226,10.7256296 6.46913696,11.6313155 C6.47497324,11.8147078 6.61401399,12.1082018 6.75992095,12.1556251 C7.91928049,12.5316953 9.3852163,11.8667739 9.64544565,10.7226449 C9.86104464,9.77517337 9.95270855,8.75109496 9.82808684,7.79367449 C9.62484702,6.23301613 8.69413228,5.62380886 7.0493317,5.66592608 C6.61298406,5.67720155 6.42999957,5.79360425 6.45162813,6.25722524 C6.49248208,7.14069185 6.463644,8.02747478 6.463644,8.91259955 M0.0482007934,13.6429929 C0.0488874144,9.36328691 0.0581567977,5.0839126 0.0372148576,0.804206657 C0.0348116841,0.275585869 0.199257411,0.101147641 0.742031302,0.105458852 C3.42637605,0.126683275 6.11209405,0.0719640596 8.79472225,0.138622013 C10.9500255,0.192014703 12.9432863,0.748160915 14.3676815,2.47198203 C15.577851,3.93580396 15.9719714,5.68914029 16.0794276,7.49387952 C16.2050793,9.60272493 16.1755546,11.7112387 15.306979,13.7162834 C14.9132019,14.6252857 14.3601287,15.4105893 13.5938596,16.0695414 C13.423921,16.2154593 13.2711478,16.5441062 13.3212711,16.737779 C13.9344237,19.1076185 14.5867136,21.4678407 15.2287042,23.8307159 C15.4940832,24.8077027 15.7460731,25.7880057 16.0313642,26.7593547 C16.1305809,27.0969557 16.0492163,27.248843 15.6908001,27.2461899 C13.6831204,27.2319298 11.6750973,27.22994 9.66844746,27.173231 C9.48614959,27.1682565 9.19776877,26.825681 9.15588489,26.6048144 C8.79094583,24.678698 8.47372694,22.7442908 8.13590941,20.8131999 C7.98691266,19.9615699 7.79671864,19.1155777 7.67347018,18.2602998 C7.60034504,17.7492555 7.27625994,17.7422912 6.87836307,17.7572146 C6.41489391,17.7751227 6.45643448,18.0785657 6.45677779,18.3836667 C6.46124082,21.1030459 6.44785171,23.8227568 6.4736,26.542136 C6.47840635,27.0438946 6.32837966,27.2097104 5.81066744,27.2037411 C4.08690545,27.1828483 2.36280014,27.1908074 0.638694843,27.2060625 C0.186554922,27.2097104 0.0368715471,27.0518538 0.038244789,26.6081307 C0.0530071403,22.2863075 0.0471708619,17.9644844 0.0482007934,13.6429929" id="Fill-5" fill="#040404" mask="url(#mask-2)"></path>
                    </g>
                    <path d="M25.0593855,13.8200253 L25.2603874,13.8262436 C25.2603874,15.2616765 25.2029583,16.7000548 25.2815108,18.1312331 C25.3310187,19.0354969 25.5165081,19.9472881 25.7630573,20.8217697 C26.03238,21.7764341 26.794141,22.1822564 27.7727464,22.2234932 C28.8041602,22.2666936 29.7391986,22.0719644 30.1778383,21.0263173 C30.4158061,20.4591479 30.5999753,19.8294687 30.6224189,19.2210624 C30.7253952,16.4581978 30.7953664,13.6927149 30.8065881,10.9282139 C30.8108788,9.85213016 30.6808382,8.76786452 30.5164721,7.70192633 C30.3788402,6.80878991 30.1101775,5.82925261 29.1127592,5.57757731 C27.2208988,5.10008151 26.0901392,5.47055803 25.5811984,7.2987222 C25.503306,7.5778887 25.4481873,7.86916441 25.4280541,8.15814918 C25.2983435,10.0448958 25.1808448,11.9326242 25.0593855,13.8200253 M37.002332,13.8985716 C37.0175144,16.6273995 36.9293904,19.343791 36.2369404,22.0114183 C35.4108192,25.1945054 33.3159766,27.0262696 30.0180929,27.4042735 C28.3585894,27.5947482 26.7132781,27.5738025 25.0709374,27.2468537 C22.1054165,26.6567749 20.5013617,24.7173369 19.7782169,21.9495631 C18.7745275,18.1089783 18.9494553,14.1891927 19.0969887,10.2808618 C19.1748811,8.21771343 19.4593863,6.1823835 20.2792365,4.25145464 C21.088525,2.34507148 22.4810161,1.09454959 24.4755228,0.514616379 C26.9175806,-0.19557271 29.3503969,-0.173645213 31.7835433,0.598726331 C33.9156818,1.27520598 35.2108075,2.74631196 35.9563959,4.77116905 C36.7372999,6.89257259 36.8788924,9.11575899 36.9950708,11.3392727 C37.0396279,12.1901905 37.002332,13.0453629 37.002332,13.8985716" id="Fill-8" fill="#040404"></path>
                    <path d="M50.7594029,13.8102259 C50.7201548,13.8079336 50.6809067,13.8053138 50.6419857,13.8030215 C50.6419857,13.1572488 50.6753465,12.5095112 50.6347902,11.8663582 C50.5419031,10.3930663 50.4771437,8.9135525 50.2782868,7.45303199 C50.1039599,6.16967326 49.3847388,5.50195996 48.351533,5.40764832 C46.8022149,5.26618087 46.0345879,5.63000111 45.6002424,6.77090996 C45.4383441,7.19432992 45.292472,7.65278928 45.2790623,8.09945967 C45.1851939,11.1770318 45.0798782,14.2559139 45.0851113,17.3344684 C45.0874008,18.4429576 45.3300848,19.5632358 45.5675357,20.655679 C45.7222385,21.3659635 46.1696667,21.9161147 46.9562637,22.1076852 C48.8359197,22.5658171 50.1163884,21.7749747 50.3299634,19.8451883 C50.551388,17.8423759 50.6226887,15.8228624 50.7594029,13.8102259 M56.9491525,13.8216874 C56.7077768,16.2184474 56.5661567,18.630926 56.1965706,21.0080377 C55.8642701,23.1460957 55.0178198,25.0860337 53.0684984,26.323219 C51.9492739,27.0335035 50.7011849,27.3108714 49.4066523,27.4353104 C47.5685337,27.6118173 45.7372836,27.563679 43.9753718,26.9758686 C41.5020885,26.1509693 40.2706799,24.2277323 39.6476166,21.8218031 C38.8554594,18.7619144 38.8983052,15.6335842 38.9277413,12.5108211 C38.9493277,10.2610955 39.0634743,8.01824687 39.6299549,5.82058921 C40.4037963,2.81669803 42.1130503,0.876105079 45.2983592,0.247360822 C47.3251956,-0.1528087 49.2660133,-0.055222352 51.2140265,0.451702705 C53.7821593,1.11941601 55.213079,2.92345357 55.9244505,5.3853803 C56.7202054,8.13875619 56.7601076,10.9710526 56.7836565,13.8036765 C56.8389308,13.8095709 56.8938782,13.8157929 56.9491525,13.8216874" id="Fill-10" fill="#040404"></path>
                    <path d="M19.9442764,42.6811581 C19.9442764,38.4688054 19.9511562,34.2567758 19.9349887,30.044423 C19.9332688,29.5891645 20.0794643,29.4227642 20.5675854,29.4240566 C25.5330741,29.4337498 30.4989068,29.434396 35.4643955,29.4237335 C35.9256854,29.4227642 36.073257,29.5723629 36.0656892,30.0004804 C36.0409219,31.3972742 36.0250984,32.7953605 36.0632813,34.1915081 C36.0777288,34.7117112 35.9157098,34.8742342 35.3670465,34.870357 C32.6330178,34.8516167 29.8983011,34.8758498 27.1639284,34.8522629 C26.5643547,34.8470932 26.3046426,34.9517801 26.3435134,35.5950871 C26.4095594,36.7010842 26.3933919,37.8141896 26.3469533,38.9221253 C26.323562,39.4836861 26.4814532,39.6752889 27.1071702,39.6649494 C29.1845229,39.6303769 31.2635955,39.6736733 33.3409482,39.639424 C33.9886805,39.6287614 34.1603312,39.8265032 34.1400359,40.4171438 C34.0935973,41.7515778 34.0980691,43.0889198 34.1400359,44.4233539 C34.1568913,44.9658514 33.9346741,45.0912171 33.4152499,45.0870167 C31.2935226,45.0702151 29.1714513,45.0925096 27.0497239,45.0702151 C26.5089724,45.0643992 26.3307858,45.2085052 26.3483293,45.7393708 C26.392016,47.0738049 26.3889201,48.4108238 26.3469533,49.7452579 C26.3297539,50.2903402 26.5014046,50.4573868 27.0830909,50.4522171 C29.8171196,50.4270147 32.5518363,50.4515709 35.2862089,50.4292765 C35.8627354,50.424753 36.0904564,50.5401024 36.0660332,51.1475445 C36.0106509,52.5427228 36.0299143,53.9417783 36.0660332,55.338249 C36.0797928,55.8658836 35.8833747,55.9983577 35.3460631,55.9967422 C30.4679478,55.9802637 25.5894884,55.978325 20.7113731,55.9999732 C20.0959758,56.0025581 19.9294849,55.8183868 19.9322368,55.2561797 C19.9535642,51.0645059 19.9439324,46.872832 19.9442764,42.6811581" id="Fill-12" fill="#040404"></path>
                    <g id="Group-16">
                        <mask id="mask-4" fill="white">
                            <use xlink:href="#path-3"></use>
                        </mask>
                        <g id="Clip-15"></g>
                        <path d="M14.8532661,11.0633444 C14.0549441,11.0633444 13.2553339,11.0422397 12.457978,11.0717192 C12.0109949,11.088134 11.8857237,10.9427462 11.8419271,10.4623633 C11.736622,9.30428554 11.5997576,8.13917288 11.3437407,7.00956969 C11.1598593,6.20156171 10.5888932,5.65920479 9.72970678,5.56507119 C8.77906271,5.46088774 7.94531695,5.62001037 7.37241864,6.54325663 C6.59535085,7.795133 6.38828305,9.22120678 6.35543559,10.6352207 C6.29521525,13.2501918 6.33096102,15.8725328 6.45107966,18.4854939 C6.49519831,19.4375498 6.80757119,20.4083653 7.15375763,21.305147 C7.59172373,22.4397751 8.46024915,22.8655537 9.62987627,22.7349057 C10.5930797,22.6270373 11.2770797,21.9871968 11.5395373,20.8468738 C11.6912153,20.1882736 11.7688254,19.5075637 11.8274356,18.8315438 C11.8615712,18.4379246 11.9720288,18.2650672 12.3784356,18.2694221 C14.016622,18.2861719 15.6548085,18.2637272 17.2926729,18.2908618 C17.4710797,18.2938768 17.7995542,18.5236833 17.7985881,18.6462915 C17.7853847,20.6070173 17.7448085,22.5690832 16.9506729,24.4082058 C15.9987407,26.612473 14.2333508,27.618463 12.0509271,27.9708778 C10.1763678,28.2733783 8.29891017,28.288453 6.43562203,27.8415697 C3.85645254,27.2228339 2.17060508,25.5451789 1.34716441,22.985147 C0.170452542,19.3266664 -0.232733898,15.5305029 0.126977966,11.7095498 C0.350791525,9.33611007 0.595859322,6.921466 1.56389322,4.68570927 C2.60921525,2.2714002 4.36784237,0.900600598 6.85877458,0.314024327 C9.29431695,-0.259487139 11.6245542,-0.0179557328 13.9122831,0.844991426 C15.8390119,1.57159561 16.9960797,3.13434736 17.3512831,5.17111705 C17.6630119,6.95932044 17.6778254,8.803468 17.8217746,10.6234959 C17.8523678,11.0147701 17.6159949,11.0733942 17.3107068,11.0703793 C16.4914525,11.0626744 15.6725203,11.0676993 14.8532661,11.0676993 L14.8532661,11.0633444 Z" id="Fill-14" fill="#040404" mask="url(#mask-4)"></path>
                    </g>
                    <path d="M75.9428699,14.2250895 C75.9421828,10.0066663 75.9490539,5.78791772 75.9322197,1.56949447 C75.9305019,1.11310584 76.0641449,0.948831954 76.5571469,0.949807838 C81.5146506,0.960867862 86.4721543,0.958916093 91.4300015,0.949157249 C91.9089177,0.948181364 92.0748549,1.09879287 92.0645483,1.5675427 C92.0332847,2.97314163 92.0301927,4.38036703 92.0655789,5.78564066 C92.0779469,6.29505235 91.8838381,6.42647146 91.3822473,6.4238691 C88.6307125,6.40792965 85.8784906,6.43395324 83.1269558,6.40077317 C82.4982495,6.39329138 82.3470852,6.58391415 82.3683856,7.1463489 C82.4123607,8.30277199 82.4120171,9.46309862 82.3690727,10.619847 C82.348803,11.1617882 82.5556233,11.2743402 83.084355,11.2681596 C85.2027173,11.2431119 87.3214231,11.2775931 89.4394418,11.2463648 C90.0069953,11.2379072 90.1402947,11.4135664 90.1286139,11.9197251 C90.0959761,13.325324 90.1055957,14.7322241 90.1272396,16.1378231 C90.1344543,16.5711158 89.9836335,16.7145708 89.5215516,16.7103419 C87.3815453,16.6908243 85.2405083,16.7197755 83.1008456,16.6865954 C82.5044335,16.6774872 82.3563612,16.8694111 82.3701034,17.4019187 C82.4044589,18.7453864 82.4013669,20.0904804 82.3707905,21.4339481 C82.3591096,21.9407574 82.507182,22.1121878 83.0702692,22.1066577 C85.821804,22.0796583 88.5740259,22.1076336 91.3255607,22.084863 C91.9020466,22.0799836 92.0810389,22.2475104 92.0655789,22.7959575 C92.0271007,24.1804122 92.0322541,25.5671441 92.0672967,26.9519241 C92.0789776,27.4141681 91.886243,27.5247683 91.4588602,27.524443 C86.4793689,27.5185877 81.4998777,27.5166359 76.5203864,27.5254189 C76.0631143,27.5263948 75.9315326,27.3800121 75.9332503,26.9428159 C75.9507717,22.7035737 75.9439006,18.4643316 75.9428699,14.2250895" id="Fill-17" fill="#040404"></path>
                    <path d="M65.2798459,9.6052865 L65.2822549,9.6052865 C65.2822549,10.038514 65.2836314,10.4714162 65.2819107,10.9046437 C65.28019,11.3580365 65.2450875,11.8143564 65.2870729,12.2641714 C65.3035917,12.4450081 65.4484755,12.7224429 65.5992098,12.7683025 C66.7823704,13.1296507 68.1747695,12.4944455 68.454557,11.338847 C68.6730873,10.4356392 68.7463895,9.45827537 68.6448676,8.53782958 C68.47142,6.96819304 67.4555124,6.2949341 65.7888321,6.41202261 C65.4071785,6.43869277 65.2588532,6.56521341 65.2708982,6.94542583 C65.2987737,7.83139556 65.2798459,8.71866628 65.2798459,9.6052865 M58.8591862,14.229307 C58.8598744,10.0316838 58.8677897,5.83341022 58.8488619,1.6357871 C58.846797,1.12677732 58.9916809,0.945615378 59.5498794,0.950819312 C62.2410709,0.975537998 64.933983,0.914066529 67.6234538,0.983669144 C69.8586569,1.04123766 71.9028611,1.62765595 73.3252006,3.43309575 C74.2695266,4.63162675 74.6756143,6.03050921 74.8411466,7.47557659 C75.0875524,9.62382552 75.0658715,11.7723997 74.3476468,13.8604781 C73.573327,16.1121553 71.9926822,17.565679 69.5062554,17.9888239 C68.3530351,18.1849471 67.1626475,18.2109668 65.9867138,18.2525983 C65.4615529,18.2711373 65.2578208,18.3823714 65.2636712,18.9213038 C65.2929233,21.5678294 65.2643595,24.2150055 65.2932674,26.8618563 C65.2991178,27.397211 65.1088072,27.5338143 64.5736662,27.5250326 C62.8894346,27.4980372 61.2038265,27.496411 59.5195949,27.5221054 C58.999252,27.5302366 58.8450763,27.3809487 58.8474853,26.885274 C58.8667573,22.6668352 58.8584979,18.4480711 58.8591862,14.229307" id="Fill-19" fill="#040404"></path>
                    <path d="M87.1904367,45.4065009 C87.1904367,48.6934508 87.1784129,51.9800777 87.2021169,55.2670277 C87.2062393,55.8291756 87.0440906,56.0146198 86.4246965,55.9991123 C84.766108,55.958405 83.1047713,55.9677742 81.4451522,55.9945893 C80.9143902,56.0033123 80.7711359,55.8185142 80.771823,55.347473 C80.7845338,48.7528964 80.7728536,42.1589658 80.7993058,35.5650353 C80.8017106,34.9599186 80.5863139,34.8348892 80.008144,34.8520121 C78.8518042,34.8859348 77.6930596,34.8487813 76.5353456,34.8662273 C76.0811919,34.8733349 75.9252269,34.7211673 75.9324412,34.2882488 C75.9568322,32.8505716 75.954771,31.4125714 75.9351894,29.9745712 C75.9303799,29.5794522 76.0568009,29.4230847 76.4913731,29.4237308 C81.4935907,29.4318076 86.4958083,29.4295461 91.4980259,29.424377 C91.9123294,29.4240539 92.0741346,29.5704062 92.0676074,29.9768327 C92.0459647,31.4141868 92.039781,32.8525101 92.0658897,34.2898641 C92.0744781,34.7405517 91.8762582,34.8688119 91.4489003,34.8662273 C90.2475573,34.8578274 89.0455273,34.8775349 87.8448714,34.8545967 C87.3453711,34.8449045 87.1677633,34.9757492 87.1715422,35.48459 C87.1979944,38.7915706 87.1849401,42.0991972 87.1849401,45.4065009 L87.1904367,45.4065009 Z" id="Fill-21" fill="#040404"></path>
                    <path d="M104.327413,45.4260256 C104.327413,48.7337469 104.31881,52.0417913 104.337047,55.3495126 C104.3398,55.835429 104.174633,56.0005243 103.658484,55.9940627 C101.973775,55.972093 100.288034,55.956262 98.604357,55.999232 C97.9846345,56.01474 97.8814048,55.7960129 97.8831253,55.2865114 C97.9010185,50.9513869 97.895857,46.6162625 97.8972334,42.281138 C97.8975775,40.0004968 97.8824371,37.7198556 97.909965,35.4395374 C97.9154706,34.9526517 97.7286248,34.8434497 97.2599619,34.8531422 C96.1006921,34.8773734 94.9403901,34.8466806 93.7811203,34.8715579 C93.2315941,34.883512 93.0000154,34.7387709 93.0179085,34.1707914 C93.0602327,32.7954281 93.0475011,31.4178032 93.0210054,30.0414707 C93.0120589,29.5856009 93.1703444,29.4224441 93.6575887,29.4237364 C98.6250029,29.433752 103.592073,29.433752 108.559487,29.4240595 C109.024021,29.4230903 109.157531,29.5836624 109.150993,30.0085162 C109.127595,31.4462345 109.131036,32.884922 109.15237,34.3226403 C109.158564,34.7306939 108.998558,34.8702656 108.579101,34.8657424 C107.375786,34.8534653 106.172128,34.8780196 104.969157,34.85605 C104.501871,34.8473267 104.30952,34.9549133 104.312961,35.4408298 C104.333951,38.7692284 104.323628,42.097627 104.323628,45.4260256 L104.327413,45.4260256 Z" id="Fill-23" fill="#040404"></path>
                    <path d="M68.3481465,42.7174592 C68.3481465,38.4874377 68.35455,34.2570931 68.3389985,30.0273947 C68.337169,29.5524744 68.497258,29.4213059 68.9144042,29.4255059 C70.445465,29.4416596 71.9768307,29.4465058 73.5078916,29.4238905 C73.9366252,29.417429 74.030849,29.6044895 74.030849,30.0099486 C74.0247504,38.4703147 74.0253602,46.9306808 74.0338983,55.3910469 C74.0338983,55.8330136 73.9116208,56.007151 73.4664209,55.9993972 C71.9551806,55.9738743 70.4427206,55.9729051 68.9314803,55.9997203 C68.4545676,56.0084433 68.3420479,55.8136291 68.3435725,55.3461395 C68.3563796,51.1367948 68.3511958,46.9268039 68.3511958,42.7174592 L68.3481465,42.7174592 Z" id="Fill-25" fill="#040404"></path>
                </g>
            </g>
        </g>
    </g>
</svg>