<?xml version="1.0" encoding="UTF-8"?>
<svg width="178px" height="27px" viewBox="0 0 178 27" version="1.1" xmlns="http://www.w3.org/2000/svg" xmlns:xlink="http://www.w3.org/1999/xlink">
    <!-- Generator: Sketch 52.5 (67469) - http://www.bohemiancoding.com/sketch -->
    <title>FastCo</title>
    <desc>Created with Sketch.</desc>
    <defs>
        <polygon id="path-1" points="0 0.251789474 16.9599492 0.251789474 16.9599492 25.9561011 0 25.9561011"></polygon>
        <polygon id="path-3" points="0.219457944 0.262074468 58.9277664 0.262074468 58.9277664 26 0.219457944 26"></polygon>
    </defs>
    <g id="3.0.0---Front-End" stroke="none" stroke-width="1" fill="none" fill-rule="evenodd">
        <g id="Desktop---Landing-Page-NEW" transform="translate(-141.000000, -3592.000000)">
            <g id="Featured-In" transform="translate(120.000000, 3444.000000)">
                <g id="FastCo" transform="translate(21.000000, 148.000000)">
                    <path d="M55.0816838,6.3185666 L54.2493815,6.3185666 C54.1303634,4.0731195 53.4162547,3.36395908 51.6318075,3.36395908 L48.1816563,3.36395908 L48.1816563,21.9190035 C48.1816563,24.9910307 48.7767469,25.5819522 50.7995052,25.5819522 L50.7995052,26.5273174 L41.8767194,26.5273174 L41.8767194,25.5819522 C43.8997526,25.5819522 44.4945684,24.9910307 44.4945684,21.7996723 L44.4945684,3.36395908 L41.044692,3.36395908 C38.7844472,3.36395908 38.427118,3.95488058 37.8323022,6.3185666 L37,6.3185666 L37.5948157,1 L38.1896315,1.11851198 C38.427118,1.70943349 38.9037402,1.70943349 40.3305833,1.70943349 L51.8701186,1.70943349 C54.0121699,1.70943349 54.4876927,1.70943349 54.9634903,1 L55.6773241,1 L55.0816838,6.3185666 Z M77.5664883,26.6455563 C77.0909656,26.5273174 76.615168,26.5273174 76.1385457,26.5273174 C75.1872254,26.5273174 73.5206968,27 71.499038,27 C63.7658836,27 58.0557625,22.3905938 58.0557625,13.881488 C58.0557625,6.6727372 63.409379,1.11851198 71.6172315,1.11851198 C73.5198722,1.11851198 75.6619235,1.4735018 77.4463707,2.18184301 C77.8028754,1.82685319 77.9221684,1.5909215 78.278673,1.2367509 L78.9925068,1.2367509 C78.8734887,2.53710589 78.3976911,6.79097612 78.3976911,6.79097612 L77.6838572,6.79097612 C77.2080596,4.31014347 75.8991352,2.65452559 71.7351501,2.65452559 C66.7391377,2.65452559 62.218648,6.55422522 62.218648,13.7640683 C62.218648,21.9190035 66.8584307,25.4637133 71.9737361,25.4637133 C75.3054189,25.4637133 77.3273526,23.5735291 78.6360022,21.2098431 L79.4694039,21.5648329 L77.5664883,26.6458294 L77.5664883,26.6455563 Z M85.0613316,7.97309219 C85.0613316,11.5186212 84.7045521,22.509925 84.7045521,22.509925 C84.7045521,24.6368601 85.4178362,25.5819522 87.4405945,25.5819522 L87.4405945,26.5273174 L79.4702285,26.5273174 L79.4702285,25.5819522 C81.4921623,25.5819522 82.5627756,24.6368601 82.5627756,22.509925 L83.2766095,4.54580209 C82.6817937,3.12693511 82.086978,2.65452559 80.5408419,2.53710589 L80.5408419,1.71052576 L86.6074677,1.71052576 L93.0314227,18.4928057 L99.5749455,1.71052576 L105.046481,1.71052576 L105.046481,2.53710589 C103.500345,2.53710589 102.668317,3.24653937 102.668317,4.90106497 L103.382151,22.2742664 C103.382151,24.8749764 103.857949,25.5830445 106,25.5830445 L106,26.5281366 L96.8400025,26.5281366 L96.8400025,25.5830445 C98.6236252,25.5830445 99.4575766,24.992123 99.337459,22.2742664 C99.337459,22.2742664 98.9801298,10.1011196 98.8619363,7.97418447 L94.4615642,20.0288193 C93.80078,21.7270359 93.244171,23.4637553 92.7953105,25.2288739 L91.369292,25.3473859 C91.0116879,24.0470309 90.0603675,21.6841641 90.0603675,21.6841641 C90.0603675,21.6841641 86.3691566,11.4003823 85.0613316,7.97309219 Z" id="Fill-1" fill="#000000"></path>
                    <g id="Group-5">
                        <mask id="mask-2" fill="white">
                            <use xlink:href="#path-1"></use>
                        </mask>
                        <g id="Clip-4"></g>
                        <path d="M12.9686949,1.08121684 L0,1.08121684 L0,1.90993263 C1.99447458,1.90993263 2.74305085,2.62069053 2.74305085,4.27894316 L2.74305085,21.6926484 C2.74305085,24.4166274 2.36933898,25.00888 0,25.00888 L0,25.9561011 L9.47822034,25.9561011 L9.47822034,25.00888 C7.48259322,25.00888 6.73430508,24.6528168 6.73430508,21.6926484 L6.73430508,13.7555326 L10.2256441,13.7555326 C12.2212712,13.7555326 12.5961356,14.4662905 12.8447966,16.2430484 L13.7172712,16.2430484 L13.7172712,9.60949053 L12.8447966,9.60949053 C12.5961356,11.1500589 12.2212712,12.09728 10.3506949,12.09728 L6.73430508,12.09728 L6.73430508,2.73946947 L12.3460339,2.73946947 C14.3419492,2.73946947 15.3391864,3.56791158 15.3391864,5.70073263 L16.3364237,5.70073263 L16.9599492,0.25168 L16.0866102,0.25168 C15.7117458,0.962437895 15.2132712,1.08121684 12.9686949,1.08121684" id="Fill-3" fill="#000000" mask="url(#mask-2)"></path>
                    </g>
                    <g id="Group-8" transform="translate(119.000000, 1.000000)">
                        <mask id="mask-4" fill="white">
                            <use xlink:href="#path-3"></use>
                        </mask>
                        <g id="Clip-7"></g>
                        <path d="M7.0215514,16.0648191 L10.3635981,5.17054255 L13.9421963,16.0648191 L7.0215514,16.0648191 Z M52.6045654,0.262904255 L52.6045654,1.10043617 C53.6764907,1.10043617 54.1556589,1.46001064 54.1556589,2.17860638 C54.1556589,2.77715957 54.0349019,3.37598936 53.4393879,4.45305319 L49.7400327,12.4735 L45.9210234,4.21324468 C45.6830935,3.49464894 45.4440607,2.89609574 45.4440607,2.29754255 C45.4440607,1.46001064 46.1600561,1.10043617 46.9948785,1.10043617 L46.9948785,0.262904255 L33.6305514,0.262904255 L33.6305514,1.10043617 C35.6605374,1.10043617 36.2563271,1.69898936 36.2563271,4.33301064 L36.2563271,17.3811383 L26.2326682,0.262904255 L20.1468458,0.262904255 L20.1468458,1.10043617 C22.1746262,1.10043617 22.2953832,2.05773404 23.3700654,3.49464894 L23.3700654,20.7326489 C23.3700654,23.4856064 23.0116542,23.9646702 21.5791121,24.4431809 C20.6238084,23.9652234 20.0282944,22.8870532 19.4305748,20.7326489 L12.9890981,0.262074468 L7.61927103,0.262074468 L7.61927103,1.09932979 C8.45381776,1.21937234 8.92995327,1.45918085 9.28864019,2.29643617 L3.20254206,21.8099894 C2.36799533,24.3231383 1.41269159,24.4431809 0.219457944,24.4431809 L0.219457944,25.4004787 L6.78251869,25.4004787 L6.78251869,24.4431809 C6.06817757,24.4431809 4.99349533,24.2033723 4.99349533,23.2460745 C4.99349533,22.1676277 6.42410748,18.2183936 6.54458879,17.7387766 L14.4183318,17.7387766 L15.4932897,21.2103298 C15.7331495,22.0486915 15.8517009,22.8862234 15.8517009,23.3658404 C15.8517009,24.0833298 14.8986028,24.4431809 13.8236449,24.4431809 L13.8236449,25.4004787 L27.9020374,25.4004787 L27.9020374,24.4431809 C25.9928084,24.4431809 25.2784673,23.8446277 25.2784673,20.7326489 L25.2784673,6.36764894 L36.9723224,26.0001383 L38.5231402,25.8800957 C38.4048645,24.2053085 38.2841075,22.768117 38.2841075,22.768117 L38.2841075,4.33301064 C38.2841075,2.41758511 38.6416916,1.57894681 39.8352009,1.10043617 C40.4326449,1.46001064 40.7913318,1.93879787 41.7444299,4.09320213 L46.9959813,15.226734 L46.9959813,20.8526915 C46.9959813,23.7265213 46.2797103,24.4440106 44.3702056,24.4440106 L44.3702056,25.4015851 L53.4393879,25.4015851 L53.4393879,24.4440106 C51.5298832,24.4440106 50.8136121,23.7265213 50.8136121,20.8526915 L50.8136121,14.2683298 L55.7064766,4.2121383 C56.4205421,2.53735106 57.3769486,1.10043617 58.9277664,1.10043617 L58.9277664,0.262904255 L52.6045654,0.262904255 Z" id="Fill-6" fill="#000000" mask="url(#mask-4)"></path>
                    </g>
                    <path d="M31.8266031,12.1102825 C31.1054967,11.6378532 30.3835564,11.1651507 29.4211546,10.5742044 C27.6164428,9.39121941 26.0527484,8.09162903 26.0527484,6.0820292 C26.0527484,3.83648776 27.7370905,2.65459511 30.0230032,2.65459511 C32.4292856,2.65459511 33.8734443,3.71906312 33.8734443,6.0820292 L34.7151984,6.20027308 L35.316769,1.11851696 L34.7151984,1 L33.8734443,1.94513181 C33.3925214,1.70946329 31.9480847,1 29.662172,1 C25.6921952,1 22.6840641,3.3640584 22.6840641,6.90973637 C22.6840641,9.98325806 24.3695182,11.874614 27.0159841,13.5278437 C27.7379244,14.11879 28.5807905,14.5914925 29.5429143,15.1824388 C32.4301196,17.3094633 33.2729856,18.3739313 33.2729856,20.5015019 C33.2729856,23.1020481 31.3476261,25.4647411 28.4601428,25.4647411 C24.7300714,25.4647411 22.9250816,23.5736582 22.4441587,20.9739313 L21.6015706,20.8554143 L21,26.4098729 L21.7219403,26.6460876 C21.7219403,26.6460876 22.0836055,26.0545951 22.5648064,25.5821657 C22.9250816,25.8181073 23.6472999,26.1731121 24.6094237,26.4090537 C25.5718255,26.7640584 26.8953364,27 28.5796785,27 C33.7530746,27 37.0019451,23.9275706 36.9999991,19.7920387 C36.9999991,16.9552778 36.0378753,15.0639219 31.8266031,12.1102825" id="Fill-9" fill="#000000"></path>
                    <path d="M16.5111438,14.2403238 L18.2469395,8.36059665 L20.0987758,14.2403238 L16.5111438,14.2403238 Z M23.9174195,16.5204614 C22.6342889,12.6838195 21.3615859,8.84357325 20.0987758,5 L16.3972422,5 L16.3972422,5.8403571 C17.0908119,5.8403571 17.4383988,6.19995564 17.5544394,6.68071421 L14.0825805,17.4808695 C13.6200225,18.8000444 13.1571972,19.1596429 12,19.1596429 L12,20 L16.5130154,20 L16.5130154,19.1596429 C15.8186436,19.1596429 15.3558183,18.8011534 15.3558183,18.3203948 C15.3558183,17.840468 15.4718588,17.4808695 15.5865625,17.1204392 L16.0493879,15.5606077 L20.5624033,15.5606077 C20.7934149,16.2798048 21.0252287,17.2404902 21.0252287,17.2404902 C21.1410019,17.6000887 21.2570425,17.9596873 21.2570425,18.4404458 C21.2570425,18.8000444 21.0252287,19.1596429 19.8680316,19.1596429 L19.8680316,20 L26,20 L26,19.1596429 C25.0746166,19.1596429 24.496018,18.5596651 23.9174195,16.5204614 Z" id="Fill-11" fill="#000000"></path>
                    <path d="M112.245661,2.66562136 L112.822875,2.66562136 C117.33369,2.66562136 119.069605,4.09357188 119.069605,8.61757004 C119.069605,13.1415682 117.103873,14.9276754 113.285447,14.9276754 L112.245661,14.9276754 L112.245661,2.66562136 Z M113.979706,16.7143329 C118.375346,16.7143329 123.000802,14.2138377 123,8.49955987 C123,3.02322792 119.184246,1 112.707967,1 L106,1 L106,1.83267314 C107.850824,1.83267314 108.545083,2.30884003 108.545083,4.92762043 L108.545083,21.7144979 C108.545083,24.3341036 107.850824,25.0476662 106,25.0476662 L106,26 L114.905385,26 L114.905385,25.0476662 C112.937783,25.0476662 112.245661,24.4523888 112.245661,21.8325081 L112.245661,16.7143329 L113.979706,16.7143329 Z" id="Fill-13" fill="#000000"></path>
                    <path d="M72.5592183,20.5460911 C69.3707018,20.5460911 68.4251173,17.2733256 68.4251173,14 C68.4251173,10.484683 69.4891387,7.45418899 72.5592183,7.45418899 C75.3948803,7.45418899 76.575974,10.6062388 76.5748824,13.8784441 C76.5748824,17.2724854 75.6303895,20.5460911 72.5592183,20.5460911 M72.5592183,6 C68.1896081,6 65,9.51531702 65,14 C65,18.7266744 68.0711712,22 72.5592183,22 C76.6933193,22 80.0010913,18.4849631 79.9999997,14 C79.9999997,9.39404124 76.8117561,6 72.5592183,6" id="Fill-15" fill="#000000"></path>
                </g>
            </g>
        </g>
    </g>
</svg>