<?xml version="1.0" encoding="UTF-8"?>
<svg width="351px" height="358px" viewBox="0 0 351 358" version="1.1" xmlns="http://www.w3.org/2000/svg" xmlns:xlink="http://www.w3.org/1999/xlink">
    <!-- Generator: Sketch 52.5 (67469) - http://www.bohemiancoding.com/sketch -->
    <title>Ring - Boring</title>
    <desc>Created with Sketch.</desc>
    <g id="3.0.0---Front-End" stroke="none" stroke-width="1" fill="none" fill-rule="evenodd">
        <g id="Desktop---Landing-Page-NEW" transform="translate(-536.000000, -2776.000000)">
            <g id="Process" transform="translate(-26.000000, 2322.000000)">
                <g id="Ring---Boring" transform="translate(0.000000, 393.000000)">
                    <g id="Pie" transform="translate(494.000000, 0.000000)">
                        <g transform="translate(243.741992, 243.741992) rotate(36.000000) translate(-243.741992, -243.741992) translate(69.241992, 69.241992)" stroke="#FFFFFF" stroke-width="2">
                            <path d="M174.493586,174.625097 L9.58808804,120.887232 C33.2626713,47.8139884 97.8841876,0.724753456 174.493586,0.724753456 L174.493586,174.625097 Z" id="Fill-1" fill="#FFC300"></path>
                            <path d="M174.498089,174.242765 L72.5024787,314.831492 C10.4770739,269.701399 -14.2250462,193.564494 9.46564011,120.542832 L174.498089,174.242765 Z" id="Fill-4" fill="#FFC300"></path>
                            <path d="M174.864625,174.103575 L276.806206,314.743645 C214.812597,359.890219 134.916654,359.890219 72.9230447,314.743645 L174.864625,174.103575 Z" id="Fill-6" fill="#FFC300"></path>
                            <path d="M174.876036,174.370115 L339.908485,120.670182 C363.599171,193.691844 338.897051,269.828749 276.871647,314.958842 L174.876036,174.370115 Z" id="Fill-9" fill="#FFC300"></path>
                            <path d="M174.5201,174.130755 L174.5201,0.230411647 C251.129499,0.230411647 315.751015,47.3196466 339.425599,120.39289 L174.5201,174.130755 Z" id="Fill-12" fill="#FFBB12"></path>
                        </g>
                        <circle id="Oval" fill="#FFFFFF" fill-rule="nonzero" cx="244" cy="244" r="141"></circle>
                        <path d="M200.256,236.216 C198.495991,236.216 196.964007,235.856004 195.66,235.136 C194.355993,234.415996 193.356003,233.400007 192.66,232.088 C191.963997,230.775993 191.616,229.256009 191.616,227.528 C191.616,225.799991 191.963997,224.284007 192.66,222.98 C193.356003,221.675993 194.355993,220.664004 195.66,219.944 C196.964007,219.223996 198.495991,218.864 200.256,218.864 C201.360006,218.864 202.427995,219.031998 203.46,219.368 C204.492005,219.704002 205.335997,220.151997 205.992,220.712 L204.624,223.832 C203.231993,222.855995 201.808007,222.368 200.352,222.368 C198.975993,222.368 197.924004,222.799996 197.196,223.664 C196.467996,224.528004 196.104,225.815991 196.104,227.528 C196.104,229.240009 196.467996,230.531996 197.196,231.404 C197.924004,232.276004 198.975993,232.712 200.352,232.712 C201.808007,232.712 203.231993,232.224005 204.624,231.248 L205.992,234.368 C205.335997,234.928003 204.492005,235.375998 203.46,235.712 C202.427995,236.048002 201.360006,236.216 200.256,236.216 Z M219.936,224.192 L219.936,236 L215.784,236 L215.784,234.416 C215.415998,234.992003 214.948003,235.431998 214.38,235.736 C213.811997,236.040002 213.160004,236.192 212.424,236.192 C210.903992,236.192 209.776004,235.772004 209.04,234.932 C208.303996,234.091996 207.936,232.816009 207.936,231.104 L207.936,224.192 L212.208,224.192 L212.208,231.2 C212.208,232.352006 212.703995,232.928 213.696,232.928 C214.272003,232.928 214.743998,232.720002 215.112,232.304 C215.480002,231.887998 215.664,231.344003 215.664,230.672 L215.664,224.192 L219.936,224.192 Z M227.184,236.192 C226.047994,236.192 225.000005,236.072001 224.04,235.832 C223.079995,235.591999 222.272003,235.240002 221.616,234.776 L222.696,231.872 C223.336003,232.288002 224.063996,232.619999 224.88,232.868 C225.696004,233.116001 226.479996,233.24 227.232,233.24 C227.696002,233.24 228.055999,233.172001 228.312,233.036 C228.568001,232.899999 228.696,232.712001 228.696,232.472 C228.696,232.263999 228.604001,232.104001 228.42,231.992 C228.235999,231.879999 227.864003,231.760001 227.304,231.632 L225.408,231.2 C224.207994,230.927999 223.344003,230.528003 222.816,230 C222.287997,229.471997 222.024,228.720005 222.024,227.744 C222.024,226.991996 222.247998,226.324003 222.696,225.74 C223.144002,225.155997 223.771996,224.704002 224.58,224.384 C225.388004,224.063998 226.303995,223.904 227.328,223.904 C228.176004,223.904 229.019996,224.027999 229.86,224.276 C230.700004,224.524001 231.463997,224.871998 232.152,225.32 L231.048,228.104 C230.407997,227.703998 229.764003,227.396001 229.116,227.18 C228.467997,226.963999 227.856003,226.856 227.28,226.856 C226.815998,226.856 226.456001,226.927999 226.2,227.072 C225.943999,227.216001 225.816,227.423999 225.816,227.696 C225.816,227.856001 225.895999,227.987999 226.056,228.092 C226.216001,228.196001 226.495998,228.296 226.896,228.392 L228.888,228.848 C230.136006,229.120001 231.039997,229.539997 231.6,230.108 C232.160003,230.676003 232.44,231.447995 232.44,232.424 C232.44,233.592006 231.972005,234.511997 231.036,235.184 C230.099995,235.856003 228.816008,236.192 227.184,236.192 Z M241.248,233.12 C241.600002,233.12 241.991998,233.096 242.424,233.048 L242.208,236.096 C241.695997,236.16 241.200002,236.192 240.72,236.192 C238.79999,236.192 237.404004,235.788004 236.532,234.98 C235.659996,234.171996 235.224,232.920008 235.224,231.224 L235.224,227.336 L233.016,227.336 L233.016,224.192 L235.224,224.192 L235.224,220.76 L239.496,220.76 L239.496,224.192 L242.328,224.192 L242.328,227.336 L239.496,227.336 L239.496,231.248 C239.496,232.496006 240.079994,233.12 241.248,233.12 Z M249.864,236.192 C248.567994,236.192 247.428005,235.940003 246.444,235.436 C245.459995,234.931997 244.700003,234.216005 244.164,233.288 C243.627997,232.359995 243.36,231.272006 243.36,230.024 C243.36,228.775994 243.627997,227.692005 244.164,226.772 C244.700003,225.851995 245.455995,225.144002 246.432,224.648 C247.408005,224.151998 248.551993,223.904 249.864,223.904 C251.176007,223.904 252.319995,224.151998 253.296,224.648 C254.272005,225.144002 255.027997,225.851995 255.564,226.772 C256.100003,227.692005 256.368,228.775994 256.368,230.024 C256.368,231.272006 256.100003,232.359995 255.564,233.288 C255.027997,234.216005 254.272005,234.931997 253.296,235.436 C252.319995,235.940003 251.176007,236.192 249.864,236.192 Z M249.864,233 C251.384008,233 252.144,232.00801 252.144,230.024 C252.144,228.03999 251.384008,227.048 249.864,227.048 C248.343992,227.048 247.584,228.03999 247.584,230.024 C247.584,232.00801 248.343992,233 249.864,233 Z M273.384,223.904 C274.760007,223.904 275.779997,224.319996 276.444,225.152 C277.108003,225.984004 277.44,227.263991 277.44,228.992 L277.44,236 L273.168,236 L273.168,229.112 C273.168,228.423997 273.064001,227.928002 272.856,227.624 C272.647999,227.319998 272.304002,227.168 271.824,227.168 C271.231997,227.168 270.780002,227.375998 270.468,227.792 C270.155998,228.208002 270,228.799996 270,229.568 L270,236 L265.728,236 L265.728,229.112 C265.728,228.423997 265.624001,227.928002 265.416,227.624 C265.207999,227.319998 264.864002,227.168 264.384,227.168 C263.791997,227.168 263.344002,227.375998 263.04,227.792 C262.735998,228.208002 262.584,228.799996 262.584,229.568 L262.584,236 L258.312,236 L258.312,224.192 L262.464,224.192 L262.464,225.68 C263.248004,224.495994 264.447992,223.904 266.064,223.904 C267.760008,223.904 268.903997,224.599993 269.496,225.992 C269.912002,225.335997 270.459997,224.824002 271.14,224.456 C271.820003,224.087998 272.567996,223.904 273.384,223.904 Z M290.736,230.912 L283.44,230.912 C283.568001,231.680004 283.847998,232.231998 284.28,232.568 C284.712002,232.904002 285.327996,233.072 286.128,233.072 C286.704003,233.072 287.287997,232.976001 287.88,232.784 C288.472003,232.591999 288.999998,232.328002 289.464,231.992 L290.544,234.8 C289.951997,235.232002 289.240004,235.571999 288.408,235.82 C287.575996,236.068001 286.744004,236.192 285.912,236.192 C284.551993,236.192 283.376005,235.944002 282.384,235.448 C281.391995,234.951998 280.628003,234.240005 280.092,233.312 C279.555997,232.383995 279.288,231.296006 279.288,230.048 C279.288,228.863994 279.539997,227.804005 280.044,226.868 C280.548003,225.931995 281.251995,225.204003 282.156,224.684 C283.060005,224.163997 284.079994,223.904 285.216,223.904 C286.912008,223.904 288.255995,224.443995 289.248,225.524 C290.240005,226.604005 290.736,228.079991 290.736,229.952 L290.736,230.912 Z M285.336,226.784 C284.199994,226.784 283.552001,227.487993 283.392,228.896 L287.16,228.896 C287.064,227.487993 286.456006,226.784 285.336,226.784 Z M301.776,227.384 L299.448,227.624 C298.519995,227.72 297.872002,227.967998 297.504,228.368 C297.135998,228.768002 296.952,229.335996 296.952,230.072 L296.952,236 L292.68,236 L292.68,224.192 L296.736,224.192 L296.736,226.232 C297.008001,225.511996 297.455997,224.964002 298.08,224.588 C298.704003,224.211998 299.463996,224 300.36,223.952 L301.536,223.856 L301.776,227.384 Z M201.828,268 L196.98,268 L194.052,262.6 C193.683998,261.975997 193.100004,261.664 192.3,261.664 L190.956,261.664 L190.956,268 L186.612,268 L186.612,251.08 L194.676,251.08 C196.72401,251.08 198.263995,251.523996 199.296,252.412 C200.328005,253.300004 200.844,254.583992 200.844,256.264 C200.844,257.544006 200.492004,258.627996 199.788,259.516 C199.083996,260.404004 198.092006,260.999998 196.812,261.304 C197.788005,261.512001 198.563997,262.143995 199.14,263.2 L201.828,268 Z M193.98,258.352 C194.956005,258.352 195.655998,258.200002 196.08,257.896 C196.504002,257.591998 196.716,257.096003 196.716,256.408 C196.716,255.703996 196.504002,255.196002 196.08,254.884 C195.655998,254.571998 194.956005,254.416 193.98,254.416 L190.908,254.416 L190.908,258.352 L193.98,258.352 Z M214.188,262.912 L206.892,262.912 C207.020001,263.680004 207.299998,264.231998 207.732,264.568 C208.164002,264.904002 208.779996,265.072 209.58,265.072 C210.156003,265.072 210.739997,264.976001 211.332,264.784 C211.924003,264.591999 212.451998,264.328002 212.916,263.992 L213.996,266.8 C213.403997,267.232002 212.692004,267.571999 211.86,267.82 C211.027996,268.068001 210.196004,268.192 209.364,268.192 C208.003993,268.192 206.828005,267.944002 205.836,267.448 C204.843995,266.951998 204.080003,266.240005 203.544,265.312 C203.007997,264.383995 202.74,263.296006 202.74,262.048 C202.74,260.863994 202.991997,259.804005 203.496,258.868 C204.000003,257.931995 204.703995,257.204003 205.608,256.684 C206.512005,256.163997 207.531994,255.904 208.668,255.904 C210.364008,255.904 211.707995,256.443995 212.7,257.524 C213.692005,258.604005 214.188,260.079991 214.188,261.952 L214.188,262.912 Z M208.788,258.784 C207.651994,258.784 207.004001,259.487993 206.844,260.896 L210.612,260.896 C210.516,259.487993 209.908006,258.784 208.788,258.784 Z M220.884,268.192 C219.747994,268.192 218.700005,268.072001 217.74,267.832 C216.779995,267.591999 215.972003,267.240002 215.316,266.776 L216.396,263.872 C217.036003,264.288002 217.763996,264.619999 218.58,264.868 C219.396004,265.116001 220.179996,265.24 220.932,265.24 C221.396002,265.24 221.755999,265.172001 222.012,265.036 C222.268001,264.899999 222.396,264.712001 222.396,264.472 C222.396,264.263999 222.304001,264.104001 222.12,263.992 C221.935999,263.879999 221.564003,263.760001 221.004,263.632 L219.108,263.2 C217.907994,262.927999 217.044003,262.528003 216.516,262 C215.987997,261.471997 215.724,260.720005 215.724,259.744 C215.724,258.991996 215.947998,258.324003 216.396,257.74 C216.844002,257.155997 217.471996,256.704002 218.28,256.384 C219.088004,256.063998 220.003995,255.904 221.028,255.904 C221.876004,255.904 222.719996,256.027999 223.56,256.276 C224.400004,256.524001 225.163997,256.871998 225.852,257.32 L224.748,260.104 C224.107997,259.703998 223.464003,259.396001 222.816,259.18 C222.167997,258.963999 221.556003,258.856 220.98,258.856 C220.515998,258.856 220.156001,258.927999 219.9,259.072 C219.643999,259.216001 219.516,259.423999 219.516,259.696 C219.516,259.856001 219.595999,259.987999 219.756,260.092 C219.916001,260.196001 220.195998,260.296 220.596,260.392 L222.588,260.848 C223.836006,261.120001 224.739997,261.539997 225.3,262.108 C225.860003,262.676003 226.14,263.447995 226.14,264.424 C226.14,265.592006 225.672005,266.511997 224.736,267.184 C223.799995,267.856003 222.516008,268.192 220.884,268.192 Z M235.716,255.904 C236.724005,255.904 237.623996,256.163997 238.416,256.684 C239.208004,257.204003 239.823998,257.935995 240.264,258.88 C240.704002,259.824005 240.924,260.903994 240.924,262.12 C240.924,263.336006 240.704002,264.403995 240.264,265.324 C239.823998,266.244005 239.212004,266.951998 238.428,267.448 C237.643996,267.944002 236.740005,268.192 235.716,268.192 C234.963996,268.192 234.272003,268.040002 233.64,267.736 C233.007997,267.431998 232.516002,267.024003 232.164,266.512 L232.164,272.32 L227.892,272.32 L227.892,256.192 L232.092,256.192 L232.092,257.704 C232.428002,257.143997 232.919997,256.704002 233.568,256.384 C234.216003,256.063998 234.931996,255.904 235.716,255.904 Z M234.42,265 C235.156004,265 235.719998,264.752002 236.112,264.256 C236.504002,263.759998 236.7,263.048005 236.7,262.12 C236.7,261.143995 236.500002,260.396003 236.1,259.876 C235.699998,259.355997 235.132004,259.096 234.396,259.096 C233.659996,259.096 233.092002,259.351997 232.692,259.864 C232.291998,260.376003 232.092,261.111995 232.092,262.072 C232.092,263.016005 232.291998,263.739997 232.692,264.244 C233.092002,264.748003 233.667996,265 234.42,265 Z M248.844,268.192 C247.547994,268.192 246.408005,267.940003 245.424,267.436 C244.439995,266.931997 243.680003,266.216005 243.144,265.288 C242.607997,264.359995 242.34,263.272006 242.34,262.024 C242.34,260.775994 242.607997,259.692005 243.144,258.772 C243.680003,257.851995 244.435995,257.144002 245.412,256.648 C246.388005,256.151998 247.531993,255.904 248.844,255.904 C250.156007,255.904 251.299995,256.151998 252.276,256.648 C253.252005,257.144002 254.007997,257.851995 254.544,258.772 C255.080003,259.692005 255.348,260.775994 255.348,262.024 C255.348,263.272006 255.080003,264.359995 254.544,265.288 C254.007997,266.216005 253.252005,266.931997 252.276,267.436 C251.299995,267.940003 250.156007,268.192 248.844,268.192 Z M248.844,265 C250.364008,265 251.124,264.00801 251.124,262.024 C251.124,260.03999 250.364008,259.048 248.844,259.048 C247.323992,259.048 246.564,260.03999 246.564,262.024 C246.564,264.00801 247.323992,265 248.844,265 Z M265.236,255.904 C266.644007,255.904 267.691997,256.323996 268.38,257.164 C269.068003,258.004004 269.412,259.279991 269.412,260.992 L269.412,268 L265.14,268 L265.14,261.184 C265.14,260.479996 265.016001,259.968002 264.768,259.648 C264.519999,259.327998 264.148002,259.168 263.652,259.168 C263.011997,259.168 262.504002,259.371998 262.128,259.78 C261.751998,260.188002 261.564,260.735997 261.564,261.424 L261.564,268 L257.292,268 L257.292,256.192 L261.444,256.192 L261.444,257.776 C261.860002,257.167997 262.395997,256.704002 263.052,256.384 C263.708003,256.063998 264.435996,255.904 265.236,255.904 Z M276.564,268.192 C275.427994,268.192 274.380005,268.072001 273.42,267.832 C272.459995,267.591999 271.652003,267.240002 270.996,266.776 L272.076,263.872 C272.716003,264.288002 273.443996,264.619999 274.26,264.868 C275.076004,265.116001 275.859996,265.24 276.612,265.24 C277.076002,265.24 277.435999,265.172001 277.692,265.036 C277.948001,264.899999 278.076,264.712001 278.076,264.472 C278.076,264.263999 277.984001,264.104001 277.8,263.992 C277.615999,263.879999 277.244003,263.760001 276.684,263.632 L274.788,263.2 C273.587994,262.927999 272.724003,262.528003 272.196,262 C271.667997,261.471997 271.404,260.720005 271.404,259.744 C271.404,258.991996 271.627998,258.324003 272.076,257.74 C272.524002,257.155997 273.151996,256.704002 273.96,256.384 C274.768004,256.063998 275.683995,255.904 276.708,255.904 C277.556004,255.904 278.399996,256.027999 279.24,256.276 C280.080004,256.524001 280.843997,256.871998 281.532,257.32 L280.428,260.104 C279.787997,259.703998 279.144003,259.396001 278.496,259.18 C277.847997,258.963999 277.236003,258.856 276.66,258.856 C276.195998,258.856 275.836001,258.927999 275.58,259.072 C275.323999,259.216001 275.196,259.423999 275.196,259.696 C275.196,259.856001 275.275999,259.987999 275.436,260.092 C275.596001,260.196001 275.875998,260.296 276.276,260.392 L278.268,260.848 C279.516006,261.120001 280.419997,261.539997 280.98,262.108 C281.540003,262.676003 281.82,263.447995 281.82,264.424 C281.82,265.592006 281.352005,266.511997 280.416,267.184 C279.479995,267.856003 278.196008,268.192 276.564,268.192 Z M294.468,262.912 L287.172,262.912 C287.300001,263.680004 287.579998,264.231998 288.012,264.568 C288.444002,264.904002 289.059996,265.072 289.86,265.072 C290.436003,265.072 291.019997,264.976001 291.612,264.784 C292.204003,264.591999 292.731998,264.328002 293.196,263.992 L294.276,266.8 C293.683997,267.232002 292.972004,267.571999 292.14,267.82 C291.307996,268.068001 290.476004,268.192 289.644,268.192 C288.283993,268.192 287.108005,267.944002 286.116,267.448 C285.123995,266.951998 284.360003,266.240005 283.824,265.312 C283.287997,264.383995 283.02,263.296006 283.02,262.048 C283.02,260.863994 283.271997,259.804005 283.776,258.868 C284.280003,257.931995 284.983995,257.204003 285.888,256.684 C286.792005,256.163997 287.811994,255.904 288.948,255.904 C290.644008,255.904 291.987995,256.443995 292.98,257.524 C293.972005,258.604005 294.468,260.079991 294.468,261.952 L294.468,262.912 Z M289.068,258.784 C287.931994,258.784 287.284001,259.487993 287.124,260.896 L290.892,260.896 C290.796,259.487993 290.188006,258.784 289.068,258.784 Z M301.164,268.192 C300.027994,268.192 298.980005,268.072001 298.02,267.832 C297.059995,267.591999 296.252003,267.240002 295.596,266.776 L296.676,263.872 C297.316003,264.288002 298.043996,264.619999 298.86,264.868 C299.676004,265.116001 300.459996,265.24 301.212,265.24 C301.676002,265.24 302.035999,265.172001 302.292,265.036 C302.548001,264.899999 302.676,264.712001 302.676,264.472 C302.676,264.263999 302.584001,264.104001 302.4,263.992 C302.215999,263.879999 301.844003,263.760001 301.284,263.632 L299.388,263.2 C298.187994,262.927999 297.324003,262.528003 296.796,262 C296.267997,261.471997 296.004,260.720005 296.004,259.744 C296.004,258.991996 296.227998,258.324003 296.676,257.74 C297.124002,257.155997 297.751996,256.704002 298.56,256.384 C299.368004,256.063998 300.283995,255.904 301.308,255.904 C302.156004,255.904 302.999996,256.027999 303.84,256.276 C304.680004,256.524001 305.443997,256.871998 306.132,257.32 L305.028,260.104 C304.387997,259.703998 303.744003,259.396001 303.096,259.18 C302.447997,258.963999 301.836003,258.856 301.26,258.856 C300.795998,258.856 300.436001,258.927999 300.18,259.072 C299.923999,259.216001 299.796,259.423999 299.796,259.696 C299.796,259.856001 299.875999,259.987999 300.036,260.092 C300.196001,260.196001 300.475998,260.296 300.876,260.392 L302.868,260.848 C304.116006,261.120001 305.019997,261.539997 305.58,262.108 C306.140003,262.676003 306.42,263.447995 306.42,264.424 C306.42,265.592006 305.952005,266.511997 305.016,267.184 C304.079995,267.856003 302.796008,268.192 301.164,268.192 Z" id="Customer-Responses" fill="#181D21"></path>
                    </g>
                    <g id="Collect-Feedback" transform="translate(627.000000, 9.000000)" fill-rule="nonzero">
                        <g id="Arrow" transform="translate(83.000000, 53.000000)">
                            <circle id="Oval" stroke="#FFC300" stroke-width="2" fill="#FFFAE9" cx="24.5" cy="24.5" r="24.5"></circle>
                            <path d="M23.8028122,18.0445263 L24.5955809,17.2517576 C24.9312577,16.9160808 25.4740542,16.9160808 25.80616,17.2517576 L32.7482424,24.1902689 C33.0839192,24.5259458 33.0839192,25.0687423 32.7482424,25.4008481 L25.80616,32.3429305 C25.4704832,32.6786073 24.9276866,32.6786073 24.5955809,32.3429305 L23.8028122,31.5501618 C23.4635643,31.210914 23.4707064,30.6574043 23.8170963,30.3252985 L28.1201875,26.2257561 L17.8570472,26.2257561 C17.3821002,26.2257561 17,25.8436558 17,25.3687088 L17,24.2259792 C17,23.7510323 17.3821002,23.368932 17.8570472,23.368932 L28.1201875,23.368932 L23.8170963,19.2693896 C23.4671354,18.9372838 23.4599933,18.3837741 23.8028122,18.0445263 Z" id="Shape" fill="#FFC300"></path>
                        </g>
                    </g>
                    <g id="Analyze-&amp;-Share" transform="translate(862.000000, 140.000000)" fill-rule="nonzero">
                        <g id="Arrow" transform="translate(0.000000, 27.000000)">
                            <circle id="Oval" stroke="#FFC300" stroke-width="2" fill="#FFFAE9" cx="24.5" cy="24.5" r="24.5"></circle>
                            <path d="M23.3179878,18.8556653 L24.1107564,18.0628966 C24.4464333,17.7272198 24.9892298,17.7272198 25.3213356,18.0628966 L32.263418,25.0014079 C32.5990948,25.3370847 32.5990948,25.8798813 32.263418,26.2119871 L25.3213356,33.1540695 C24.9856588,33.4897463 24.4428622,33.4897463 24.1107564,33.1540695 L23.3179878,32.3613008 C22.9787399,32.0220529 22.985882,31.4685433 23.3322719,31.1364375 L27.6353631,27.036895 L17.3722228,27.036895 C16.8972758,27.036895 16.5151756,26.6547948 16.5151756,26.1798478 L16.5151756,25.0371182 C16.5151756,24.5621712 16.8972758,24.180071 17.3722228,24.180071 L27.6353631,24.180071 L23.3322719,20.0805286 C22.9823109,19.7484228 22.9751689,19.1949131 23.3179878,18.8556653 Z" id="Shape" fill="#FFC300" transform="translate(24.515176, 25.608483) rotate(64.000000) translate(-24.515176, -25.608483) "></path>
                        </g>
                    </g>
                    <g id="Consult" transform="translate(807.000000, 349.000000)" fill-rule="nonzero">
                        <g id="Arrow">
                            <circle id="Oval" stroke="#FFC300" stroke-width="2" fill="#FFFAE9" cx="24.5" cy="24.5" r="24.5"></circle>
                            <path d="M22.7589147,18.1436975 L23.5516833,17.3509288 C23.8873602,17.015252 24.4301567,17.015252 24.7622625,17.3509288 L31.7043449,24.2894401 C32.0400217,24.625117 32.0400217,25.1679135 31.7043449,25.5000193 L24.7622625,32.4421017 C24.4265857,32.7777785 23.8837891,32.7777785 23.5516833,32.4421017 L22.7589147,31.649333 C22.4196668,31.3100852 22.4268089,30.7565755 22.7731988,30.4244697 L27.07629,26.3249272 L16.8131497,26.3249272 C16.3382027,26.3249272 15.9561025,25.942827 15.9561025,25.46788 L15.9561025,24.3251504 C15.9561025,23.8502034 16.3382027,23.4681032 16.8131497,23.4681032 L27.07629,23.4681032 L22.7731988,19.3685608 C22.4232378,19.036455 22.4160958,18.4829453 22.7589147,18.1436975 Z" id="Shape" fill="#FFC300" transform="translate(23.956102, 24.896515) rotate(147.000000) translate(-23.956102, -24.896515) "></path>
                        </g>
                    </g>
                    <g id="Action" transform="translate(401.000000, 349.000000)" fill-rule="nonzero">
                        <g id="Arrow" transform="translate(216.000000, 0.000000)">
                            <circle id="Oval" stroke="#FFC300" stroke-width="2" fill="#FFFAE9" cx="24.5" cy="24.5" r="24.5"></circle>
                            <path d="M22.7589147,18.1436975 L23.5516833,17.3509288 C23.8873602,17.015252 24.4301567,17.015252 24.7622625,17.3509288 L31.7043449,24.2894401 C32.0400217,24.625117 32.0400217,25.1679135 31.7043449,25.5000193 L24.7622625,32.4421017 C24.4265857,32.7777785 23.8837891,32.7777785 23.5516833,32.4421017 L22.7589147,31.649333 C22.4196668,31.3100852 22.4268089,30.7565755 22.7731988,30.4244697 L27.07629,26.3249272 L16.8131497,26.3249272 C16.3382027,26.3249272 15.9561025,25.942827 15.9561025,25.46788 L15.9561025,24.3251504 C15.9561025,23.8502034 16.3382027,23.4681032 16.8131497,23.4681032 L27.07629,23.4681032 L22.7731988,19.3685608 C22.4232378,19.036455 22.4160958,18.4829453 22.7589147,18.1436975 Z" id="Shape" fill="#FFC300" transform="translate(23.956102, 24.896515) rotate(218.000000) translate(-23.956102, -24.896515) "></path>
                        </g>
                    </g>
                    <g id="Capture" transform="translate(0.000000, 115.000000)" fill-rule="nonzero">
                        <g id="Arrow" transform="translate(564.000000, 54.000000)">
                            <circle id="Oval" stroke="#FFC300" stroke-width="2" fill="#FFFAE9" cx="24.5" cy="24.5" r="24.5"></circle>
                            <path d="M22.3179878,17.8556653 L23.1107564,17.0628966 C23.4464333,16.7272198 23.9892298,16.7272198 24.3213356,17.0628966 L31.263418,24.0014079 C31.5990948,24.3370847 31.5990948,24.8798813 31.263418,25.2119871 L24.3213356,32.1540695 C23.9856588,32.4897463 23.4428622,32.4897463 23.1107564,32.1540695 L22.3179878,31.3613008 C21.9787399,31.0220529 21.985882,30.4685433 22.3322719,30.1364375 L26.6353631,26.036895 L16.3722228,26.036895 C15.8972758,26.036895 15.5151756,25.6547948 15.5151756,25.1798478 L15.5151756,24.0371182 C15.5151756,23.5621712 15.8972758,23.180071 16.3722228,23.180071 L26.6353631,23.180071 L22.3322719,19.0805286 C21.9823109,18.7484228 21.9751689,18.1949131 22.3179878,17.8556653 Z" id="Shape" fill="#FFC300" transform="translate(23.515176, 24.608483) scale(-1, 1) rotate(-116.000000) translate(-23.515176, -24.608483) "></path>
                        </g>
                    </g>
                </g>
            </g>
        </g>
    </g>
</svg>