<svg width="110" height="110" viewBox="0 0 110 110" fill="none" xmlns="http://www.w3.org/2000/svg">
<g clip-path="url(#clip0)">
<path d="M91.6499 40.4343C86.5659 20.1815 66.0268 7.88475 45.7739 12.9687C29.9468 16.9418 18.4546 30.6209 17.2705 46.8959C6.03261 48.7491 -1.57525 59.3615 0.278006 70.5994C1.92546 80.59 10.5823 87.9066 20.7076 87.8664H37.8932V80.9922H20.7076C13.1146 80.9922 6.95913 74.8367 6.95913 67.2437C6.95913 59.6506 13.1146 53.4952 20.7076 53.4952C22.606 53.4952 24.1447 51.9564 24.1447 50.058C24.1276 32.9736 37.9635 19.11 55.0479 19.093C69.837 19.0782 82.5679 29.5335 85.4287 44.0431C85.7112 45.4918 86.8869 46.5986 88.3502 46.7928C97.7469 48.1309 104.279 56.833 102.941 66.2295C101.74 74.6672 94.5358 80.9496 86.013 80.9922H72.2645V87.8664H86.013C99.3009 87.8262 110.04 77.0216 110 63.7337C109.966 52.6726 102.395 43.0592 91.6499 40.4343Z" fill="#676767"/>
<path d="M52.6381 54.4922L38.8896 68.2407L43.736 73.087L51.6414 65.216V98.178H58.5156V65.216L66.3866 73.087L71.233 68.2407L57.4845 54.4922C56.1438 53.1594 53.9788 53.1594 52.6381 54.4922Z" fill="#676767"/>
</g>
<defs>
<clipPath id="clip0">
<rect width="110" height="110" fill="white"/>
</clipPath>
</defs>
</svg>
