<?xml version="1.0" encoding="UTF-8"?>
<svg width="30px" height="40px" viewBox="0 0 30 40" version="1.1" xmlns="http://www.w3.org/2000/svg" xmlns:xlink="http://www.w3.org/1999/xlink">
    <!-- Generator: Sketch 52.4 (67378) - http://www.bohemiancoding.com/sketch -->
    <title>Health - Green</title>
    <desc>Created with Sketch.</desc>
    <defs>
        <filter x="0.0%" y="0.0%" width="100.0%" height="100.0%" filterUnits="objectBoundingBox" id="filter-1">
            <feGaussianBlur stdDeviation="0" in="SourceGraphic"></feGaussianBlur>
        </filter>
    </defs>
    <g id="3.0.0---Front-End" stroke="none" stroke-width="1" fill="none" fill-rule="evenodd">
        <g id="Artboard" transform="translate(-404.000000, -621.000000)">
            <g id="Markers" transform="translate(376.000000, 533.000000)">
                <g id="Green" transform="translate(28.000000, 40.000000)">
                    <g id="Health---Green" transform="translate(0.000000, 48.000000)">
                        <g id="Marker---Green">
                            <g>
                                <path d="M26.3636364,37.7142857 C26.3636364,38.9771023 21.2080677,40 14.8490178,40 C8.48890198,40 3.33333333,38.9771023 3.33333333,37.7142857 C3.33333333,36.4514691 8.48890198,35.4285714 14.8490178,35.4285714 C21.2080677,35.4285714 26.3636364,36.4514691 26.3636364,37.7142857" id="Shadow" fill-opacity="0.2" fill="#2B3841" filter="url(#filter-1)"></path>
                                <g id="Shape" fill="#00BA54" fill-rule="nonzero" stroke="#004C22" stroke-opacity="0.64" stroke-width="2">
                                    <path d="M15.0804718,36.8961678 L24.8853166,25.6455514 C27.5024376,22.9559692 29,19.3164147 29,15.4285714 C29,7.45368523 22.7255838,1 15,1 C7.27441619,1 1,7.45368523 1,15.4285714 C1,19.4471695 2.60069541,23.198365 5.37499141,25.9062641 L5.42617433,25.9600756 L15.0804718,36.8961678 Z" id="Combined-Shape"></path>
                                </g>
                            </g>
                        </g>
                        <path d="M22.4065564,14.8186057 L18.1802003,14.8186057 L18.1802003,10.5922496 C18.1802003,10.2653368 17.9148635,10 17.5879506,10 L13.4108554,10 C13.0839425,10 12.8186057,10.2653368 12.8186057,10.5922496 L12.8186057,14.8186057 L8.59224964,14.8186057 C8.26533679,14.8186057 8,15.0839425 8,15.4108554 L8,19.5879506 C8,19.915983 8.26533679,20.1813198 8.59224964,20.1813198 L12.8186057,20.1813198 L12.8186057,24.4065564 C12.8186057,24.7345888 13.0839425,24.9999256 13.4108554,24.9999256 L17.5879506,24.9999256 C17.9148635,24.9999256 18.1802003,24.7345888 18.1802003,24.4065564 L18.1802003,20.1813198 L22.4065564,20.1813198 C22.7334692,20.1813198 22.998806,19.915983 22.998806,19.5879506 L22.998806,15.4108554 C22.998806,15.0839425 22.7334692,14.8186057 22.4065564,14.8186057" id="Health" fill="#004C22"></path>
                    </g>
                </g>
            </g>
        </g>
    </g>
</svg>