<?xml version="1.0" encoding="UTF-8"?>
<svg width="30px" height="40px" viewBox="0 0 30 40" version="1.1" xmlns="http://www.w3.org/2000/svg" xmlns:xlink="http://www.w3.org/1999/xlink">
    <!-- Generator: Sketch 52.4 (67378) - http://www.bohemiancoding.com/sketch -->
    <title>Livelihood - No Data</title>
    <desc>Created with Sketch.</desc>
    <defs>
        <filter x="0.0%" y="0.0%" width="100.0%" height="100.0%" filterUnits="objectBoundingBox" id="filter-1">
            <feGaussianBlur stdDeviation="0" in="SourceGraphic"></feGaussianBlur>
        </filter>
    </defs>
    <g id="3.0.0---Front-End" stroke="none" stroke-width="1" fill="none" fill-rule="evenodd">
        <g id="Artboard" transform="translate(-546.000000, -861.000000)">
            <g id="Markers" transform="translate(376.000000, 533.000000)">
                <g id="No-Data" transform="translate(170.000000, 40.000000)">
                    <g id="Livelihood---No-Data" transform="translate(0.000000, 288.000000)">
                        <g id="Marker---No-Data">
                            <path d="M26.3636364,37.7142857 C26.3636364,38.9771023 21.2080677,40 14.8490178,40 C8.48890198,40 3.33333333,38.9771023 3.33333333,37.7142857 C3.33333333,36.4514691 8.48890198,35.4285714 14.8490178,35.4285714 C21.2080677,35.4285714 26.3636364,36.4514691 26.3636364,37.7142857" id="Shadow" fill-opacity="0.2" fill="#2B3841" fill-rule="evenodd" filter="url(#filter-1)"></path>
                            <path d="M15.0804718,36.8961678 L24.8853166,25.6455514 C27.5024376,22.9559692 29,19.3164147 29,15.4285714 C29,7.45368523 22.7255838,1 15,1 C7.27441619,1 1,7.45368523 1,15.4285714 C1,19.4471695 2.60069541,23.198365 5.37499141,25.9062641 L5.42617433,25.9600756 L15.0804718,36.8961678 Z" id="Combined-Shape" stroke-opacity="0.16" stroke="#2B3841" stroke-width="2" fill="#CCCCCC" fill-rule="nonzero"></path>
                        </g>
                        <path d="M18.3445094,10.5415126 C19.2533295,10.5310182 19.7255801,10.7576985 20.0488094,11.6224418 C20.5483456,12.9541886 20.231413,14.7613343 20.0446116,13.8000419 C19.7948435,12.510273 19.5261854,12.0548135 19.1882638,11.4692227 C18.7506449,10.7115228 18.4148223,10.4921887 17.5490295,10.1542671 C16.6412588,9.80060386 14.9652938,10.1164871 14.487796,10.4848425 C15.5466868,10.2581622 16.9004719,10.2906951 17.6613202,11.7819576 C18.4987779,13.4222414 17.9257805,16.0511032 17.6056995,14.7529387 C17.2908658,13.4694665 17.0022682,12.7138655 16.394639,11.8365288 C15.7366365,10.8878297 14.7742947,10.4921887 13.8675735,10.3473651 C13.3606912,10.2655084 11.5157654,10.3179807 11.010982,11.1512406 C12.4371788,10.7514018 13.5202069,11.4377394 13.9767159,11.9183855 C15.3640832,13.3739669 15.4847695,17.0344339 14.7847891,15.7488628 C13.6335471,13.6342295 13.3512461,12.519718 11.5073698,11.9551161 C10.1399419,11.5353378 9.10518833,11.7536225 8.17223099,12.5123719 C7.49848677,13.0601826 7,14.224018 7,15.7058355 C7,19.0462216 10.0454918,21.5103204 16.046223,20.2037603 C21.6565604,18.981156 22.971516,17.3072899 22.9998511,14.4863795 C23.02084,12.4966302 20.8201521,9.62534641 18.3445094,10.5415126" id="Livelihood" fill-opacity="0.32" fill="#2B3841"></path>
                    </g>
                </g>
            </g>
        </g>
    </g>
</svg>