<?xml version="1.0" encoding="UTF-8"?>
<svg width="30px" height="40px" viewBox="0 0 30 40" version="1.1" xmlns="http://www.w3.org/2000/svg" xmlns:xlink="http://www.w3.org/1999/xlink">
    <!-- Generator: Sketch 52.4 (67378) - http://www.bohemiancoding.com/sketch -->
    <title>Nutrition - Red</title>
    <desc>Created with Sketch.</desc>
    <defs>
        <filter x="0.0%" y="0.0%" width="100.0%" height="100.0%" filterUnits="objectBoundingBox" id="filter-1">
            <feGaussianBlur stdDeviation="0" in="SourceGraphic"></feGaussianBlur>
        </filter>
    </defs>
    <g id="3.0.0---Front-End" stroke="none" stroke-width="1" fill="none" fill-rule="evenodd">
        <g id="Artboard" transform="translate(-476.000000, -669.000000)">
            <g id="Markers" transform="translate(376.000000, 533.000000)">
                <g id="Red" transform="translate(100.000000, 40.000000)">
                    <g id="Nutrition---Red" transform="translate(0.000000, 96.000000)">
                        <g id="Marker---Red">
                            <path d="M26.3636364,37.7142857 C26.3636364,38.9771023 21.2080677,40 14.8490178,40 C8.48890198,40 3.33333333,38.9771023 3.33333333,37.7142857 C3.33333333,36.4514691 8.48890198,35.4285714 14.8490178,35.4285714 C21.2080677,35.4285714 26.3636364,36.4514691 26.3636364,37.7142857" id="Shadow" fill-opacity="0.2" fill="#2B3841" fill-rule="evenodd" filter="url(#filter-1)"></path>
                            <path d="M15.0804718,36.8961678 L24.8853166,25.6455514 C27.5024376,22.9559692 29,19.3164147 29,15.4285714 C29,7.45368523 22.7255838,1 15,1 C7.27441619,1 1,7.45368523 1,15.4285714 C1,19.4471695 2.60069541,23.198365 5.37499141,25.9062641 L5.42617433,25.9600756 L15.0804718,36.8961678 Z" id="Combined-Shape" stroke-opacity="0.64" stroke="#661414" stroke-width="2" fill="#F8382B" fill-rule="nonzero"></path>
                        </g>
                        <path d="M21.2275313,16.387549 C20.2496706,13.911216 18.0282392,13.2018313 16.4184196,13.658964 C16.0868805,13.7525223 15.7972327,13.818842 15.5339165,13.865029 L16.5452901,11.1542083 C16.5835907,11.0535444 16.546487,10.9410376 16.457917,10.879455 L15.993523,10.5632518 C15.8522897,10.4661407 15.6571963,10.5466718 15.6260772,10.7136556 L15.5494761,11.1186799 C15.2275122,10.6686528 14.620688,10.1463846 13.4668842,9.80649581 C12.5093706,9.52463677 11.6320489,9.60516792 11.1233698,9 C11.1233698,9 11.3818985,13.0845874 14.1395374,12.6096905 C14.6661699,12.5185008 15.051569,12.405994 15.3268542,12.3029615 L15.0204499,13.9325331 C14.2903458,13.9905629 13.7589258,13.8697662 13.0551534,13.7252838 C11.97436,13.5038231 10.5548462,13.7655494 9.6176798,15.2991941 C8.68051344,16.8316546 8.98572088,18.1083102 9.38667966,19.5128682 C9.68350886,20.5538518 10.2831517,21.5498327 11.0575408,23.405602 C12.0389921,25.7575854 13.8905839,24.7000219 15.1138074,24.8373986 C16.3489999,24.9759595 15.8068078,24.9783281 16.9474458,24.9996451 C18.0892807,25.0221465 19.2909602,23.9705044 19.6177117,23.001762 C20.3131059,20.9387433 22.1670914,18.7667708 21.2275313,16.387549" id="Nutrition" fill="#661414"></path>
                    </g>
                </g>
            </g>
        </g>
    </g>
</svg>