<?xml version="1.0" encoding="UTF-8"?>
<svg width="30px" height="40px" viewBox="0 0 30 40" version="1.1" xmlns="http://www.w3.org/2000/svg" xmlns:xlink="http://www.w3.org/1999/xlink">
    <!-- Generator: Sketch 52.4 (67378) - http://www.bohemiancoding.com/sketch -->
    <title>Nutrition - No Data Copy</title>
    <desc>Created with Sketch.</desc>
    <defs>
        <filter x="0.0%" y="0.0%" width="100.0%" height="100.0%" filterUnits="objectBoundingBox" id="filter-1">
            <feGaussianBlur stdDeviation="0" in="SourceGraphic"></feGaussianBlur>
        </filter>
    </defs>
    <g id="3.0.0---Front-End" stroke="none" stroke-width="1" fill="none" fill-rule="evenodd">
        <g id="Artboard" transform="translate(-616.000000, -669.000000)">
            <g id="Markers" transform="translate(376.000000, 533.000000)">
                <g id="Unselected" transform="translate(240.000000, 40.000000)">
                    <g id="Nutrition---No-Data-Copy" transform="translate(0.000000, 96.000000)">
                        <g id="Marker---Unselected" fill="#2B3841">
                            <path d="M14.8490178,40 C8.48890198,40 3.33333333,38.9771023 3.33333333,37.7142857 C3.33333333,36.9797293 6.39248318,36.2404651 12.5107829,35.4964929 L15.0860935,38.4180036 L17.6291911,35.4964929 C23.4521546,36.2608906 26.3636364,37.0001548 26.3636364,37.7142857 C26.3636364,38.9771023 21.2080677,40 14.8490178,40 Z" id="Shadow" fill-opacity="0.2" fill-rule="evenodd" filter="url(#filter-1)"></path>
                            <path d="M15.0804718,36.8961678 L24.8853166,25.6455514 C27.5024376,22.9559692 29,19.3164147 29,15.4285714 C29,7.45368523 22.7255838,1 15,1 C7.27441619,1 1,7.45368523 1,15.4285714 C1,19.4471695 2.60069541,23.198365 5.37499141,25.9062641 L5.42617433,25.9600756 L15.0804718,36.8961678 Z" id="Combined-Shape" stroke-opacity="0.24" stroke="#FFFFFF" stroke-width="2" fill-opacity="0.32" fill-rule="nonzero"></path>
                        </g>
                        <path d="M21.2275313,15.387549 C20.2496706,12.911216 18.0282392,12.2018313 16.4184196,12.658964 C16.0868805,12.7525223 15.7972327,12.818842 15.5339165,12.865029 L16.5452901,10.1542083 C16.5835907,10.0535444 16.546487,9.94103763 16.457917,9.87945498 L15.993523,9.56325178 C15.8522897,9.46614069 15.6571963,9.54667184 15.6260772,9.71365555 L15.5494761,10.1186799 C15.2275122,9.66865285 14.620688,9.14638464 13.4668842,8.80649581 C12.5093706,8.52463677 11.6320489,8.60516792 11.1233698,8 C11.1233698,8 11.3818985,12.0845874 14.1395374,11.6096905 C14.6661699,11.5185008 15.051569,11.405994 15.3268542,11.3029615 L15.0204499,12.9325331 C14.2903458,12.9905629 13.7589258,12.8697662 13.0551534,12.7252838 C11.97436,12.5038231 10.5548462,12.7655494 9.6176798,14.2991941 C8.68051344,15.8316546 8.98572088,17.1083102 9.38667966,18.5128682 C9.68350886,19.5538518 10.2831517,20.5498327 11.0575408,22.405602 C12.0389921,24.7575854 13.8905839,23.7000219 15.1138074,23.8373986 C16.3489999,23.9759595 15.8068078,23.9783281 16.9474458,23.9996451 C18.0892807,24.0221465 19.2909602,22.9705044 19.6177117,22.001762 C20.3131059,19.9387433 22.1670914,17.7667708 21.2275313,15.387549" id="Nutrition" fill-opacity="0.4" fill="#FFFFFF"></path>
                    </g>
                </g>
            </g>
        </g>
    </g>
</svg>