<?xml version="1.0" encoding="UTF-8"?>
<svg width="30px" height="40px" viewBox="0 0 30 40" version="1.1" xmlns="http://www.w3.org/2000/svg" xmlns:xlink="http://www.w3.org/1999/xlink">
    <!-- Generator: Sketch 52.4 (67378) - http://www.bohemiancoding.com/sketch -->
    <title>Pulse - No Data</title>
    <desc>Created with Sketch.</desc>
    <defs>
        <filter x="0.0%" y="0.0%" width="100.0%" height="100.0%" filterUnits="objectBoundingBox" id="filter-1">
            <feGaussianBlur stdDeviation="0" in="SourceGraphic"></feGaussianBlur>
        </filter>
    </defs>
    <g id="3.0.0---Front-End" stroke="none" stroke-width="1" fill="none" fill-rule="evenodd">
        <g id="Artboard" transform="translate(-546.000000, -813.000000)">
            <g id="Markers" transform="translate(376.000000, 533.000000)">
                <g id="No-Data" transform="translate(170.000000, 40.000000)">
                    <g id="Pulse---No-Data" transform="translate(0.000000, 240.000000)">
                        <g id="Marker---No-Data">
                            <path d="M26.3636364,37.7142857 C26.3636364,38.9771023 21.2080677,40 14.8490178,40 C8.48890198,40 3.33333333,38.9771023 3.33333333,37.7142857 C3.33333333,36.4514691 8.48890198,35.4285714 14.8490178,35.4285714 C21.2080677,35.4285714 26.3636364,36.4514691 26.3636364,37.7142857" id="Shadow" fill-opacity="0.2" fill="#2B3841" fill-rule="evenodd" filter="url(#filter-1)"></path>
                            <path d="M15.0804718,36.8961678 L24.8853166,25.6455514 C27.5024376,22.9559692 29,19.3164147 29,15.4285714 C29,7.45368523 22.7255838,1 15,1 C7.27441619,1 1,7.45368523 1,15.4285714 C1,19.4471695 2.60069541,23.198365 5.37499141,25.9062641 L5.42617433,25.9600756 L15.0804718,36.8961678 Z" id="Combined-Shape" stroke-opacity="0.16" stroke="#2B3841" stroke-width="2" fill="#CCCCCC" fill-rule="nonzero"></path>
                        </g>
                        <g id="Icon" transform="translate(7.750000, 11.250000)" fill-rule="nonzero">
                            <polyline id="Path-2" stroke-opacity="0.32" stroke="#2B3841" stroke-width="2" stroke-linecap="round" stroke-linejoin="round" points="0 5.97274117 3.10690772 5.97274117 5.09590481 0 7.51573646 12.3800659 9.5353875 5.70572563 12.2967264 5.70572563"></polyline>
                            <circle id="Oval-4" fill-opacity="0.32" fill="#2B3841" cx="14.5" cy="5.5" r="2.5"></circle>
                        </g>
                    </g>
                </g>
            </g>
        </g>
    </g>
</svg>