<?xml version="1.0" encoding="UTF-8"?>
<svg width="30px" height="40px" viewBox="0 0 30 40" version="1.1" xmlns="http://www.w3.org/2000/svg" xmlns:xlink="http://www.w3.org/1999/xlink">
    <!-- Generator: Sketch 52.4 (67378) - http://www.bohemiancoding.com/sketch -->
    <title>Shelter - Red</title>
    <desc>Created with Sketch.</desc>
    <defs>
        <filter x="0.0%" y="0.0%" width="100.0%" height="100.0%" filterUnits="objectBoundingBox" id="filter-1">
            <feGaussianBlur stdDeviation="0" in="SourceGraphic"></feGaussianBlur>
        </filter>
    </defs>
    <g id="3.0.0---Front-End" stroke="none" stroke-width="1" fill="none" fill-rule="evenodd">
        <g id="Artboard" transform="translate(-476.000000, -573.000000)">
            <g id="Markers" transform="translate(376.000000, 533.000000)">
                <g id="Red" transform="translate(100.000000, 40.000000)">
                    <g id="Shelter---Red">
                        <g id="Marker---Red">
                            <path d="M26.3636364,37.7142857 C26.3636364,38.9771023 21.2080677,40 14.8490178,40 C8.48890198,40 3.33333333,38.9771023 3.33333333,37.7142857 C3.33333333,36.4514691 8.48890198,35.4285714 14.8490178,35.4285714 C21.2080677,35.4285714 26.3636364,36.4514691 26.3636364,37.7142857" id="Shadow" fill-opacity="0.2" fill="#2B3841" fill-rule="evenodd" filter="url(#filter-1)"></path>
                            <path d="M15.0804718,36.8961678 L24.8853166,25.6455514 C27.5024376,22.9559692 29,19.3164147 29,15.4285714 C29,7.45368523 22.7255838,1 15,1 C7.27441619,1 1,7.45368523 1,15.4285714 C1,19.4471695 2.60069541,23.198365 5.37499141,25.9062641 L5.42617433,25.9600756 L15.0804718,36.8961678 Z" id="Combined-Shape" stroke-opacity="0.64" stroke="#661414" stroke-width="2" fill="#F8382B" fill-rule="nonzero"></path>
                        </g>
                        <path d="M7.45187528,14.6249435 C7.46513029,14.3309233 7.62298539,14.0730532 7.88447055,13.9392981 C9.44012653,13.1415876 14.8686549,10.2676608 14.8686549,9 L15.2687152,9 C15.2687152,10.2652508 20.5875885,13.1319476 22.1263745,13.9344781 C22.3878596,14.0718482 22.5457147,14.3309233 22.5589697,14.6261485 L23,24.5927097 L17.1304413,24.5927097 C15.4097003,24.5927097 14.1058894,19.8811568 13.479289,17.7760205 C13.0298238,16.2613345 12.9045037,15.0587438 12.8695587,14.4960084 L12.8695587,24.1781895 C12.8695587,24.4071396 12.6839886,24.5927097 12.4550384,24.5927097 L7,24.5927097 L7.45187528,14.6249435 Z" id="Shelter" fill="#661414"></path>
                    </g>
                </g>
            </g>
        </g>
    </g>
</svg>