<?xml version="1.0" encoding="UTF-8"?>
<svg width="30px" height="40px" viewBox="0 0 30 40" version="1.1" xmlns="http://www.w3.org/2000/svg" xmlns:xlink="http://www.w3.org/1999/xlink">
    <!-- Generator: Sketch 52.4 (67378) - http://www.bohemiancoding.com/sketch -->
    <title>Water - Red</title>
    <desc>Created with Sketch.</desc>
    <defs>
        <filter x="0.0%" y="0.0%" width="100.0%" height="100.0%" filterUnits="objectBoundingBox" id="filter-1">
            <feGaussianBlur stdDeviation="0" in="SourceGraphic"></feGaussianBlur>
        </filter>
    </defs>
    <g id="3.0.0---Front-End" stroke="none" stroke-width="1" fill="none" fill-rule="evenodd">
        <g id="Artboard" transform="translate(-476.000000, -717.000000)">
            <g id="Markers" transform="translate(376.000000, 533.000000)">
                <g id="Red" transform="translate(100.000000, 40.000000)">
                    <g id="Water---Red" transform="translate(0.000000, 144.000000)">
                        <g id="Marker---Red">
                            <path d="M26.3636364,37.7142857 C26.3636364,38.9771023 21.2080677,40 14.8490178,40 C8.48890198,40 3.33333333,38.9771023 3.33333333,37.7142857 C3.33333333,36.4514691 8.48890198,35.4285714 14.8490178,35.4285714 C21.2080677,35.4285714 26.3636364,36.4514691 26.3636364,37.7142857" id="Shadow" fill-opacity="0.2" fill="#2B3841" fill-rule="evenodd" filter="url(#filter-1)"></path>
                            <path d="M15.0804718,36.8961678 L24.8853166,25.6455514 C27.5024376,22.9559692 29,19.3164147 29,15.4285714 C29,7.45368523 22.7255838,1 15,1 C7.27441619,1 1,7.45368523 1,15.4285714 C1,19.4471695 2.60069541,23.198365 5.37499141,25.9062641 L5.42617433,25.9600756 L15.0804718,36.8961678 Z" id="Combined-Shape" stroke-opacity="0.64" stroke="#661414" stroke-width="2" fill="#F8382B" fill-rule="nonzero"></path>
                        </g>
                        <path d="M15.1813207,25 C12.3192266,25 10,22.8843488 10,19.8186793 C10,15.5249909 15.1813207,10 15.1813207,10 C15.1813207,10 20.3626414,15.5249909 20.3626414,19.8186793 C20.3626414,23.0255381 18.0434148,25 15.1813207,25" id="Water" fill="#661414"></path>
                    </g>
                </g>
            </g>
        </g>
    </g>
</svg>